<svg width="3988" height="1999" viewBox="0 0 3988 1999" fill="none" xmlns="http://www.w3.org/2000/svg">
<path d="M3680.71 1182.2H3629.5L3546.67 461.6H3597.88L3680.71 1182.2Z" fill="#FF6E00"/>
<path d="M3603.79 512.953L3558.47 564.133L3555.56 538.833L3600.89 487.653L3603.79 512.953Z" fill="white"/>
<path d="M3611.12 576.683L3565.79 627.863L3562.88 602.563L3608.21 551.383L3611.12 576.683Z" fill="white"/>
<path d="M3618.44 640.413L3573.12 691.594L3570.21 666.293L3615.54 615.113L3618.44 640.413Z" fill="white"/>
<path d="M3625.77 704.143L3580.44 755.324L3577.53 730.024L3622.86 678.844L3625.77 704.143Z" fill="white"/>
<path d="M3633.09 767.873L3587.77 819.043L3584.86 793.753L3630.19 742.574L3633.09 767.873Z" fill="white"/>
<path d="M3640.42 831.603L3595.09 882.774L3592.18 857.483L3637.51 806.304L3640.42 831.603Z" fill="white"/>
<path d="M3647.75 895.333L3602.42 946.503L3599.51 921.213L3644.84 870.034L3647.75 895.333Z" fill="white"/>
<path d="M3655.07 959.054L3609.74 1010.23L3606.84 984.943L3652.16 933.764L3655.07 959.054Z" fill="white"/>
<path d="M3662.4 1022.78L3617.07 1073.96L3614.16 1048.66L3659.49 997.493L3662.4 1022.78Z" fill="white"/>
<path d="M3669.72 1086.51L3624.39 1137.69L3621.49 1112.39L3666.81 1061.22L3669.72 1086.51Z" fill="white"/>
<path d="M3936.76 1182.2L3852.14 1924.2C3847.43 1965.17 3812.75 1996.09 3771.51 1996.09H3495.25C3454.01 1996.09 3419.33 1965.17 3414.62 1924.2L3329.5 1182.2H3936.76Z" fill="#A9D8D5"/>
<path d="M3677.05 1150.24L3648.74 1182.2H3629.51L3628.81 1176.12L3674.14 1124.95L3677.05 1150.24Z" fill="white"/>
<path d="M3951.2 1062.42L3852.14 1924.2C3847.43 1965.17 3812.75 1996.09 3771.51 1996.09H3495.24C3454 1996.09 3419.32 1965.17 3414.61 1924.2L3315.56 1062.42H3951.2Z" stroke="#A9D8D5" stroke-width="5" stroke-miterlimit="10"/>
<path d="M3561.2 1511.7L3824.96 1322.47C3858.78 1396.25 3839.45 1483.82 3774.43 1530.47C3709.42 1577.11 3620.25 1567.38 3561.2 1511.7Z" fill="#F1B104"/>
<path d="M3729.25 1529.94L3705.77 1434.39L3788.67 1487.16C3781.11 1496.73 3772.12 1505.4 3761.77 1512.82C3751.54 1520.16 3740.6 1525.85 3729.25 1529.94Z" fill="#FF6E00"/>
<path d="M3715.93 1420.97L3818.26 1398.26C3818.58 1424.11 3812.15 1449.48 3799.33 1471.48L3715.93 1420.97Z" fill="#FF6E00"/>
<path d="M3635.39 1529.72L3689.98 1439.59L3711.17 1535.04C3686.12 1540.27 3659.9 1538.31 3635.39 1529.72Z" fill="#FF6E00"/>
<path d="M3613.31 1519.9C3602.05 1513.77 3591.41 1506.09 3581.72 1496.97L3672.93 1431.53L3613.31 1519.9Z" fill="#FF6E00"/>
<path d="M3712.27 1403.31L3804.42 1337.19C3810.03 1349.41 3813.91 1362.08 3816.09 1374.85L3712.27 1403.31Z" fill="#FF6E00"/>
<path d="M3935.83 1013.17H3330.93C3303.72 1013.17 3281.67 1035.22 3281.67 1062.42H3985.08C3985.08 1035.22 3963.03 1013.17 3935.83 1013.17Z" stroke="#573240" stroke-width="5" stroke-miterlimit="10" stroke-linecap="round"/>
<path d="M3937.25 1013.17C3907.96 888.318 3796.58 800.05 3668.34 800.05H3598.41C3470.17 800.05 3358.8 888.318 3329.5 1013.17H3937.25V1013.17Z" stroke="#573240" stroke-width="5" stroke-miterlimit="10" stroke-linecap="round"/>
<path d="M3724.56 1943.98H3619.19C3606.03 1943.98 3595.35 1933.31 3595.35 1920.14V1814.77C3595.35 1801.61 3606.03 1790.93 3619.19 1790.93H3724.56C3737.73 1790.93 3748.41 1801.61 3748.41 1814.77V1920.14C3748.41 1933.31 3737.73 1943.98 3724.56 1943.98Z" fill="#E0F1F0"/>
<path d="M3809.04 1754.31H3726.12C3712.95 1754.31 3702.28 1743.63 3702.28 1730.47V1647.55C3702.28 1634.38 3712.95 1623.71 3726.12 1623.71H3809.04C3822.2 1623.71 3832.88 1634.38 3832.88 1647.55V1730.47C3832.87 1743.63 3822.2 1754.31 3809.04 1754.31Z" fill="#E0F1F0"/>
<path d="M3527.45 1818.05H3444.53C3431.37 1818.05 3420.69 1807.37 3420.69 1794.21V1711.29C3420.69 1698.12 3431.37 1687.45 3444.53 1687.45H3527.45C3540.62 1687.45 3551.29 1698.12 3551.29 1711.29V1794.21C3551.29 1807.37 3540.62 1818.05 3527.45 1818.05Z" fill="#E0F1F0"/>
<path d="M3583.37 1432.44C3591.17 1432.44 3597.5 1426.11 3597.5 1418.3C3597.5 1410.5 3591.17 1404.17 3583.37 1404.17C3575.56 1404.17 3569.24 1410.5 3569.24 1418.3C3569.24 1426.11 3575.56 1432.44 3583.37 1432.44Z" stroke="white" stroke-width="5" stroke-miterlimit="10"/>
<path d="M3509.03 1639.22C3516.83 1639.22 3523.16 1632.89 3523.16 1625.09C3523.16 1617.28 3516.83 1610.96 3509.03 1610.96C3501.22 1610.96 3494.9 1617.28 3494.9 1625.09C3494.9 1632.89 3501.22 1639.22 3509.03 1639.22Z" stroke="white" stroke-width="5" stroke-miterlimit="10"/>
<path d="M3474.9 1316.11C3485.94 1316.11 3494.9 1307.16 3494.9 1296.11C3494.9 1285.06 3485.94 1276.11 3474.9 1276.11C3463.85 1276.11 3454.9 1285.06 3454.9 1296.11C3454.9 1307.16 3463.85 1316.11 3474.9 1316.11Z" stroke="white" stroke-width="5" stroke-miterlimit="10"/>
<path d="M3815.09 1522.16C3826.14 1522.16 3835.09 1513.21 3835.09 1502.16C3835.09 1491.12 3826.14 1482.16 3815.09 1482.16C3804.05 1482.16 3795.09 1491.12 3795.09 1502.16C3795.09 1513.21 3804.05 1522.16 3815.09 1522.16Z" stroke="white" stroke-width="5" stroke-miterlimit="10"/>
<path d="M3652.7 1648.09C3659.05 1648.09 3664.2 1642.94 3664.2 1636.59C3664.2 1630.24 3659.05 1625.09 3652.7 1625.09C3646.35 1625.09 3641.2 1630.24 3641.2 1636.59C3641.2 1642.94 3646.35 1648.09 3652.7 1648.09Z" stroke="white" stroke-width="5" stroke-miterlimit="10"/>
<path d="M3842.85 1549.92C3846.99 1549.92 3850.35 1546.56 3850.35 1542.42C3850.35 1538.28 3846.99 1534.92 3842.85 1534.92C3838.71 1534.92 3835.35 1538.28 3835.35 1542.42C3835.35 1546.56 3838.71 1549.92 3842.85 1549.92Z" stroke="white" stroke-width="5" stroke-miterlimit="10"/>
<path d="M3765.54 1303.2C3772.45 1303.2 3778.04 1297.6 3778.04 1290.7C3778.04 1283.79 3772.45 1278.2 3765.54 1278.2C3758.64 1278.2 3753.04 1283.79 3753.04 1290.7C3753.04 1297.6 3758.64 1303.2 3765.54 1303.2Z" stroke="white" stroke-width="5" stroke-miterlimit="10"/>
<path d="M3437.11 1345.24C3441.25 1345.24 3444.61 1341.88 3444.61 1337.74C3444.61 1333.6 3441.25 1330.24 3437.11 1330.24C3432.96 1330.24 3429.61 1333.6 3429.61 1337.74C3429.61 1341.88 3432.96 1345.24 3437.11 1345.24Z" stroke="white" stroke-width="5" stroke-miterlimit="10"/>
<path d="M3444.61 1578.9C3448.75 1578.9 3452.11 1575.54 3452.11 1571.4C3452.11 1567.25 3448.75 1563.9 3444.61 1563.9C3440.46 1563.9 3437.11 1567.25 3437.11 1571.4C3437.11 1575.54 3440.46 1578.9 3444.61 1578.9Z" stroke="white" stroke-width="5" stroke-miterlimit="10"/>
<path d="M2484.8 80.1829V256.153H2407.72V77.7139H2030.8V256.153H1953.72V80.1829L2033.89 0.00390625H2404.62L2484.8 80.1829Z" fill="#573240"/>
<path d="M2453.8 256.16V80.18L2373.62 0H2002.89L1922.72 80.18V256.16H1614.34L1414.34 1996.1H2759.04V256.16H2453.8ZM2376.72 256.16H1999.8V77.71H2376.72V256.16Z" fill="#F1B104"/>
<path d="M3000.04 1996.09H2759.04V256.153H2800.04L3000.04 1996.09Z" fill="#573240"/>
<path d="M2410.1 831.78C2410.1 962.98 2329.08 1074.27 2216.8 1113.3V899.98C2216.8 880.6 2226.38 862.42 2242.51 850.17C2259.46 837.3 2270.68 814.86 2270.68 789.33C2270.68 749.37 2243.2 717.01 2209.31 717.01C2175.42 717.01 2147.94 749.37 2147.94 789.33C2147.94 814.86 2159.16 837.3 2176.11 850.17C2192.24 862.42 2201.82 880.6 2201.82 899.98V1118.03C2178.38 1124.68 2153.74 1128.22 2128.31 1128.22C2103.06 1128.22 2078.59 1124.73 2055.3 1118.17V928.31C2055.3 908.93 2064.88 890.75 2081.01 878.5C2090.43 871.35 2098.09 861.22 2103.03 849.26C2106.97 839.72 2109.18 829 2109.18 817.67V724.5C2109.18 720.36 2105.83 717.01 2101.69 717.01H2101.68C2097.55 717.01 2094.19 720.36 2094.19 724.5V825.51C2094.19 830.88 2092.02 835.74 2088.5 839.26C2084.98 842.78 2080.12 844.96 2074.75 844.96C2064.01 844.96 2055.3 836.25 2055.3 825.51V724.5C2055.3 722.43 2054.46 720.56 2053.11 719.2C2051.75 717.85 2049.88 717.01 2047.81 717.01C2043.67 717.01 2040.32 720.36 2040.32 724.5V825.51C2040.32 836.25 2031.62 844.96 2020.88 844.96H2020.87C2010.13 844.96 2001.42 836.25 2001.42 825.51V724.5C2001.42 722.43 2000.58 720.56 1999.23 719.2C1997.87 717.85 1996 717.01 1993.93 717.01C1989.79 717.01 1986.44 720.36 1986.44 724.5V817.67C1986.44 829 1988.65 839.72 1992.59 849.26C1997.53 861.22 2005.18 871.35 2014.6 878.5C2030.74 890.75 2040.32 908.93 2040.32 928.31V1113.48C1927.78 1074.6 1846.52 963.17 1846.52 831.78C1846.52 668.06 1972.68 535.33 2128.31 535.33C2283.94 535.33 2410.1 668.06 2410.1 831.78Z" fill="white"/>
<path d="M1922.72 79.1831H2453.8" stroke="#573240" stroke-width="5" stroke-miterlimit="10" stroke-linecap="round"/>
<path d="M3127.57 1693.82L3018.99 1475.74C2993.61 1424.77 2941.58 1392.55 2884.64 1392.55H2178.95C2122.01 1392.55 2069.98 1424.77 2044.6 1475.74L1936.02 1693.82H3127.57Z" fill="#F1B104" stroke="#573240" stroke-width="5" stroke-miterlimit="10" stroke-linecap="round"/>
<path d="M2920.45 1762.31C2864.22 1822.34 2791.54 1845.63 2738.41 1795.86C2685.28 1746.08 2703.78 1672.04 2760.02 1612.01C2816.26 1551.99 2907.56 1526.5 2951.87 1568.01C2996.17 1609.51 2976.69 1702.29 2920.45 1762.31Z" fill="white"/>
<path d="M2891.95 1714.88C2899.26 1677.55 2874.92 1641.36 2837.59 1634.05C2800.26 1626.74 2764.07 1651.07 2756.76 1688.4C2749.45 1725.73 2773.78 1761.93 2811.11 1769.24C2848.44 1776.55 2884.64 1752.21 2891.95 1714.88Z" fill="#F1B104"/>
<path d="M3549.09 1643.21C3569.07 1706.8 3556.57 1767.36 3500.3 1785.04C3444.02 1802.72 3399.13 1760.19 3379.16 1696.61C3359.18 1633.02 3377.54 1558.44 3424.47 1543.7C3471.39 1528.95 3529.11 1579.63 3549.09 1643.21Z" fill="white"/>
<path d="M3507.52 1726.15C3529.32 1704.35 3529.32 1669.02 3507.52 1647.22C3485.73 1625.42 3450.39 1625.42 3428.59 1647.22C3406.8 1669.02 3406.8 1704.35 3428.59 1726.15C3450.39 1747.94 3485.73 1747.94 3507.52 1726.15Z" fill="#F1B104"/>
<path d="M2466.81 1771.53L2223.76 1637.54C2264.45 1591.22 2336.29 1579.14 2396.2 1612.17C2456.11 1645.2 2484.26 1712.4 2466.81 1771.53Z" fill="#FF6E00"/>
<path d="M2376.3 1671.53C2372.06 1679.22 2352.96 1690.62 2352.96 1690.62C2352.96 1690.62 2352.4 1668.38 2356.64 1660.69C2360.88 1653 2368.72 1649.19 2374.14 1652.19C2379.57 1655.18 2380.54 1663.84 2376.3 1671.53Z" stroke="#573240" stroke-width="4" stroke-miterlimit="10" stroke-linecap="round" stroke-linejoin="round"/>
<path d="M2400.98 1710.74C2392.27 1711.85 2371.8 1703.14 2371.8 1703.14C2371.8 1703.14 2389.42 1689.58 2398.14 1688.47C2406.85 1687.36 2414.55 1691.44 2415.33 1697.59C2416.12 1703.74 2409.69 1709.63 2400.98 1710.74Z" stroke="#573240" stroke-width="4" stroke-miterlimit="10" stroke-linecap="round" stroke-linejoin="round"/>
<path d="M2310.31 1660.75C2314.02 1668.71 2332.31 1681.37 2332.31 1681.37C2332.31 1681.37 2334.37 1659.23 2330.66 1651.27C2326.95 1643.31 2319.38 1638.98 2313.77 1641.6C2308.15 1644.22 2306.6 1652.79 2310.31 1660.75Z" stroke="#573240" stroke-width="4" stroke-miterlimit="10" stroke-linecap="round" stroke-linejoin="round"/>
<path d="M3130.07 1725.17L3331.54 1552.91C3358.95 1605.52 3345.37 1674.31 3295.71 1716.78C3246.04 1759.24 3176.75 1761.31 3130.07 1725.17Z" fill="#FF6E00"/>
<path d="M3249.65 1678.34C3244.25 1671.87 3240.58 1650.75 3240.58 1650.75C3240.58 1650.75 3260.55 1657.94 3265.95 1664.41C3271.35 1670.88 3272.08 1679.25 3267.58 1683.1C3263.08 1686.95 3255.06 1684.82 3249.65 1678.34Z" stroke="#573240" stroke-width="4" stroke-miterlimit="10" stroke-linecap="round" stroke-linejoin="round"/>
<path d="M3206.43 1686.99C3208.39 1678.77 3223.07 1663.37 3223.07 1663.37C3223.07 1663.37 3229.16 1683.91 3227.2 1692.13C3225.23 1700.35 3219 1705.86 3213.26 1704.44C3207.53 1703.02 3204.47 1695.21 3206.43 1686.99Z" stroke="#573240" stroke-width="4" stroke-miterlimit="10" stroke-linecap="round" stroke-linejoin="round"/>
<path d="M3281.59 1622.73C3273.25 1623.31 3255.8 1635.38 3255.8 1635.38C3255.8 1635.38 3274.8 1644.89 3283.13 1644.31C3291.47 1643.72 3297.88 1638.42 3297.45 1632.46C3297.03 1626.5 3289.92 1622.14 3281.59 1622.73Z" stroke="#573240" stroke-width="4" stroke-miterlimit="10" stroke-linecap="round" stroke-linejoin="round"/>
<path d="M2778.73 1728.94C2778.73 1728.94 2701.42 1693.5 2704.94 1588.6C2708.47 1483.7 2802.2 1450.2 2819.72 1483.01C2831.23 1504.56 2817.73 1531.36 2780.19 1545.23C2737.68 1560.93 2712.4 1574.04 2718.54 1624.04C2724.09 1669.22 2745.01 1703.37 2778.73 1728.94Z" fill="#A9D8D5"/>
<path d="M2778.73 1728.94C2778.73 1728.94 2689.7 1668.78 2722.74 1570.74C2750.25 1489.15 2804.89 1496.31 2804.89 1496.31" stroke="#573240" stroke-width="4" stroke-miterlimit="10" stroke-linecap="round" stroke-linejoin="round"/>
<path d="M2736.91 1539.53C2742.64 1531.43 2747.76 1517.95 2745.06 1502.02" stroke="#573240" stroke-width="4" stroke-miterlimit="10" stroke-linecap="round" stroke-linejoin="round"/>
<path d="M2598.71 1761.94C2643.96 1761.94 2680.64 1725.26 2680.64 1680.01C2680.64 1634.76 2643.96 1598.08 2598.71 1598.08C2553.46 1598.08 2516.78 1634.76 2516.78 1680.01C2516.78 1725.26 2553.46 1761.94 2598.71 1761.94Z" fill="#A9D8D5"/>
<path d="M2610.98 1648.57C2610.18 1654.64 2600.69 1666.88 2600.69 1666.88C2600.69 1666.88 2594.68 1652.61 2595.47 1646.54C2596.27 1640.48 2600.38 1636.02 2604.66 1636.58C2608.94 1637.14 2611.77 1642.51 2610.98 1648.57Z" stroke="#573240" stroke-width="4" stroke-miterlimit="10" stroke-linecap="round" stroke-linejoin="round"/>
<path d="M2586.82 1712.53C2587.62 1706.47 2597.11 1694.23 2597.11 1694.23C2597.11 1694.23 2603.12 1708.5 2602.33 1714.56C2601.53 1720.63 2597.42 1725.09 2593.14 1724.53C2588.86 1723.97 2586.03 1718.6 2586.82 1712.53Z" stroke="#573240" stroke-width="4" stroke-miterlimit="10" stroke-linecap="round" stroke-linejoin="round"/>
<path d="M2566.92 1668.48C2572.99 1669.27 2585.23 1678.76 2585.23 1678.76C2585.23 1678.76 2570.96 1684.78 2564.89 1683.98C2558.83 1683.19 2554.36 1679.07 2554.93 1674.79C2555.49 1670.51 2560.86 1667.68 2566.92 1668.48Z" stroke="#573240" stroke-width="4" stroke-miterlimit="10" stroke-linecap="round" stroke-linejoin="round"/>
<path d="M2630.88 1692.63C2624.82 1691.83 2612.57 1682.34 2612.57 1682.34C2612.57 1682.34 2626.85 1676.33 2632.91 1677.13C2638.98 1677.92 2643.44 1682.04 2642.88 1686.32C2642.31 1690.6 2636.94 1693.42 2630.88 1692.63Z" stroke="#573240" stroke-width="4" stroke-miterlimit="10" stroke-linecap="round" stroke-linejoin="round"/>
<path d="M2048.41 1747.68C2075.29 1747.68 2097.08 1725.89 2097.08 1699.01C2097.08 1672.13 2075.29 1650.34 2048.41 1650.34C2021.53 1650.34 1999.74 1672.13 1999.74 1699.01C1999.74 1725.89 2021.53 1747.68 2048.41 1747.68Z" fill="white"/>
<path d="M2225.49 1693.97C2205.52 1693.3 2183.32 1687.39 2158.45 1678.71C2059.32 1644.07 2059.93 1554.11 2091.61 1546.52C2116.41 1540.57 2135.05 1564.07 2137.09 1604.05C2139.43 1649.33 2147.74 1681.37 2197.32 1690.41C2206.75 1692.13 2216.18 1693.35 2225.49 1693.97Z" fill="#A9D8D5"/>
<path d="M2239.49 1694.18C2211.33 1695.73 2178.87 1690.01 2147.1 1667.71C2094.88 1631.06 2097.03 1563.76 2097.03 1563.76" stroke="#573240" stroke-width="4" stroke-miterlimit="10" stroke-linecap="round" stroke-linejoin="round"/>
<path d="M2232.65 1692.95C2236.32 1693.55 2176.92 1688.13 2160.69 1636.4C2148.61 1597.9 2178.52 1588.98 2190.52 1601.09C2203.89 1614.6 2193.48 1651.63 2210.45 1676.19C2215.38 1683.32 2214.7 1690 2232.65 1692.95Z" fill="#A9D8D5"/>
<path d="M2179.66 1612.49C2179.66 1612.49 2170.93 1677.85 2239.49 1694.17" stroke="#573240" stroke-width="4" stroke-miterlimit="10" stroke-linecap="round" stroke-linejoin="round"/>
<path d="M3079.08 1695.47C3074.74 1696.36 3070.92 1696.16 3067.5 1695.15C3099.59 1680.64 3110.34 1649.13 3117.99 1607.99C3126.97 1559.69 3154.25 1534 3184.6 1545.05C3223.39 1559.16 3209.77 1668.63 3079.08 1695.47Z" fill="#A9D8D5"/>
<path d="M2959.75 1709.96C2995.46 1713.44 3058.56 1708.25 3100.24 1682.73C3168.74 1640.78 3168.84 1565.52 3168.84 1565.52" stroke="#573240" stroke-width="4" stroke-miterlimit="10" stroke-linecap="round" stroke-linejoin="round"/>
<path d="M2968.51 1708.84C2963.81 1709.38 3039.63 1706.07 3063.27 1643.63C3080.85 1597.17 3043.35 1584.58 3027.41 1598.74C3009.62 1614.53 3020.7 1660.45 2997.7 1689.57C2991.03 1698.02 2991.5 1706.24 2968.51 1708.84Z" fill="#A9D8D5"/>
<path d="M3040.54 1613.3C3040.54 1613.3 3047.85 1693.81 2959.75 1709.96" stroke="#573240" stroke-width="4" stroke-miterlimit="10" stroke-linecap="round" stroke-linejoin="round"/>
<path d="M3608.57 1693.82L3499.99 1475.74C3474.61 1424.77 3422.58 1392.55 3365.64 1392.55H2884.64C2941.58 1392.55 2993.61 1424.77 3018.99 1475.74L3127.57 1693.82H3608.57Z" stroke="#573240" stroke-width="5" stroke-miterlimit="10" stroke-linecap="round"/>
<path d="M3127.57 1693.82L3018.99 1475.74C2993.61 1424.77 2941.58 1392.55 2884.64 1392.55H2178.95C2122.01 1392.55 2069.98 1424.77 2044.6 1475.74L1936.02 1693.82H3127.57Z" stroke="#573240" stroke-width="5" stroke-miterlimit="10" stroke-linecap="round"/>
<path d="M2666.18 1392.55H2320.35V1558.49H2666.18V1392.55Z" fill="#573240"/>
<path d="M3127.57 1694.82L3018.99 1912.91C2993.61 1963.87 2941.58 1996.09 2884.65 1996.09H2178.95C2122.01 1996.09 2069.98 1963.87 2044.6 1912.91L1936.02 1694.82H3127.57Z" fill="white"/>
<path d="M3608.57 1693.82L3499.99 1911.9C3474.61 1962.87 3422.58 1995.09 3365.64 1995.09H2884.64C2941.58 1995.09 2993.61 1962.87 3018.99 1911.9L3127.57 1693.82H3608.57Z" fill="white"/>
<path d="M3608.57 1693.82L3499.99 1911.9C3474.61 1962.87 3422.58 1995.09 3365.64 1995.09H2178.95C2122.01 1995.09 2069.98 1962.87 2044.6 1911.9L1936.02 1693.82H3608.57Z" fill="white"/>
<path d="M3499.99 1911.9C3474.61 1962.87 3422.58 1995.09 3365.64 1995.09H2884.64C2941.58 1995.09 2993.61 1962.87 3018.99 1911.9L3127.57 1693.82" stroke="#573240" stroke-width="5" stroke-miterlimit="10" stroke-linecap="round"/>
<path d="M3127.57 1693.82L3018.99 1911.9C2993.61 1962.87 2941.58 1995.09 2884.64 1995.09H2148.95" stroke="#573240" stroke-width="5" stroke-miterlimit="10" stroke-linecap="round"/>
<path d="M1901.66 1694.82H3642.93" stroke="#573240" stroke-width="5" stroke-miterlimit="10" stroke-linecap="round"/>
<path d="M2523.83 1499.98H2494.07V1470.22C2494.07 1439.32 2519.11 1414.28 2550.01 1414.28H2579.77V1444.04C2579.77 1474.93 2554.73 1499.98 2523.83 1499.98Z" stroke="#A9D8D5" stroke-width="4" stroke-miterlimit="10"/>
<path d="M2579.77 1414.28L2474.38 1519.67" stroke="#A9D8D5" stroke-width="4" stroke-miterlimit="10"/>
<path d="M2547.84 1415.28V1446.21H2578.77" stroke="#A9D8D5" stroke-width="4" stroke-miterlimit="10"/>
<path d="M2518.51 1424.47V1475.54H2569.57" stroke="#A9D8D5" stroke-width="4" stroke-miterlimit="10"/>
<path d="M2468.9 1502.13H2476.71V1494.32C2476.71 1463.43 2451.66 1438.38 2420.77 1438.38H2412.96V1446.19C2412.96 1477.09 2438 1502.13 2468.9 1502.13Z" stroke="#A9D8D5" stroke-width="4" stroke-miterlimit="10"/>
<path d="M2412.96 1438.38L2484.31 1509.74" stroke="#A9D8D5" stroke-width="4" stroke-miterlimit="10"/>
<path d="M2453.53 1448.97V1478.95H2423.54" stroke="#A9D8D5" stroke-width="4" stroke-miterlimit="10"/>
<path d="M3251.67 1167.46L3174.86 1321.71C3154.05 1363.52 3111.38 1389.94 3064.68 1389.94H2861.08C2907.78 1389.94 2950.46 1363.52 2971.27 1321.71L3048.07 1167.46H3251.67V1167.46Z" fill="#573240"/>
<path d="M3048.07 1167.46L3039.91 1183.86L2971.27 1321.71C2950.46 1363.52 2907.78 1389.94 2861.08 1389.94H2569.36C2522.66 1389.94 2479.99 1363.52 2459.17 1321.71L2390.54 1183.86L2382.37 1167.46H3048.07V1167.46Z" fill="#FF6E00"/>
<path d="M3048.07 1167.46L3036.07 1191.82H2394.71L2382.37 1167.46H3048.07Z" fill="#573240"/>
<path d="M3280.44 1167.46L3188.13 982.056C3166.56 938.724 3122.32 911.332 3073.91 911.332H2862.51C2910.92 911.332 2955.15 938.724 2976.73 982.056L3069.04 1167.46H3280.44Z" fill="#FCD4D0"/>
<path d="M3069.04 1167.46L2976.73 982.056C2955.15 938.724 2910.92 911.332 2862.51 911.332H2560.12C2511.72 911.332 2467.48 938.724 2445.91 982.056L2353.6 1167.46H3069.04Z" fill="white"/>
<path d="M1483.05 979.254L1415 1571.39H487.996L557.816 963.914H1469.38C1477.6 963.913 1483.99 971.081 1483.05 979.254Z" fill="#F6ACC1"/>
<path d="M1343.12 963.913C1332.12 963.913 1322.87 972.161 1321.61 983.087L1314.58 1044.28C1309.09 1092.03 1268.67 1128.07 1220.6 1128.07H484.037C427.514 1128.07 383.606 1078.83 390.061 1022.68L395.129 978.589C396.09 970.226 403.171 963.913 411.589 963.913H1343.12Z" fill="#FCD4D0"/>
<path d="M1056.18 1981.87C1215.6 1981.87 1344.83 1850.09 1344.83 1687.52C1344.83 1524.96 1215.6 1393.17 1056.18 1393.17C896.759 1393.17 767.525 1524.96 767.525 1687.52C767.525 1850.09 896.759 1981.87 1056.18 1981.87Z" fill="#573240"/>
<path d="M1005.18 1393.17C845.76 1393.17 716.52 1524.96 716.52 1687.52C716.52 1850.09 845.76 1981.87 1005.18 1981.87C1164.6 1981.87 1293.83 1850.09 1293.83 1687.52C1293.83 1524.96 1164.6 1393.17 1005.18 1393.17ZM1005.18 1788.81C951.51 1788.81 908.01 1744.44 908.01 1689.72C908.01 1635 951.51 1590.63 1005.18 1590.63C1058.84 1590.63 1102.35 1635 1102.35 1689.72C1102.35 1744.44 1058.84 1788.81 1005.18 1788.81Z" fill="#A9D8D5"/>
<path d="M1047.8 1445.16H1023.16C1020.41 1445.16 1018.18 1442.94 1018.18 1440.19V1439.85C1018.18 1437.1 1020.41 1434.87 1023.16 1434.87H1047.8C1050.55 1434.87 1052.78 1437.1 1052.78 1439.85V1440.19C1052.78 1442.93 1050.55 1445.16 1047.8 1445.16Z" fill="white"/>
<path d="M1087.51 1550.47H1062.87C1060.12 1550.47 1057.9 1548.25 1057.9 1545.5V1545.16C1057.9 1542.41 1060.12 1540.18 1062.87 1540.18H1087.51C1090.26 1540.18 1092.49 1542.41 1092.49 1545.16V1545.5C1092.49 1548.25 1090.26 1550.47 1087.51 1550.47Z" fill="#573240"/>
<path d="M881.914 1487.68L861.08 1500.83C858.756 1502.3 855.682 1501.6 854.215 1499.28L854.033 1498.99C852.565 1496.67 853.26 1493.59 855.584 1492.13L876.418 1478.97C878.742 1477.5 881.816 1478.2 883.283 1480.52L883.465 1480.81C884.933 1483.13 884.238 1486.21 881.914 1487.68Z" fill="white"/>
<path d="M1202.81 1537.81L1189.36 1558.46C1187.86 1560.76 1184.78 1561.41 1182.48 1559.91L1182.19 1559.73C1179.89 1558.23 1179.24 1555.15 1180.74 1552.84L1194.18 1532.19C1195.68 1529.89 1198.76 1529.24 1201.07 1530.74L1201.35 1530.93C1203.66 1532.42 1204.31 1535.51 1202.81 1537.81Z" fill="white"/>
<path d="M996.787 1534.86L975.953 1548.02C973.629 1549.49 970.555 1548.79 969.088 1546.47L968.906 1546.18C967.438 1543.86 968.133 1540.78 970.457 1539.32L991.291 1526.16C993.615 1524.69 996.689 1525.39 998.156 1527.71L998.338 1528C999.805 1530.32 999.111 1533.4 996.787 1534.86Z" fill="white"/>
<path d="M944.254 1466.48L929.89 1446.46C928.288 1444.23 928.799 1441.12 931.033 1439.52L931.31 1439.32C933.543 1437.72 936.653 1438.23 938.255 1440.46L952.619 1460.48C954.221 1462.71 953.71 1465.82 951.476 1467.43L951.199 1467.62C948.966 1469.23 945.856 1468.71 944.254 1466.48Z" fill="#573240"/>
<path d="M1143.71 1543.25L1129.35 1523.23C1127.75 1521 1128.26 1517.89 1130.49 1516.28L1130.77 1516.09C1133 1514.48 1136.11 1515 1137.71 1517.23L1152.08 1537.25C1153.68 1539.48 1153.17 1542.59 1150.93 1544.2L1150.66 1544.39C1148.42 1546 1145.31 1545.48 1143.71 1543.25Z" fill="#FF6E00"/>
<path d="M834.176 1551.04L815.018 1535.54C812.881 1533.81 812.55 1530.68 814.278 1528.54L814.492 1528.28C816.221 1526.14 819.354 1525.81 821.491 1527.54L840.649 1543.03C842.786 1544.76 843.118 1547.89 841.389 1550.03L841.175 1550.3C839.447 1552.43 836.314 1552.77 834.176 1551.04Z" fill="#FF6E00"/>
<path d="M1131.4 1480.98L1112.24 1465.49C1110.1 1463.76 1109.77 1460.62 1111.5 1458.49L1111.71 1458.22C1113.44 1456.09 1116.58 1455.75 1118.71 1457.48L1137.87 1472.98C1140.01 1474.71 1140.34 1477.84 1138.61 1479.98L1138.4 1480.24C1136.67 1482.38 1133.54 1482.71 1131.4 1480.98Z" fill="white"/>
<path d="M906.143 1545.05L910.338 1520.77C910.806 1518.06 913.381 1516.25 916.09 1516.71L916.425 1516.77C919.134 1517.24 920.95 1519.81 920.482 1522.52L916.287 1546.8C915.819 1549.51 913.244 1551.33 910.535 1550.86L910.2 1550.8C907.491 1550.33 905.675 1547.76 906.143 1545.05Z" fill="#F1B104"/>
<path d="M876.236 1630.91L880.431 1606.62C880.899 1603.92 883.474 1602.1 886.183 1602.57L886.518 1602.62C889.227 1603.09 891.043 1605.67 890.575 1608.38L886.38 1632.66C885.912 1635.36 883.337 1637.18 880.628 1636.71L880.293 1636.66C877.584 1636.19 875.768 1633.61 876.236 1630.91Z" fill="#F1B104"/>
<path d="M986.925 1486.25L1006.28 1471C1008.44 1469.3 1011.57 1469.67 1013.27 1471.83L1013.48 1472.1C1015.18 1474.26 1014.81 1477.39 1012.65 1479.09L993.297 1494.34C991.138 1496.04 988.009 1495.67 986.307 1493.51L986.096 1493.24C984.395 1491.08 984.766 1487.95 986.925 1486.25Z" fill="#FF6E00"/>
<path d="M1064.25 1497.5L1068.44 1473.22C1068.91 1470.52 1071.49 1468.7 1074.2 1469.17L1074.53 1469.23C1077.24 1469.69 1079.06 1472.27 1078.59 1474.98L1074.39 1499.26C1073.92 1501.97 1071.35 1503.78 1068.64 1503.31L1068.31 1503.26C1065.6 1502.79 1063.78 1500.21 1064.25 1497.5Z" fill="#F1B104"/>
<path d="M1179.34 1844.96L1194 1825.15C1195.63 1822.94 1198.75 1822.48 1200.96 1824.11L1201.23 1824.31C1203.44 1825.95 1203.91 1829.07 1202.27 1831.27L1187.61 1851.08C1185.98 1853.29 1182.86 1853.76 1180.65 1852.12L1180.38 1851.92C1178.17 1850.28 1177.7 1847.17 1179.34 1844.96Z" fill="white"/>
<path d="M1082.53 1807.39L1097.19 1787.59C1098.82 1785.38 1101.94 1784.91 1104.15 1786.55L1104.42 1786.75C1106.63 1788.38 1107.1 1791.5 1105.46 1793.71L1090.8 1813.52C1089.17 1815.73 1086.05 1816.19 1083.84 1814.56L1083.57 1814.35C1081.36 1812.72 1080.89 1809.6 1082.53 1807.39Z" fill="#573240"/>
<path d="M1243.85 1686.33L1245.67 1661.75C1245.87 1659.01 1248.26 1656.95 1251 1657.16L1251.34 1657.18C1254.08 1657.39 1256.14 1659.77 1255.93 1662.51L1254.12 1687.09C1253.91 1689.83 1251.53 1691.89 1248.78 1691.68L1248.45 1691.66C1245.7 1691.45 1243.65 1689.07 1243.85 1686.33Z" fill="white"/>
<path d="M1107.99 1608.96L1109.81 1584.39C1110.01 1581.65 1112.4 1579.59 1115.14 1579.8L1115.48 1579.82C1118.22 1580.02 1120.28 1582.41 1120.08 1585.15L1118.26 1609.72C1118.05 1612.47 1115.67 1614.52 1112.93 1614.32L1112.59 1614.3C1109.85 1614.09 1107.79 1611.71 1107.99 1608.96Z" fill="white"/>
<path d="M1027.1 1930.66L1018.5 1907.57C1017.54 1904.99 1018.85 1902.12 1021.42 1901.17L1021.74 1901.05C1024.32 1900.09 1027.18 1901.4 1028.14 1903.97L1036.74 1927.06C1037.7 1929.64 1036.39 1932.51 1033.82 1933.47L1033.5 1933.58C1030.92 1934.54 1028.06 1933.23 1027.1 1930.66Z" fill="white"/>
<path d="M1137.58 1750.59L1139.4 1726.02C1139.6 1723.28 1141.99 1721.22 1144.73 1721.42L1145.07 1721.45C1147.81 1721.65 1149.87 1724.04 1149.67 1726.78L1147.85 1751.35C1147.64 1754.09 1145.26 1756.15 1142.52 1755.95L1142.18 1755.92C1139.44 1755.72 1137.38 1753.33 1137.58 1750.59Z" fill="white"/>
<path d="M1223.8 1749.04L1248.44 1749.41C1251.19 1749.45 1253.38 1751.71 1253.34 1754.46L1253.34 1754.8C1253.29 1757.55 1251.03 1759.74 1248.29 1759.7L1223.65 1759.34C1220.9 1759.29 1218.71 1757.03 1218.75 1754.29L1218.75 1753.95C1218.79 1751.2 1221.05 1749 1223.8 1749.04Z" fill="#573240"/>
<path d="M985.883 1832.79L1010.52 1833.15C1013.27 1833.19 1015.46 1835.45 1015.42 1838.2L1015.42 1838.54C1015.38 1841.29 1013.12 1843.49 1010.37 1843.45L985.73 1843.08C982.982 1843.04 980.787 1840.78 980.827 1838.03L980.832 1837.69C980.873 1834.94 983.134 1832.75 985.883 1832.79Z" fill="#573240"/>
<path d="M1043.44 1863.7L1068.08 1864.07C1070.82 1864.11 1073.02 1866.37 1072.98 1869.12L1072.97 1869.46C1072.93 1872.21 1070.67 1874.4 1067.92 1874.36L1043.29 1874C1040.54 1873.96 1038.34 1871.69 1038.38 1868.95L1038.39 1868.61C1038.43 1865.86 1040.69 1863.66 1043.44 1863.7Z" fill="#FF6E00"/>
<path d="M1221.32 1610.26L1245.17 1604.08C1247.83 1603.39 1250.54 1604.99 1251.23 1607.65L1251.32 1607.98C1252.01 1610.64 1250.41 1613.35 1247.75 1614.04L1223.9 1620.23C1221.24 1620.92 1218.52 1619.32 1217.83 1616.66L1217.75 1616.33C1217.06 1613.67 1218.65 1610.95 1221.32 1610.26Z" fill="#FF6E00"/>
<path d="M1137.68 1638.49L1161.53 1632.31C1164.2 1631.62 1166.91 1633.21 1167.6 1635.88L1167.69 1636.21C1168.38 1638.87 1166.78 1641.58 1164.12 1642.27L1140.27 1648.45C1137.6 1649.14 1134.89 1647.55 1134.2 1644.88L1134.11 1644.55C1133.42 1641.89 1135.02 1639.18 1137.68 1638.49Z" fill="#FF6E00"/>
<path d="M1100.82 1890.85L1124.67 1884.67C1127.33 1883.98 1130.05 1885.57 1130.74 1888.23L1130.82 1888.56C1131.51 1891.23 1129.91 1893.94 1127.25 1894.63L1103.4 1900.81C1100.74 1901.5 1098.02 1899.9 1097.33 1897.24L1097.25 1896.91C1096.56 1894.25 1098.16 1891.54 1100.82 1890.85Z" fill="white"/>
<path d="M1183.32 1671.67L1200.34 1689.49C1202.24 1691.47 1202.16 1694.62 1200.18 1696.52L1199.93 1696.76C1197.94 1698.66 1194.79 1698.58 1192.89 1696.6L1175.87 1678.78C1173.97 1676.79 1174.04 1673.64 1176.03 1671.74L1176.28 1671.51C1178.27 1669.61 1181.42 1669.68 1183.32 1671.67Z" fill="#F1B104"/>
<path d="M1182.52 1771.58L1183.27 1796.21C1183.35 1798.96 1181.19 1801.25 1178.44 1801.34L1178.1 1801.35C1175.36 1801.43 1173.06 1799.27 1172.98 1796.52L1172.23 1771.89C1172.15 1769.14 1174.31 1766.85 1177.06 1766.77L1177.4 1766.76C1180.14 1766.67 1182.44 1768.83 1182.52 1771.58Z" fill="#FF6E00"/>
<path d="M1127.48 1827.04L1144.5 1844.86C1146.4 1846.84 1146.33 1850 1144.34 1851.89L1144.1 1852.13C1142.11 1854.03 1138.96 1853.96 1137.06 1851.97L1120.04 1834.15C1118.14 1832.16 1118.21 1829.01 1120.2 1827.12L1120.45 1826.88C1122.43 1824.98 1125.58 1825.05 1127.48 1827.04Z" fill="#F1B104"/>
<path d="M785.405 1761.26L796.254 1783.38C797.464 1785.85 796.445 1788.84 793.977 1790.05L793.671 1790.2C791.203 1791.41 788.221 1790.39 787.011 1787.92L776.162 1765.8C774.952 1763.33 775.971 1760.34 778.439 1759.13L778.745 1758.99C781.213 1757.78 784.195 1758.79 785.405 1761.26Z" fill="white"/>
<path d="M863.275 1692.56L874.124 1714.69C875.334 1717.15 874.315 1720.14 871.847 1721.35L871.541 1721.5C869.073 1722.71 866.091 1721.69 864.881 1719.22L854.032 1697.1C852.822 1694.63 853.841 1691.65 856.309 1690.44L856.615 1690.29C859.083 1689.08 862.065 1690.1 863.275 1692.56Z" fill="#573240"/>
<path d="M896.613 1891.48L917.598 1904.4C919.939 1905.84 920.669 1908.9 919.228 1911.25L919.05 1911.54C917.609 1913.88 914.544 1914.61 912.203 1913.17L891.218 1900.25C888.877 1898.81 888.147 1895.75 889.588 1893.4L889.766 1893.11C891.207 1890.77 894.272 1890.04 896.613 1891.48Z" fill="white"/>
<path d="M787.488 1584.91L811.947 1587.89C814.676 1588.23 816.618 1590.71 816.285 1593.44L816.244 1593.77C815.911 1596.5 813.43 1598.45 810.702 1598.11L786.243 1595.13C783.514 1594.8 781.572 1592.32 781.905 1589.59L781.946 1589.25C782.278 1586.52 784.759 1584.58 787.488 1584.91Z" fill="white"/>
<path d="M888.405 1767.57L909.39 1780.48C911.731 1781.92 912.461 1784.99 911.02 1787.33L910.842 1787.62C909.401 1789.96 906.336 1790.69 903.995 1789.25L883.01 1776.33C880.669 1774.89 879.939 1771.83 881.38 1769.49L881.558 1769.2C882.999 1766.86 886.064 1766.13 888.405 1767.57Z" fill="white"/>
<path d="M850.136 1844.84L838.485 1866.55C837.185 1868.98 834.168 1869.89 831.746 1868.59L831.446 1868.43C829.024 1867.13 828.114 1864.11 829.414 1861.69L841.065 1839.98C842.365 1837.55 845.382 1836.64 847.804 1837.94L848.104 1838.1C850.526 1839.4 851.436 1842.42 850.136 1844.84Z" fill="#573240"/>
<path d="M831.243 1631.96L819.592 1653.67C818.292 1656.09 815.275 1657 812.853 1655.7L812.553 1655.54C810.131 1654.24 809.221 1651.22 810.521 1648.8L822.172 1627.09C823.472 1624.67 826.489 1623.76 828.911 1625.06L829.211 1625.22C831.633 1626.52 832.543 1629.54 831.243 1631.96Z" fill="#FF6E00"/>
<path d="M974.521 1906.45L969.044 1930.47C968.433 1933.15 965.765 1934.83 963.085 1934.22L962.753 1934.14C960.073 1933.53 958.396 1930.86 959.007 1928.18L964.484 1904.16C965.095 1901.48 967.763 1899.8 970.443 1900.41L970.775 1900.49C973.455 1901.1 975.132 1903.77 974.521 1906.45Z" fill="#FF6E00"/>
<path d="M773.901 1663.55L768.424 1687.57C767.813 1690.25 765.145 1691.93 762.465 1691.32L762.133 1691.25C759.453 1690.63 757.776 1687.97 758.387 1685.29L763.864 1661.26C764.475 1658.58 767.143 1656.91 769.823 1657.52L770.155 1657.59C772.835 1658.2 774.512 1660.87 773.901 1663.55Z" fill="white"/>
<path d="M937.461 1844.47L913.814 1851.39C911.176 1852.16 908.411 1850.65 907.639 1848.01L907.543 1847.69C906.771 1845.05 908.283 1842.28 910.921 1841.51L934.568 1834.59C937.206 1833.82 939.97 1835.33 940.743 1837.97L940.839 1838.29C941.611 1840.93 940.099 1843.7 937.461 1844.47Z" fill="#F1B104"/>
<path d="M849.101 1797.83L826.887 1787.16C824.409 1785.98 823.364 1783 824.554 1780.52L824.701 1780.22C825.89 1777.74 828.863 1776.69 831.342 1777.88L853.556 1788.55C856.034 1789.74 857.079 1792.71 855.889 1795.19L855.742 1795.49C854.552 1797.97 851.579 1799.02 849.101 1797.83Z" fill="#FF6E00"/>
<path d="M827.057 1712.13L793.857 1721.85L796.75 1731.73L829.949 1722L827.057 1712.13Z" fill="#F1B104"/>
<path d="M406.996 1257.51C239.876 1257.51 104.396 1395.67 104.396 1566.08C104.396 1736.5 239.876 1874.66 406.996 1874.66C574.116 1874.66 709.596 1736.5 709.596 1566.08C709.596 1395.67 574.116 1257.51 406.996 1257.51ZM406.996 1661.89C356.364 1661.89 315.31 1620.03 315.31 1568.39C315.31 1516.75 356.365 1474.89 406.996 1474.89C457.637 1474.89 498.691 1516.75 498.691 1568.39C498.691 1620.03 457.637 1661.89 406.996 1661.89Z" fill="#573240"/>
<path d="M365.996 1257.51C198.876 1257.51 63.396 1395.67 63.396 1566.08C63.396 1736.5 198.876 1874.66 365.996 1874.66C533.116 1874.66 668.596 1736.5 668.596 1566.08C668.596 1395.67 533.116 1257.51 365.996 1257.51ZM365.996 1672.26C309.746 1672.26 264.136 1625.76 264.136 1568.39C264.136 1511.02 309.746 1464.51 365.996 1464.51C422.256 1464.51 467.866 1511.02 467.866 1568.39C467.866 1625.76 422.256 1672.26 365.996 1672.26Z" fill="#FF6E00"/>
<path d="M406.211 1321.08H379.2C376.451 1321.08 374.223 1318.85 374.223 1316.1V1315.06C374.223 1312.31 376.451 1310.08 379.2 1310.08H406.212C408.961 1310.08 411.189 1312.31 411.189 1315.06V1316.1C411.188 1318.85 408.96 1321.08 406.211 1321.08Z" fill="white"/>
<path d="M565.786 1549.12H538.775C536.026 1549.12 533.798 1546.89 533.798 1544.15V1543.1C533.798 1540.35 536.026 1538.12 538.775 1538.12H565.786C568.535 1538.12 570.763 1540.35 570.763 1543.1V1544.15C570.763 1546.89 568.535 1549.12 565.786 1549.12Z" fill="#A9D8D5"/>
<path d="M626.726 1515.82L600.799 1523.39C598.161 1524.17 595.397 1522.65 594.626 1520.01L594.333 1519.01C593.562 1516.37 595.076 1513.61 597.714 1512.84L623.641 1505.26C626.279 1504.49 629.043 1506 629.814 1508.64L630.107 1509.65C630.878 1512.28 629.364 1515.05 626.726 1515.82Z" fill="#573240"/>
<path d="M228.473 1539.29H201.461C198.712 1539.29 196.484 1537.06 196.484 1534.31V1533.27C196.484 1530.52 198.712 1528.29 201.461 1528.29H228.473C231.222 1528.29 233.45 1530.52 233.45 1533.27V1534.31C233.45 1537.06 231.222 1539.29 228.473 1539.29Z" fill="white"/>
<path d="M521.361 1506.01L495.38 1498.62C492.736 1497.87 491.203 1495.11 491.955 1492.47L492.241 1491.46C492.993 1488.82 495.746 1487.29 498.39 1488.04L524.371 1495.43C527.015 1496.18 528.548 1498.93 527.796 1501.58L527.51 1502.58C526.757 1505.23 524.004 1506.76 521.361 1506.01Z" fill="#F1B104"/>
<path d="M146.85 1464.51H119.838C117.089 1464.51 114.861 1462.29 114.861 1459.54V1458.49C114.861 1455.74 117.089 1453.51 119.838 1453.51H146.85C149.599 1453.51 151.827 1455.74 151.827 1458.49V1459.54C151.826 1462.29 149.598 1464.51 146.85 1464.51Z" fill="#F1B104"/>
<path d="M435.484 1425.97H408.472C405.723 1425.97 403.495 1423.75 403.495 1421V1419.95C403.495 1417.2 405.723 1414.97 408.472 1414.97H435.484C438.233 1414.97 440.461 1417.2 440.461 1419.95V1421C440.461 1423.75 438.232 1425.97 435.484 1425.97Z" fill="#573240"/>
<path d="M564.883 1397.99L541.49 1384.49C539.11 1383.11 538.294 1380.07 539.668 1377.69L540.191 1376.78C541.565 1374.4 544.609 1373.59 546.99 1374.96L570.383 1388.47C572.763 1389.84 573.579 1392.88 572.205 1395.26L571.682 1396.17C570.308 1398.55 567.264 1399.37 564.883 1397.99Z" fill="#F6ACC1"/>
<path d="M243.209 1369.29L220.37 1383.71C218.046 1385.18 214.972 1384.48 213.505 1382.16L212.946 1381.27C211.478 1378.95 212.173 1375.87 214.497 1374.41L237.336 1359.99C239.66 1358.52 242.734 1359.21 244.201 1361.54L244.76 1362.42C246.228 1364.75 245.533 1367.82 243.209 1369.29Z" fill="white"/>
<path d="M584.346 1439.62L569.606 1462.25C568.106 1464.56 565.023 1465.21 562.72 1463.71L561.843 1463.14C559.54 1461.64 558.888 1458.55 560.388 1456.25L575.128 1433.61C576.628 1431.31 579.711 1430.66 582.014 1432.16L582.891 1432.73C585.194 1434.23 585.846 1437.31 584.346 1439.62Z" fill="white"/>
<path d="M362.335 1427.44L339.496 1441.86C337.172 1443.33 334.098 1442.63 332.631 1440.31L332.072 1439.42C330.604 1437.1 331.299 1434.03 333.623 1432.56L356.462 1418.14C358.786 1416.67 361.86 1417.36 363.327 1419.69L363.886 1420.57C365.353 1422.9 364.659 1425.97 362.335 1427.44Z" fill="white"/>
<path d="M286.809 1422.92L277.471 1397.57C276.521 1394.99 277.841 1392.13 280.42 1391.18L281.402 1390.82C283.981 1389.87 286.842 1391.19 287.793 1393.77L297.131 1419.12C298.081 1421.69 296.761 1424.56 294.182 1425.51L293.2 1425.87C290.621 1426.82 287.76 1425.5 286.809 1422.92Z" fill="#F1B104"/>
<path d="M295.426 1344.14L279.68 1322.19C278.078 1319.96 278.589 1316.85 280.823 1315.25L281.673 1314.64C283.906 1313.03 287.016 1313.55 288.618 1315.78L304.364 1337.73C305.966 1339.96 305.455 1343.07 303.221 1344.67L302.371 1345.28C300.137 1346.88 297.028 1346.37 295.426 1344.14Z" fill="#573240"/>
<path d="M524.542 1440.15L508.796 1418.21C507.194 1415.97 507.705 1412.86 509.939 1411.26L510.789 1410.65C513.022 1409.05 516.132 1409.56 517.734 1411.79L533.48 1433.74C535.082 1435.98 534.571 1439.09 532.337 1440.69L531.487 1441.3C529.253 1442.9 526.144 1442.39 524.542 1440.15Z" fill="#573240"/>
<path d="M177.869 1425.73L156.867 1408.74C154.73 1407.01 154.399 1403.88 156.127 1401.74L156.785 1400.93C158.514 1398.79 161.647 1398.46 163.784 1400.19L184.786 1417.17C186.923 1418.9 187.254 1422.03 185.526 1424.17L184.868 1424.99C183.14 1427.12 180.006 1427.45 177.869 1425.73Z" fill="#A9D8D5"/>
<path d="M495.465 1359.57L474.463 1342.58C472.326 1340.86 471.995 1337.72 473.723 1335.58L474.381 1334.77C476.11 1332.63 479.243 1332.3 481.381 1334.03L502.383 1351.02C504.52 1352.75 504.851 1355.88 503.123 1358.02L502.465 1358.83C500.736 1360.97 497.602 1361.3 495.465 1359.57Z" fill="#F1B104"/>
<path d="M131.73 1541.65L115.012 1520.43C113.311 1518.27 113.682 1515.14 115.841 1513.44L116.663 1512.79C118.822 1511.09 121.951 1511.46 123.653 1513.62L140.371 1534.84C142.072 1537 141.701 1540.13 139.542 1541.83L138.72 1542.48C136.56 1544.18 133.431 1543.8 131.73 1541.65Z" fill="#A9D8D5"/>
<path d="M225.604 1457.25L230.203 1430.63C230.671 1427.93 233.246 1426.11 235.955 1426.58L236.986 1426.76C239.695 1427.22 241.511 1429.8 241.043 1432.51L236.444 1459.12C235.976 1461.83 233.401 1463.65 230.692 1463.18L229.661 1463C226.952 1462.53 225.136 1459.96 225.604 1457.25Z" fill="#F6ACC1"/>
<path d="M329.87 1375.89L351.086 1359.17C353.245 1357.47 356.374 1357.84 358.076 1360L358.723 1360.82C360.424 1362.98 360.053 1366.11 357.894 1367.81L336.678 1384.53C334.519 1386.23 331.39 1385.86 329.688 1383.7L329.041 1382.88C327.34 1380.72 327.711 1377.59 329.87 1375.89Z" fill="#A9D8D5"/>
<path d="M164.824 1498.94L186.04 1482.22C188.199 1480.52 191.328 1480.89 193.03 1483.05L193.677 1483.87C195.378 1486.03 195.007 1489.16 192.848 1490.86L171.632 1507.58C169.473 1509.28 166.344 1508.91 164.642 1506.75L163.995 1505.93C162.294 1503.77 162.665 1500.64 164.824 1498.94Z" fill="#573240"/>
<path d="M423.388 1377.35L427.987 1350.73C428.455 1348.02 431.03 1346.21 433.739 1346.67L434.77 1346.85C437.479 1347.32 439.295 1349.89 438.827 1352.6L434.228 1379.22C433.76 1381.93 431.185 1383.75 428.476 1383.28L427.445 1383.1C424.736 1382.63 422.92 1380.06 423.388 1377.35Z" fill="#F6ACC1"/>
<path d="M455.241 1459.87L473.222 1439.72C475.052 1437.67 478.198 1437.49 480.249 1439.32L481.03 1440.01C483.081 1441.84 483.261 1444.99 481.431 1447.04L463.45 1467.2C461.62 1469.25 458.474 1469.43 456.423 1467.6L455.642 1466.9C453.591 1465.07 453.411 1461.92 455.241 1459.87Z" fill="#A9D8D5"/>
<path d="M330.005 1816.01L357.013 1816.42C359.761 1816.46 361.955 1818.72 361.913 1821.47L361.897 1822.52C361.855 1825.27 359.593 1827.46 356.845 1827.42L329.837 1827.01C327.089 1826.96 324.895 1824.7 324.937 1821.95L324.953 1820.91C324.995 1818.16 327.257 1815.97 330.005 1816.01Z" fill="white"/>
<path d="M173.927 1585.56L200.935 1585.97C203.683 1586.01 205.877 1588.28 205.835 1591.02L205.819 1592.07C205.777 1594.82 203.515 1597.01 200.767 1596.97L173.759 1596.56C171.011 1596.52 168.817 1594.25 168.859 1591.51L168.875 1590.46C168.916 1587.71 171.178 1585.52 173.927 1585.56Z" fill="#A9D8D5"/>
<path d="M112.486 1617.93L138.526 1610.75C141.176 1610.02 143.916 1611.57 144.647 1614.22L144.925 1615.23C145.656 1617.88 144.1 1620.62 141.45 1621.35L115.41 1628.53C112.76 1629.26 110.02 1627.71 109.289 1625.06L109.011 1624.05C108.281 1621.4 109.837 1618.66 112.486 1617.93Z" fill="#573240"/>
<path d="M511.051 1600.54L538.059 1600.95C540.807 1600.99 543.001 1603.25 542.959 1606L542.943 1607.05C542.901 1609.8 540.639 1611.99 537.891 1611.95L510.883 1611.54C508.135 1611.49 505.941 1609.23 505.983 1606.48L505.999 1605.44C506.04 1602.69 508.302 1600.5 511.051 1600.54Z" fill="white"/>
<path d="M217.69 1629.35L243.555 1637.13C246.187 1637.92 247.679 1640.7 246.886 1643.33L246.584 1644.33C245.792 1646.96 243.016 1648.46 240.384 1647.66L214.519 1639.88C211.887 1639.09 210.395 1636.31 211.188 1633.68L211.49 1632.68C212.282 1630.05 215.058 1628.55 217.69 1629.35Z" fill="#F1B104"/>
<path d="M591.524 1676.55L618.532 1676.96C621.28 1677 623.474 1679.26 623.432 1682.01L623.416 1683.06C623.374 1685.81 621.112 1688 618.364 1687.96L591.356 1687.55C588.608 1687.5 586.414 1685.24 586.456 1682.49L586.472 1681.45C586.514 1678.7 588.776 1676.51 591.524 1676.55Z" fill="#F1B104"/>
<path d="M302.336 1710.68L329.344 1711.09C332.092 1711.13 334.286 1713.4 334.244 1716.14L334.228 1717.19C334.186 1719.94 331.924 1722.13 329.176 1722.09L302.168 1721.68C299.42 1721.64 297.226 1719.37 297.268 1716.63L297.284 1715.58C297.326 1712.83 299.587 1710.64 302.336 1710.68Z" fill="#573240"/>
<path d="M172.524 1736.69L195.708 1750.55C198.067 1751.96 198.836 1755.01 197.426 1757.37L196.889 1758.27C195.478 1760.63 192.423 1761.4 190.063 1759.99L166.879 1746.13C164.52 1744.72 163.751 1741.66 165.161 1739.3L165.698 1738.4C167.109 1736.04 170.165 1735.28 172.524 1736.69Z" fill="#F6ACC1"/>
<path d="M493.723 1770.29L516.78 1756.22C519.126 1754.79 522.189 1755.53 523.621 1757.88L524.166 1758.77C525.598 1761.12 524.857 1764.18 522.511 1765.61L499.454 1779.68C497.108 1781.12 494.045 1780.37 492.613 1778.03L492.068 1777.13C490.636 1774.79 491.377 1771.73 493.723 1770.29Z" fill="white"/>
<path d="M153.699 1694.77L168.782 1672.36C170.317 1670.08 173.41 1669.48 175.69 1671.01L176.558 1671.59C178.838 1673.13 179.443 1676.22 177.908 1678.5L162.825 1700.91C161.29 1703.19 158.197 1703.8 155.917 1702.26L155.049 1701.68C152.769 1700.14 152.164 1697.05 153.699 1694.77Z" fill="white"/>
<path d="M375.498 1710.33L398.555 1696.26C400.901 1694.83 403.964 1695.57 405.396 1697.92L405.941 1698.81C407.373 1701.16 406.632 1704.22 404.286 1705.65L381.229 1719.72C378.883 1721.16 375.82 1720.41 374.388 1718.07L373.843 1717.17C372.411 1714.83 373.152 1711.76 375.498 1710.33Z" fill="white"/>
<path d="M450.946 1716L459.897 1741.49C460.808 1744.08 459.444 1746.92 456.85 1747.83L455.863 1748.18C453.27 1749.09 450.429 1747.73 449.518 1745.13L440.567 1719.65C439.656 1717.05 441.02 1714.21 443.614 1713.3L444.601 1712.95C447.195 1712.04 450.035 1713.41 450.946 1716Z" fill="#F1B104"/>
<path d="M441.129 1794.64L456.538 1816.83C458.106 1819.09 457.547 1822.19 455.29 1823.76L454.431 1824.35C452.173 1825.92 449.072 1825.36 447.504 1823.1L432.095 1800.92C430.527 1798.66 431.086 1795.56 433.343 1793.99L434.202 1793.39C436.46 1791.83 439.561 1792.39 441.129 1794.64Z" fill="#573240"/>
<path d="M213.504 1695.14L228.913 1717.33C230.481 1719.59 229.922 1722.69 227.665 1724.26L226.806 1724.85C224.548 1726.42 221.447 1725.86 219.879 1723.6L204.47 1701.42C202.902 1699.16 203.461 1696.06 205.718 1694.49L206.577 1693.89C208.835 1692.33 211.936 1692.89 213.504 1695.14Z" fill="#573240"/>
<path d="M559.917 1714.86L580.658 1732.16C582.769 1733.93 583.052 1737.06 581.291 1739.17L580.621 1739.98C578.86 1742.09 575.722 1742.37 573.611 1740.61L552.87 1723.3C550.759 1721.54 550.476 1718.41 552.237 1716.3L552.907 1715.49C554.668 1713.38 557.806 1713.1 559.917 1714.86Z" fill="#A9D8D5"/>
<path d="M241.349 1776.16L262.09 1793.47C264.201 1795.23 264.484 1798.37 262.723 1800.48L262.053 1801.28C260.292 1803.39 257.154 1803.67 255.043 1801.91L234.302 1784.61C232.191 1782.85 231.908 1779.71 233.669 1777.6L234.339 1776.79C236.1 1774.68 239.238 1774.4 241.349 1776.16Z" fill="#F1B104"/>
<path d="M607.819 1599.65L624.212 1621.12C625.88 1623.31 625.461 1626.43 623.277 1628.1L622.446 1628.73C620.261 1630.4 617.138 1629.98 615.47 1627.8L599.077 1606.33C597.409 1604.15 597.828 1601.02 600.012 1599.35L600.843 1598.72C603.027 1597.05 606.151 1597.47 607.819 1599.65Z" fill="#A9D8D5"/>
<path d="M512.668 1682.61L507.663 1709.15C507.154 1711.85 504.551 1713.63 501.85 1713.12L500.822 1712.93C498.121 1712.42 496.344 1709.82 496.853 1707.12L501.858 1680.57C502.367 1677.87 504.97 1676.09 507.671 1676.6L508.699 1676.8C511.401 1677.31 513.178 1679.91 512.668 1682.61Z" fill="#F6ACC1"/>
<path d="M407.173 1762.37L385.704 1778.77C383.519 1780.43 380.396 1780.02 378.728 1777.83L378.093 1777C376.425 1774.81 376.844 1771.69 379.028 1770.02L400.497 1753.63C402.682 1751.96 405.805 1752.38 407.473 1754.57L408.108 1755.4C409.777 1757.58 409.358 1760.7 407.173 1762.37Z" fill="#A9D8D5"/>
<path d="M574.077 1641.85L552.608 1658.24C550.423 1659.91 547.3 1659.49 545.632 1657.31L544.997 1656.48C543.329 1654.29 543.748 1651.17 545.932 1649.5L567.401 1633.11C569.586 1631.44 572.709 1631.86 574.377 1634.04L575.012 1634.87C576.681 1637.06 576.262 1640.18 574.077 1641.85Z" fill="#573240"/>
<path d="M313.689 1759.49L308.684 1786.03C308.175 1788.73 305.572 1790.51 302.871 1790L301.843 1789.8C299.142 1789.3 297.365 1786.69 297.874 1783.99L302.879 1757.45C303.388 1754.75 305.991 1752.97 308.692 1753.48L309.72 1753.67C312.421 1754.18 314.198 1756.79 313.689 1759.49Z" fill="#F6ACC1"/>
<path d="M283.098 1676.48L264.812 1696.36C262.951 1698.39 259.803 1698.52 257.78 1696.66L257.01 1695.95C254.987 1694.09 254.855 1690.94 256.716 1688.92L275.002 1669.04C276.863 1667.02 280.011 1666.88 282.034 1668.74L282.804 1669.45C284.827 1671.31 284.959 1674.46 283.098 1676.48Z" fill="#A9D8D5"/>
<path d="M1320.49 992.88L1319.68 999.88H392.68L393.49 992.88H1320.49Z" fill="#FDE5E3"/>
<path d="M1304.17 1077.82C1302.91 1080.22 1301.53 1082.55 1300.07 1084.82H404.58C403.11 1082.55 401.73 1080.21 400.46 1077.82H1304.17Z" fill="#FDE5E3"/>
<path d="M1315.61 1035.35L1314.8 1042.35H389.84C389.62 1040.04 389.49 1037.71 389.45 1035.35H1315.61Z" fill="#FDE5E3"/>
<path d="M1414.34 1571.4H1035.02V1996.1H1414.34V1571.4Z" fill="#F6ACC1"/>
<path d="M1035.02 1571.4H0V1996.1H1035.02V1571.4Z" fill="#FCD4D0"/>
<path d="M1035.48 1610.37H0V1617.37H1035.48V1610.37Z" fill="#FDE5E3"/>
<path d="M1035.02 1652.84H0V1659.84H1035.02V1652.84Z" fill="#FDE5E3"/>
<path d="M1035.02 1695.31H0V1702.31H1035.02V1695.31Z" fill="#FDE5E3"/>
<path d="M1035.02 1737.78H0V1744.78H1035.02V1737.78Z" fill="#FDE5E3"/>
<path d="M1035.02 1780.25H0V1787.25H1035.02V1780.25Z" fill="#FDE5E3"/>
<path d="M1035.02 1822.72H0V1829.72H1035.02V1822.72Z" fill="#FDE5E3"/>
<path d="M1035.02 1907.66H0V1914.66H1035.02V1907.66Z" fill="#FDE5E3"/>
<path d="M1035.02 1865.19H0V1872.19H1035.02V1865.19Z" fill="#FDE5E3"/>
<path d="M1035.02 1950.13H0V1957.13H1035.02V1950.13Z" fill="#FDE5E3"/>
<path d="M1414.34 1610.37H1035.48V1617.37H1414.34V1610.37Z" fill="#FABFD6"/>
<path d="M1414.34 1652.84H1035.02V1659.84H1414.34V1652.84Z" fill="#FABFD6"/>
<path d="M1414.34 1695.31H1035.02V1702.31H1414.34V1695.31Z" fill="#FABFD6"/>
<path d="M1414.34 1737.78H1035.02V1744.78H1414.34V1737.78Z" fill="#FABFD6"/>
<path d="M1414.34 1780.25H1035.02V1787.25H1414.34V1780.25Z" fill="#FABFD6"/>
<path d="M1414.34 1822.72H1035.02V1829.72H1414.34V1822.72Z" fill="#FABFD6"/>
<path d="M1414.34 1907.66H1035.02V1914.66H1414.34V1907.66Z" fill="#FABFD6"/>
<path d="M1414.34 1865.19H1035.02V1872.19H1414.34V1865.19Z" fill="#FABFD6"/>
<path d="M1414.34 1950.13H1035.02V1957.13H1414.34V1950.13Z" fill="#FABFD6"/>
<path d="M1805.11 1211.74L1714.96 1996.1H1267.18L1177.03 1211.74H1805.11Z" fill="white"/>
<path d="M1805.11 1211.73L1714.96 1996.09H1617.41L1704.11 1241.73H1180.48L1177.03 1211.73H1805.11Z" fill="#E0F1F0"/>
<path d="M1853.73 1211.73H1128.42L1134.17 1179.66C1136.63 1165.96 1148.55 1155.98 1162.47 1155.98H1174.91L1184.04 1121.17C1190.44 1096.72 1212.54 1079.67 1237.82 1079.67H1744.33C1769.61 1079.67 1791.7 1096.72 1798.11 1121.17L1807.23 1155.98H1819.68C1833.6 1155.98 1845.52 1165.96 1847.97 1179.66L1853.73 1211.73Z" fill="#573240"/>
<path d="M1267.18 1996.1H1714.96" stroke="#573240" stroke-width="5" stroke-miterlimit="10" stroke-linecap="round"/>
<path d="M1473.96 1700.95C1551.56 1700.95 1614.46 1633.79 1614.46 1550.95C1614.46 1468.11 1551.56 1400.95 1473.96 1400.95C1396.37 1400.95 1333.46 1468.11 1333.46 1550.95C1333.46 1633.79 1396.37 1700.95 1473.96 1700.95Z" fill="#A9D8D5"/>
<path d="M1495.9 1508.32L1445.65 1585.49C1443 1589.56 1437.12 1589.82 1434.12 1586C1421.49 1569.92 1421.16 1544.49 1434.83 1523.49C1448.5 1502.5 1471.89 1492.52 1491.7 1497.57C1496.41 1498.77 1498.55 1504.25 1495.9 1508.32Z" fill="#573240"/>
<path d="M1514.31 1575.25C1500.78 1596.03 1477.71 1606.02 1458.03 1601.33C1453.27 1600.19 1451.09 1594.66 1453.76 1590.55L1503.81 1513.69C1506.48 1509.58 1512.43 1509.34 1515.39 1513.24C1527.65 1529.33 1527.84 1554.46 1514.31 1575.25Z" fill="#573240"/>
</svg>
