<svg width="224" height="50" viewBox="0 0 224 50" fill="none" xmlns="http://www.w3.org/2000/svg">
<path d="M0 11.3636C0 5.08766 5.08766 0 11.3636 0H38.6364C44.9122 0 50 5.08766 50 11.3636V38.6364C50 44.9122 44.9122 50 38.6364 50H11.3636C5.08766 50 0 44.9122 0 38.6364V11.3636Z" fill="url(#paint0_linear)"/>
<mask id="mask0" mask-type="alpha" maskUnits="userSpaceOnUse" x="0" y="0" width="50" height="50">
<path d="M0 11.3636C0 5.08766 5.08766 0 11.3636 0H38.6364C44.9122 0 50 5.08766 50 11.3636V38.6364C50 44.9122 44.9122 50 38.6364 50H11.3636C5.08766 50 0 44.9122 0 38.6364V11.3636Z" fill="url(#paint1_linear)"/>
</mask>
<g mask="url(#mask0)">
<path d="M15.1679 29.8245C14.357 29.6072 13.5224 30.0971 13.302 30.9197L11.7068 36.8732C11.4864 37.6957 11.9642 38.5372 12.7751 38.7545C13.586 38.9718 14.4205 38.4819 14.6409 37.6594L16.2361 31.7059C16.4566 30.8833 15.9788 30.0418 15.1679 29.8245ZM32.7726 34.5417C31.9618 34.3244 31.1275 34.8143 30.9071 35.637L29.3119 41.5905C29.0915 42.4129 29.569 43.2544 30.3798 43.4717C31.1907 43.689 32.0254 43.1991 32.2458 42.3766L33.841 36.4231C34.0615 35.6005 33.5835 34.7589 32.7726 34.5417Z" fill="#0EE7BC"/>
<path d="M26.5511 10.8609C25.7432 10.6444 24.914 11.1246 24.697 11.9344L21.1639 25.1201L18.2414 24.337L21.7745 11.1513C21.9915 10.3415 21.5135 9.51108 20.7058 9.29465C19.8981 9.07823 19.0689 9.55839 18.8519 10.3682L15.3188 23.5539L12.3963 22.7708L15.9294 9.58512C16.1464 8.7753 15.6684 7.94489 14.8607 7.72846C14.053 7.51204 13.2238 7.9922 13.0068 8.80202L9.08117 23.4528C7.99892 27.4918 10.3948 31.6561 14.4247 32.7359C18.4546 33.8157 22.6116 31.4073 23.6938 27.3683L27.6195 12.7175C27.8365 11.9076 27.3584 11.0772 26.5511 10.8609ZM16.5621 36.4494L10.717 34.8832C9.90926 34.6668 9.08021 35.1467 8.86318 35.9567L4.10009 53.7327C3.45069 56.1563 4.88884 58.655 7.30615 59.3027C9.72351 59.9504 12.2183 58.5056 12.8677 56.082L17.6308 38.3059C17.8478 37.496 17.3698 36.6658 16.5621 36.4494ZM34.0975 41.148L28.2523 39.5818C27.4446 39.3654 26.6154 39.8452 26.3984 40.6552L21.6353 58.4313C20.9859 60.8549 22.424 63.3535 24.8413 64.0013C27.2587 64.649 29.7538 63.2042 30.4032 60.7806L35.1663 43.0046C35.3833 42.1946 34.9052 41.3644 34.0975 41.148ZM31.9599 37.4345C36.0583 38.5326 40.6457 34.2444 42.4069 27.6716C44.1681 21.0988 42.3394 15.0913 38.2409 13.9932C34.1425 12.895 29.5555 17.1833 27.7943 23.7562C26.0331 30.329 27.8614 36.3363 31.9599 37.4345Z" fill="#0EE7BC"/>
</g>
<path d="M191.593 17.3844C191.593 17.5649 191.534 17.7115 191.415 17.8243C191.296 17.9259 191.151 17.9766 190.978 17.9766H182.775V18.1628C182.775 18.8509 182.727 19.5842 182.63 20.3626C182.533 21.141 182.398 21.9194 182.225 22.6978C182.063 23.4649 181.875 24.2151 181.659 24.9484C181.454 25.6817 181.238 26.3586 181.012 26.979C180.796 27.5995 180.58 28.141 180.365 28.6035C180.149 29.0548 179.955 29.3932 179.782 29.6189C179.922 30.1378 180.09 30.6229 180.284 31.0741C180.478 31.5141 180.694 31.9033 180.931 32.2417C181.179 32.5689 181.443 32.8284 181.724 33.0201C182.004 33.2119 182.306 33.3078 182.63 33.3078C183.007 33.3078 183.379 33.1442 183.746 32.8171C184.124 32.4786 184.469 32.0838 184.782 31.6326C185.105 31.17 185.386 30.7075 185.623 30.245C185.871 29.7712 186.049 29.3932 186.157 29.1112C186.265 28.8405 186.453 28.7051 186.723 28.7051C186.906 28.7051 187.052 28.7728 187.16 28.9081C187.279 29.0435 187.338 29.1902 187.338 29.3481C187.338 29.4271 187.322 29.506 187.289 29.585C187.257 29.664 187.176 29.8445 187.047 30.1265C186.928 30.4085 186.766 30.7357 186.561 31.108C186.367 31.4803 186.135 31.8751 185.866 32.2925C185.607 32.6986 185.31 33.0709 184.976 33.4093C184.652 33.7478 184.302 34.0298 183.924 34.2554C183.547 34.4811 183.147 34.5939 182.727 34.5939C181.983 34.5939 181.314 34.34 180.721 33.8324C180.127 33.3247 179.62 32.614 179.2 31.7002C178.79 30.7865 178.477 29.7035 178.261 28.4512C178.046 27.199 177.938 25.8284 177.938 24.3392C177.938 23.967 177.943 23.5326 177.954 23.0363C177.965 22.5286 177.986 21.9984 178.019 21.4456C178.051 20.8815 178.1 20.3062 178.164 19.7196C178.229 19.1217 178.315 18.5407 178.423 17.9766H172.615C172.442 17.9766 172.297 17.9259 172.178 17.8243C172.059 17.7115 172 17.5649 172 17.3844C172 17.2039 172.059 17.0629 172.178 16.9613C172.297 16.8485 172.442 16.7921 172.615 16.7921H178.698C178.806 16.386 178.93 16.0137 179.07 15.6753C179.221 15.3368 179.389 15.0435 179.572 14.7953C179.766 14.5471 179.976 14.3554 180.203 14.22C180.44 14.0733 180.699 14 180.979 14C181.249 14 181.481 14.0733 181.675 14.22C181.88 14.3554 182.053 14.5471 182.193 14.7953C182.333 15.0435 182.441 15.3368 182.516 15.6753C182.603 16.0137 182.667 16.386 182.711 16.7921H190.978C191.151 16.7921 191.296 16.8485 191.415 16.9613C191.534 17.0629 191.593 17.2039 191.593 17.3844ZM179.41 27.9267C179.734 27.1821 180.025 26.3811 180.284 25.5238C180.553 24.6551 180.78 23.7808 180.963 22.9009C181.157 22.021 181.303 21.1579 181.4 20.3118C181.508 19.4658 181.562 18.6873 181.562 17.9766H179.653C179.502 18.6761 179.378 19.5447 179.281 20.5826C179.194 21.6092 179.151 22.8614 179.151 24.3392C179.151 25.1628 179.173 25.8566 179.216 26.4206C179.259 26.9734 179.324 27.4754 179.41 27.9267ZM180.915 15.2691C180.818 15.2691 180.677 15.382 180.494 15.6076C180.311 15.8219 180.127 16.2168 179.944 16.7921H181.497C181.443 16.3183 181.362 15.946 181.255 15.6753C181.157 15.4045 181.044 15.2691 180.915 15.2691ZM179.669 29.145V29.162V29.145Z" fill="#0EE7BC"/>
<path d="M188.859 21.0395C188.859 21.4682 188.713 21.8348 188.422 22.1394C188.141 22.4327 187.796 22.5794 187.386 22.5794C186.977 22.5794 186.626 22.4327 186.335 22.1394C186.054 21.8348 185.914 21.4682 185.914 21.0395C185.914 20.8251 185.952 20.6277 186.027 20.4472C186.103 20.2554 186.205 20.0919 186.335 19.9565C186.475 19.8098 186.631 19.697 186.804 19.6181C186.987 19.5391 187.181 19.4996 187.386 19.4996C187.591 19.4996 187.78 19.5391 187.953 19.6181C188.136 19.697 188.292 19.8098 188.422 19.9565C188.562 20.0919 188.67 20.2554 188.745 20.4472C188.821 20.6277 188.859 20.8251 188.859 21.0395ZM186.238 30.9557C186.238 29.3312 186.335 27.7123 186.529 26.0991C186.551 25.9412 186.615 25.8058 186.723 25.693C186.842 25.5689 186.993 25.5068 187.176 25.5068C187.338 25.5068 187.473 25.5745 187.581 25.7099C187.688 25.834 187.742 25.9807 187.742 26.1499C187.742 26.2176 187.726 26.4206 187.694 26.7591C187.672 27.0975 187.64 27.5036 187.597 27.9774C187.564 28.44 187.532 28.9363 187.5 29.4666C187.478 29.9855 187.467 30.4649 187.467 30.9049C187.467 31.5028 187.521 31.9879 187.629 32.3602C187.748 32.7212 187.893 33.0032 188.066 33.2063C188.249 33.4093 188.438 33.5447 188.632 33.6124C188.837 33.6801 189.031 33.7139 189.215 33.7139C189.517 33.7139 189.829 33.6011 190.153 33.3755C190.477 33.1499 190.806 32.834 191.14 32.4279C191.485 32.0218 191.83 31.5367 192.175 30.9726C192.521 30.3973 192.86 29.7599 193.195 29.0604C193.249 28.9476 193.324 28.863 193.421 28.8066C193.518 28.7389 193.626 28.7051 193.745 28.7051C193.917 28.7051 194.058 28.7728 194.166 28.9081C194.284 29.0435 194.343 29.1902 194.343 29.3481C194.343 29.4609 194.322 29.5568 194.279 29.6358C194.149 29.8952 193.988 30.2111 193.793 30.5834C193.599 30.9557 193.378 31.3392 193.13 31.7341C192.882 32.1289 192.607 32.5238 192.305 32.9186C192.014 33.3022 191.701 33.6519 191.367 33.9678C191.032 34.2724 190.682 34.5205 190.315 34.7123C189.948 34.9041 189.576 35 189.199 35C188.713 35 188.287 34.8928 187.92 34.6785C187.554 34.4641 187.241 34.1765 186.982 33.8155C186.734 33.4545 186.545 33.0314 186.416 32.5463C186.297 32.05 186.238 31.5197 186.238 30.9557ZM187.953 21.0395C187.953 20.8815 187.893 20.7462 187.775 20.6334C187.667 20.5093 187.537 20.4472 187.386 20.4472C187.235 20.4472 187.106 20.5093 186.998 20.6334C186.89 20.7462 186.836 20.8815 186.836 21.0395C186.836 21.1974 186.89 21.3328 186.998 21.4456C187.106 21.5584 187.235 21.6148 187.386 21.6148C187.537 21.6148 187.667 21.5584 187.775 21.4456C187.893 21.3328 187.953 21.1974 187.953 21.0395Z" fill="#0EE7BC"/>
<path d="M196.916 32.8171C197.078 32.4786 197.283 32.0612 197.531 31.5649C197.79 31.0572 198.054 30.5496 198.324 30.0419C198.604 29.5342 198.874 29.0548 199.133 28.6035C199.402 28.1523 199.629 27.8082 199.812 27.5713C200.125 27.1765 200.448 26.8944 200.783 26.7252C201.117 26.556 201.425 26.4714 201.705 26.4714C201.985 26.4714 202.223 26.5334 202.417 26.6575C202.622 26.7816 202.789 26.9508 202.918 27.1652C203.048 27.3683 203.145 27.6108 203.21 27.8928C203.274 28.1636 203.307 28.4569 203.307 28.7728C203.307 28.9533 203.296 29.1902 203.274 29.4835C203.264 29.7768 203.247 30.0927 203.226 30.4311C203.215 30.7695 203.199 31.1193 203.177 31.4803C203.167 31.8413 203.156 32.1797 203.145 32.4956C203.307 32.1571 203.49 31.7849 203.695 31.3787C203.9 30.9613 204.105 30.5496 204.31 30.1434C204.526 29.7373 204.731 29.3594 204.925 29.0097C205.119 28.6487 205.297 28.3554 205.459 28.1297C205.922 27.4641 206.354 27.0185 206.753 26.7929C207.163 26.5673 207.524 26.4545 207.837 26.4545C208.204 26.4545 208.506 26.5278 208.743 26.6745C208.98 26.8098 209.164 26.9903 209.293 27.216C209.433 27.4303 209.53 27.6728 209.584 27.9436C209.638 28.2143 209.665 28.4738 209.665 28.722C209.665 29.1056 209.638 29.506 209.584 29.9234C209.53 30.3409 209.503 30.8372 209.503 31.4126C209.503 31.6495 209.514 31.8864 209.536 32.1233C209.557 32.3602 209.6 32.5689 209.665 32.7494C209.741 32.9299 209.854 33.0766 210.005 33.1894C210.156 33.3022 210.361 33.3586 210.62 33.3586C210.9 33.3586 211.175 33.2853 211.445 33.1386C211.715 32.9807 211.973 32.7776 212.222 32.5294C212.47 32.2812 212.702 31.9992 212.917 31.6833C213.144 31.3674 213.349 31.0516 213.532 30.7357C213.715 30.4198 213.877 30.1209 214.017 29.8388C214.158 29.5455 214.271 29.2973 214.357 29.0943C214.411 28.9702 214.487 28.8743 214.584 28.8066C214.681 28.7389 214.789 28.7051 214.907 28.7051C215.091 28.7051 215.236 28.7784 215.344 28.9251C215.463 29.0604 215.522 29.2071 215.522 29.365C215.522 29.444 215.506 29.523 215.474 29.6019C215.43 29.6922 215.344 29.884 215.215 30.1773C215.085 30.4593 214.913 30.7865 214.697 31.1587C214.481 31.5197 214.228 31.9033 213.937 32.3094C213.656 32.7156 213.343 33.0935 212.998 33.4432C212.653 33.7816 212.281 34.0637 211.882 34.2893C211.483 34.5036 211.062 34.6108 210.62 34.6108C210.145 34.6108 209.757 34.5205 209.455 34.34C209.164 34.1708 208.926 33.9396 208.743 33.6463C208.57 33.3529 208.452 33.0145 208.387 32.6309C208.322 32.2474 208.29 31.8469 208.29 31.4295C208.29 30.8767 208.317 30.3691 208.371 29.9065C208.425 29.4327 208.452 29.0661 208.452 28.8066C208.452 28.5246 208.425 28.3102 208.371 28.1636C208.328 28.0169 208.268 27.9154 208.193 27.859C208.128 27.7913 208.063 27.7575 207.999 27.7575C207.934 27.7462 207.886 27.7405 207.853 27.7405C207.594 27.7405 207.319 27.8928 207.028 28.1974C206.748 28.4907 206.456 28.8856 206.154 29.382C205.852 29.8783 205.54 30.4424 205.216 31.0741C204.903 31.7059 204.585 32.3489 204.261 33.0032C204.078 33.3642 203.922 33.6632 203.792 33.9001C203.674 34.137 203.555 34.3231 203.436 34.4585C203.328 34.5939 203.22 34.6898 203.113 34.7462C203.005 34.8026 202.886 34.8308 202.757 34.8308C202.476 34.8308 202.261 34.7293 202.11 34.5262C201.969 34.3231 201.899 34.058 201.899 33.7309C201.899 33.5616 201.905 33.336 201.915 33.054C201.926 32.772 201.937 32.4617 201.948 32.1233C201.959 31.7849 201.975 31.4351 201.996 31.0741C202.018 30.7131 202.034 30.3691 202.045 30.0419C202.056 29.7035 202.066 29.4045 202.077 29.145C202.088 28.8856 202.093 28.6882 202.093 28.5528C202.093 28.2595 202.045 28.0508 201.948 27.9267C201.851 27.7913 201.737 27.7236 201.608 27.7236C201.489 27.7236 201.354 27.7687 201.203 27.859C201.063 27.9492 200.896 28.1241 200.702 28.3836C200.551 28.5866 200.357 28.8856 200.119 29.2804C199.893 29.664 199.65 30.0927 199.391 30.5665C199.133 31.0403 198.874 31.5254 198.615 32.0218C198.367 32.5181 198.151 32.9637 197.968 33.3586C197.741 33.8324 197.515 34.1539 197.288 34.3231C197.062 34.5036 196.84 34.5939 196.625 34.5939C196.312 34.5939 196.08 34.498 195.929 34.3062C195.778 34.1031 195.703 33.838 195.703 33.5109C195.703 33.477 195.708 33.274 195.719 32.9017C195.74 32.5294 195.762 32.0782 195.783 31.5479C195.805 31.0064 195.827 30.4311 195.848 29.8219C195.881 29.2127 195.907 28.643 195.929 28.1128C195.94 27.8308 195.929 27.5713 195.897 27.3344C195.864 27.0975 195.821 26.9565 195.767 26.9114C195.681 26.9339 195.508 27.1426 195.25 27.5375C195.001 27.9323 194.683 28.6205 194.295 29.6019C194.241 29.726 194.16 29.8219 194.052 29.8896C193.944 29.9573 193.831 29.9911 193.713 29.9911C193.529 29.9911 193.384 29.9291 193.276 29.805C193.168 29.6696 193.114 29.5173 193.114 29.3481C193.114 29.2691 193.13 29.1845 193.162 29.0943C193.648 27.8872 194.112 27.0016 194.554 26.4376C194.996 25.8622 195.428 25.5745 195.848 25.5745C196.096 25.5745 196.301 25.6366 196.463 25.7607C196.636 25.8735 196.77 26.0258 196.867 26.2176C196.965 26.3981 197.035 26.6068 197.078 26.8437C197.121 27.0806 197.143 27.3118 197.143 27.5375C197.143 28.5415 197.116 29.4609 197.062 30.2957C197.018 31.1305 196.97 31.971 196.916 32.8171Z" fill="#0EE7BC"/>
<path d="M216.315 32.4617C216.541 32.7889 216.833 33.054 217.189 33.2571C217.544 33.4488 217.981 33.5447 218.499 33.5447C219.028 33.5447 219.508 33.415 219.939 33.1555C220.37 32.8848 220.764 32.5351 221.12 32.1064C221.476 31.6777 221.794 31.1982 222.075 30.668C222.355 30.1378 222.609 29.6076 222.835 29.0774C222.889 28.9533 222.965 28.863 223.062 28.8066C223.159 28.7389 223.267 28.7051 223.385 28.7051C223.569 28.7051 223.714 28.7728 223.822 28.9081C223.941 29.0435 224 29.1902 224 29.3481C224 29.4045 223.995 29.4553 223.984 29.5004C223.973 29.5342 223.957 29.5737 223.935 29.6189C223.191 31.3336 222.377 32.6253 221.492 33.494C220.619 34.3626 219.626 34.8082 218.515 34.8308C217.803 34.8308 217.189 34.6841 216.671 34.3908C216.153 34.1088 215.727 33.7421 215.393 33.2909C215.058 32.8284 214.81 32.3094 214.648 31.7341C214.487 31.1587 214.406 30.5834 214.406 30.0081C214.406 29.4327 214.47 28.9025 214.6 28.4174C214.74 27.9323 214.934 27.5093 215.182 27.1483C215.441 26.7873 215.743 26.5052 216.088 26.3022C216.444 26.0991 216.833 25.9976 217.253 25.9976C217.501 25.9976 217.744 26.054 217.981 26.1668C218.229 26.2683 218.451 26.4206 218.645 26.6237C218.839 26.8155 218.995 27.0524 219.114 27.3344C219.233 27.6164 219.292 27.938 219.292 28.299C219.292 28.7615 219.216 29.1958 219.065 29.6019C218.914 30.0081 218.704 30.386 218.434 30.7357C218.175 31.0854 217.863 31.4069 217.496 31.7002C217.129 31.9936 216.736 32.2474 216.315 32.4617ZM215.829 31.3618C216.164 31.2151 216.466 31.029 216.736 30.8034C217.016 30.5778 217.253 30.3296 217.447 30.0588C217.642 29.7881 217.793 29.506 217.9 29.2127C218.008 28.9081 218.062 28.6035 218.062 28.299C218.062 27.9605 217.981 27.7067 217.82 27.5375C217.658 27.357 217.469 27.2667 217.253 27.2667C216.962 27.2667 216.714 27.3513 216.509 27.5205C216.304 27.6898 216.137 27.9098 216.007 28.1805C215.878 28.4512 215.781 28.7558 215.716 29.0943C215.662 29.4214 215.635 29.7486 215.635 30.0757C215.635 30.2788 215.652 30.4932 215.684 30.7188C215.727 30.9444 215.776 31.1587 215.829 31.3618Z" fill="#0EE7BC"/>
<path d="M62 33.9471V10.9841L66.5525 10V18.2011C67.2171 17.6543 67.9482 17.2388 68.7457 16.9545C69.5654 16.6702 70.4515 16.528 71.4041 16.528C73.3979 16.528 75.0372 17.1623 76.3221 18.4307C77.607 19.6991 78.2495 21.3284 78.2495 23.3185V33.9471H73.6969V23.9746C73.6969 22.903 73.3646 22.0392 72.7 21.3831C72.0576 20.727 71.1936 20.3989 70.1081 20.3989C69.3549 20.3989 68.6681 20.552 68.0479 20.8582C67.4497 21.1425 66.9513 21.558 66.5525 22.1048V33.9471H62Z" fill="#2C343D"/>
<path d="M85.9552 16.8561V26.7958C85.9552 27.8892 86.2764 28.764 86.9188 29.4201C87.5834 30.0762 88.4585 30.4042 89.544 30.4042C90.3194 30.4042 91.0061 30.2621 91.6043 29.9778C92.2246 29.6716 92.7341 29.2451 93.1328 28.6984V16.8561H97.6853V33.9471H93.1328V32.5693C92.4682 33.116 91.7261 33.5425 90.9064 33.8487C90.0868 34.133 89.2006 34.2751 88.248 34.2751C86.2542 34.2751 84.6149 33.6409 83.33 32.3725C82.0451 31.0822 81.4027 29.442 81.4027 27.4519V16.8561H85.9552Z" fill="#2C343D"/>
<path d="M101.233 33.9471V16.8561H105.786V18.2011C106.451 17.6543 107.182 17.2388 107.979 16.9545C108.799 16.6702 109.685 16.528 110.637 16.528C112.631 16.528 114.271 17.1623 115.556 18.4307C116.84 19.6991 117.483 21.3284 117.483 23.3185V33.9471H112.93V23.9746C112.93 22.903 112.598 22.0392 111.933 21.3831C111.291 20.727 110.427 20.3989 109.342 20.3989C108.588 20.3989 107.902 20.552 107.281 20.8582C106.683 21.1425 106.185 21.558 105.786 22.1048V33.9471H101.233Z" fill="#2C343D"/>
<path d="M128.906 34.0455C127.688 34.0455 126.536 33.8159 125.451 33.3566C124.387 32.8974 123.457 32.2741 122.659 31.4868C121.884 30.6995 121.264 29.781 120.798 28.7312C120.355 27.6596 120.134 26.5115 120.134 25.2868C120.134 24.0839 120.366 22.9577 120.832 21.9079C121.297 20.8363 121.928 19.9069 122.726 19.1196C123.523 18.3323 124.465 17.7199 125.55 17.2825C126.636 16.8233 127.799 16.5936 129.039 16.5936C129.903 16.5936 130.723 16.7139 131.498 16.9545C132.296 17.1951 133.038 17.534 133.725 17.9714V16.8561H138.211V33.9471C138.211 36.1996 137.469 37.9383 135.984 39.163C134.522 40.3876 132.407 41 129.638 41C128.308 41 127.023 40.8688 125.783 40.6063C124.564 40.3439 123.446 39.9612 122.427 39.4582L124.022 35.9481C124.974 36.4074 125.905 36.7464 126.813 36.9651C127.721 37.2056 128.63 37.3259 129.538 37.3259C130.889 37.3259 131.908 37.0307 132.595 36.4402C133.304 35.8716 133.658 35.0296 133.658 33.9143V32.5037C132.972 33.0067 132.218 33.3894 131.399 33.6518C130.601 33.9143 129.77 34.0455 128.906 34.0455ZM124.62 25.2868C124.62 26.6645 125.096 27.8346 126.049 28.7968C127.023 29.7591 128.209 30.2402 129.604 30.2402C130.424 30.2402 131.177 30.109 131.864 29.8466C132.551 29.5623 133.149 29.1795 133.658 28.6984V21.9735C133.171 21.4924 132.573 21.1206 131.864 20.8582C131.155 20.5739 130.413 20.4317 129.638 20.4317C128.242 20.4317 127.057 20.9019 126.082 21.8423C125.107 22.7827 124.62 23.9309 124.62 25.2868Z" fill="#2C343D"/>
<path d="M141.797 33.9471V16.8561H146.35V18.7259C146.904 17.9824 147.568 17.4247 148.344 17.0529C149.141 16.6593 150.016 16.4624 150.969 16.4624C151.412 16.4843 151.777 16.528 152.065 16.5936C152.376 16.6374 152.641 16.7249 152.863 16.8561V20.7926C152.531 20.6395 152.165 20.5302 151.766 20.4645C151.368 20.3771 150.958 20.3333 150.537 20.3333C149.651 20.3333 148.831 20.552 148.078 20.9894C147.347 21.4268 146.771 22.061 146.35 22.8921V33.9471H141.797Z" fill="#2C343D"/>
<path d="M160.339 34.7344L160.605 34.1111L153.86 16.8561H158.877L163.164 28.5016L168.082 16.8561H173L165.025 35.2921C164.139 37.3478 163.109 38.813 161.934 39.6878C160.76 40.5626 159.232 41 157.349 41C156.95 41 156.562 40.9781 156.186 40.9344C155.831 40.9125 155.543 40.8688 155.322 40.8032V36.9323C155.543 36.976 155.776 37.0088 156.019 37.0307C156.263 37.0526 156.562 37.0635 156.917 37.0635C157.736 37.0635 158.423 36.8667 158.977 36.473C159.553 36.0794 160.007 35.4998 160.339 34.7344Z" fill="#2C343D"/>
<defs>
<linearGradient id="paint0_linear" x1="50" y1="-6.0606" x2="-3.40909" y2="57.9546" gradientUnits="userSpaceOnUse">
<stop stop-color="#2C343D"/>
<stop offset="1" stop-color="#2C343D"/>
</linearGradient>
<linearGradient id="paint1_linear" x1="50" y1="-6.0606" x2="-3.40909" y2="57.9546" gradientUnits="userSpaceOnUse">
<stop stop-color="#FF3B00"/>
<stop offset="0.9999" stop-color="#DB3200"/>
<stop offset="1" stop-color="#3ABAB4"/>
</linearGradient>
</defs>
</svg>
