<svg width="628" height="131" viewBox="0 0 628 131" fill="none" xmlns="http://www.w3.org/2000/svg">
<path d="M0 29.6131C0 13.2582 13.2582 0 29.6131 0H100.684C117.039 0 130.297 13.2582 130.297 29.6131V100.684C130.297 117.039 117.039 130.297 100.684 130.297H29.6131C13.2582 130.297 0 117.039 0 100.684V29.6131Z" fill="url(#paint0_linear)"/>
<mask id="mask0" mask-type="alpha" maskUnits="userSpaceOnUse" x="0" y="0" width="131" height="131">
<path d="M0 29.6131C0 13.2582 13.2582 0 29.6131 0H100.684C117.039 0 130.297 13.2582 130.297 29.6131V100.684C130.297 117.039 117.039 130.297 100.684 130.297H29.6131C13.2582 130.297 0 117.039 0 100.684V29.6131Z" fill="url(#paint1_linear)"/>
</mask>
<g mask="url(#mask0)">
<path d="M39.5265 77.7217C37.4134 77.1554 35.2386 78.432 34.6642 80.5757L30.5071 96.0903C29.9328 98.2335 31.1779 100.427 33.291 100.993C35.4042 101.559 37.579 100.282 38.1533 98.1391L42.3104 82.6245C42.8848 80.4808 41.6397 78.2879 39.5265 77.7217ZM85.4036 90.0144C83.2906 89.4482 81.1165 90.725 80.5421 92.8687L76.385 108.383C75.8107 110.526 77.0551 112.719 79.1681 113.286C81.2812 113.852 83.4564 112.575 84.0307 110.432L88.1878 94.9174C88.7622 92.7736 87.5166 90.5806 85.4036 90.0144Z" fill="#0EE7BC"/>
<path d="M69.1913 28.3034C67.086 27.7393 64.9252 28.9906 64.3598 31.1009L55.1527 65.4621L47.5367 63.4215L56.7438 29.0602C57.3093 26.9499 56.0636 24.7859 53.9587 24.2219C51.854 23.6579 49.6932 24.9092 49.1277 27.0195L39.9207 61.3807L32.3047 59.3401L41.5118 24.9788C42.0773 22.8685 40.8316 20.7045 38.7267 20.1405C36.622 19.5765 34.4612 20.8278 33.8957 22.9381L23.6656 61.1173C20.8454 71.6427 27.0889 82.4947 37.5906 85.3086C48.0924 88.1226 58.9251 81.8462 61.7454 71.3208L71.9755 33.1415C72.5409 31.0312 71.2951 28.8671 69.1913 28.3034ZM43.1605 94.9858L27.9285 90.9044C25.8236 90.3404 23.6631 91.591 23.0976 93.7016L10.6852 140.025C8.99291 146.341 12.7407 152.852 19.04 154.54C25.3395 156.228 31.8409 152.463 33.5332 146.147L45.9455 99.8237C46.5111 97.713 45.2653 95.5497 43.1605 94.9858ZM88.8568 107.23L73.6246 103.149C71.5198 102.585 69.3589 103.835 68.7934 105.946L56.381 152.269C54.6887 158.585 58.4362 165.096 64.7357 166.784C71.0352 168.472 77.5375 164.707 79.2298 158.392L91.6421 112.068C92.2077 109.957 90.9616 107.794 88.8568 107.23ZM83.2863 97.5527C93.9666 100.415 105.921 89.2397 110.511 72.1112C115.1 54.9827 110.335 39.3278 99.6544 36.466C88.9741 33.6042 77.0206 44.7793 72.4311 61.9078C67.8415 79.0363 72.606 94.691 83.2863 97.5527Z" fill="#0EE7BC"/>
</g>
<path d="M536.055 50.5663C536.055 51.0549 535.887 51.4519 535.551 51.7573C535.215 52.0322 534.803 52.1696 534.314 52.1696H511.09V52.6735C511.09 54.5363 510.952 56.5213 510.678 58.6285C510.403 60.7356 510.021 62.8428 509.532 64.9499C509.074 67.0265 508.54 69.0573 507.929 71.0423C507.349 73.0273 506.738 74.8597 506.097 76.5393C505.486 78.2189 504.875 79.6847 504.265 80.9368C503.654 82.1583 503.104 83.0745 502.615 83.6853C503.012 85.09 503.486 86.4032 504.035 87.6247C504.585 88.8157 505.196 89.8693 505.868 90.7855C506.57 91.6711 507.318 92.3735 508.112 92.8926C508.906 93.4118 509.761 93.6713 510.678 93.6713C511.746 93.6713 512.8 93.2285 513.838 92.3429C514.907 91.4268 515.884 90.3579 516.77 89.1364C517.686 87.8843 518.48 86.6322 519.152 85.3801C519.854 84.0975 520.358 83.0745 520.664 82.311C520.969 81.5781 521.503 81.2117 522.267 81.2117C522.786 81.2117 523.198 81.3949 523.504 81.7613C523.84 82.1278 524.008 82.5248 524.008 82.9523C524.008 83.1661 523.962 83.3799 523.87 83.5937C523.779 83.8074 523.55 84.296 523.183 85.0595C522.847 85.823 522.389 86.7086 521.809 87.7163C521.259 88.7241 520.603 89.793 519.839 90.9229C519.106 92.0223 518.266 93.03 517.32 93.9462C516.404 94.8623 515.411 95.6258 514.342 96.2366C513.273 96.8473 512.143 97.1527 510.952 97.1527C508.845 97.1527 506.952 96.4656 505.272 95.0914C503.593 93.7171 502.157 91.7932 500.966 89.3196C499.806 86.846 498.92 83.9143 498.31 80.5245C497.699 77.1348 497.393 73.4243 497.393 69.3933C497.393 68.3855 497.409 67.2098 497.439 65.8661C497.47 64.4919 497.531 63.0565 497.622 61.5602C497.714 60.0332 497.851 58.4758 498.035 56.8878C498.218 55.2692 498.462 53.6965 498.768 52.1696H482.323C481.834 52.1696 481.422 52.0322 481.086 51.7573C480.75 51.4519 480.582 51.0549 480.582 50.5663C480.582 50.0777 480.75 49.696 481.086 49.4211C481.422 49.1157 481.834 48.9631 482.323 48.9631H499.546C499.852 47.8637 500.203 46.8559 500.6 45.9397C501.027 45.0236 501.501 44.2296 502.02 43.5577C502.57 42.8859 503.165 42.3667 503.806 42.0003C504.478 41.6033 505.211 41.4048 506.005 41.4048C506.769 41.4048 507.425 41.6033 507.975 42.0003C508.555 42.3667 509.044 42.8859 509.441 43.5577C509.838 44.2296 510.143 45.0236 510.357 45.9397C510.601 46.8559 510.784 47.8637 510.907 48.9631H534.314C534.803 48.9631 535.215 49.1157 535.551 49.4211C535.887 49.696 536.055 50.0777 536.055 50.5663ZM501.562 79.1045C502.478 77.089 503.303 74.9207 504.035 72.5998C504.799 70.2483 505.44 67.8816 505.959 65.4996C506.509 63.1176 506.921 60.7814 507.196 58.491C507.502 56.2007 507.654 54.0935 507.654 52.1696H502.249C501.821 54.063 501.47 56.4144 501.195 59.224C500.951 62.003 500.829 65.3927 500.829 69.3933C500.829 71.6226 500.89 73.5007 501.012 75.0276C501.134 76.524 501.318 77.883 501.562 79.1045ZM505.822 44.8404C505.547 44.8404 505.15 45.1457 504.631 45.7565C504.112 46.3367 503.593 47.4056 503.074 48.9631H507.471C507.318 47.6804 507.089 46.6727 506.784 45.9397C506.509 45.2068 506.188 44.8404 505.822 44.8404ZM502.295 82.4026V82.4485V82.4026Z" fill="#0EE7BC"/>
<path d="M528.314 60.4608C528.314 61.6212 527.901 62.6137 527.077 63.4383C526.283 64.2323 525.305 64.6293 524.145 64.6293C522.985 64.6293 521.992 64.2323 521.168 63.4383C520.374 62.6137 519.977 61.6212 519.977 60.4608C519.977 59.8805 520.083 59.3461 520.297 58.8575C520.511 58.3384 520.801 57.8955 521.168 57.5291C521.565 57.1321 522.007 56.8267 522.496 56.6129C523.015 56.3992 523.565 56.2923 524.145 56.2923C524.725 56.2923 525.26 56.3992 525.748 56.6129C526.267 56.8267 526.71 57.1321 527.077 57.5291C527.474 57.8955 527.779 58.3384 527.993 58.8575C528.207 59.3461 528.314 59.8805 528.314 60.4608ZM520.893 87.3041C520.893 82.9065 521.168 78.5243 521.717 74.1573C521.778 73.7297 521.962 73.3633 522.267 73.0579C522.603 72.722 523.03 72.554 523.55 72.554C524.008 72.554 524.389 72.7372 524.695 73.1037C525 73.4396 525.153 73.8366 525.153 74.2947C525.153 74.4779 525.107 75.0276 525.015 75.9438C524.954 76.8599 524.863 77.9593 524.741 79.2419C524.649 80.494 524.557 81.8377 524.466 83.273C524.405 84.6778 524.374 85.9756 524.374 87.1666C524.374 88.7852 524.527 90.0983 524.832 91.1061C525.168 92.0833 525.58 92.8468 526.069 93.3965C526.588 93.9462 527.123 94.3126 527.672 94.4959C528.252 94.6791 528.802 94.7707 529.321 94.7707C530.176 94.7707 531.062 94.4653 531.978 93.8546C532.894 93.2438 533.826 92.3887 534.772 91.2893C535.75 90.19 536.727 88.8768 537.704 87.3499C538.681 85.7924 539.643 84.067 540.59 82.1736C540.743 81.8682 540.956 81.6392 541.231 81.4865C541.506 81.3033 541.812 81.2117 542.147 81.2117C542.636 81.2117 543.033 81.3949 543.338 81.7613C543.674 82.1278 543.842 82.5248 543.842 82.9523C543.842 83.2577 543.781 83.5173 543.659 83.7311C543.293 84.4335 542.835 85.2885 542.285 86.2963C541.735 87.3041 541.109 88.3424 540.407 89.4112C539.704 90.4801 538.926 91.5489 538.071 92.6178C537.246 93.6561 536.36 94.6028 535.414 95.4578C534.467 96.2824 533.475 96.9542 532.436 97.4734C531.398 97.9925 530.344 98.2521 529.275 98.2521C527.901 98.2521 526.695 97.962 525.657 97.3818C524.618 96.8015 523.733 96.0228 523 95.0456C522.297 94.0683 521.763 92.9231 521.397 91.61C521.061 90.2663 520.893 88.831 520.893 87.3041ZM525.748 60.4608C525.748 60.0332 525.58 59.6668 525.244 59.3614C524.939 59.0255 524.573 58.8575 524.145 58.8575C523.717 58.8575 523.351 59.0255 523.046 59.3614C522.74 59.6668 522.588 60.0332 522.588 60.4608C522.588 60.8883 522.74 61.2548 523.046 61.5602C523.351 61.8655 523.717 62.0182 524.145 62.0182C524.573 62.0182 524.939 61.8655 525.244 61.5602C525.58 61.2548 525.748 60.8883 525.748 60.4608Z" fill="#0EE7BC"/>
<path d="M551.126 92.3429C551.584 91.4268 552.164 90.2968 552.866 88.9531C553.599 87.5789 554.348 86.2047 555.111 84.8305C555.905 83.4562 556.668 82.1583 557.401 80.9368C558.165 79.7153 558.806 78.7838 559.325 78.1425C560.211 77.0737 561.127 76.3102 562.074 75.8522C563.02 75.3941 563.891 75.165 564.685 75.165C565.479 75.165 566.151 75.333 566.7 75.6689C567.281 76.0048 567.754 76.4629 568.12 77.0432C568.487 77.5928 568.762 78.2494 568.945 79.0129C569.128 79.7458 569.22 80.5398 569.22 81.3949C569.22 81.8835 569.189 82.5248 569.128 83.3188C569.098 84.1128 569.052 84.9679 568.991 85.884C568.96 86.8002 568.914 87.7469 568.853 88.7241C568.823 89.7013 568.792 90.6175 568.762 91.4726C569.22 90.5564 569.739 89.5486 570.319 88.4493C570.899 87.3193 571.48 86.2047 572.06 85.1053C572.671 84.0059 573.251 82.9829 573.801 82.0362C574.35 81.059 574.854 80.265 575.312 79.6542C576.625 77.8524 577.847 76.6462 578.977 76.0354C580.137 75.4246 581.16 75.1192 582.046 75.1192C583.084 75.1192 583.939 75.3177 584.611 75.7147C585.283 76.0812 585.802 76.5698 586.169 77.1806C586.566 77.7608 586.84 78.4174 586.993 79.1503C587.146 79.8832 587.222 80.5856 587.222 81.2575C587.222 82.2958 587.146 83.3799 586.993 84.5098C586.84 85.6397 586.764 86.9834 586.764 88.5409C586.764 89.1822 586.795 89.8235 586.856 90.4648C586.917 91.1061 587.039 91.6711 587.222 92.1597C587.436 92.6483 587.757 93.0453 588.184 93.3507C588.612 93.6561 589.192 93.8088 589.925 93.8088C590.719 93.8088 591.498 93.6103 592.261 93.2133C593.025 92.7857 593.757 92.236 594.46 91.5642C595.162 90.8923 595.819 90.1289 596.43 89.2738C597.071 88.4187 597.651 87.5636 598.17 86.7086C598.689 85.8535 599.147 85.0442 599.544 84.2808C599.941 83.4868 600.262 82.8149 600.506 82.2652C600.659 81.9293 600.873 81.6697 601.148 81.4865C601.423 81.3033 601.728 81.2117 602.064 81.2117C602.583 81.2117 602.995 81.4102 603.301 81.8072C603.637 82.1736 603.805 82.5706 603.805 82.9981C603.805 83.2119 603.759 83.4257 603.667 83.6395C603.545 83.8838 603.301 84.4029 602.934 85.1969C602.568 85.9604 602.079 86.846 601.468 87.8538C600.858 88.831 600.14 89.8693 599.315 90.9687C598.521 92.0681 597.636 93.0911 596.659 94.0378C595.681 94.954 594.628 95.7174 593.498 96.3282C592.368 96.9084 591.177 97.1985 589.925 97.1985C588.581 97.1985 587.482 96.9542 586.627 96.4656C585.802 96.0075 585.13 95.3815 584.611 94.5875C584.123 93.7935 583.787 92.8773 583.603 91.839C583.42 90.8007 583.329 89.7166 583.329 88.5867C583.329 87.0903 583.405 85.7161 583.558 84.464C583.71 83.1814 583.787 82.1889 583.787 81.4865C583.787 80.723 583.71 80.1428 583.558 79.7458C583.435 79.3488 583.267 79.074 583.054 78.9213C582.87 78.738 582.687 78.6464 582.504 78.6464C582.321 78.6159 582.183 78.6006 582.092 78.6006C581.359 78.6006 580.58 79.0129 579.756 79.8374C578.962 80.6314 578.137 81.7003 577.282 83.044C576.427 84.3876 575.541 85.9146 574.625 87.6247C573.739 89.3349 572.839 91.0756 571.922 92.8468C571.403 93.824 570.96 94.6333 570.594 95.2746C570.258 95.9159 569.922 96.4198 569.586 96.7863C569.281 97.1527 568.975 97.4123 568.67 97.565C568.365 97.7177 568.029 97.794 567.662 97.794C566.868 97.794 566.258 97.5192 565.83 96.9695C565.433 96.4198 565.235 95.7021 565.235 94.8165C565.235 94.3585 565.25 93.7477 565.28 92.9842C565.311 92.2208 565.341 91.381 565.372 90.4648C565.402 89.5486 565.448 88.602 565.509 87.6247C565.57 86.6475 565.616 85.7161 565.647 84.8305C565.677 83.9143 565.708 83.105 565.738 82.4026C565.769 81.7003 565.784 81.1658 565.784 80.7994C565.784 80.0054 565.647 79.4404 565.372 79.1045C565.097 78.738 564.776 78.5548 564.41 78.5548C564.074 78.5548 563.692 78.677 563.265 78.9213C562.868 79.1656 562.394 79.6389 561.845 80.3413C561.417 80.891 560.868 81.7003 560.196 82.7691C559.554 83.8074 558.867 84.9679 558.134 86.2505C557.401 87.5331 556.668 88.8463 555.936 90.19C555.233 91.5336 554.622 92.7399 554.103 93.8088C553.462 95.0914 552.821 95.9617 552.179 96.4198C551.538 96.9084 550.912 97.1527 550.301 97.1527C549.416 97.1527 548.759 96.8931 548.331 96.374C547.904 95.8243 547.69 95.1066 547.69 94.221C547.69 94.1294 547.705 93.5797 547.736 92.572C547.797 91.5642 547.858 90.3426 547.919 88.9073C547.98 87.4415 548.041 85.884 548.102 84.235C548.194 82.5859 548.27 81.0437 548.331 79.6084C548.362 78.8449 548.331 78.1425 548.24 77.5012C548.148 76.8599 548.026 76.4782 547.873 76.356C547.629 76.4171 547.14 76.9821 546.408 78.0509C545.705 79.1198 544.804 80.9826 543.705 83.6395C543.552 83.9754 543.323 84.235 543.018 84.4182C542.712 84.6014 542.392 84.693 542.056 84.693C541.537 84.693 541.124 84.5251 540.819 84.1891C540.514 83.8227 540.361 83.4104 540.361 82.9523C540.361 82.7386 540.407 82.5095 540.498 82.2652C541.873 78.9976 543.186 76.6003 544.438 75.0734C545.69 73.516 546.911 72.7372 548.102 72.7372C548.805 72.7372 549.385 72.9052 549.843 73.2411C550.332 73.5465 550.713 73.9588 550.988 74.4779C551.263 74.9665 551.462 75.5315 551.584 76.1728C551.706 76.8141 551.767 77.4402 551.767 78.0509C551.767 80.7688 551.691 83.2577 551.538 85.5176C551.416 87.7774 551.278 90.0525 551.126 92.3429Z" fill="#0EE7BC"/>
<path d="M606.049 91.381C606.69 92.2666 607.515 92.9842 608.523 93.5339C609.531 94.0531 610.767 94.3126 612.233 94.3126C613.73 94.3126 615.089 93.9615 616.31 93.2591C617.532 92.5261 618.646 91.5795 619.654 90.419C620.662 89.2585 621.563 87.9606 622.357 86.5253C623.151 85.09 623.868 83.6547 624.51 82.2194C624.662 81.8835 624.876 81.6392 625.151 81.4865C625.426 81.3033 625.731 81.2117 626.067 81.2117C626.586 81.2117 626.999 81.3949 627.304 81.7613C627.64 82.1278 627.808 82.5248 627.808 82.9523C627.808 83.105 627.793 83.2425 627.762 83.3646C627.731 83.4562 627.686 83.5631 627.625 83.6853C625.517 88.3271 623.212 91.8238 620.708 94.1752C618.234 96.5267 615.424 97.733 612.279 97.794C610.263 97.794 608.523 97.397 607.057 96.603C605.591 95.8396 604.385 94.8471 603.438 93.6255C602.491 92.3735 601.789 90.9687 601.331 89.4112C600.873 87.8538 600.644 86.2963 600.644 84.7388C600.644 83.1814 600.827 81.7461 601.194 80.4329C601.591 79.1198 602.14 77.9746 602.843 76.9973C603.576 76.0201 604.431 75.2567 605.408 74.707C606.416 74.1573 607.515 73.8824 608.706 73.8824C609.408 73.8824 610.095 74.0351 610.767 74.3405C611.47 74.6153 612.096 75.0276 612.645 75.5773C613.195 76.0965 613.638 76.7378 613.974 77.5012C614.31 78.2647 614.478 79.135 614.478 80.1123C614.478 81.3643 614.264 82.5401 613.836 83.6395C613.409 84.7388 612.813 85.7619 612.05 86.7086C611.317 87.6553 610.431 88.5256 609.393 89.3196C608.355 90.1136 607.24 90.8007 606.049 91.381ZM604.675 88.4035C605.622 88.0065 606.477 87.5026 607.24 86.8918C608.034 86.281 608.706 85.6092 609.256 84.8763C609.805 84.1433 610.233 83.3799 610.538 82.5859C610.844 81.7613 610.996 80.9368 610.996 80.1123C610.996 79.1961 610.767 78.509 610.309 78.0509C609.851 77.5623 609.317 77.318 608.706 77.318C607.881 77.318 607.179 77.547 606.599 78.0051C606.019 78.4632 605.545 79.0587 605.179 79.7916C604.812 80.5245 604.537 81.3491 604.354 82.2652C604.202 83.1508 604.125 84.0365 604.125 84.9221C604.125 85.4718 604.171 86.052 604.263 86.6628C604.385 87.2735 604.522 87.8538 604.675 88.4035Z" fill="#0EE7BC"/>
<path d="M169.387 97.7226V32.0527L182.239 29.2383V52.6918C184.115 51.1282 186.179 49.9399 188.431 49.1269C190.745 48.3138 193.247 47.9073 195.936 47.9073C201.565 47.9073 206.193 49.721 209.82 53.3485C213.448 56.976 215.262 61.6354 215.262 67.3268V97.7226H202.409V69.2031C202.409 66.1385 201.471 63.6681 199.595 61.7918C197.781 59.9155 195.342 58.9774 192.277 58.9774C190.151 58.9774 188.212 59.4152 186.461 60.2908C184.772 61.1038 183.365 62.2921 182.239 63.8557V97.7226H169.387Z" fill="white"/>
<path d="M237.016 48.8454V77.2711C237.016 80.3983 237.923 82.9 239.737 84.7762C241.613 86.6525 244.084 87.5907 247.148 87.5907C249.337 87.5907 251.276 87.1841 252.965 86.3711C254.716 85.4955 256.154 84.2759 257.28 82.7123V48.8454H270.133V97.7226H257.28V93.7824C255.404 95.346 253.309 96.5655 250.995 97.4411C248.68 98.2542 246.179 98.6607 243.489 98.6607C237.861 98.6607 233.232 96.847 229.605 93.2195C225.977 89.5295 224.164 84.8388 224.164 79.1474V48.8454H237.016Z" fill="white"/>
<path d="M280.149 97.7226V48.8454H293.002V52.6918C294.878 51.1282 296.942 49.9399 299.194 49.1269C301.508 48.3138 304.01 47.9073 306.699 47.9073C312.328 47.9073 316.956 49.721 320.583 53.3485C324.211 56.976 326.025 61.6354 326.025 67.3268V97.7226H313.172V69.2031C313.172 66.1385 312.234 63.6681 310.358 61.7918C308.544 59.9155 306.105 58.9774 303.04 58.9774C300.914 58.9774 298.975 59.4152 297.224 60.2908C295.535 61.1038 294.128 62.2921 293.002 63.8557V97.7226H280.149Z" fill="white"/>
<path d="M358.275 98.004C354.836 98.004 351.583 97.3473 348.519 96.0339C345.517 94.7205 342.89 92.9381 340.638 90.6865C338.449 88.435 336.698 85.8082 335.385 82.8061C334.134 79.7415 333.508 76.4581 333.508 72.9557C333.508 69.5158 334.165 66.2949 335.479 63.2928C336.792 60.2282 338.574 57.5701 340.826 55.3186C343.078 53.0671 345.736 51.3159 348.8 50.065C351.865 48.7516 355.148 48.0949 358.651 48.0949C361.09 48.0949 363.404 48.4389 365.593 49.1269C367.844 49.8148 369.94 50.7843 371.878 52.0351V48.8454H384.543V97.7226C384.543 104.164 382.448 109.137 378.258 112.639C374.13 116.141 368.157 117.893 360.339 117.893C356.587 117.893 352.959 117.517 349.457 116.767C346.017 116.016 342.859 114.922 339.982 113.483L344.485 103.445C347.174 104.759 349.801 105.728 352.365 106.353C354.929 107.041 357.494 107.385 360.058 107.385C363.873 107.385 366.75 106.541 368.689 104.852C370.69 103.226 371.691 100.818 371.691 97.6288V93.5948C369.752 95.0332 367.626 96.1277 365.311 96.8783C363.06 97.6288 360.715 98.004 358.275 98.004ZM346.173 72.9557C346.173 76.8959 347.518 80.2419 350.207 82.9938C352.959 85.7457 356.305 87.1216 360.245 87.1216C362.56 87.1216 364.686 86.7463 366.625 85.9958C368.564 85.1828 370.252 84.0883 371.691 82.7123V63.4804C370.315 62.1045 368.626 61.0413 366.625 60.2908C364.623 59.4777 362.528 59.0712 360.339 59.0712C356.399 59.0712 353.053 60.4158 350.301 63.1052C347.549 65.7945 346.173 69.078 346.173 72.9557Z" fill="white"/>
<path d="M394.669 97.7226V48.8454H407.521V54.1928C409.085 52.0664 410.961 50.4715 413.15 49.4083C415.402 48.2825 417.872 47.7197 420.561 47.7197C421.812 47.7822 422.844 47.9073 423.657 48.0949C424.533 48.22 425.283 48.4702 425.909 48.8454V60.1031C424.971 59.6653 423.939 59.3526 422.813 59.165C421.687 58.9148 420.53 58.7897 419.342 58.7897C416.84 58.7897 414.526 59.4152 412.4 60.666C410.336 61.9169 408.71 63.7306 407.521 66.1072V97.7226H394.669Z" fill="white"/>
<path d="M447.016 99.9741L447.767 98.1917L428.722 48.8454H442.888L454.99 82.1494L468.875 48.8454H482.759L460.244 101.569C457.742 107.448 454.834 111.638 451.519 114.14C448.205 116.642 443.889 117.893 438.573 117.893C437.447 117.893 436.353 117.83 435.289 117.705C434.289 117.642 433.476 117.517 432.85 117.33V106.26C433.476 106.385 434.132 106.479 434.82 106.541C435.508 106.604 436.353 106.635 437.353 106.635C439.667 106.635 441.606 106.072 443.17 104.946C444.796 103.821 446.078 102.163 447.016 99.9741Z" fill="white"/>
<defs>
<linearGradient id="paint0_linear" x1="130.297" y1="-15.7936" x2="-8.88391" y2="151.027" gradientUnits="userSpaceOnUse">
<stop stop-color="#2C343D"/>
<stop offset="1" stop-color="#2C343D"/>
</linearGradient>
<linearGradient id="paint1_linear" x1="130.297" y1="-15.7936" x2="-8.88391" y2="151.027" gradientUnits="userSpaceOnUse">
<stop stop-color="#FF3B00"/>
<stop offset="0.9999" stop-color="#DB3200"/>
<stop offset="1" stop-color="#3ABAB4"/>
</linearGradient>
</defs>
</svg>
