<svg width="142" height="144" viewBox="0 0 142 144" fill="none" xmlns="http://www.w3.org/2000/svg">
<path d="M70.9485 141.897C110.132 141.897 141.897 110.132 141.897 70.9485C141.897 31.7647 110.132 0 70.9485 0C31.7647 0 0 31.7647 0 70.9485C0 110.132 31.7647 141.897 70.9485 141.897Z" fill="#24285B"/>
<path d="M110.889 62.7576C110.889 62.7576 132.681 77.0894 126.672 114.898C126.672 114.898 119.871 124.033 110.818 129.656L110.889 62.7576Z" fill="#68E1FD"/>
<path opacity="0.46" d="M110.889 62.7576C110.889 62.7576 132.681 77.0894 126.672 114.898C126.672 114.898 119.871 124.033 110.818 129.656L110.889 62.7576Z" fill="white"/>
<path d="M75.252 25.3957C75.252 25.3957 76.7136 32.4296 76.0742 37.3016C76.0117 37.7722 75.8571 38.2259 75.6192 38.6367C75.3813 39.0475 75.0648 39.4074 74.6877 39.6958C74.3107 39.9843 73.8805 40.1956 73.4218 40.3177C72.963 40.4398 72.4847 40.4703 72.0142 40.4075C69.568 40.0523 66.3606 38.8546 65.1122 35.1803L62.2397 29.2019C61.7933 27.9413 61.7488 26.5732 62.1124 25.2862C62.476 23.9991 63.2297 22.8565 64.2697 22.0157C67.9237 18.6459 74.572 21.0616 75.252 25.3957Z" fill="#F4A28C"/>
<path d="M62.7575 30.2876L61.8237 53.8153L74.8259 53.4093L70.2787 36.4486L62.7575 30.2876Z" fill="#F4A28C"/>
<path d="M73.5165 25.9028C71.3219 26.2512 69.0943 26.3432 66.8784 26.1768C67.6304 27.0704 68.1043 28.1647 68.2413 29.3245C68.3784 30.4844 68.1728 31.659 67.6498 32.7033C67.1628 33.7256 66.3356 34.5468 65.3098 35.0264C64.284 35.506 63.1234 35.614 62.0267 35.3321L61.0117 26.1971C60.8194 24.8744 60.993 23.5242 61.5136 22.2932C62.0343 21.0621 62.8823 19.9972 63.9654 19.2139C64.8877 18.5318 65.8541 17.9113 66.8581 17.3565C69.3652 15.9862 73.4455 17.2854 75.5973 15.225C75.8151 15.02 76.0821 14.8749 76.3725 14.8035C76.6629 14.7322 76.9669 14.7371 77.2548 14.8178C77.5428 14.8984 77.805 15.0521 78.0161 15.264C78.2272 15.4758 78.3799 15.7386 78.4596 16.0268C79.2005 18.7673 79.231 23.213 75.6379 25.1618C74.9763 25.5237 74.2596 25.774 73.5165 25.9028Z" fill="#FFD200"/>
<path d="M68.3906 32.4093C68.3906 32.4093 68.0049 29.6688 65.9647 30.1256C63.9246 30.5823 64.4524 34.551 67.3045 34.5916L68.3906 32.4093Z" fill="#F4A28C"/>
<path d="M75.9423 29.8716L78.2565 32.4091C78.3889 32.5516 78.4828 32.7255 78.5294 32.9144C78.576 33.1032 78.5739 33.3008 78.5231 33.4886C78.4724 33.6764 78.3747 33.8481 78.2393 33.9878C78.1039 34.1274 77.9352 34.2303 77.749 34.2868L75.0796 35.1191L75.9423 29.8716Z" fill="#F4A28C"/>
<path opacity="0.31" d="M71.4356 40.113C69.7756 39.8939 68.2179 39.1875 66.9595 38.083C66.9595 38.083 67.6497 42.3359 72.8566 46L71.4356 40.113Z" fill="#CE8172"/>
<path d="M23.3856 123.596C23.3856 123.596 -12.4134 63.5389 60.9406 53.4498H74.7852C74.7852 53.4498 147.561 44.5482 110.747 129.697C98.3452 138.877 83.1678 143.523 67.7523 142.856C52.3367 142.189 37.6173 136.25 26.0551 126.032L23.3856 123.596Z" fill="#68E1FD"/>
<path d="M55.1653 54.0285L72.8567 118.471L83.0067 53.1353C83.0067 53.1353 64.3003 51.694 55.1653 54.0285Z" fill="#24285B"/>
<path d="M66.2491 62.9707L65.6604 92.2839L72.8567 118.471L77.1198 91.0558L70.9384 62.7576L66.2491 62.9707Z" fill="white"/>
<path d="M63.8638 56.5964C63.8638 56.5964 62.7067 63.2345 66.5333 63.468C73.5368 63.9146 72.6232 62.2703 71.7605 55.754L67.467 52.709L63.8638 56.5964Z" fill="white"/>
<path opacity="0.32" d="M55.1654 54.0283L42.8433 80.8142L60.0069 89.1981L53.2267 102.901L72.8568 118.471L55.1654 54.0283Z" fill="white"/>
<path opacity="0.32" d="M72.8567 118.471L83.027 53.1353L96.3336 80.4997L81.7887 89.3708L90.3045 103.743L72.8567 118.471Z" fill="white"/>
<path opacity="0.08" d="M40.3259 88.3049C40.3259 88.3049 46.3042 96.9121 46.832 114.746C47.3598 132.579 58.2609 143.693 88.3455 140.527C88.3455 140.527 65.2746 149.296 37.291 134.01L27.6587 98.0083L40.3259 88.3049Z" fill="black"/>
<path d="M104.677 88.3049H91.0151V91.8574H104.677V88.3049Z" fill="white"/>
<path d="M55.1653 54.0283L62.0673 47.6744L67.4671 52.7494L73.0496 46.7812L83.027 53.1351L75.0796 58.7278L67.9238 56.8602L61.8541 59.5296L55.1653 54.0283Z" fill="#24285B"/>
<path d="M16.037 81.8394C12.9108 89.7869 11.2563 100.546 14.6566 114.127C20.9487 122.058 28.6155 128.793 37.2911 134.01C37.2911 134.01 35.1494 113.01 38.6715 100.515C40.4782 94.1412 40.8334 88.5892 39.6865 83.4939C37.1388 71.6082 20.4928 70.4816 16.037 81.8394Z" fill="#68E1FD"/>
<path opacity="0.32" d="M16.037 81.8394C12.9108 89.7869 11.2563 100.546 14.6566 114.127C20.9487 122.058 28.6155 128.793 37.2911 134.01C37.2911 134.01 35.1494 113.01 38.6715 100.515C40.4782 94.1412 40.8334 88.5892 39.6865 83.4939C37.1388 71.6082 20.4928 70.4816 16.037 81.8394Z" fill="white"/>
<path d="M72.3694 131.097C73.726 131.097 74.8257 129.998 74.8257 128.641C74.8257 127.285 73.726 126.185 72.3694 126.185C71.0128 126.185 69.9131 127.285 69.9131 128.641C69.9131 129.998 71.0128 131.097 72.3694 131.097Z" fill="#24285B"/>
</svg>
