<svg id="Layer_1" data-name="Layer 1" xmlns="http://www.w3.org/2000/svg" viewBox="0 0 400 300" width="406" height="306" class="illustration styles_illustrationTablet__1DWOa"><title>_</title><path d="M345.25,114.3c-10.49-31-31.64-51-67-57.49-49-9-110.87-9.44-158.25-.42C102.32,59.76,84.6,66,72.32,78.14c-22.75,22.48-28.89,72-7.24,96.86,9.63,11.05,25.73,15.19,40.9,17.68,57.72,9.47,116.92,4.23,175.4.3,13.56-.92,27.69-1.91,39.39-8.27C345.59,171.22,353.34,138.25,345.25,114.3Z" fill="#dddbdb" opacity="0.18"></path><path d="M175.47,144.65c0,3.36-1.6,7.72-3.57,7.72s-3.58-4.36-3.58-7.72,1.61-4.47,3.58-4.47S175.47,141.28,175.47,144.65Z" fill="#519fff"></path><path d="M96.65,123.25c-2.36,1.46-5.54.57-6.05-2.4a3.21,3.21,0,0,1,.51-2.31,16.9,16.9,0,0,1,1.55-1.62A5.23,5.23,0,0,0,93.79,115a2.62,2.62,0,0,0-.42-2.68,7.84,7.84,0,0,1,4.1,2.44A6.25,6.25,0,0,1,99,119.21,5.24,5.24,0,0,1,96.65,123.25Z" fill="#ffd200"></path><path d="M101.32,127.16c-.64-2.14-3.33-2-5.4-1.87a6,6,0,0,1,.2-.81,19.65,19.65,0,0,0,.86-2.2.5.5,0,1,0-1-.27,4.15,4.15,0,0,1-.41,1.08,7.7,7.7,0,0,0-.48,1.2,6.12,6.12,0,0,0-.22,1h-.17c-1.36,0-3.47-.62-4.5.5a1.08,1.08,0,0,0-.18.24c-.78,1.2-.39,2.84-.39,4.18v58.91h10V133.33c0-.59.22-3.23.57-3.52.15-.13.33-.22.49-.34A2.17,2.17,0,0,0,101.32,127.16Z" fill="#dddbdb"></path><rect x="70.69" y="219.3" width="253.83" height="17.7" fill="#ccc"></rect><rect x="62.52" y="210.45" width="273.91" height="10.89" rx="4.94" fill="#ccc"></rect><rect x="62.52" y="210.45" width="273.91" height="10.89" rx="4.94" opacity="0.1"></rect><polygon points="201.52 266.96 98.71 210.45 296.83 210.45 201.52 266.96" fill="#24285b"></polygon><path d="M315.56,138.1v29.62a13.34,13.34,0,0,1-.45,3.48,13.81,13.81,0,0,1-11.3,10.14v25.27l8.26,3.83h-20.6l8.26-3.93V181.34A13.78,13.78,0,0,1,288,167.72V138.1Z" fill="#dddbdb"></path><path d="M290.41,157.17v10.34a11.37,11.37,0,0,0,11.36,11.36h0a11.37,11.37,0,0,0,11.37-11.36V157.17Z" fill="#519fff"></path><path d="M303.81,206.61l8.26,3.83h-20.6l8.26-3.93V181.34A13.78,13.78,0,0,1,288,167.72V166.2c.77.57,14.11,9.5,24.43,10.29a13.8,13.8,0,0,1-8.6,4.85Z" opacity="0.1"></path><rect x="254.73" y="75.11" width="12.85" height="8.74" fill="#ffd200"></rect><path d="M280.81,139.26v71.19H241.49V139.26a19.66,19.66,0,1,1,39.32,0Z" fill="#dddbdb"></path><rect x="254.39" y="85.64" width="13.53" height="46.85" fill="#dddbdb"></rect><rect x="252.6" y="82.62" width="17.11" height="3.02" rx="0.89" fill="#ccc"></rect><rect x="244.56" y="141.5" width="33.19" height="65.54" fill="#519fff"></rect><rect x="244.56" y="160.65" width="26.43" height="31.4" fill="#ffd200"></rect><path d="M280.81,181.07v29.38H241.49V153.11c1,1.89,2,3.75,3.07,5.56.41.67.82,1.33,1.25,2,.69,1.06,1.41,2.1,2.17,3.12,5.72,7.69,13.75,14.1,23,16.24q1.51.35,3.06.54c1.23.15,2.47.23,3.71.3C278.77,180.91,279.79,181,280.81,181.07Z" opacity="0.1"></path><rect x="107.9" y="205.38" width="123.23" height="5.06" fill="#519fff"></rect><rect x="88.15" y="192.06" width="13.28" height="18.38" fill="#519fff"></rect><rect x="88.15" y="192.06" width="13.28" height="18.38" opacity="0.1"></rect><rect x="85.12" y="188.4" width="19.34" height="3.66" fill="#519fff"></rect><path d="M167.56,150.06h4.26a55.32,55.32,0,0,1,55.32,55.32v0a0,0,0,0,1,0,0H112.24a0,0,0,0,1,0,0v0A55.32,55.32,0,0,1,167.56,150.06Z" fill="#519fff"></path><path d="M227.13,205.39H112.24a55.15,55.15,0,0,1,16.2-39.12q1.69-1.7,3.54-3.24a55.09,55.09,0,0,1,35.58-13h4.25a55.33,55.33,0,0,1,54.86,48.14A56.72,56.72,0,0,1,227.13,205.39Z" fill="#519fff"></path><path d="M227.13,205.39H112.24a55.15,55.15,0,0,1,16.2-39.12q1.69-1.7,3.54-3.24a30.53,30.53,0,0,0,6.75,11.86c6.07,6.65,14.43,10.77,22.9,13.84,17.6,6.37,36.43,8.75,55.15,9.24,3.29.09,6.6.11,9.89.24A56.72,56.72,0,0,1,227.13,205.39Z" opacity="0.1"></path><path d="M164.44,158.79c-2.8,1.1-4.89,3.08-5.19,6.49-.36,4,3.06,7.37,6.45,9.58a46,46,0,0,0,16.36,6.61c5.47,1.05,12.35,1.93,17.7,0a8.74,8.74,0,0,0,4-2.64c2.78-3.49.62-7.93-2-10.74-4.58-4.85-10.82-7.68-17.23-9.17C178.29,157.51,170.53,156.38,164.44,158.79Z" fill="#fff" opacity="0.3"></path></svg>