<?xml version="1.0" encoding="UTF-8"?>
<!-- Generator: Adobe Illustrator 25.2.1, SVG Export Plug-In . SVG Version: 6.00 Build 0)  -->
<svg xmlns="http://www.w3.org/2000/svg" xmlns:xlink="http://www.w3.org/1999/xlink" version="1.1" id="Capa_1" x="0px" y="0px" viewBox="0 0 512 512" style="enable-background:new 0 0 512 512;" xml:space="preserve" width="512" height="512">
<g>
	<g>
		<g>
			<g>
				<path style="fill-rule:evenodd;clip-rule:evenodd;fill:#B25B1A;" d="M357.325,99.371c0,14.09-80.334,46.685-178.066,46.685      c-97.742,0-176.976-11.424-176.976-25.508c0-22.373,70.418-11.046,180.645-19.385C280.388,93.791,357.325,85.287,357.325,99.371      z"/>
				<g>
					<path style="fill-rule:evenodd;clip-rule:evenodd;fill:#FAC549;" d="M256.07,85.809c5.274-4.661,12.707-9.427,22.296-9.316       c15.809,0.176,22.798,12.119,25.954,24.954c2.556-0.551,4.74-3.215,7.987-4.323c12.122-4.138,23.972,4.428,25.625,14.641       c-40.087,18.502-89.462,32.708-141.762,39.931c-13.494,1.861-28.047,2.451-42.592,2.999       c-45.347,1.699-88.229-3.826-116.473-19.638c4.016-12.812,12.455-23.418,23.293-31.612       c10.546-7.97,23.875-14.642,40.263-14.642c14.38,0,24.497,5.229,32.614,12.312c9.109-31.345,33.612-54.76,71.546-57.237       C232.183,42.089,252.571,60.974,256.07,85.809z"/>
					<g>
						<path style="fill-rule:evenodd;clip-rule:evenodd;fill:#B25B1A;" d="M231.442,70.501c1.144-0.421,2.849-0.597,3.993-0.327        c3.286,0.75,8.893,8.265,7.987,12.974c-0.409,2.127-2.482,4.078-5.32,3.996c-3.11-0.094-4.925-3.184-6.328-5.331        C229.8,78.791,224.424,72.15,231.442,70.501z"/>
						<path style="fill-rule:evenodd;clip-rule:evenodd;fill:#B25B1A;" d="M161.558,92.796c-5.408-2.494-1.042-8.524,1.664-11.642        c2.088-2.403,4.485-5.357,6.658-5.993c3.681-1.085,8.827-0.477,9.316,2.994c0.636,4.453-4.113,7.572-6.655,9.651        C168.883,90.794,167.011,93.14,161.558,92.796z"/>
						<path style="fill-rule:evenodd;clip-rule:evenodd;fill:#B25B1A;" d="M268.718,86.142c2.315-0.432,5.72-0.222,5.987,3.661        c0.275,4.022-8.12,12.043-12.642,11.315c-2.749-0.443-4.121-3.079-2.997-6.658C260.14,91.021,265.886,86.67,268.718,86.142z"/>
						<path style="fill-rule:evenodd;clip-rule:evenodd;fill:#B25B1A;" d="M82.025,103.779c4.547-0.193,8.768-1.602,9.651,2.332        c0.997,4.428-4.172,7.001-7.652,9.319c-3.141,2.088-7.396,5.857-11.645,4.987c-1.619-0.332-3.187-2.397-3.329-3.658        c-0.395-3.474,4.428-6.942,5.323-7.654C77.186,106.856,78.944,105.632,82.025,103.779z"/>
						<path style="fill-rule:evenodd;clip-rule:evenodd;fill:#B25B1A;" d="M117.966,104.779c4.209-1.383,11.878,2.709,11.645,6.987        c-0.119,2.303-2.011,3.462-3.658,3.664c-2.275,0.273-9.379-2.619-10.316-4.664        C114.126,107.469,115.361,105.632,117.966,104.779z"/>
						<path style="fill-rule:evenodd;clip-rule:evenodd;fill:#B25B1A;" d="M153.242,104.779c2.494-0.582,4.505,0.898,4.99,3.655        c1.099,6.257-4.277,15.309-8.313,15.312C141.091,123.755,148.203,105.947,153.242,104.779z"/>
						<path style="fill-rule:evenodd;clip-rule:evenodd;fill:#B25B1A;" d="M275.372,121.75c-1.256-1.252-2.36-2.264-2.329-3.996        c0.017-1.19,5.828-9.049,8.651-9.319c3.968-0.366,5.249,4.204,3.326,7.655C283.512,118.802,279.724,121.954,275.372,121.75z"/>
						<path style="fill-rule:evenodd;clip-rule:evenodd;fill:#B25B1A;" d="M222.126,120.753c2.409-0.219,5.672,0.142,6.323,2.994        c0.974,4.246-2.965,6.791-5.655,8.319c-3.212,1.824-6.703,3.681-10.321,3.326c-2.534-0.244-5.345-2.031-5.655-3.991        c-0.656-4.192,8.029-8.808,11.313-9.983C219.334,120.983,220.345,120.912,222.126,120.753z"/>
						<path style="fill-rule:evenodd;clip-rule:evenodd;fill:#B25B1A;" d="M127.282,127.072c5.524-1.315,14.008,5.198,14.647,9.322        c0.599,3.894-1.696,7.044-5.987,6.649c-2.087-0.184-9.597-5.112-10.983-6.984        C122.578,132.855,123.084,128.072,127.282,127.072z"/>
					</g>
				</g>
			</g>
			<g>
				<path style="fill-rule:evenodd;clip-rule:evenodd;fill:#FF4E4E;" d="M218.803,346.706c-18.521,7.237-41.925,10.409-67.893,7.655      c-3.298-0.352-7.518-0.861-11.642-1.329c-3.792-0.432-8.748-0.542-10.986-1.667c-1.906-0.957-4.445-5.635-5.987-7.987      c-0.583-0.887-1.16-1.786-1.734-2.692c-4.764-7.52-5.145-18.117-12.341-22.895c-2.776-1.842-12.962-2.049-12.962-2.049      c-5.925-2.597-12.197-4.477-18.226-6.637c-9.057-3.246-18.578-6.626-26.619-11.645c-13.351-8.347-23.434-20.173-30.845-34.502      c0,0,0.726-4.408-0.254-6.63c-0.838-1.901-5.187-5.544-5.187-5.544c-6.468-16.844-10.163-36.51-11.964-58.153      c-1.432-17.226-2.607-35.767-2-55.243c0.179-5.567-0.125-11.634,2-16.971c3.306-0.304,5.754,3.164,8.319,4.993      c18.075,12.864,43.967,20.331,71.543,24.296c32.01,4.598,69.106,5.186,103.831,1.661c32.194-3.275,63.275-9.248,91.842-17.641      c19.041-5.589,38.076-13.038,54.926-22.048c0,0,3.659-0.542,5.101-1.356c1.529-0.863,3.804-3.678,3.804-3.678      c1.03-0.616,2.049-1.238,3.057-1.866c2.911-1.818,5.942-3.687,7.99-5.661c0.926-0.889,1.823-1.238,3.329-0.665      c1.784,0.679,1.596,4.226,0.994,9.319c-2.914,24.679-7.464,50.335-10.98,74.207c-6.337,43.018-12.608,84.622-38.934,107.157      c-8.924,7.64-19.638,11.776-32.612,15.971c-12.31,3.982-25.375,7.39-35.276,13.312      C228.923,324.509,224.665,334.544,218.803,346.706z"/>
				<g>
					<path style="fill-rule:evenodd;clip-rule:evenodd;fill:#FFFFFF;" d="M348.139,114.848c-1.772-2.241-3.028-4.087-4.772-6.141       c-0.602-0.708-1.209-1.419-1.843-2.067c-2.888,1.727-5.857,3.406-8.9,5.033c0.908,1.308,2.122,2.523,2.899,3.516       c3.78,4.848,9.983,17.561,15.695,17.405c0.784-0.022,1.654-0.329,2.443-0.809c0.417-2.828,0.822-5.652,1.215-8.473       C353.207,120.275,350.213,117.451,348.139,114.848z"/>
					<path style="fill-rule:evenodd;clip-rule:evenodd;fill:#FFFFFF;" d="M274.103,152.382c0.168-0.043,0.278-0.381,0.682-0.341       c8.319,0.88,15.945,2.196,27.3,3.749c6.553,0.903,22.719,1.721,22.861,8.194c0.119,5.559-6.129,5.468-11.943,4.777       c-11.625-1.386-20.117-3.07-31.055-5.118c-5.002-0.94-11.239-1.468-11.597-6.143       C270.124,154.458,271.785,152.953,274.103,152.382z"/>
					<path style="fill-rule:evenodd;clip-rule:evenodd;fill:#FFFFFF;" d="M153.997,159.886c1.52-0.156,5.05,0.386,5.459,4.098       c0.503,4.564-4.746,8.586-7.51,11.6c-2.985,3.246-5.962,8.887-10.572,8.527c-1.985-0.151-4.152-1.792-4.434-4.093       c-0.307-2.57,1.213-3.857,3.068-6.138C143.397,169.719,148.461,160.445,153.997,159.886z"/>
					<path style="fill-rule:evenodd;clip-rule:evenodd;fill:#FFFFFF;" d="M225.994,165.342c1.769-0.241,5.754,0.341,6.143,4.439       c0.222,2.448-1.812,4.891-3.073,7.169c-1.346,2.426-2.244,4.579-3.411,6.828c-2.079,3.982-4.848,10.852-9.211,10.912       c-2.352,0.031-4.905-1.931-5.124-4.434c-0.134-1.582,1.219-4.133,2.386-6.478c1.04-2.073,1.917-4.155,2.738-5.805       C219.084,172.582,220.652,166.086,225.994,165.342z"/>
					<path style="fill-rule:evenodd;clip-rule:evenodd;fill:#FFFFFF;" d="M32.531,166.026c2.675-0.25,7.316,0.687,7.504,4.777       c0.264,5.652-9.31,7.146-15.016,8.873c-2.951,0.895-5.919,1.693-9.205,2.73c-3.113,0.983-6.623,2.849-9.211,2.048       c-1.764-0.542-3.414-2.96-3.414-4.777c0-4.777,9.418-7.217,12.963-8.529c2.349-0.864,5.314-1.693,8.189-2.732       C27.044,167.441,29.407,166.322,32.531,166.026z"/>
					<path style="fill-rule:evenodd;clip-rule:evenodd;fill:#FFFFFF;" d="M90.2,166.714c4.005-0.597,6.183,3.874,8.867,6.819       c4.942,5.422,9.526,9.856,15.008,15.692c2.704,2.886,6.16,6.232,5.805,9.561c-0.213,2.042-2.653,4.167-4.096,4.439       c-4.724,0.883-7.504-3.832-9.558-6.149c-4.598-5.192-9.606-10.708-14.323-16.377c-1.997-2.386-6.169-5.652-6.143-9.208       C85.78,168.577,88.265,166.998,90.2,166.714z"/>
					<path style="fill-rule:evenodd;clip-rule:evenodd;fill:#FFFFFF;" d="M292.862,197.422c1.471-0.176,5.36,0.605,5.803,4.096       c0.421,3.269-2.437,6.325-4.087,8.867c-3.476,5.34-6.075,9.799-9.222,16.039c-1.633,3.28-2.602,6.578-5.794,6.819       c-2.264,0.173-4.982-1.44-5.459-3.408c-0.971-4.019,3.604-11.48,6.141-16.377c1.389-2.69,2.866-4.996,4.096-7.166       C286.449,202.558,287.957,197.996,292.862,197.422z"/>
					<path style="fill-rule:evenodd;clip-rule:evenodd;fill:#FFFFFF;" d="M27.754,205.267c4.425-1.156,9.711,4.45,12.969,6.828       c3.476,2.542,9.577,5.7,9.554,9.893c-0.017,2.269-1.954,4.823-4.439,5.124c-4.57,0.54-7.615-3.721-11.94-7.169       c-1.809-1.443-3.587-2.502-5.459-4.099c-1.537-1.295-3.775-2.741-4.098-5.118C23.82,206.929,25.93,205.747,27.754,205.267z"/>
					<path style="fill-rule:evenodd;clip-rule:evenodd;fill:#FFFFFF;" d="M169.354,223.007c3.417-0.713,7.399,0.613,7.504,4.439       c0.082,2.914-3.022,5.527-5.803,7.166c-5.842,3.454-10.628,5.337-17.394,8.527c-4.158,1.957-13.948,6.112-13.315-2.386       c0.295-3.942,10.256-7.939,13.315-9.546c2.437-1.301,4.976-2.619,7.493-4.096C163.77,225.581,166.526,223.604,169.354,223.007z       "/>
					<path style="fill-rule:evenodd;clip-rule:evenodd;fill:#FFFFFF;" d="M92.926,248.601c5.922-0.486,12.744-1.167,12.29,5.462       c-0.284,3.985-4.831,4.826-11.267,5.118c-6.652,0.301-16.735,2.261-17.062-4.093C76.527,248.209,86.871,249.101,92.926,248.601       z"/>
					<path style="fill-rule:evenodd;clip-rule:evenodd;fill:#FFFFFF;" d="M31.509,257.471c-2.727-1.446-5.362-2.576-7.853-3.749       c-3.17-1.5-5.931-3.928-9.205-3.073c-0.102,0.027-0.211,0.062-0.323,0.102c1.632,4.253,3.441,8.327,5.441,12.207       c4.04,2.287,7.673,4.414,11.6,6.798c2.238,1.369,5.277,3.746,8.191,3.414c2.022-0.233,4.181-2.124,4.428-4.434       C44.432,262.859,36.15,259.95,31.509,257.471z"/>
					<path style="fill-rule:evenodd;clip-rule:evenodd;fill:#FFFFFF;" d="M141.037,270.783c6.606-1.812,5.97,4.218,7.507,10.912       c1.281,5.612,3.886,14.275-4.098,13.315c-3.104-0.378-4.434-3.672-5.462-8.194       C137.598,280.721,135.251,272.359,141.037,270.783z"/>
					<path style="fill-rule:evenodd;clip-rule:evenodd;fill:#FFFFFF;" d="M120.902,326.739c-6.126-5.987-11.77-11.764-17.064-17.058       c-2.908-2.914-6.549-8.18-9.889-7.851c-2.951,0.296-4.613,2.136-4.777,4.436c-0.266,3.781,3.673,7.065,6.086,9.474       c3.024,1.326,5.962,2.836,8.734,4.676c7.193,4.776,11.802,12.741,16.564,20.258c1,0.37,2.031,0.539,3.079,0.396       c2.19-0.295,3.88-2.354,4.087-4.434C128.157,332.488,124.214,329.977,120.902,326.739z"/>
					<path style="fill-rule:evenodd;clip-rule:evenodd;fill:#FFFFFF;" d="M181.292,307.633c0.4,5.788-2.914,7.492-5.459,11.256       c-1.977,2.925-3.811,8.691-7.845,8.879c-2.054,0.085-4.672-1.653-5.124-3.752c-0.838-3.931,2.298-6.905,4.098-9.898       c1.798-3.011,3.528-6.859,5.456-8.194C175.557,303.758,179.369,304.321,181.292,307.633z"/>
				</g>
			</g>
			<g>
				<path style="fill-rule:evenodd;clip-rule:evenodd;fill:#F7F7FC;" d="M11.811,129.404c0.412-1.789,1.071-5.345,3.994-4.993      c6.169,0.75,11.364,3.195,16.97,4.993c26.517,8.492,57.91,13.857,90.848,17.635c9.671,1.108,19.538,1.395,30.953,1.664      c2.42,0.06,7.492-0.202,7.651,2.994c0.244,5.005-14.698,3.812-18.305,3.996c-22.384,1.133-43.72-1.707-62.892-4.661      c-20.373-3.136-38.61-6.748-54.908-13.309C20.872,135.607,15.342,133.667,11.811,129.404z"/>
				<path style="fill-rule:evenodd;clip-rule:evenodd;fill:#F7F7FC;" d="M303.326,125.743c1.903-0.108,4.056-0.452,4.326,1.997      c0.29,2.698-4.397,4.24-7.325,5.323c-15.403,5.7-30.618,10.375-49.25,13.315c-5.413,0.849-19.814,3.721-19.964-1.667      c-0.117-4.087,12.179-5.078,16.632-5.99c6.215-1.264,13.026-2.667,18.641-3.991c13.295-3.147,24.298-7.098,36.273-8.986      C302.874,125.706,303.107,125.755,303.326,125.743z"/>
				<path style="fill-rule:evenodd;clip-rule:evenodd;fill:#F7F7FC;" d="M192.179,145.71c4.286-0.318,14.92-1.5,14.971,3.329      c0.04,4.005-9.202,5.266-13.974,5.658c-5.237,0.426-14.136,0.946-14.312-3.664C178.679,146.139,187.39,146.062,192.179,145.71z"/>
			</g>
		</g>
		<g>
			<g>
				<path style="fill-rule:evenodd;clip-rule:evenodd;fill:#00AF93;" d="M479.359,226.575c-0.399-9.507-1.604-17.916-3.587-25.417      l-3.433-6.697l-0.437-4.64c-1.883-4.406-4.11-8.45-6.67-12.191c0,0-3.794-1.023-5.073-2.579      c-1.311-1.596-2.705-6.882-2.705-6.882c-3.593-3.68-7.609-7.034-12.036-10.145c-10.452-7.348-21.876-13.497-37.937-13.312      c-4.172,0.048-8.238,0.557-12.156,1.294c-0.039,0.007-0.078,0.015-0.117,0.023c0,0-7.651,3.942-10.855,4.792      c-1.608,0.429-3.919-1.034-3.919-1.034c-4.926,1.611-9.619,3.577-13.878,5.573c-4.371,2.049-8.556,4.317-12.56,6.778      c0,0-1.747,2.63-2.8,3.322c-0.959,0.63-3.176,0.59-3.244,0.633c-9.692,6.129-17.732,14.189-24.994,22.55      c-4.27,4.914-8.387,10.235-12.211,15.92c0,0-1.053,4.866-2.935,8.165c-1.777,3.113-8.038,11.026-8.038,11.026      c-2.019,4.244-3.843,8.627-5.434,13.139c-4.425,12.542-7.691,28.309-6.99,44.259c0.685,15.493,4.806,28.996,11.313,39.934      c6.461,10.86,15.032,20.831,25.941,28.309c-3.608,14.015-7.691,27.555-10.3,42.569c9.253,3.616,18.391,7.345,27.957,10.648      c6.704-13.333,13.57-26.508,20.084-40.035c15.889,1.331,30.164-1.479,42.478-5.551c12.585-4.167,23.796-10.501,32.609-18.641      c17.002-15.684,29.689-41.377,36.275-66.218c2.935-11.058,5.13-22.954,5.644-35.124c0,0-2.201-2.89-2.184-4.097      c0.02-1.395,2.275-3.709,2.275-3.709C479.424,228.35,479.396,227.463,479.359,226.575z"/>
				<g>
					<path style="fill-rule:evenodd;clip-rule:evenodd;fill:#F7F7FC;" d="M457.41,168.13c0.948,4.939,1.042,9.847-2.338,10.527       c-7.101,1.417-7.368-9.617-13.647-8.322c-4.982,1.025-1.488,10.432-4.329,13.645c-3.956-2.076-6.016-5.987-7.652-11.318       c-1.454-4.749-1.128-12.684-5.987-12.974c-4.652-0.281-6.754,6.405-8.987,9.316c-1.318,1.724-2.982,3.278-4.326,4.661       c-1.508,1.551-2.996,3.499-4.99,3.658c-0.514-3.724-0.284-7.189,0.662-10.983c1.213-4.834,5.53-12.446-1.329-12.974       c-3.224-0.25-6.581,3.079-9.651,4.658c-3.272,1.679-6.405,3.465-10.648,2.994c0.298-6.368,4.559-10.282,7.99-12.977       c0.757-0.596,1.987-1.208,3.037-2.006c-3.467,0.657-6.822,1.485-10.027,2.335c-1.606,0.429-3.193,0.906-4.757,1.417       c-2.543,3.543-4.301,7.671-3.895,11.895c1.071,11.202,15.647,6.635,21.961,3.329c-2.539,8.407-2.039,21.688,7.987,20.302       c6.777-0.937,11.043-9.907,14.974-12.65c1.434,5.24,4.928,13.474,9.651,16.973c6.345,4.698,13.219,1.165,14.642-6.323       c7.595,5.677,17.042,2.743,19.449-5.72C462.875,174.202,460.277,171.062,457.41,168.13z"/>
					<path style="fill-rule:evenodd;clip-rule:evenodd;fill:#F7F7FC;" d="M475.768,201.152c-1.065-4.024-2.357-7.783-3.866-11.313       c-1.293-0.112-2.684,0.02-4.189,0.464c-9.555,2.818-14.406,14.582-18.635,24.625c-2.959-7.37-6.976-16.462-17.306-13.645       c-4.524,1.232-7.265,5.774-10.316,7.989c-0.753-6.567-0.619-12.588-3.991-15.976c-3.173-3.181-8.478-2.781-12.645-0.994       c-8.313,3.553-15.354,14.585-19.305,18.964c1.363-14.9-0.17-30.294-12.974-31.612c-4.828-0.5-8.305,1.088-11.318,2.661       c-2.386,1.247-4.286,3.144-6.652,3.658c1.416-8.124,2.832-17.986-0.577-23.836c-2.055,1.263-4.06,2.579-6.02,3.941       c1.78,3.858,0.221,12.608-0.725,18.231c-0.818,4.86-5.189,15.971,0.332,16.973c3.803,0.69,8.575-5.701,11.315-7.987       c3.51-2.928,8.169-7.209,13.645-5.987c7.856,1.749,5.607,20.714,4.993,28.615c-0.415,5.286-1.943,13.557,2.988,13.98       c3.962,0.335,5.925-4.988,7.657-7.99c2.139-3.709,4.505-6.885,6.322-9.316c4.442-5.948,8.373-12.517,17.309-13.977       c1.514,2.931,2.238,8.464,1.994,14.974c-0.193,5.212-1.71,12.514,3.661,12.647c3.902,0.094,5.462-5.595,8.319-9.654       c2.332-3.314,6.266-8.47,9.98-7.987c3.238,0.426,5.655,7.061,6.99,10.651c2.093,5.638,1.977,11.117,6.658,10.983       c3.454-0.099,4.112-4.076,5.325-7.99c1.139-3.689,2.548-7.391,3.658-9.981c1.826-4.266,6.7-14.848,12.31-14.642       C472.72,197.697,474.353,199.203,475.768,201.152z"/>
					<path style="fill-rule:evenodd;clip-rule:evenodd;fill:#F7F7FC;" d="M462.391,240.219c-4.473,4.653-7.708,9.782-11.645,13.642       c1.806-6.433,0.057-13.255-5.328-13.642c-4.883-0.352-9.589,4.195-13.31,7.655c-4.286,3.977-7.93,8.348-10.316,10.313       c0.886-8.441,1.389-18.189-3.664-21.961c-7.146-5.342-17.342,2.948-22.296,7.322c-12.38,10.929-21.194,24.295-28.951,38.267       c-1.664,2.996-2.65,6.365-4.658,8.316c1.906-10.148,4.837-24.341,5.328-39.931c0.457-14.653-0.443-32.152-9.319-35.94       c-1.409-0.599-3.763-0.858-5.326-0.665c-7.402,0.903-10.472,9.197-14.641,12.98c1.125-14.957-2.661-31.527-17.306-27.292       c-3.289,0.954-6.819,2.898-10.213,5.283c-4.03,5.992-7.734,12.388-10.948,19.139c1.793-0.82,2.95-2.854,4.185-4.12       c1.898-1.931,4.087-3.667,6.323-5.325c2.727-2.011,10.907-8.74,15.315-7.987c4.598,0.79,5.323,11.088,5.323,16.641       c0,4.837-0.619,9.398-0.997,14.312c-0.361,4.669-1.488,11.31,3.326,11.31c2.562,0,4.158-2.911,5.655-6.32       c3.079-7.001,4.848-10.094,8.986-15.306c1.48-1.863,4.227-6.005,6.658-5.661c3.184,0.452,4.519,8.986,4.99,14.644       c1.667,20.032-2.011,39.087-4.99,53.911c-4.025,19.995-7.99,37.025-12.977,56.237c-1.011,3.888-3.215,10.483,2.661,9.983       c4.206-0.361,5.808-10.495,7.322-15.311c5.328-16.948,12.409-36.54,18.964-49.579c7.62-15.156,16.698-29.453,28.283-40.266       c3.823-3.567,8.282-7.288,14.312-8.651c2.599,4.274,1.718,11.721,0.668,18.3c-0.704,4.402-4.584,14.829,1.664,15.303       c2.954,0.23,6.282-4.539,7.651-6.314c2.383-3.102,4.457-5.519,6.323-7.657c4.701-5.371,8.674-10.688,14.315-12.98       c-0.287,3.153-0.932,7.666-2.002,12.65c-1.111,5.178-4.502,13.823,2.002,13.974c2.48,0.06,3.55-2.11,4.991-4.326       c6.822-10.498,12.443-19.427,20.628-27.289c2.247-2.153,6.167-6.044,9.967-6.89c0.108-2.583,0.145-5.178,0.092-7.781       c-0.658,0.078-1.34,0.188-2.073,0.362C471.821,230.886,466.504,235.933,462.391,240.219z"/>
				</g>
			</g>
			<g>
				<g>
					<path style="fill-rule:evenodd;clip-rule:evenodd;fill:#008066;" d="M433.662,310.348c-1.855-1.256-3.423-3.005-3.266-5.456       c0.347-5.487,9.711-15.198,12.264-8.776C444.185,299.95,437.491,309.356,433.662,310.348z"/>
					<path style="fill-rule:evenodd;clip-rule:evenodd;fill:#008066;" d="M432.432,317.468c7.72,1.52,0.432,14.769-4.51,12.568       C422.75,327.73,427.374,316.474,432.432,317.468z"/>
					<path style="fill-rule:evenodd;clip-rule:evenodd;fill:#008066;" d="M418.893,316.747c6.388,1.843-2.497,19.348-8.433,24.176       c-2.278,1.852-5.544,2.931-7.507,1.594C397.54,338.841,413.326,315.136,418.893,316.747z"/>
				</g>
				<g>
					<path style="fill-rule:evenodd;clip-rule:evenodd;fill:#008066;" d="M302.548,247.573c7.737-3.099,2.94,19.731-2.792,18.203       C294.822,264.458,299.724,250.143,302.548,247.573z"/>
					<path style="fill-rule:evenodd;clip-rule:evenodd;fill:#008066;" d="M300.608,272.888c0.861,2.897-0.787,10.302-4.416,8.808       C293.084,280.423,295.975,269.275,300.608,272.888z"/>
				</g>
			</g>
		</g>
		<g>
			<path style="fill-rule:evenodd;clip-rule:evenodd;fill:#752C00;" d="M258.606,237.186c1.122-0.574,3.715-1.358,4.905,1.215     c1.412,3.059-1.448,6.649-2.147,8.106c-0.818,1.69-2.162,6.058-4.476,6.635c-1.437,0.358-3.553-0.636-4.107-2.056     c-0.838-2.147,1.215-5.149,2.062-7.084C256.047,241.185,256.215,238.401,258.606,237.186z"/>
			<path style="fill-rule:evenodd;clip-rule:evenodd;fill:#008066;" d="M246.396,246.218c5.334-1.749,6.842-0.301,11.014,1.829     c6.447,3.289,14.153,7.822,18.095,14.15c6.157,9.867,5.493,22.756,4.649,32.416c-0.869,10.066-2.928,20.078-1.281,31.106     c0.957,6.419,3.241,12.227,5.07,18.084c5.649,18.126,7.589,35.716,3.994,50.127c-3.34,13.38-10.662,25.028-20.421,34.427     c-10.367,9.975-25.849,17.283-43.496,18.732c-23.142,1.909-44.586-5.178-59.662-17.715c-5.061-4.224-10.211-9.276-12.773-17.013     c4.417-1.286,8.913-0.156,13.014,0.387c4.377,0.591,8.623,1.014,12.898,1.403c8.785,0.798,17.632,1.985,27.286,0.489     c9.461-1.474,17.839-5.394,24.628-9.856c7.174-4.701,14.826-10.747,19.231-17.57c4.851-7.515,8.387-19.274,6.822-30.039     c-1.801-12.443-7.671-20.461-10.287-32.487c-3.249-14.937,1.659-26.806,5.609-38.363c2.321-6.817,5.26-14.886,0.983-25.088     c-1.568-3.724-5.095-6.152-5.808-9.614C245.419,248.998,246.265,248.317,246.396,246.218z"/>
			<g>
				<path style="fill-rule:evenodd;clip-rule:evenodd;fill:#FAC549;" d="M231.848,244.863c-0.023,0,0.043-0.338,0.244-0.389      c12.747-4.161,26.889-0.491,31.612,9.438c5.306,11.145-0.278,25.843-2.817,33.12c-1.537,4.391-3.408,9.526-5.047,14.38      c-2.008,5.979-4.246,12.045-3.283,19.297c1.457,10.858,8.74,21.589,11.912,30.794c4.059,11.818,4.774,22.464,3.377,32.7      c-2.434,18.016-12.125,34.66-30.737,43.041c-20.45,9.211-44.728,8.276-61.383,2.554c-8.646-2.974-15.843-7.103-23.139-13.023      c-7.308-5.905-15.57-14.372-19.013-25.534c-5.178-16.828-0.628-33.688,5.144-44.901c3.346-6.513,7.362-11.631,12.605-16.096      c5.445-4.621,11.781-8.279,18.033-12.668c6.274-4.428,10.935-8.81,15.315-14.389c8.129-10.364,15.005-22.384,22.134-34.145      c3.522-5.794,6.981-12.136,11.835-16.584C221.72,249.658,224.89,247.258,231.848,244.863z"/>
				<g>
					<path style="fill-rule:evenodd;clip-rule:evenodd;fill:#752C00;" d="M195.888,324.884c4.411-1.659,13.343-2.974,17.138-1.866       c10.106,2.954,12.1,19.416,11.194,30.612c-0.977,12.27-4.596,21.813-10.529,31.203c-2.883,4.55-6.323,9.41-10.878,12.054       c-19.01,11.054-37.38-10.159-35.358-30.476c0.886-8.844,4.908-17.209,8.884-23.872       C180.065,336.274,186.705,328.358,195.888,324.884z"/>
					<g>
						<path style="fill-rule:evenodd;clip-rule:evenodd;fill:#F7F7FC;" d="M182.383,344.246c7.737-3.096,2.94,19.737-2.795,18.2        C174.654,361.134,179.554,346.817,182.383,344.246z"/>
						<path style="fill-rule:evenodd;clip-rule:evenodd;fill:#F7F7FC;" d="M180.446,369.564c0.861,2.897-0.793,10.302-4.419,8.813        C172.916,377.102,175.81,365.948,180.446,369.564z"/>
					</g>
				</g>
			</g>
			<g>
				<path style="fill-rule:evenodd;clip-rule:evenodd;fill:#F7F7FC;" d="M265.573,274.83c3.701,2.625,2.749,13.122-2.923,12.685      C260.495,283.391,260.274,276.151,265.573,274.83z"/>
				<path style="fill-rule:evenodd;clip-rule:evenodd;fill:#F7F7FC;" d="M270.365,293.295c0.736,2.559,0.77,5.127-0.983,5.561      C265.818,299.731,265.934,291.457,270.365,293.295z"/>
				<path style="fill-rule:evenodd;clip-rule:evenodd;fill:#F7F7FC;" d="M261.722,296.044c2.039,2.014,1.076,6.354,0.383,9.878      c-0.568,2.886-0.985,6.192-4.354,5.382C254.9,306.059,254.996,294.607,261.722,296.044z"/>
				<path style="fill-rule:evenodd;clip-rule:evenodd;fill:#F7F7FC;" d="M266.011,346.89c2.579-2.565,4.408,0.537,5.388,4.354      c1.247,4.965,1.931,15.102-1.945,15.425c-3.971,0.349-2.61-7.961-3.343-12.486C265.605,351.068,264.826,349.066,266.011,346.89z      "/>
				<path style="fill-rule:evenodd;clip-rule:evenodd;fill:#F7F7FC;" d="M279.047,363.693c0.886,2.511,0.543,6.337-2.954,7.035      C273.299,368.939,275.23,362.194,279.047,363.693z"/>
				<path style="fill-rule:evenodd;clip-rule:evenodd;fill:#F7F7FC;" d="M272.299,374.302c0.355,4.618,0.301,10.009-3.706,12.205      c-4.124-2.701,0.216-8.061-0.216-11.915C269.629,373.307,271.061,373.441,272.299,374.302z"/>
				<path style="fill-rule:evenodd;clip-rule:evenodd;fill:#F7F7FC;" d="M266.309,416.982c-0.278-0.588-1.377-0.721-1.633-1.258      c-0.912-1.909,3.476-8.331,5.104-10.554c0.798-1.085,3.161-1.397,3.996,0.04c1.233,2.11-1.454,5.382-2.332,6.887      C269.996,414.556,269.777,416.519,266.309,416.982z"/>
				<path style="fill-rule:evenodd;clip-rule:evenodd;fill:#F7F7FC;" d="M194.8,426.608c-1.519,1.051-4.544,1.113-4.683-1.534      C191.653,424.012,194.601,424.071,194.8,426.608z"/>
				<path style="fill-rule:evenodd;clip-rule:evenodd;fill:#F7F7FC;" d="M190.841,432.22c-3.684,2.267-10.833,0.886-12.679-2.928      c1.085-2.593,4.766-1.011,7.609-0.176C187.955,429.769,190.918,430.175,190.841,432.22z"/>
				<path style="fill-rule:evenodd;clip-rule:evenodd;fill:#F7F7FC;" d="M257.084,414.554c1.073,3.951-6.044,5.822-6.928,3.008      C249.344,415.002,254.792,412.659,257.084,414.554z"/>
				<path style="fill-rule:evenodd;clip-rule:evenodd;fill:#F7F7FC;" d="M206.209,432.493c-0.906,3.076-6.64,1.636-8.481,0.722      c-0.471-0.832,0.247-0.92-0.06-1.642C200.586,429.772,205.693,430.362,206.209,432.493z"/>
				<path style="fill-rule:evenodd;clip-rule:evenodd;fill:#F7F7FC;" d="M255.275,424.977c1.733,5.371-9.878,7.785-11.179,4.692      C242.462,425.776,252.582,422.768,255.275,424.977z"/>
			</g>
		</g>
		<g>
			<g>
				<path style="fill-rule:evenodd;clip-rule:evenodd;fill:#FAC549;" d="M488.013,249.2c8.146,2.508,15.141,6.161,22.963,8.987      c-3.471,7.879-6.768,15.525-10.648,23.96c-1.162,2.519-3.615,5.527-3.664,7.657c-0.054,2.65,3.459,7.231,4.661,9.645      c1.667,3.351,2.721,7.51,3.664,10.645c2.093,6.973,3.544,15.227,3.988,24.631c0.895,18.825-3.156,33.537-9.316,47.256      c-12.153,27.071-30.061,45.671-53.576,60.895c-11.409,7.391-24.315,13.656-38.934,18.308      c-21.475,6.828-50.275,9.538-75.542,4.323c-14.838-3.062-29.129-8.998-40.928-16.306c-5.7-3.528-11.969-7.626-16.309-12.312      c-5.07-5.479-10.305-16.672-6.99-26.624c2.167-6.513,9.148-13.968,15.312-16.97c10.256-4.999,24.821-4.684,37.934-2.329      c5.757,1.037,11.509,2.573,16.971,2.997c17.896,1.375,31.686-3.204,43.26-8.322c11.832-5.229,20.72-13.23,29.286-22.293      c12.653-13.389,21.43-29.649,30.95-46.256c7.214-12.596,13.778-20.918,31.277-23.966      C477.271,278.168,481.441,262.481,488.013,249.2z"/>
				<g>
					<path style="fill-rule:evenodd;clip-rule:evenodd;fill:#B25B1A;" d="M487.683,248.535c0.179-0.079,0.258-0.406,0.665-0.33       c4.059,0.764,7.91,1.886,13.309,3.994c3.337,1.301,10.872,3.9,10.313,6.984c-0.795,4.405-12.446,0.594-14.971-0.332       C494.934,258.096,481.171,251.399,487.683,248.535z"/>
					<path style="fill-rule:evenodd;clip-rule:evenodd;fill:#B25B1A;" d="M484.355,295.792c1.23,1.494,2.156,3.846,2.326,5.658       c0.625,6.578-1.309,14.124-2.664,20.629c-6.663,32.149-21.478,56.228-39.925,76.544c-5.36,5.891-11.872,11.611-18.641,16.306       c-2.167,1.497-4.905,3.505-7.651,3.323c-0.665-2.908,3.255-4.749,4.993-6.322c6.22-5.652,11.202-10.997,17.3-17.635       c14.022-15.252,27.284-34.696,33.947-59.568c1.395-5.218,2.576-12.171,3.658-19.635       C478.68,308.351,479.523,296.578,484.355,295.792z"/>
					<path style="fill-rule:evenodd;clip-rule:evenodd;fill:#B25B1A;" d="M284.024,392.962c1.582,2.664-0.335,5.888-1.329,8.984       c-1.951,6.061-2.448,8.833-7.989,11.98c-1.747,0.991-4.638,2.57-5.987,2.329c-1.98-0.346-6.155-9.185-6.325-11.645       c-0.168-2.417,1.139-4.334,2.329-6.987c1.375-3.065,1.926-6.391,6.323-6.658C274.668,390.744,279.843,391.937,284.024,392.962z       "/>
					<path style="fill-rule:evenodd;clip-rule:evenodd;fill:#B25B1A;" d="M358.563,439.551c-3.741,1.497-7.887,0.42-11.645,0       c-19.757-2.21-33.947-7.279-49.253-14.642c-2.36-1.142-5.411-2.187-8.648-3.993c-2.289-1.278-7.211-4.181-5.987-6.326       c0.241-0.309,0.599-0.503,0.994-0.665c10.907,4.82,23.074,10.759,35.94,14.644c9.921,2.997,19.427,4.763,30.28,6.984       C352.917,436.105,357.248,436.367,358.563,439.551z"/>
					<path style="fill-rule:evenodd;clip-rule:evenodd;fill:#B25B1A;" d="M410.145,422.91c0.264,2.849-3.258,4.033-5.658,5.328       c-6.561,3.528-17.203,7.799-25.957,8.651c-1.994,0.193-5.658,0.602-6.99-1.335c0.588-3.062,4.627-3.763,7.654-4.658       c3.07-0.9,6.516-1.667,9.651-2.659c6.74-2.147,13.426-5.146,18.635-5.99C408.398,422.1,409.023,421.668,410.145,422.91z"/>
				</g>
			</g>
			<g>
				<path style="fill-rule:evenodd;clip-rule:evenodd;fill:#B25B1A;" d="M463.561,402.406c-1.849-1.253-3.419-3.008-3.261-5.459      c0.341-5.484,9.708-15.195,12.262-8.771C474.087,392.014,467.393,401.415,463.561,402.406z"/>
				<path style="fill-rule:evenodd;clip-rule:evenodd;fill:#B25B1A;" d="M437.155,379.675c7.726,1.519,0.432,14.772-4.507,12.574      C427.479,389.94,432.097,378.687,437.155,379.675z"/>
				<path style="fill-rule:evenodd;clip-rule:evenodd;fill:#B25B1A;" d="M334.023,444.811c0.321,7.862-14.267,3.857-13.275-1.46      C321.785,437.781,333.808,439.659,334.023,444.811z"/>
				<path style="fill-rule:evenodd;clip-rule:evenodd;fill:#B25B1A;" d="M448.8,408.805c6.385,1.843-2.499,19.351-8.441,24.173      c-2.275,1.855-5.541,2.934-7.501,1.599C427.445,430.896,443.234,407.195,448.8,408.805z"/>
			</g>
		</g>
	</g>
</g>















</svg>
