<?xml version="1.0" encoding="UTF-8"?>
<!-- Generator: Adobe Illustrator 25.2.1, SVG Export Plug-In . SVG Version: 6.00 Build 0)  -->
<svg xmlns="http://www.w3.org/2000/svg" xmlns:xlink="http://www.w3.org/1999/xlink" version="1.1" id="Capa_1" x="0px" y="0px" viewBox="0 0 512 512" style="enable-background:new 0 0 512 512;" xml:space="preserve" width="512" height="512">
<g>
	<g>
		<g>
			<g>
				<g>
					<path style="fill-rule:evenodd;clip-rule:evenodd;fill:#F7F7FC;" d="M399.31,446.391       c-12.537,38.142-105.635,55.889-209.534,38.53C35.386,459.134,13.106,409.714,21.033,370.356       c7.924-39.359,98.064-54.406,201.333-33.609C325.631,357.54,418.648,387.536,399.31,446.391z"/>
					<path style="fill-rule:evenodd;clip-rule:evenodd;fill:#C7E0EA;" d="M345.361,436.544       c-8.966,27.288-75.583,39.985-149.923,27.569C84.976,445.662,69.034,410.298,74.703,382.138       c5.672-28.157,70.167-38.928,144.054-24.05C292.646,372.966,359.2,394.433,345.361,436.544z"/>
				</g>
				<g>
					<path style="fill-rule:evenodd;clip-rule:evenodd;fill:#C7E0EA;" d="M54.708,421.146c-3.138,2.853-4.859-0.441-6.335-2.851       c-2.52-4.103-4.646-7.861-6.145-11.529c-0.824-2.015-2.024-4.15,0.516-5.518c2.115-1.134,3.07,0.885,4.447,2.783       c2.386,3.267,4.662,6.65,6.512,10.234c0.811,1.576,2.287,3.969,2.094,5.296C55.734,420,55.086,420.797,54.708,421.146z"/>
					<path style="fill-rule:evenodd;clip-rule:evenodd;fill:#C7E0EA;" d="M38.227,413.572c-4.766,4.465-13.408-10.583-9.657-13.27       c3.451-2.482,6.125,2.973,8.387,6.734C38.701,409.925,40.587,411.355,38.227,413.572z"/>
					<path style="fill-rule:evenodd;clip-rule:evenodd;fill:#C7E0EA;" d="M38.445,395.038c-2.293,2.264-5.59-2.853-8.362-7.667       c-2.712-4.682-5.065-8.742-2.226-9.598c1.741-0.534,4.422,3.27,6.897,7.039C37.586,389.117,40.528,392.991,38.445,395.038z"/>
				</g>
			</g>
			<g>
				<path style="fill-rule:evenodd;clip-rule:evenodd;fill:#42758A;" d="M358.837,318.526c1.1,0.728,0.928,2.459,1.053,3.686      c0.401,3.922,0.677,8.432,0.996,12.472c-19.119,7.036-56.792,7.487-76.31-2.901c0.079-4.273-0.38-8.074-0.496-12.179      C309.098,319.361,333.963,318.938,358.837,318.526z"/>
				<g>
					<g>
						<path style="fill-rule:evenodd;clip-rule:evenodd;fill:#568EAF;" d="M230.406,159.754        c55.692,0.06,113.139-0.025,169.992,0.984c3.883,0.069,7.768,0.59,11.595,0.497c0.346-0.009,2.343-0.622,2.832,0.185        c0.342,0.565-0.109,5.494-0.129,5.934c-1.417,28.459-3.104,58.988-7.651,85.822c-4.888,28.83-13.005,55.001-34.239,65.486        c-13.775,6.797-32.98,8.259-54.272,7.84c-21.996-0.432-40.171-5.469-53.371-13.811c-13.823-8.737-22.098-20.699-27.028-37.425        c-4.762-16.156-6.505-34.667-7.567-54.507C229.544,201.553,230.078,180.974,230.406,159.754z"/>
						<g>
							<path style="fill-rule:evenodd;clip-rule:evenodd;fill:#F7F7FC;" d="M314.654,212.082c1.39-0.099,2.803,0.439,2.819,1.567         c0.036,1.972-3.394,2.573-5.11,2.899c0.337,0.867,1.028,2.003,1.476,3.327c0.496,1.467,1.377,4.662-0.331,5.057         c-1.551,0.36-2.78-2.283-3.312-3.447c-0.835-1.811-1.171-3.241-1.684-4.879c-1.288,0.946-1.832,2.739-4.162,2.498         c-1.066-1.287,0.174-2.484,0.831-3.331c0.752-0.967,1.614-1.969,2.466-2.455c-1.44-1.873-4.524-3.043-3.738-6.397         c1.786-0.444,2.74,1.039,3.571,1.925c0.901,0.963,1.868,1.963,2.416,3.082c1.25-2.255,2.586-6.124,4.787-7.384         c0.688-0.391,2.108-0.851,2.914,0.19C317.924,208.034,315.895,210.026,314.654,212.082z"/>
							<path style="fill-rule:evenodd;clip-rule:evenodd;fill:#F7F7FC;" d="M352.495,241.919c1.639-1.808,1.891-5.196,5.395-4.88         c1.517,2.518-1.608,4.651-3.005,5.958c1.841,0.348,4.381,0.513,4.327,2.13c-0.068,1.884-3.22,1.258-5.131,0.744         c0.297,1.534,1.827,2.719,1.082,4.686c-0.131,0.123-0.423,0.066-0.478,0.276c-2.011-0.209-2.042-2.158-3.021-3.273         c-0.921,1.526-0.74,4.313-2.903,4.428c-1.402-1.207,0.022-4.279,0.387-5.976c-0.738,0.303-2.493,0.665-3.226-0.055         c0.036-0.178-0.018-0.276-0.134-0.317c0.514-2.048,2.583-2.322,4.347-2.949c-0.473-1.046-3.281-6.48-0.797-6.668         c1.155-0.086,1.601,1.702,1.984,2.593C351.868,239.864,352.253,240.79,352.495,241.919z"/>
							<path style="fill-rule:evenodd;clip-rule:evenodd;fill:#F7F7FC;" d="M364.731,192.012c0.867-2.952,6.999-2.81,9.467-1.232         c-0.754-2.746-2.522-5.162-2.975-8.656c-0.145-1.116-0.177-2.803,0.815-3.024c1.893-0.422,3.183,3.796,3.53,4.848         c0.777,2.347,1.062,4.26,1.257,6.696c0.509,0.19,0.842-0.568,1.132-0.85c2.221-2.162,5.826-5.835,9.347-6.469         c2.033-0.367,3.681,0.383,3.851,2.252c0.213,2.271-1.592,4.818-3.009,6.111c-2.221,2.022-5.026,3.111-7.913,3.333         c0.46,0.651,1.483,1.097,2.185,1.835c1.3,1.356,2.808,4.004,2.242,5.839c-0.937,3.023-5.085-0.648-6.186-1.942         c-1.411-1.657-1.979-3.324-3.07-4.817c-0.176,3.121-0.369,5.505-1.313,8.378c-0.484,1.465-1.173,3.481-2.529,3.374         c-1.275-0.1-1.583-2.105-1.607-3.643c-0.075-3.935,1.3-8.997,2.595-11.526c0.036-0.122,0.163-0.144,0.17-0.297         C370.697,192.835,366.409,194.01,364.731,192.012z"/>
							<path style="fill-rule:evenodd;clip-rule:evenodd;fill:#F7F7FC;" d="M395.177,263.899c0.636-0.389,0.996-1.279,1.522-2.055         c1.128-1.66,3.165-4.568,4.82-5.534c0.854-0.498,2.321-0.71,3.086-0.106c1.22,3.949-2.821,6.442-4.562,8.628         c2.11,0.141,4.014,0.518,4.014,2.107c0.007,2.405-4.22,2.735-6.564,1.575c0.147,1.998,0.643,4.65,0.301,7.249         c-0.192,1.443-0.663,3.73-2.377,3.387c-2.674-0.538-2.638-7.535-3.03-10.201c-1.859,0.474-4.37,2.737-6.371,0.972         c-0.093-2.012,1.481-2.775,2.54-3.53c1.109-0.794,2.298-1.708,3.813-1.905c-0.6-1.754-2.672-6.093-1.73-8.883         c0.233-0.695,0.946-1.44,2.074-1.096c1.143,0.349,1.556,2.752,1.884,4.123C395.032,260.431,395.341,261.956,395.177,263.899z         "/>
							<path style="fill-rule:evenodd;clip-rule:evenodd;fill:#F7F7FC;" d="M261.346,251.353c1.678,0.146,5.332-0.61,5.602,1.442         c0.308,2.376-4.789,3.573-7.759,3.341c0.308,2.564,0.577,7.538-1.877,7.573c-2.705,0.037-2.402-5.557-2.721-7.873         c-1.472,0.556-3.985,3.291-6.274,1.902c-0.541-2.921,3.258-4.048,5.545-4.871c-0.575-1.552-3.211-4.161-2.511-6.319         c0.77-2.381,2.986,0.178,3.595,1.467c0.616,1.295,0.727,2.371,1.001,3.602c1.184-2.175,2.534-7.582,5.282-7.964         c1.25-0.174,2.063,0.955,2.18,1.987C263.658,247.827,262.13,250.048,261.346,251.353z"/>
							<path style="fill-rule:evenodd;clip-rule:evenodd;fill:#F7F7FC;" d="M358.835,308.939c1.438,0.823,3.856,0.867,3.51,2.844         c-0.369,2.11-4.198,1.219-5.384-0.042c-1.005,0.945-1.583,5.637-3.883,5.287c-2.527-0.384-0.235-5.76,0.623-7.193         c-0.845-0.924-3.238-2.223-2.968-4.039c0.337-2.281,3.127-0.875,4.137,0.268c0.958-1.4,2.461-4.483,4.857-3.683         C362.177,303.198,360.13,307.613,358.835,308.939z"/>
							<path style="fill-rule:evenodd;clip-rule:evenodd;fill:#F7F7FC;" d="M324.838,162.819c-1.01-1.144-3.801-2.552-4.139-0.269         c-0.265,1.817,2.13,3.115,2.971,4.04c-0.856,1.432-3.152,6.81-0.623,7.192c2.3,0.349,2.88-4.34,3.885-5.285         c1.184,1.26,5.011,2.15,5.382,0.041c0.346-1.978-2.074-2.02-3.507-2.845c1.044-1.068,2.568-4.142,1.84-5.723         c-1.239-0.007-2.477-0.012-3.716-0.019C326.038,160.812,325.358,162.059,324.838,162.819z"/>
							<path style="fill-rule:evenodd;clip-rule:evenodd;fill:#F7F7FC;" d="M309.041,261.142c0.039,4.767-2.81,7.654-3.985,11.587         c2.98,0.25,8.667-0.003,8.257,3.155c-0.348,2.721-5.278,1.182-6.924,0.009c0.263,1.457,0.951,3.204,1.522,5.024         c0.512,1.647,1.644,3.685,0.414,5.414c-1.872,0.784-3.041-2.242-3.763-3.631c-0.946-1.812-1.814-3.42-2.153-4.756         c-1.897,1.195-2.749,4.421-5.785,3.778c-0.532-1.862,0.729-3.624,1.553-4.977c0.89-1.457,2.106-2.656,3.161-3.642         c-0.672-1.381-1.696-2.912-2.477-4.471c-0.725-1.447-2.004-3.285-0.908-4.981c1.696,0.039,2.445,1.591,3.057,2.659         c0.659,1.155,1.143,2.554,1.603,3.798c0.77-1.919,1.533-5.915,2.826-7.972C306.127,261.043,307.613,259.568,309.041,261.142z         "/>
							<path style="fill-rule:evenodd;clip-rule:evenodd;fill:#F7F7FC;" d="M253.019,182.425c2.067,0.396,4.143,0.717,4.304,2.434         c0.224,2.321-2.626,3.725-4.875,3.992c0.145,2.884-0.014,6.855-2.294,6.93c-2.959,0.092-3.054-5.538-3.324-8.064         c-1.053-0.113-3.672,3.45-5.583,3.02c-0.405-0.091-0.926-0.619-1.012-0.988c-0.518-2.313,4.087-4.299,5.552-4.87         c-0.45-1.469-4.843-7.822-1.413-9.017c2.076-0.725,3.822,2.97,4.488,4.293c1.028-0.918,1.676-2.938,2.873-3.968         c0.706-0.607,2.024-1.165,2.961-0.575C256.811,176.942,253.856,181.149,253.019,182.425z"/>
						</g>
					</g>
					<g>
						<path style="fill-rule:evenodd;clip-rule:evenodd;fill:#42758A;" d="M373.063,258.155c4.213-0.458,3.663,3.217,3.441,6.033        c-0.387,4.802-0.883,9.091-1.834,12.937c-0.521,2.115-0.808,4.545-3.668,4.154c-2.375-0.327-1.958-2.527-1.954-4.867        c0.002-4.046,0.152-8.123,0.77-12.108c0.272-1.748,0.494-4.556,1.429-5.51C371.56,258.473,372.554,258.212,373.063,258.155z"/>
						<path style="fill-rule:evenodd;clip-rule:evenodd;fill:#42758A;" d="M381.918,273.986c6.48-0.803,4.599,16.45-0.018,16.413        c-4.257-0.032-3.197-6.011-2.812-10.386C379.38,276.654,378.703,274.385,381.918,273.986z"/>
						<path style="fill-rule:evenodd;clip-rule:evenodd;fill:#42758A;" d="M370.819,288.829c3.188-0.473,2.837,5.604,2.237,11.123        c-0.566,5.38-1.06,10.048-3.856,9.069c-1.719-0.598-1.644-5.25-1.426-9.754C368.025,294.121,367.935,289.259,370.819,288.829z        "/>
					</g>
				</g>
				<g>
					<path style="fill-rule:evenodd;clip-rule:evenodd;fill:#7AB0C9;" d="M412.815,258.821c-0.765,6.404-7.381,13.798-13.463,12.305       c-7.712-1.893-3.89-13.01-1.431-17.668c1.051-1.995,3.079-5.126,5.149-7.677c1.218-1.495,4.827-5.647,6.598-6.031       c1.658-0.361,4.148,0.121,5.95-0.131c8.907-1.243,15.385-4.256,22.289-8.886c5.823-3.907,12.621-9.593,14.83-17.386       c3.351-11.833-6.134-17.292-18.263-17.211c-7.252,0.045-15.899,2.658-21.591,6.09c-3.104,1.871-6.288,5.19-10.089,8.132       c-3.759,2.905-8.33,6.015-12.482,5.131c-1.662-0.355-3.111-1.425-3.933-3.099c-2.472-5.02,2.151-11.64,4.848-14.933       c6.535-7.982,14.672-12.203,24.315-16.25c4.938-2.072,10.248-4.044,15.039-4.707c24.181-3.34,44.163,8.782,44.324,29.761       c0.072,9.341-3.378,16.39-7.409,22.521c-4.019,6.11-8.042,10.8-13.648,15.136C442.809,252.454,430.324,258.418,412.815,258.821       z"/>
					<g>
						<path style="fill-rule:evenodd;clip-rule:evenodd;fill:#F7F7FC;" d="M464.425,193.039c1.703,2.099,4.829,9.217,0.607,9.615        c-1.476,0.139-2.76-2.236-3.324-4.695C461.092,195.277,461.079,192.316,464.425,193.039z"/>
						<path style="fill-rule:evenodd;clip-rule:evenodd;fill:#F7F7FC;" d="M463.476,221.358c-1.596-1.397-0.736-4.999-0.518-7.982        c0.059-0.73-0.188-1.594-0.023-2.257c0.537-2.15,2.926-5.131,5.346-3.273C470.188,209.315,468.786,223.863,463.476,221.358z"/>
					</g>
				</g>
			</g>
			<g>
				<g>
					<g>
						<path style="fill-rule:evenodd;clip-rule:evenodd;fill:#B25B1A;" d="M177.377,224.085c-3.625,1.475-6.702,4.825-9.799,7.48        c-16.175,13.866-32.532,27.375-47.711,42.553c-12.759,12.757-25.771,25.302-38.425,39.201        c-1.705,1.869-4.03,4.027-6.446,6.446c-1.97,1.969-5.805,5.209-6.193,6.705c-0.301,1.164,0.131,3.428,0.258,5.417        c1.705,26.486,2.851,53.444,4.642,79.432c-4.254-0.989-8.042-2.445-12.378-3.351c-4.596-18.068-8.581-38.984-12.12-60.348        c-1.635-9.864-3.405-20.286-4.386-31.725c-1.234-14.431-1.374-36.544,15.992-31.205c-1.386-17.259,1.277-38.206,10.572-47.453        c3.374-3.353,8.59-6.063,15.476-5.158c5.142,0.678,8.017,3.956,11.606,6.705c0.894-13.932,3.937-28.947,13.153-34.815        c11.095-7.065,22.185,2.871,26.303,10.831c0.738-9.697,3.045-19.458,8.769-24.24c5.128-4.287,13.202-3.29,17.794,1.03        c3.389,3.186,6.586,8.736,8.769,14.184C175.532,211.462,177.499,218.115,177.377,224.085z"/>
						<g>
							<g>
								<g>
									<polygon style="fill-rule:evenodd;clip-rule:evenodd;fill:#BF2727;" points="66.91,399.985 189.776,429.79 267.62,435.308            365.886,440.305 366.101,411.279 365.538,400.416 366.325,381.208 366.418,368.662 64.881,322.474          "/>
									<g>
										<path style="fill-rule:evenodd;clip-rule:evenodd;fill:#FF4E4E;" d="M68.591,400.392l17.869,4.335            c0.135-0.127,0.271-0.255,0.398-0.37c23.414-21.523,43.085-46.422,66.537-66.798c0.501-0.435,1.012-0.868,1.529-1.293            l-14.256-2.184c-16.669,15.149-32.27,32.153-46.847,47.322c0-0.258,0.208-0.308,0.258-0.518            c2.626-3.788,5.54-7.61,8.511-11.604c5.5-7.397,10.834-14.903,16.762-22.699c2.19-2.875,7.603-8.148,7.481-12.375            c-0.025-0.832-0.215-1.616-0.532-2.326l-9.93-1.521c-0.702,0.527-1.358,1.071-1.918,1.527            c-9.6,7.818-18.571,15.866-28.628,22.182c-4.017,2.522-8.867,5.366-14.699,5.155c0.274-5.307,2.599-9.63,4.899-13.414            c2.251-3.686,5.212-7.132,7.997-10.573c2.218-2.735,4.737-5.654,7.497-8.684l-13.245-2.029            c-4.908,5.4-9.321,11.193-12.821,17.164c-0.021,0.036-0.043,0.076-0.065,0.112l0.723,27.626            c1.588,0.801,3.376,1.278,5.272,1.399c8.857,0.571,15.586-4.802,21.664-7.993c-4.834,6.987-9.734,13.277-14.699,20.889            C75.155,388.62,71.226,394.322,68.591,400.392z"/>
										<path style="fill-rule:evenodd;clip-rule:evenodd;fill:#FF4E4E;" d="M366.325,381.205            c-8.847,3.087-17.446,6.66-25.696,8.969c2.828-5.844,9.308-14.642,10.057-23.731c0.005-0.064,0.005-0.125,0.009-0.189            l-20.518-3.143c-2.175,2.355-4.013,4.832-5.28,6.69c-4.605,6.745-12.12,20.783-5.421,29.396            c-6.419,6.559-12.869,14.468-20.626,18.825c3.21-8.081,8.445-16.56,13.15-24.236c1.544-2.524,4.057-5.482,3.612-9.03            c-0.315-2.472-2.475-4.621-4.644-4.9c-4.139-0.539-7.261,3.65-9.541,5.676c-18.939,16.763-39.507,32.537-57.986,48.062            l16.676,1.182c8.794-7.267,17.282-14.525,26.094-21.65c1.171-0.946,2.135-2.18,3.611-2.579            c-3.867,6.242-5.722,19.787,3.351,21.145c1.619,0.242,3.398-0.016,5.16-0.514c6.82-1.931,12.593-7.37,17.792-12.381            c2.617-2.518,5.389-4.895,7.737-7.479c2.579-2.835,4.657-5.9,7.221-7.992c13.816-0.974,23.405-6.17,34.56-9.802            c-11.439,14.785-23.742,28.703-36.365,42.295c-0.763,0.822-1.546,1.668-2.322,2.506l14.641,0.745            c7.626-8.351,15.154-16.758,22.498-25.43c0.652-0.77,1.325-1.565,2.007-2.373L366.325,381.205z M333.406,380.114            c-1.266,2.196-2.937,4.352-4.128,6.444c0.962-4.879,4.531-9.397,7.22-13.406            C335.935,375.432,334.717,377.841,333.406,380.114z"/>
										<path style="fill-rule:evenodd;clip-rule:evenodd;fill:#FF4E4E;" d="M243.079,433.569            c13.683-21.432,29.818-43.666,43.39-66.093c1.718-2.839,4.412-6.82,4.639-10.349l-16.252-2.49            c-0.359,0.25-0.704,0.492-1.025,0.716c-3.903,2.731-6.82,4.963-9.541,7.227c-12.763,10.587-23.24,21.342-35.072,31.975            c-5.923,5.321-11.568,10.904-18.313,14.701c6.924-12.675,16.139-23.681,26.305-35.591            c4.719-5.529,9.682-10.682,14.443-16.503c1.308-1.599,2.791-3.442,4.265-5.426l-26.565-4.069            c-1.177,1.024-2.354,2.049-3.492,3.047c-8.486,7.442-16.836,14.98-25.273,21.919            c-13.123,10.807-25.886,21.587-40.488,30.433c-4.986,3.02-10.284,6.668-16.766,6.962            c-3.059-3.174-2.753-10.929-2.319-16.762c13.965-10.252,31.126-19.488,44.616-31.205            c4.311-3.745,11.479-9.376,11.088-17.022c-0.578-1.01-1.193-1.926-1.934-2.668l-7.394-1.133            c-1.549,0.573-3.064,1.444-4.599,2.252c-7.334,3.875-15.337,9.63-20.887,12.894c1.857-4.492,3.562-9.626,5.93-15.214            c0.387-0.914,0.811-1.825,1.243-2.737l-11.561-1.771c-1.508,3.438-3,7.617-4.639,11.987            c-2.065,5.498-5.226,11.82-4.383,17.281c0.444,2.885,2.271,4.112,4.125,5.932c-2.828,1.381-5.522,4.272-8.253,4.895            c2.549-6.045,2.814-14.654-4.128-14.957c-2.708-0.113-5.844,2.323-8.248,4.384c-2.552,2.187-4.769,4.352-6.709,6.19            c-10.596,10.06-22.379,21.041-30.947,32.754c-0.306,0.418-0.627,0.846-0.95,1.279l19.68,4.774            c5.565-3.816,10.983-7.554,16.345-10.436c0.275,5.912,1.338,11.496,4.022,15.377l17.607,4.271            c8.04-2.386,16.03-8.246,21.44-11.909c23.393-15.845,45.958-36.471,65.247-52.613            c-11.097,12.754-23.797,26.606-33.526,42.037c-2.536,4.023-7.426,12.116-6.706,18.569            c0.761,6.838,7.995,8.434,13.927,5.932c5.423-2.289,10.786-6.802,15.731-10.832c13.476-10.977,25.44-23.785,38.17-34.819            c1.078-0.928,2.199-2.115,3.609-2.577c-11.657,18.658-26.938,38.855-38.699,58.476L243.079,433.569z M130.44,386.305            c-2.855,1.61-5.316,3.62-8.253,5.16c2.717-2.959,5.584-5.767,8.511-8.511C131.317,383.755,130.182,385.005,130.44,386.305            z"/>
									</g>
								</g>
								<g>
									<path style="fill-rule:evenodd;clip-rule:evenodd;fill:#FF4E4E;" d="M64.677,324.406c-0.383-2.303,1.488-3.803,2.579-5.414           c3.224-4.773,5.636-10.056,9.025-14.96c4.352-6.296,10.771-10.706,14.701-17.022c3.018-4.846,4.148-11.007,7.737-15.73           c5.493-7.228,15.048-11.881,22.18-18.053c0.391-0.339,1.298-0.527,1.183-1.051c-0.076-0.347,0.421,1.039,4.219-2.545           c2.96-2.793,10.816-10.578,13.337-12.837c1.449-1.299,7.037-4.534,7.037-4.534c1.696-0.688,3.453-1.35,5.171-2.085           c0,0,2.656-0.886,3.496-1.31c1.043-0.526,2.065-1.493,2.065-1.493c4.534-2.578,8.389-5.13,14.553-5.608           c4.01-0.311,5.158,1.457,7.737,3.095c2.458,1.56,5.024,3.105,7.591,4.641c0,0,7.385,6.256,11.228,8.829           c3.879,2.598,12.833,6.731,12.833,6.731c4.739,3.254,9.429,6.524,14.08,9.811c0,0,0.629,4.431,2.339,5.652           c2.045,1.46,8.921,2.395,8.921,2.395c6.871,4.964,13.667,9.968,20.416,15.018c0,0,4.715,6.263,7.694,8.522           c3.603,2.733,12.049,6.47,12.049,6.47c7.666,5.9,15.304,11.865,22.955,17.902c0,0,1.834,5.817,4.202,7.696           c2.927,2.322,11.69,4.919,11.69,4.919c2.546,2.032,5.096,4.072,7.653,6.121c2.444,1.959,4.905,3.938,7.375,5.941           c1.593,1.292,0.206,4.57,1.805,5.883c1.365,1.121,5.715,0.275,7.082,1.414c2.97,2.475,5.941,4.992,8.898,7.559           c0,0-0.402,7.885,2.874,10.909c1.696,1.564,13.028,4.103,13.028,4.103c1.713,2.211,2.911,4.578,2.522,6.741           c-0.888,4.952-10.261,5.158-17.536,5.158c-7.866,0-14.998-1.207-20.373-2.06c-26.627-4.238-49.203-10.32-73.758-16.504           c-35.668-8.987-72.445-17.332-111.669-23.214c-22.832-3.424-46.624-6.314-70.149-8.769           C70.462,326.416,67.059,326.629,64.677,324.406z"/>
									<g>
										<path style="fill-rule:evenodd;clip-rule:evenodd;fill:#F7F7FC;" d="M358.421,359.225            c-3.29-3.037-6.617-5.993-9.959-8.893c-1.01,5.724-5.172,10.686-7.832,14.051c-2.694-0.611-4.85-1.44-6.195-3.093            c-4.03-4.977-0.086-14.71,5.084-18.556c-2.938-2.447-5.874-4.855-8.798-7.227c-4.56,4.24-7.93,10.211-8.917,15.983            c-1.85,10.8,2.884,17.294,9.539,21.661c-0.763,0.699-1.574,1.379-2.412,2.047c0.031,0.005,0.062,0.01,0.093,0.015            c4.15,0.659,9.355,1.523,15.129,1.885c0.672-0.638,1.315-1.153,1.889-1.369c0.906-0.339,2.16-0.294,3.097-0.516            c3.38-0.804,5.742-1.83,8.253-3.351c2.399-1.457,5.983-3.502,6.959-6.558            C362.509,362.948,360.099,360.773,358.421,359.225z"/>
										<path style="fill-rule:evenodd;clip-rule:evenodd;fill:#F7F7FC;" d="M184.957,342.712            c-1.132-1.613-2.18-3.273-3.194-4.894c4.605-4.885,11.151-10.857,16.248-18.31c5.552-8.119,11.663-21.62,6.965-32.237            c-2.875-6.491-12.503-10.147-19.601-5.158c-6.288-7.873-21.274-9.297-35.335-7.737c0.636-1.774,1.214-3.603,2.581-4.643            c22.365,1.284,42.811-4.906,53.385-15.732c2.087-2.138,4.258-5.362,5.344-8.93c-3.816-2.62-7.652-5.234-11.535-7.834            c-3.852-2.579-8.209-5.155-12.559-7.757c-2.242,0.574-4.376,1.296-6.265,2.084c-11.117,4.639-21.202,12.688-29.403,20.889            c-1.535,1.536-3.627,4.877-5.158,5.159c-0.989,0.182-2.907-0.444-4.125-0.775c-3.636-0.988-8.296-2.921-9.027-6.188            c-0.62-2.779,1.334-6.341,2.579-8.253c2.46-3.783,6.436-7.668,10.676-10.078c-1.578,0.643-3.102,1.311-4.488,2.084            c-6.751,3.764-13.713,12.084-19.962,17.773c0.359,3.094,1.581,6.032,3.975,8.531c3.362,3.511,8.255,5.251,14.183,7.48            c-1.076,2.45-1.85,5.197-2.577,7.995c-18.634,3.438-38.106,9.918-50.034,21.405c-5.375,5.175-11.228,13.81-6.446,22.179            c-0.929,2.469-1.785,4.884-2.309,7.542c3.788,0.406,7.578,0.82,11.37,1.249c0.125-0.684,0.279-1.378,0.481-2.085            c16.664,3.2,38.996-1.215,48.743-10.316c1.429-1.337,3.113-3.424,3.867-4.901c6.14-11.997-6.985-20.664-20.117-19.857            c4.599-1.767,10.827-3.274,15.732-3.868c4.211,10.36,15.546,14.834,30.435,13.669c0.693,0.203,0.088,1.289,0,1.545            c-1.34,3.818-3.027,8.936-3.353,14.186c-0.38,6.1,0.704,12.125,2.063,17.02c-1.55,1.589-3.41,3.137-5.496,4.64            C170.129,339.888,177.586,341.26,184.957,342.712z M163.192,257.097c3.494-3.61,8.321-6.742,12.897-9.801            c5.642-3.772,12.082-7.617,19.085-7.995c1.793-0.097,3.858,0.077,5.416,1.031c-0.02,4.005-3.383,6.352-5.932,8.253            c-7.997,5.964-19.427,9.084-32.237,10.057C161.505,258.538,162.836,257.464,163.192,257.097z M127.087,303.001            c2.368,0.243,4.422,0.987,6.19,2.322c-1.983,3.813-6.747,6.174-11.346,7.737c-6.976,2.372-15.197,3.54-24.503,2.836            c-0.84-0.525,0.91-1.424,1.546-2.061C104.751,308.06,114.376,301.699,127.087,303.001z M181.502,303.001            c2.658-5.339,6.136-10.208,11.35-11.862c1.275-0.405,2.099,1.44,2.321,2.837c1.078,6.824-3.392,14.43-6.19,18.569            c-2.513,3.724-5.28,7.094-8.25,10.316c-0.86,0.932-1.923,2.154-3.095,2.321            C176.754,316.527,178.255,309.534,181.502,303.001z M151.074,285.981c7.503-1.522,18.141-0.99,23.724,1.805            C168.517,291.457,155.668,290.492,151.074,285.981z"/>
										<path style="fill-rule:evenodd;clip-rule:evenodd;fill:#F7F7FC;" d="M255.265,358.711            c0.366,0.092,0.728,0.184,1.093,0.276c0.062-0.35,0.118-0.699,0.193-1.053c18.605-0.627,35.874-9.626,47.455-19.085            c4.157-3.393,8.362-7.175,10.576-11.863c0.527-1.119,0.86-2.354,1.028-3.609c-5.291-4.223-10.562-8.408-15.826-12.561            c-6.382,0.535-13.123,2.812-17.442,4.566c-5.921,2.401-10.961,6.133-15.471,8.508c3.371-5.565,6.512-12.44,7.993-19.6            c0.559-2.711,0.523-5.42,1.032-8.252c0.188-1.042,0.584-2.064,0.958-3.102c-6.585-5.068-13.192-10.087-19.843-15.064            c-10.347,2.136-16.992,7.974-23.668,13.782c-4.712-3.749-8.457-8.72-7.481-17.795c0.67-6.205,5.113-10.207,10.779-10.966            c-3.717-2.685-7.455-5.36-11.221-8.022c-0.373,0.22-0.753,0.432-1.104,0.676c-11.749,8.154-13.107,28.833-2.837,40.748            c1.644,1.909,3.625,2.759,5.158,4.901c-6.335,9.028-11.244,28.493-5.158,41.004c1.046,2.15,2.76,3.516,3.609,5.672            c-1.788,0.716-3.568,1.505-5.382,2.27C231.704,352.892,243.553,355.76,255.265,358.711z M248.042,346.329            c-0.045-0.907,0.869-0.848,1.032-1.548C249.512,345.072,248.984,346.563,248.042,346.329z M287.244,325.696            c4.995-2.08,9.833-3.465,16.762-3.351c-4.207,6.833-11.153,10.977-18.052,14.956c-6.865,3.964-14.738,7.594-23.985,8.771            C267.421,337.052,276.448,330.194,287.244,325.696z M264.548,288.559c0,1.032,0,2.065,0,3.096            c-4.125,3.066-11.085,4.487-18.055,3.867C251.153,291.842,256.075,288.428,264.548,288.559z M237.21,305.581            c7.331,2.145,18.467,1.999,25.273-0.515c0.17,0,0.346,0,0.518,0c-5.169,16.147-15.498,27.137-27.598,36.364            C225.357,333.954,231.446,313.21,237.21,305.581z"/>
										<path style="fill-rule:evenodd;clip-rule:evenodd;fill:#F7F7FC;" d="M154.425,228.985            c-0.851,0.429-1.728,0.822-2.613,1.199c2.196-0.566,4.606-1.083,5.597-2.814            C156.453,227.914,155.469,228.458,154.425,228.985z"/>
									</g>
								</g>
							</g>
							<path style="fill-rule:evenodd;clip-rule:evenodd;fill:#B25B1A;" d="M69.061,394.555c11.122,1.592,23.695,5.135,35.074,7.739         c23.061,5.273,44.342,12.086,68.858,15.992c12.356,1.963,25.105,2.626,37.911,4.381c12.118,1.657,23.939,5.128,36.105,6.444         c12.983,1.411,26.305-0.238,39.974,0.779c25.812,1.916,52.194,4.035,79.434,5.153c-0.222,3.906-0.965,7.293-1.035,11.348         c-12.229-2.049-25.443-3.464-38.942-2.837c-13.594,0.636-27.406,0-41.007,0c-13.553,0.004-26.744-0.487-39.716-1.802         c-12.899-1.306-25.49-2.518-37.909-3.611c-25.078-2.207-48.003-7.18-70.405-12.634         c-22.708-5.532-50.752-11.801-73.518-16.929c-0.131-5.112-1.125-10.619-1.544-15.439         C62.32,392.769,68.76,394.598,69.061,394.555z"/>
						</g>
					</g>
					<g>
						<g>
							<path style="fill-rule:evenodd;clip-rule:evenodd;fill:#F7F7FC;" d="M353.066,386.137c5.597-1.662,4.712,7.062,3.955,11.6         c-0.629,3.749-2.287,7.719-5.008,7.641c-2.538-0.072-3.451-3.222-3.165-7.119         C349.183,393.69,349.672,387.149,353.066,386.137z"/>
							<path style="fill-rule:evenodd;clip-rule:evenodd;fill:#F7F7FC;" d="M340.943,405.378c2.76,2.278,0.82,7.836-1.315,9.224         C335.054,414.288,335.356,404.368,340.943,405.378z"/>
							<path style="fill-rule:evenodd;clip-rule:evenodd;fill:#F7F7FC;" d="M349.378,414.34c6.301-1.089,2.531,14.28-2.11,10.54         C344.908,422.98,346.269,414.876,349.378,414.34z"/>
						</g>
						<g>
							<path style="fill-rule:evenodd;clip-rule:evenodd;fill:#F7F7FC;" d="M119.439,342.912c-0.686,3.293-4.18,2.47-5.409,2.459         c-1.789-0.004-3.469-0.122-5.076-0.342c-4.234-0.559-6.928-1.119-10.248-2.335c-0.969-0.353-2.149-0.927-1.642-2.399         c0.575-1.653,1.759-1.488,2.547-1.518c4.374-0.141,9.002,0.492,13.264,1.011c0.858,0.099,1.777,0.119,2.656,0.29         c0.892,0.171,1.906,0.306,2.688,0.741C118.805,341.145,119.668,341.798,119.439,342.912z"/>
							<path style="fill-rule:evenodd;clip-rule:evenodd;fill:#F7F7FC;" d="M104.015,352.899c0.086,3.537-7.402,2.165-11.423,0.776         c-2.112-0.736-3.836-1.87-3.133-3.677c0.713-1.851,5.341-1.405,9.188-0.383C100.9,350.211,103.97,351.142,104.015,352.899z"/>
							<path style="fill-rule:evenodd;clip-rule:evenodd;fill:#F7F7FC;" d="M87.197,339.876c0.235,3.61-8.113,2.253-12.288,0.829         c-1.934-0.663-3.566-1.746-3.276-3.151c0.586-2.829,7.535-1.373,10.753-0.388C84.414,337.788,87.093,338.264,87.197,339.876z         "/>
						</g>
					</g>
				</g>
				<g>
					<path style="fill-rule:evenodd;clip-rule:evenodd;fill:#7AB0C9;" d="M479.756,390.826c4.666-0.668,12.215-0.808,12.573,3.657       c0.26,3.229-1.854,5.418-4.451,7.615c-6.482,5.493-15.333,9.657-23.819,12.79c-12.498,4.614-25.621,7.578-39.111,10.365       c-27.748,5.74-56.038,10.893-77.451,21.627c-5.624,2.817-10.528,5.982-14.513,9.94c-3.992,3.962-6.935,8.572-9.5,14.328       c-1.483,3.331-1.918,6.299-2.916,8.837c-3.315,8.443-8.174,14.826-15.114,20.703c-8.411,7.123-21.766,13.454-36.517,10.619       c-9.075-1.75-16.902-6.634-22.11-13.576c-1.691-2.253-3.466-5.076-4.436-7.75c-2.939-8.054,3.65-15.29,7.8-18.87       c5.244-4.533,11.588-8.056,18-10.66c7.624-3.104,15.159-5.076,22.839-6.27c5.701-0.881,13.954-1.497,19.952-0.761       c3.426,0.419,5.95,1.005,9.625,0.1c2.941-0.722,5.805-3.265,8.638-5.223c7.918-5.475,16.601-11.235,25.549-15.462       c12.765-6.03,27.127-10.132,41.145-14.348c14.318-4.309,28.411-8.439,42.109-13.467c6.969-2.565,13.39-5.257,19.99-7.803       C464.701,394.659,471.243,392.044,479.756,390.826z"/>
					<path style="fill:#42758A;" d="M332.983,456.82c3.985-3.958,8.889-7.123,14.513-9.94       c21.412-10.734,49.703-15.888,77.451-21.627c13.49-2.787,26.613-5.751,39.111-10.365c8.486-3.134,17.337-7.297,23.819-12.79       c2.597-2.196,4.712-4.386,4.451-7.615c-0.118-1.492-1.046-2.47-2.4-3.086c-0.127,2.309-1.451,4.558-2.645,5.916       c-2.133,2.434-5.454,4.574-8.76,6.525c-9.691,5.719-22.862,8.962-35.353,11.665c-17.692,3.845-35.486,7.112-51.458,11.516       c-8.282,2.28-16.105,4.932-23.504,7.775c-7.739,2.973-14.916,5.937-21.378,9.707c-11.239,6.564-20.615,15.586-24.36,28.735       c-0.349,1.227-0.772,2.511-0.967,3.833c0.514-1.814,1.03-3.792,1.979-5.921C326.047,465.392,328.991,460.782,332.983,456.82z"/>
					<path style="fill-rule:evenodd;clip-rule:evenodd;fill:#42758A;" d="M296.763,457.986c8.683-1.021,20.905-0.451,22.913,7.055       c1.139,4.241-1.338,8.235-3.016,10.504c-5.769,7.759-15.976,13.687-25.452,17.493c-8.778,3.528-24.682,8.194-36.238,4.678       c-3.62-1.098-7.153-3.247-7.92-7.023c-0.856-4.211,1.861-8.314,3.745-10.728c2.337-2.989,5.765-5.636,8.882-7.827       c6.605-4.63,13.913-8.246,22.798-11.07C287.045,459.612,291.831,458.561,296.763,457.986z"/>
				</g>
			</g>
		</g>
		<g>
			<path style="fill-rule:evenodd;clip-rule:evenodd;fill:#E1EFF4;" d="M363.547,71.703c3.199-0.593,7.343-1.758,12.378-1.288     c10.11,0.941,16.563,9.207,15.476,20.888c-0.659,7.047-4.841,12.515-9.802,16.247c-5.165,3.888-11.228,6.03-18.052,7.738     c-13.948,3.491-26.917,8.533-29.917,21.664c-1.911-0.306-3.242-1.976-4.641-3.096c-4.585-3.66-9.19-6.407-15.732-8.509     c-7.92-2.547-16.234-5.074-23.47-9.026c-7.003-3.829-12.942-8.578-18.31-14.185c-5.344-5.588-9.863-12.458-10.574-21.665     c-1.485-19.312,7.159-30.664,23.982-33.009c0.045-13.402,3.448-24.71,10.062-32.753c6.344-7.72,17.384-14.45,29.142-14.7     c11.11-0.236,20.09,5.39,26.047,11.347C362.757,23.977,370.17,48.537,363.547,71.703z"/>
			<g>
				<path style="fill-rule:evenodd;clip-rule:evenodd;fill:#C7E0EA;" d="M270.322,74.621c5.228,1.865,5.359,8.381,0.946,9.182      C265.626,84.827,262.526,73.98,270.322,74.621z"/>
				<path style="fill-rule:evenodd;clip-rule:evenodd;fill:#C7E0EA;" d="M280.162,66.66c0.924-0.948,2.298-1.757,3.274-1.602      c3.79,0.616,7.402,11.431,3.276,13.603c-3.401,1.789-5.366-0.954-6.473-4.944C279.41,70.732,278.452,68.417,280.162,66.66z"/>
				<path style="fill-rule:evenodd;clip-rule:evenodd;fill:#C7E0EA;" d="M289.411,88.147c3.095-3.829,5.819-0.181,9.029,3.771      c2.939,3.623,5.71,6.628,2.91,9.254c-0.668,0.627-1.997,1.396-3.202,1.316c-3.901-0.259-10.021-10.129-9.872-12.319      C288.329,89.511,289.046,88.598,289.411,88.147z"/>
			</g>
		</g>
	</g>
</g>















</svg>
