<svg width="1083" height="1051" viewBox="0 0 1083 1051" fill="none" xmlns="http://www.w3.org/2000/svg">
<g opacity="0.65" filter="url(#filter0_f)">
<path d="M325 419.182C325 364.957 368.957 321 423.182 321H658.818C713.041 321 757 364.957 757 419.182V654.818C757 709.041 713.041 753 658.818 753H423.182C368.957 753 325 709.041 325 654.818V419.182Z" fill="url(#paint0_linear)"/>
<mask id="mask0" mask-type="alpha" maskUnits="userSpaceOnUse" x="325" y="321" width="432" height="432">
<path d="M325 419.182C325 364.957 368.957 321 423.182 321H658.818C713.041 321 757 364.957 757 419.182V654.818C757 709.041 713.041 753 658.818 753H423.182C368.957 753 325 709.041 325 654.818V419.182Z" fill="url(#paint1_linear)"/>
</mask>
<g mask="url(#mask0)">
<path d="M456.051 578.684C449.044 576.806 441.833 581.039 439.929 588.146L426.147 639.584C424.242 646.691 428.371 653.961 435.377 655.839C442.383 657.716 449.593 653.484 451.497 646.377L465.28 594.939C467.185 587.832 463.057 580.561 456.051 578.684ZM608.155 619.44C601.15 617.563 593.942 621.796 592.037 628.904L578.255 680.342C576.35 687.447 580.476 694.718 587.481 696.596C594.488 698.473 601.699 694.24 603.604 687.134L617.386 635.696C619.291 628.588 615.161 621.317 608.155 619.44Z" fill="#0EE7BC"/>
<path d="M554.401 414.838C547.421 412.968 540.256 417.117 538.382 424.113L507.856 538.038L482.605 531.272L513.131 417.347C515.006 410.351 510.876 403.176 503.898 401.306C496.919 399.436 489.755 403.585 487.88 410.581L457.354 524.506L432.103 517.74L462.629 403.816C464.504 396.819 460.374 389.644 453.396 387.774C446.417 385.904 439.253 390.053 437.378 397.05L403.461 523.632C394.11 558.529 414.81 594.509 449.629 603.838C484.447 613.168 520.364 592.359 529.714 557.462L563.632 430.879C565.507 423.882 561.376 416.707 554.401 414.838ZM468.096 635.923L417.594 622.391C410.615 620.521 403.452 624.668 401.577 631.666L360.424 785.251C354.813 806.191 367.239 827.779 388.125 833.376C409.011 838.972 430.566 826.489 436.176 805.549L477.33 651.963C479.204 644.966 475.074 637.793 468.096 635.923ZM619.602 676.519L569.099 662.987C562.121 661.117 554.956 665.263 553.082 672.261L511.928 825.847C506.318 846.787 518.743 868.374 539.628 873.971C560.515 879.568 582.072 867.084 587.683 846.145L628.836 692.56C630.711 685.562 626.58 678.389 619.602 676.519ZM601.133 644.434C636.543 653.922 676.178 616.872 691.395 560.083C706.612 503.294 690.812 451.389 655.401 441.901C619.991 432.413 580.359 469.464 565.142 526.254C549.925 583.043 565.722 634.946 601.133 644.434Z" fill="#0EE7BC"/>
</g>
</g>
<path d="M203.4 483.59V489.53C203.404 490.638 203.057 491.719 202.408 492.617C201.76 493.516 200.843 494.185 199.79 494.53V496.71C199.79 497.397 199.655 498.077 199.392 498.711C199.129 499.346 198.744 499.922 198.258 500.408C197.772 500.894 197.196 501.279 196.561 501.542C195.927 501.805 195.247 501.94 194.56 501.94H149.38C148.693 501.94 148.013 501.805 147.378 501.542C146.744 501.279 146.167 500.894 145.682 500.408C145.196 499.922 144.811 499.346 144.548 498.711C144.285 498.077 144.15 497.397 144.15 496.71V494.53C143.093 494.19 142.173 493.521 141.522 492.622C140.871 491.723 140.523 490.64 140.53 489.53V483.59C140.53 482.903 140.665 482.223 140.928 481.588C141.191 480.954 141.576 480.377 142.062 479.892C142.547 479.406 143.124 479.021 143.758 478.758C144.393 478.495 145.073 478.36 145.76 478.36H198.17C198.857 478.359 199.538 478.493 200.173 478.755C200.808 479.018 201.385 479.403 201.871 479.889C202.357 480.375 202.742 480.952 203.004 481.587C203.267 482.222 203.401 482.903 203.4 483.59Z" fill="#F7F3EF" stroke="#070707" stroke-width="4" stroke-linecap="round" stroke-linejoin="round"/>
<path d="M143.92 493.18H200.02C208.61 493.18 216.849 496.592 222.923 502.667C228.997 508.741 232.41 516.98 232.41 525.57V644.57C232.397 648.667 230.76 652.591 227.858 655.484C224.957 658.376 221.027 660 216.93 660H127.01C122.904 660 118.967 658.369 116.064 655.466C113.161 652.563 111.53 648.626 111.53 644.52V525.52C111.543 516.938 114.961 508.713 121.034 502.649C127.107 496.586 135.338 493.18 143.92 493.18V493.18Z" fill="#F7F3EF" stroke="#070707" stroke-width="4" stroke-linecap="round" stroke-linejoin="round"/>
<path d="M223.65 590.09V636.3C223.65 640.299 222.061 644.135 219.233 646.963C216.405 649.791 212.569 651.38 208.57 651.38H135.34C131.341 651.377 127.507 649.788 124.68 646.96C121.852 644.133 120.262 640.298 120.26 636.3V590.09C120.26 585.52 143.41 577.09 171.97 577.09C200.53 577.09 223.65 585.52 223.65 590.09Z" fill="#EFAF00" stroke="black" stroke-width="4" stroke-linecap="round" stroke-linejoin="round"/>
<path d="M353.38 483.59V489.53C353.385 490.64 353.037 491.722 352.386 492.621C351.736 493.52 350.816 494.188 349.76 494.53V496.71C349.76 497.397 349.625 498.077 349.362 498.711C349.099 499.346 348.714 499.922 348.228 500.408C347.743 500.894 347.166 501.279 346.531 501.542C345.897 501.805 345.217 501.94 344.53 501.94H299.36C298.673 501.941 297.992 501.807 297.357 501.544C296.722 501.282 296.145 500.897 295.659 500.411C295.173 499.925 294.788 499.348 294.525 498.713C294.263 498.078 294.129 497.397 294.13 496.71V494.53C293.072 494.19 292.15 493.522 291.498 492.623C290.845 491.724 290.496 490.641 290.5 489.53V483.59C290.5 482.903 290.635 482.223 290.898 481.588C291.161 480.954 291.546 480.377 292.032 479.892C292.518 479.406 293.094 479.021 293.729 478.758C294.363 478.495 295.043 478.36 295.73 478.36H348.15C348.837 478.36 349.517 478.495 350.151 478.758C350.786 479.021 351.363 479.406 351.848 479.892C352.334 480.377 352.719 480.954 352.982 481.588C353.245 482.223 353.38 482.903 353.38 483.59V483.59Z" fill="#F7F3EF" stroke="#070707" stroke-width="4" stroke-linecap="round" stroke-linejoin="round"/>
<path d="M293.89 493.18H349.99C358.58 493.18 366.819 496.592 372.893 502.667C378.967 508.741 382.38 516.98 382.38 525.57V644.57C382.367 648.667 380.73 652.591 377.828 655.484C374.927 658.376 370.997 660 366.9 660H276.98C272.874 660 268.937 658.369 266.034 655.466C263.131 652.563 261.5 648.626 261.5 644.52V525.52C261.513 516.938 264.932 508.713 271.004 502.649C277.077 496.586 285.308 493.18 293.89 493.18Z" fill="#F7F3EF" stroke="#070707" stroke-width="4" stroke-linecap="round" stroke-linejoin="round"/>
<path d="M373.65 584.65V631.1C373.65 642.29 366.89 651.38 358.57 651.38H285.32C276.99 651.38 270.24 642.29 270.24 631.1V576.8C270.24 565.43 292.05 549.01 332.31 558.51C366.32 566.54 373.65 584.65 373.65 584.65Z" fill="#E57B07" stroke="#070707" stroke-width="4" stroke-linecap="round" stroke-linejoin="round"/>
<path d="M455.76 591.58H472.15C474.819 591.58 477.461 592.106 479.927 593.127C482.392 594.148 484.632 595.645 486.519 597.532C488.406 599.419 489.902 601.659 490.924 604.124C491.945 606.589 492.47 609.232 492.47 611.9V640.9C492.47 645.144 490.785 649.213 487.784 652.214C484.784 655.214 480.714 656.9 476.47 656.9H451.42C447.177 656.9 443.107 655.214 440.107 652.214C437.106 649.213 435.42 645.144 435.42 640.9V611.9C435.42 609.23 435.947 606.586 436.969 604.119C437.991 601.653 439.49 599.412 441.379 597.525C443.268 595.637 445.511 594.141 447.978 593.121C450.446 592.101 453.09 591.577 455.76 591.58V591.58Z" fill="#F7F3EF" stroke="#070707" stroke-width="4" stroke-linecap="round" stroke-linejoin="round"/>
<path d="M456.65 591.58H474.32C479.54 591.58 484.546 593.653 488.236 597.344C491.927 601.035 494 606.041 494 611.26V640.39C494 642.552 493.575 644.692 492.747 646.689C491.92 648.686 490.708 650.501 489.179 652.029C487.651 653.558 485.836 654.77 483.839 655.597C481.842 656.424 479.702 656.85 477.54 656.85H453.44C451.279 656.85 449.138 656.424 447.141 655.597C445.144 654.77 443.33 653.558 441.801 652.029C440.273 650.501 439.061 648.686 438.233 646.689C437.406 644.692 436.98 642.552 436.98 640.39V611.26C436.98 606.042 439.052 601.038 442.741 597.348C446.43 593.657 451.433 591.583 456.65 591.58V591.58Z" fill="#1C0E0C"/>
<path d="M439.38 591.58H457.05C462.27 591.58 467.275 593.653 470.966 597.344C474.657 601.035 476.73 606.041 476.73 611.26V640.39C476.73 642.552 476.304 644.692 475.477 646.689C474.65 648.686 473.438 650.501 471.909 652.029C470.381 653.558 468.566 654.77 466.569 655.597C464.572 656.424 462.432 656.85 460.27 656.85H436.16C433.999 656.85 431.858 656.424 429.861 655.597C427.864 654.77 426.05 653.558 424.521 652.029C422.993 650.501 421.78 648.686 420.953 646.689C420.126 644.692 419.7 642.552 419.7 640.39V611.26C419.7 606.041 421.774 601.035 425.464 597.344C429.155 593.653 434.161 591.58 439.38 591.58V591.58Z" fill="#F7F3EF" stroke="#070707" stroke-width="4" stroke-linecap="round" stroke-linejoin="round"/>
<path d="M466.18 612.39H429.63V635.21H466.18V612.39Z" fill="#F7F3EF" stroke="#070707" stroke-width="4" stroke-linecap="round" stroke-linejoin="round"/>
<path d="M467.1 565.73H456.83C448.92 565.73 443.5 574.33 446.4 582.26L449.8 591.53H474.13L477.53 582.26C480.43 574.33 475.01 565.73 467.1 565.73Z" fill="#1C0E0C"/>
<path d="M455.98 565.73H445.7C437.79 565.73 432.37 574.33 435.28 582.26L438.67 591.53H463L466.4 582.26C469.31 574.33 463.88 565.73 455.98 565.73Z" fill="#F7F3EF" stroke="#070707" stroke-width="4" stroke-linecap="round" stroke-linejoin="round"/>
<path d="M550.87 591.58H567.25C572.639 591.58 577.808 593.721 581.618 597.532C585.429 601.342 587.57 606.511 587.57 611.9V640.9C587.57 645.144 585.884 649.213 582.884 652.214C579.883 655.214 575.813 656.9 571.57 656.9H546.52C542.277 656.9 538.207 655.214 535.206 652.214C532.206 649.213 530.52 645.144 530.52 640.9V611.9C530.52 606.511 532.661 601.342 536.472 597.532C540.282 593.721 545.451 591.58 550.84 591.58H550.87Z" fill="#F7F3EF" stroke="#070707" stroke-width="4" stroke-linecap="round" stroke-linejoin="round"/>
<path d="M551.76 591.58H569.43C574.65 591.58 579.655 593.653 583.346 597.344C587.037 601.035 589.11 606.041 589.11 611.26V640.39C589.107 644.754 587.372 648.938 584.286 652.023C581.199 655.107 577.014 656.84 572.65 656.84H548.54C544.175 656.84 539.988 655.106 536.901 652.019C533.814 648.932 532.08 644.746 532.08 640.38V611.26C532.08 606.041 534.154 601.035 537.844 597.344C541.535 593.653 546.541 591.58 551.76 591.58V591.58Z" fill="#1C0E0C"/>
<path d="M534.49 591.58H552.16C557.38 591.58 562.385 593.653 566.076 597.344C569.767 601.035 571.84 606.041 571.84 611.26V640.39C571.84 642.552 571.414 644.692 570.587 646.689C569.76 648.686 568.547 650.501 567.019 652.029C565.491 653.558 563.676 654.77 561.679 655.597C559.682 656.424 557.542 656.85 555.38 656.85H531.27C529.109 656.85 526.968 656.424 524.971 655.597C522.974 654.77 521.16 653.558 519.631 652.029C518.103 650.501 516.89 648.686 516.063 646.689C515.236 644.692 514.81 642.552 514.81 640.39V611.26C514.81 606.041 516.884 601.035 520.574 597.344C524.265 593.653 529.271 591.58 534.49 591.58V591.58Z" fill="#F7F3EF" stroke="#070707" stroke-width="4" stroke-linecap="round" stroke-linejoin="round"/>
<path d="M561.28 612.39H524.73V635.21H561.28V612.39Z" fill="#F7F3EF" stroke="#070707" stroke-width="4" stroke-linecap="round" stroke-linejoin="round"/>
<path d="M563 565.73H553.52C545.61 565.73 540.19 574.33 543.1 582.26L546.49 591.53H570.03L573.43 582.26C576.33 574.33 570.91 565.73 563 565.73Z" fill="#1C0E0C"/>
<path d="M550.29 565.73H540.81C532.9 565.73 527.48 574.33 530.38 582.26L533.78 591.53H557.32L560.71 582.26C563.65 574.33 558.2 565.73 550.29 565.73Z" fill="#F7F3EF" stroke="#070707" stroke-width="4" stroke-linecap="round" stroke-linejoin="round"/>
<path d="M645.98 591.58H662.36C667.744 591.588 672.905 593.732 676.709 597.542C680.514 601.352 682.65 606.516 682.65 611.9V640.9C682.65 645.144 680.965 649.213 677.964 652.214C674.964 655.214 670.894 656.9 666.65 656.9H641.65C637.407 656.9 633.337 655.214 630.337 652.214C627.336 649.213 625.65 645.144 625.65 640.9V611.9C625.65 609.232 626.176 606.589 627.197 604.124C628.218 601.659 629.715 599.419 631.602 597.532C633.489 595.645 635.729 594.148 638.194 593.127C640.66 592.106 643.302 591.58 645.97 591.58H645.98Z" fill="#F7F3EF" stroke="#070707" stroke-width="4" stroke-linecap="round" stroke-linejoin="round"/>
<path d="M646.87 591.58H664.54C669.76 591.58 674.766 593.653 678.456 597.344C682.147 601.035 684.22 606.041 684.22 611.26V640.39C684.22 642.552 683.795 644.692 682.968 646.689C682.14 648.686 680.928 650.501 679.399 652.029C677.871 653.558 676.056 654.77 674.059 655.597C672.062 656.424 669.922 656.85 667.76 656.85H643.65C641.489 656.85 639.349 656.424 637.352 655.597C635.354 654.77 633.54 653.558 632.011 652.029C630.483 650.501 629.271 648.686 628.443 646.689C627.616 644.692 627.19 642.552 627.19 640.39V611.26C627.19 606.041 629.264 601.035 632.955 597.344C636.645 593.653 641.651 591.58 646.87 591.58V591.58Z" fill="#1C0E0C"/>
<path d="M629.6 591.58H647.27C652.49 591.58 657.495 593.653 661.186 597.344C664.877 601.035 666.95 606.041 666.95 611.26V640.39C666.95 642.552 666.524 644.692 665.697 646.689C664.87 648.686 663.658 650.501 662.129 652.029C660.601 653.558 658.786 654.77 656.789 655.597C654.792 656.424 652.652 656.85 650.49 656.85H626.37C624.209 656.85 622.068 656.424 620.071 655.597C618.074 654.77 616.26 653.558 614.731 652.029C613.203 650.501 611.99 648.686 611.163 646.689C610.336 644.692 609.91 642.552 609.91 640.39V611.26C609.91 608.675 610.42 606.115 611.409 603.727C612.399 601.338 613.849 599.168 615.678 597.341C617.506 595.513 619.677 594.064 622.066 593.075C624.455 592.087 627.015 591.579 629.6 591.58V591.58Z" fill="#F7F3EF" stroke="#070707" stroke-width="4" stroke-linecap="round" stroke-linejoin="round"/>
<path d="M656.39 612.39H619.84V635.21H656.39V612.39Z" fill="#F7F3EF" stroke="#070707" stroke-width="4" stroke-linecap="round" stroke-linejoin="round"/>
<path d="M657.32 565.73H645.45C637.54 565.73 632.12 574.33 635.03 582.26L638.42 591.53H664.34L667.74 582.26C670.65 574.33 665.23 565.73 657.32 565.73Z" fill="#1C0E0C"/>
<path d="M644.65 565.73H635.96C628.05 565.73 622.63 574.33 625.54 582.26L628.93 591.53H651.65L655.04 582.26C657.93 574.33 652.51 565.73 644.65 565.73Z" fill="#F7F3EF" stroke="#070707" stroke-width="4" stroke-linecap="round" stroke-linejoin="round"/>
<path d="M851.34 492.75H847.52C847.842 493.396 848.009 494.108 848.01 494.83V498.32C848.01 499.161 847.676 499.967 847.082 500.561C846.487 501.156 845.681 501.49 844.84 501.49H825.54C825.123 501.491 824.71 501.41 824.324 501.251C823.938 501.093 823.588 500.859 823.292 500.565C822.997 500.27 822.762 499.921 822.602 499.535C822.442 499.15 822.36 498.737 822.36 498.32V494.83C822.361 494.108 822.529 493.396 822.85 492.75H818.85V486.08C818.85 485.464 818.971 484.855 819.207 484.287C819.443 483.718 819.789 483.202 820.224 482.767C820.66 482.332 821.177 481.988 821.746 481.753C822.315 481.519 822.925 481.399 823.54 481.4H846.65C847.265 481.399 847.874 481.519 848.443 481.753C849.011 481.988 849.527 482.333 849.962 482.768C850.397 483.203 850.742 483.719 850.977 484.287C851.211 484.856 851.331 485.465 851.33 486.08L851.34 492.75Z" fill="#F7F3EF" stroke="#070707" stroke-width="4" stroke-linecap="round" stroke-linejoin="round"/>
<path d="M866.57 582.6L862.57 641.35C862.436 643.817 861.37 646.141 859.588 647.853C857.806 649.564 855.441 650.536 852.97 650.57H817.23C814.759 650.538 812.392 649.568 810.609 647.856C808.827 646.144 807.762 643.818 807.63 641.35L803.63 582.6H866.57Z" fill="#F7F3EF" stroke="#070707" stroke-width="4" stroke-linecap="round" stroke-linejoin="round"/>
<path d="M873.84 565.74L868.16 646.86C867.958 649.777 866.658 652.51 864.523 654.508C862.387 656.506 859.574 657.622 856.65 657.63H813.65C810.718 657.632 807.896 656.521 805.752 654.522C803.608 652.523 802.303 649.784 802.1 646.86L796.42 565.74C796.181 562.513 796.774 559.28 798.143 556.348C799.513 553.417 801.612 550.887 804.24 549C807.112 547.005 809.461 544.345 811.085 541.248C812.709 538.151 813.562 534.707 813.57 531.21L813.32 500.72C813.274 499.687 813.437 498.656 813.801 497.689C814.164 496.721 814.719 495.837 815.433 495.089C816.146 494.342 817.004 493.747 817.954 493.339C818.904 492.932 819.926 492.721 820.96 492.72H849.24C850.274 492.72 851.298 492.93 852.249 493.337C853.2 493.743 854.059 494.338 854.774 495.086C855.488 495.833 856.044 496.718 856.408 497.686C856.772 498.655 856.936 499.686 856.89 500.72L856.65 531.23C856.658 534.722 857.508 538.161 859.129 541.255C860.75 544.348 863.093 547.005 865.96 549C868.599 550.88 870.71 553.407 872.09 556.339C873.47 559.271 874.072 562.508 873.84 565.74V565.74Z" fill="#F7F3EF" stroke="#070707" stroke-width="4" stroke-linecap="round" stroke-linejoin="round"/>
<path d="M854.97 615C854.36 618.38 845.67 622.63 835.04 622.63C824.41 622.63 815.72 618.38 815.11 615L815.19 572.29C816.28 569.06 824.75 564.98 835.04 564.98C845.33 564.98 853.8 569.06 854.89 572.29L854.97 615Z" fill="#F7F3EF" stroke="#070707" stroke-width="4" stroke-linecap="round" stroke-linejoin="round"/>
<path d="M959.26 503.08V505.17C959.26 506.321 958.803 507.425 957.989 508.239C957.175 509.053 956.071 509.51 954.92 509.51V516.11C954.921 516.703 954.806 517.291 954.58 517.839C954.354 518.387 954.022 518.886 953.603 519.306C953.184 519.725 952.686 520.058 952.138 520.286C951.59 520.513 951.003 520.63 950.41 520.63H941.72C941.127 520.63 940.54 520.513 939.992 520.286C939.444 520.058 938.947 519.725 938.528 519.306C938.109 518.886 937.777 518.387 937.551 517.839C937.324 517.291 937.209 516.703 937.21 516.11V509.51C936.059 509.51 934.955 509.053 934.141 508.239C933.327 507.425 932.87 506.321 932.87 505.17V503.08C932.869 502.509 932.98 501.944 933.198 501.416C933.415 500.888 933.735 500.409 934.138 500.005C934.541 499.601 935.02 499.28 935.547 499.061C936.074 498.843 936.639 498.73 937.21 498.73H954.92C955.491 498.73 956.056 498.843 956.583 499.061C957.11 499.28 957.589 499.601 957.993 500.005C958.396 500.409 958.715 500.888 958.933 501.416C959.15 501.944 959.261 502.509 959.26 503.08V503.08Z" fill="#F7F3EF" stroke="#070707" stroke-width="4" stroke-linecap="round" stroke-linejoin="round"/>
<path d="M982.59 615.42C982.59 624.78 976.92 639.05 971.73 647.42C971.144 648.371 970.325 649.156 969.35 649.7C968.375 650.244 967.277 650.53 966.16 650.53H929.35C928.217 650.529 927.104 650.235 926.119 649.676C925.134 649.117 924.311 648.312 923.73 647.34C918.55 638.7 912.88 623.43 912.88 614.06C912.823 608.399 913.712 602.768 915.51 597.4H979.65C981.66 603.193 982.654 609.289 982.59 615.42V615.42Z" fill="#F7F3EF" stroke="#070707" stroke-width="4" stroke-linecap="round" stroke-linejoin="round"/>
<path d="M989.15 615.08C989.15 626.21 982.4 643.17 976.25 653.14C975.554 654.27 974.58 655.203 973.421 655.851C972.263 656.499 970.957 656.839 969.63 656.84H925.89C924.545 656.841 923.222 656.493 922.051 655.831C920.881 655.168 919.902 654.214 919.21 653.06C913.06 642.79 906.33 624.63 906.33 613.51C906.33 591.18 916.47 574.59 933.82 567.87V523.93L924.4 509.51H961.65V567.87C979.01 574.59 989.15 592.76 989.15 615.08Z" fill="#1C0E0C"/>
<path d="M961.65 520.63H974.09C976.05 520.631 977.982 521.104 979.721 522.01C981.46 522.916 982.955 524.227 984.079 525.833C985.203 527.439 985.924 529.293 986.18 531.237C986.436 533.18 986.22 535.157 985.55 537L972.15 573.86" fill="#F7F3EF"/>
<path d="M961.65 520.63H974.09C976.05 520.631 977.982 521.104 979.721 522.01C981.46 522.916 982.955 524.227 984.079 525.833C985.203 527.439 985.924 529.293 986.18 531.237C986.436 533.18 986.22 535.157 985.55 537L972.15 573.86" stroke="#070707" stroke-width="4" stroke-linecap="round" stroke-linejoin="round"/>
<path d="M770.39 546.51V652.51C770.39 653.865 769.852 655.165 768.893 656.123C767.935 657.082 766.635 657.62 765.28 657.62H724.89C724.218 657.621 723.553 657.49 722.931 657.234C722.31 656.978 721.746 656.601 721.27 656.127C720.795 655.652 720.417 655.088 720.16 654.468C719.903 653.847 719.77 653.182 719.77 652.51V546.51C719.768 542.948 721.007 539.496 723.273 536.748C725.54 533.999 728.692 532.126 732.19 531.45V506.17H757.98V531.45C761.476 532.128 764.626 534.002 766.891 536.75C769.155 539.498 770.392 542.949 770.39 546.51V546.51Z" fill="#F7F3EF" stroke="#070707" stroke-width="4" stroke-linecap="round" stroke-linejoin="round"/>
<path d="M762.96 561.75V645.64C762.96 648.71 760.78 651.2 758.08 651.2H732.08C729.39 651.2 727.2 648.71 727.2 645.64V561.75H762.96Z" fill="#1C0E0C"/>
<path d="M761.4 502.21H728.76C727.462 502.21 726.41 503.262 726.41 504.56V508.07C726.41 509.368 727.462 510.42 728.76 510.42H761.4C762.698 510.42 763.75 509.368 763.75 508.07V504.56C763.75 503.262 762.698 502.21 761.4 502.21Z" fill="#F7F3EF" stroke="#070707" stroke-width="4" stroke-linecap="round" stroke-linejoin="round"/>
<path d="M97.3798 709.67H43.7998V736.39L97.3798 728.14V709.67Z" fill="#F7F3EF" stroke="#070707" stroke-width="4" stroke-linecap="round" stroke-linejoin="round"/>
<path d="M96.5801 792.77H984.42" stroke="#070707" stroke-width="4" stroke-linecap="round" stroke-linejoin="round"/>
<path d="M1080.59 660.76H2V709.67H1080.59V660.76Z" fill="#F7F3EF" stroke="#070707" stroke-width="4" stroke-linecap="round" stroke-linejoin="round"/>
<path d="M97.3798 709.67H43.7998V792.77H97.3798V709.67Z" fill="#F7F3EF" stroke="#070707" stroke-width="4" stroke-linecap="round" stroke-linejoin="round"/>
<path d="M1039.62 709.67H986.03V736.39L1039.62 728.14V709.67Z" fill="#F7F3EF" stroke="#070707" stroke-width="4" stroke-linecap="round" stroke-linejoin="round"/>
<path d="M1039.61 709.67H986.03V792.77H1039.61V709.67Z" fill="#F7F3EF" stroke="#070707" stroke-width="4" stroke-linecap="round" stroke-linejoin="round"/>
<path d="M193.73 861.8V957.38C193.73 992.3 202.83 1017.01 220.33 1048.38C220.33 1048.38 250.82 958.54 253.03 872.87L193.73 861.8Z" fill="#F7F3EF" stroke="#070707" stroke-width="4" stroke-linecap="round" stroke-linejoin="round"/>
<path d="M220.33 866.67L193.73 861.8V772.73C193.73 766.3 199.68 761.08 207.03 761.08C214.37 761.08 220.33 766.3 220.33 772.73V866.67Z" fill="#F7F3EF" stroke="#070707" stroke-width="4" stroke-linecap="round" stroke-linejoin="round"/>
<path d="M340.46 861.8H305.51V1048.38C305.51 1048.38 340.46 986.26 340.46 861.8Z" fill="#F7F3EF" stroke="#070707" stroke-width="4" stroke-linecap="round" stroke-linejoin="round"/>
<path d="M332.11 861.8H305.51V772.73C305.51 766.3 311.46 761.08 318.81 761.08C326.15 761.08 332.11 766.3 332.11 772.73V861.8Z" fill="#F7F3EF" stroke="#070707" stroke-width="4" stroke-linecap="round" stroke-linejoin="round"/>
<path d="M436.01 872.49C435.545 872.907 435.174 873.417 434.92 873.988C434.665 874.558 434.534 875.175 434.534 875.8C434.534 876.424 434.665 877.042 434.92 877.612C435.174 878.182 435.545 878.692 436.01 879.11C436.202 879.276 436.357 879.482 436.463 879.713C436.569 879.944 436.623 880.195 436.623 880.45C436.623 880.704 436.569 880.955 436.463 881.187C436.357 881.418 436.202 881.624 436.01 881.79V881.79C435.545 882.208 435.174 882.719 434.919 883.29C434.665 883.861 434.533 884.48 434.533 885.105C434.533 885.73 434.665 886.348 434.919 886.919C435.174 887.49 435.545 888.002 436.01 888.42C436.204 888.584 436.359 888.789 436.466 889.019C436.573 889.25 436.628 889.501 436.628 889.755C436.628 890.009 436.573 890.26 436.466 890.49C436.359 890.721 436.204 890.925 436.01 891.09V891.09C435.545 891.507 435.174 892.018 434.92 892.588C434.665 893.158 434.534 893.775 434.534 894.4C434.534 895.024 434.665 895.642 434.92 896.212C435.174 896.782 435.545 897.292 436.01 897.71C436.202 897.876 436.357 898.082 436.463 898.313C436.569 898.544 436.623 898.795 436.623 899.05C436.623 899.304 436.569 899.555 436.463 899.787C436.357 900.018 436.202 900.224 436.01 900.39V900.39C435.545 900.807 435.174 901.317 434.92 901.888C434.665 902.458 434.534 903.075 434.534 903.7C434.534 904.324 434.665 904.942 434.92 905.512C435.174 906.082 435.545 906.592 436.01 907.01C436.204 907.175 436.36 907.38 436.466 907.612C436.573 907.843 436.629 908.095 436.629 908.35C436.629 908.605 436.573 908.856 436.466 909.088C436.36 909.319 436.204 909.524 436.01 909.69V909.69C435.545 910.107 435.174 910.617 434.92 911.188C434.665 911.758 434.534 912.375 434.534 913C434.534 913.624 434.665 914.242 434.92 914.812C435.174 915.382 435.545 915.892 436.01 916.31C436.202 916.476 436.357 916.682 436.463 916.913C436.569 917.144 436.623 917.395 436.623 917.65C436.623 917.904 436.569 918.155 436.463 918.387C436.357 918.618 436.202 918.824 436.01 918.99V918.99C435.545 919.407 435.174 919.917 434.92 920.488C434.665 921.058 434.534 921.675 434.534 922.3C434.534 922.924 434.665 923.542 434.92 924.112C435.174 924.682 435.545 925.192 436.01 925.61C436.204 925.775 436.36 925.98 436.466 926.212C436.573 926.443 436.629 926.695 436.629 926.95C436.629 927.205 436.573 927.456 436.466 927.688C436.36 927.919 436.204 928.125 436.01 928.29V928.29C435.545 928.707 435.174 929.217 434.92 929.788C434.665 930.358 434.534 930.975 434.534 931.6C434.534 932.224 434.665 932.841 434.92 933.412C435.174 933.982 435.545 934.492 436.01 934.91C436.202 935.076 436.357 935.282 436.463 935.513C436.569 935.744 436.623 935.995 436.623 936.25C436.623 936.504 436.569 936.755 436.463 936.987C436.357 937.218 436.202 937.424 436.01 937.59V937.59C435.545 938.008 435.174 938.519 434.919 939.09C434.665 939.661 434.533 940.28 434.533 940.905C434.533 941.53 434.665 942.148 434.919 942.719C435.174 943.29 435.545 943.801 436.01 944.22C436.204 944.385 436.36 944.59 436.466 944.822C436.573 945.053 436.629 945.305 436.629 945.56C436.629 945.815 436.573 946.066 436.466 946.298C436.36 946.529 436.204 946.735 436.01 946.9V946.9C435.545 947.317 435.174 947.827 434.92 948.398C434.665 948.968 434.534 949.585 434.534 950.21C434.534 950.834 434.665 951.451 434.92 952.022C435.174 952.592 435.545 953.102 436.01 953.52C436.202 953.686 436.357 953.892 436.463 954.123C436.569 954.354 436.623 954.605 436.623 954.86C436.623 955.114 436.569 955.365 436.463 955.597C436.357 955.828 436.202 956.034 436.01 956.2V956.2C435.545 956.618 435.174 957.129 434.919 957.7C434.665 958.271 434.533 958.89 434.533 959.515C434.533 960.14 434.665 960.758 434.919 961.329C435.174 961.9 435.545 962.411 436.01 962.83C436.204 962.995 436.36 963.2 436.466 963.432C436.573 963.663 436.629 963.915 436.629 964.17C436.629 964.425 436.573 964.676 436.466 964.908C436.36 965.139 436.204 965.345 436.01 965.51V965.51C435.545 965.927 435.174 966.437 434.92 967.008C434.665 967.578 434.534 968.195 434.534 968.82C434.534 969.444 434.665 970.062 434.92 970.632C435.174 971.202 435.545 971.712 436.01 972.13C436.202 972.296 436.357 972.502 436.463 972.733C436.569 972.964 436.623 973.215 436.623 973.47C436.623 973.724 436.569 973.975 436.463 974.207C436.357 974.438 436.202 974.644 436.01 974.81V974.81C435.545 975.228 435.174 975.739 434.919 976.31C434.665 976.881 434.533 977.5 434.533 978.125C434.533 978.75 434.665 979.368 434.919 979.939C435.174 980.51 435.545 981.021 436.01 981.44C436.204 981.605 436.36 981.81 436.466 982.042C436.573 982.273 436.629 982.525 436.629 982.78C436.629 983.035 436.573 983.286 436.466 983.518C436.36 983.749 436.204 983.955 436.01 984.12V984.12C435.545 984.538 435.174 985.049 434.919 985.62C434.665 986.191 434.533 986.81 434.533 987.435C434.533 988.06 434.665 988.678 434.919 989.249C435.174 989.82 435.545 990.332 436.01 990.75C436.202 990.916 436.357 991.122 436.463 991.353C436.569 991.584 436.623 991.835 436.623 992.09C436.623 992.344 436.569 992.595 436.463 992.827C436.357 993.058 436.202 993.264 436.01 993.43V993.43C435.545 993.848 435.174 994.359 434.919 994.93C434.665 995.501 434.533 996.12 434.533 996.745C434.533 997.37 434.665 997.988 434.919 998.559C435.174 999.13 435.545 999.642 436.01 1000.06C436.204 1000.23 436.36 1000.43 436.466 1000.66C436.573 1000.89 436.629 1001.14 436.629 1001.4C436.629 1001.65 436.573 1001.91 436.466 1002.14C436.36 1002.37 436.204 1002.57 436.01 1002.74V1002.74C435.545 1003.16 435.174 1003.67 434.92 1004.24C434.665 1004.81 434.534 1005.43 434.534 1006.05C434.534 1006.67 434.665 1007.29 434.92 1007.86C435.174 1008.43 435.545 1008.94 436.01 1009.36C436.202 1009.53 436.357 1009.73 436.463 1009.96C436.569 1010.19 436.623 1010.45 436.623 1010.7C436.623 1010.95 436.569 1011.21 436.463 1011.44C436.357 1011.67 436.202 1011.87 436.01 1012.04V1012.04C435.545 1012.46 435.174 1012.97 434.919 1013.54C434.665 1014.11 434.533 1014.73 434.533 1015.35C434.533 1015.98 434.665 1016.6 434.919 1017.17C435.174 1017.74 435.545 1018.25 436.01 1018.67C436.204 1018.83 436.359 1019.04 436.466 1019.27C436.573 1019.5 436.628 1019.75 436.628 1020C436.628 1020.26 436.573 1020.51 436.466 1020.74C436.359 1020.97 436.204 1021.18 436.01 1021.34V1021.34C435.545 1021.76 435.174 1022.27 434.92 1022.84C434.665 1023.41 434.534 1024.03 434.534 1024.65C434.534 1025.27 434.665 1025.89 434.92 1026.46C435.174 1027.03 435.545 1027.54 436.01 1027.96C436.202 1028.13 436.357 1028.33 436.463 1028.56C436.569 1028.79 436.623 1029.05 436.623 1029.3C436.623 1029.55 436.569 1029.81 436.463 1030.04C436.357 1030.27 436.202 1030.47 436.01 1030.64V1030.64C435.545 1031.06 435.174 1031.57 434.92 1032.14C434.665 1032.71 434.534 1033.33 434.534 1033.95C434.534 1034.57 434.665 1035.19 434.92 1035.76C435.174 1036.33 435.545 1036.84 436.01 1037.26C436.204 1037.42 436.36 1037.63 436.466 1037.86C436.573 1038.09 436.629 1038.34 436.629 1038.6C436.629 1038.85 436.573 1039.11 436.466 1039.34C436.36 1039.57 436.204 1039.77 436.01 1039.94V1039.94C435.179 1040.85 434.666 1042.01 434.55 1043.24C434.55 1044.24 434.55 1047.9 437.3 1047.9H436.03C413.38 1047.9 395.03 1031.82 395.03 1011.99V861.8H437.31C435.94 861.8 436.92 862.32 436.02 863.16C435.555 863.578 435.184 864.089 434.929 864.66C434.675 865.231 434.543 865.85 434.543 866.475C434.543 867.1 434.675 867.718 434.929 868.289C435.184 868.86 435.555 869.372 436.02 869.79C436.214 869.955 436.37 870.16 436.477 870.392C436.583 870.623 436.639 870.875 436.639 871.13C436.639 871.385 436.583 871.636 436.477 871.868C436.37 872.099 436.214 872.305 436.02 872.47L436.01 872.49Z" fill="#F7F3EF" stroke="#070707" stroke-width="4" stroke-linecap="round" stroke-linejoin="round"/>
<path d="M421.65 861.8H395.05V772.73C395.05 766.3 401.05 761.08 408.35 761.08C415.7 761.08 421.65 766.3 421.65 772.73V861.8Z" fill="#F7F3EF" stroke="#070707" stroke-width="4" stroke-linecap="round" stroke-linejoin="round"/>
<path d="M562.46 919.14C562.46 940.62 558.37 960.39 554.14 976.07H491.21C486.98 976.07 483.78 972.7 484.59 969.07C488.031 952.652 489.708 935.914 489.59 919.14C489.59 897.46 487.03 877.54 482.74 861.8H554C558.32 877.54 562.46 897.46 562.46 919.14Z" fill="#F7F3EF" stroke="#070707" stroke-width="4" stroke-linecap="round" stroke-linejoin="round"/>
<path d="M509.23 861.8H482.65V772.73C482.65 766.3 488.6 761.08 495.95 761.08C503.29 761.08 509.25 766.3 509.25 772.73L509.23 861.8Z" fill="#F7F3EF" stroke="#070707" stroke-width="4" stroke-linecap="round" stroke-linejoin="round"/>
<path d="M647.19 861C646.19 926 615.64 973.62 615.64 973.62V861H647.19Z" fill="#F7F3EF" stroke="#070707" stroke-width="4" stroke-linecap="round" stroke-linejoin="round"/>
<path d="M636.11 861H615.65V771.93C615.65 765.93 620.23 761.09 625.88 761.09C631.54 761.09 636.12 765.94 636.12 771.93L636.11 861Z" fill="#F7F3EF" stroke="#070707" stroke-width="4" stroke-linecap="round" stroke-linejoin="round"/>
<path d="M769.14 895.58V895.64C769.127 897.122 768.527 898.538 767.472 899.578C766.416 900.618 764.992 901.198 763.51 901.19H762.73C762.972 899.273 763.092 897.342 763.09 895.41C763.09 872.93 746.98 854.7 727.09 854.7C707.2 854.7 691.09 872.93 691.09 895.41C691.088 897.342 691.208 899.273 691.45 901.19H690.65C689.168 901.198 687.744 900.618 686.688 899.578C685.633 898.538 685.033 897.122 685.02 895.64V895.58C685.02 877.66 693.78 862.06 706.72 853.95C710.036 851.909 712.778 849.057 714.687 845.662C716.595 842.268 717.608 838.444 717.63 834.55V771.23C717.63 765.62 721.85 761.08 727.06 761.08C728.318 761.087 729.561 761.357 730.708 761.874C731.855 762.391 732.881 763.142 733.72 764.08C735.518 766.033 736.508 768.595 736.49 771.25V834.57C736.512 838.463 737.523 842.286 739.43 845.68C741.337 849.074 744.076 851.927 747.39 853.97C760.38 862.06 769.14 877.66 769.14 895.58Z" fill="#F7F3EF" stroke="#070707" stroke-width="4" stroke-linecap="round" stroke-linejoin="round"/>
<path d="M755.77 891.78H698.42C697.45 891.781 696.489 891.973 695.593 892.346C694.697 892.719 693.883 893.264 693.197 893.951C692.512 894.638 691.969 895.454 691.599 896.351C691.229 897.248 691.039 898.209 691.04 899.18V905.79C691.039 906.76 691.229 907.721 691.599 908.617C691.969 909.514 692.513 910.328 693.198 911.015C693.883 911.701 694.697 912.246 695.594 912.617C696.49 912.989 697.45 913.18 698.42 913.18H755.77C757.731 913.18 759.612 912.401 760.999 911.016C762.387 909.63 763.167 907.751 763.17 905.79V899.18C763.17 897.217 762.39 895.335 761.003 893.947C759.615 892.559 757.733 891.78 755.77 891.78V891.78ZM756.7 906.48H697.49V898.78H756.7V906.48Z" fill="#070707"/>
<path d="M867.23 855.48H846.76V771.32C846.758 769.975 847.022 768.643 847.537 767.4C848.051 766.157 848.805 765.027 849.756 764.076C850.707 763.125 851.837 762.371 853.08 761.857C854.323 761.343 855.655 761.079 857 761.08V761.08C858.344 761.08 859.675 761.345 860.917 761.86C862.159 762.374 863.287 763.129 864.237 764.08C865.187 765.031 865.94 766.16 866.454 767.402C866.967 768.644 867.231 769.976 867.23 771.32V855.48Z" fill="#F7F3EF" stroke="#070707" stroke-width="4" stroke-linecap="round" stroke-linejoin="round"/>
<path d="M884.55 931.299C899.769 916.08 899.769 891.405 884.55 876.187C869.331 860.968 844.657 860.968 829.438 876.187C814.22 891.405 814.22 916.08 829.438 931.299C844.657 946.517 869.331 946.517 884.55 931.299Z" fill="#F7F3EF" stroke="#070707" stroke-width="4" stroke-linecap="round" stroke-linejoin="round"/>
<path d="M864.326 905.612C865.292 901.578 862.804 897.526 858.771 896.56C854.737 895.595 850.684 898.082 849.719 902.116C848.753 906.15 851.241 910.202 855.274 911.168C859.308 912.133 863.361 909.646 864.326 905.612Z" fill="#F7F3EF" stroke="#070707" stroke-width="4" stroke-linecap="round" stroke-linejoin="round"/>
<path d="M813.74 881.33C817.851 873.407 824.059 866.765 831.687 862.129C839.315 857.493 848.069 855.041 856.995 855.041C865.921 855.041 874.676 857.493 882.304 862.129C889.932 866.765 896.139 873.407 900.25 881.33" stroke="#070707" stroke-width="4" stroke-linecap="round" stroke-linejoin="round"/>
<path d="M857 855.04V903.79" stroke="#070707" stroke-width="4" stroke-linecap="round" stroke-linejoin="round"/>
<path d="M92.7298 392.79H41.3198V419.51L92.7298 411.25V392.79Z" fill="#F7F3EF" stroke="#070707" stroke-width="4" stroke-linecap="round" stroke-linejoin="round"/>
<path d="M1.99988 392.78L1080.59 392.78V343.87L1.99988 343.87V392.78Z" fill="#F7F3EF" stroke="#070707" stroke-width="4" stroke-linecap="round" stroke-linejoin="round"/>
<path d="M989.07 475.88H1040.48V392.78H989.07V475.88Z" fill="#F7F3EF" stroke="#070707" stroke-width="4" stroke-linecap="round" stroke-linejoin="round"/>
<path d="M1040.49 392.79H989.08V419.51L1040.49 411.25V392.79Z" fill="#F7F3EF" stroke="#070707" stroke-width="4" stroke-linecap="round" stroke-linejoin="round"/>
<path d="M41.32 475.88H92.73L92.73 392.78H41.32L41.32 475.88Z" fill="#F7F3EF" stroke="#070707" stroke-width="4" stroke-linecap="round" stroke-linejoin="round"/>
<path d="M1040.15 188C1040.15 188.427 1040.07 188.85 1039.91 189.245C1039.74 189.64 1039.5 189.999 1039.2 190.301C1038.9 190.603 1038.54 190.842 1038.15 191.005C1037.75 191.168 1037.33 191.251 1036.9 191.25H947.9V212.2C947.9 217.255 945.892 222.103 942.317 225.677C938.743 229.252 933.895 231.26 928.84 231.26H920.08C917.576 231.261 915.096 230.769 912.783 229.812C910.469 228.854 908.367 227.451 906.596 225.681C904.825 223.911 903.42 221.809 902.462 219.496C901.503 217.183 901.01 214.704 901.01 212.2V184.72H1036.88C1037.31 184.718 1037.74 184.802 1038.14 184.967C1038.53 185.131 1038.89 185.373 1039.2 185.678C1039.5 185.983 1039.74 186.345 1039.91 186.744C1040.07 187.142 1040.15 187.569 1040.15 188V188Z" fill="#F7F3EF" stroke="#070707" stroke-width="4" stroke-linecap="round" stroke-linejoin="round"/>
<path d="M837.2 343.63H812.86L789.31 175.72H813.65L837.2 343.63Z" fill="#F7F3EF" stroke="#070707" stroke-width="4" stroke-linecap="round" stroke-linejoin="round"/>
<path d="M812.86 343.63H698.54L722.09 175.72H789.31L812.86 343.63Z" fill="#F7F3EF" stroke="#070707" stroke-width="4" stroke-linecap="round" stroke-linejoin="round"/>
<path d="M738.39 195.93H738.2C736.267 195.93 734.7 197.497 734.7 199.43V206.89C734.7 208.823 736.267 210.39 738.2 210.39H738.39C740.323 210.39 741.89 208.823 741.89 206.89V199.43C741.89 197.497 740.323 195.93 738.39 195.93Z" fill="#F7F3EF" stroke="#070707" stroke-width="4" stroke-linecap="round" stroke-linejoin="round"/>
<path d="M754.88 195.93H754.69C752.757 195.93 751.19 197.497 751.19 199.43V206.89C751.19 208.823 752.757 210.39 754.69 210.39H754.88C756.813 210.39 758.38 208.823 758.38 206.89V199.43C758.38 197.497 756.813 195.93 754.88 195.93Z" fill="#F7F3EF" stroke="#070707" stroke-width="4" stroke-linecap="round" stroke-linejoin="round"/>
<path d="M771.37 195.93H771.18C769.247 195.93 767.68 197.497 767.68 199.43V206.89C767.68 208.823 769.247 210.39 771.18 210.39H771.37C773.303 210.39 774.87 208.823 774.87 206.89V199.43C774.87 197.497 773.303 195.93 771.37 195.93Z" fill="#F7F3EF" stroke="#070707" stroke-width="4" stroke-linecap="round" stroke-linejoin="round"/>
<path d="M730.54 222.6H730.35C728.417 222.6 726.85 224.167 726.85 226.1V233.56C726.85 235.493 728.417 237.06 730.35 237.06H730.54C732.473 237.06 734.04 235.493 734.04 233.56V226.1C734.04 224.167 732.473 222.6 730.54 222.6Z" fill="#F7F3EF" stroke="#070707" stroke-width="4" stroke-linecap="round" stroke-linejoin="round"/>
<path d="M747.03 222.6H746.84C744.907 222.6 743.34 224.167 743.34 226.1V233.56C743.34 235.493 744.907 237.06 746.84 237.06H747.03C748.963 237.06 750.53 235.493 750.53 233.56V226.1C750.53 224.167 748.963 222.6 747.03 222.6Z" fill="#F7F3EF" stroke="#070707" stroke-width="4" stroke-linecap="round" stroke-linejoin="round"/>
<path d="M763.52 222.6H763.33C761.397 222.6 759.83 224.167 759.83 226.1V233.56C759.83 235.493 761.397 237.06 763.33 237.06H763.52C765.453 237.06 767.02 235.493 767.02 233.56V226.1C767.02 224.167 765.453 222.6 763.52 222.6Z" fill="#F7F3EF" stroke="#070707" stroke-width="4" stroke-linecap="round" stroke-linejoin="round"/>
<path d="M780.01 222.6H779.82C777.887 222.6 776.32 224.167 776.32 226.1V233.56C776.32 235.493 777.887 237.06 779.82 237.06H780.01C781.943 237.06 783.51 235.493 783.51 233.56V226.1C783.51 224.167 781.943 222.6 780.01 222.6Z" fill="#F7F3EF" stroke="#070707" stroke-width="4" stroke-linecap="round" stroke-linejoin="round"/>
<path d="M730.54 249.27H730.35C728.417 249.27 726.85 250.837 726.85 252.77V260.23C726.85 262.163 728.417 263.73 730.35 263.73H730.54C732.473 263.73 734.04 262.163 734.04 260.23V252.77C734.04 250.837 732.473 249.27 730.54 249.27Z" fill="#F7F3EF" stroke="#070707" stroke-width="4" stroke-linecap="round" stroke-linejoin="round"/>
<path d="M747.03 249.27H746.84C744.907 249.27 743.34 250.837 743.34 252.77V260.23C743.34 262.163 744.907 263.73 746.84 263.73H747.03C748.963 263.73 750.53 262.163 750.53 260.23V252.77C750.53 250.837 748.963 249.27 747.03 249.27Z" fill="#F7F3EF" stroke="#070707" stroke-width="4" stroke-linecap="round" stroke-linejoin="round"/>
<path d="M763.52 249.27H763.33C761.397 249.27 759.83 250.837 759.83 252.77V260.23C759.83 262.163 761.397 263.73 763.33 263.73H763.52C765.453 263.73 767.02 262.163 767.02 260.23V252.77C767.02 250.837 765.453 249.27 763.52 249.27Z" fill="#F7F3EF" stroke="#070707" stroke-width="4" stroke-linecap="round" stroke-linejoin="round"/>
<path d="M780.01 249.27H779.82C777.887 249.27 776.32 250.837 776.32 252.77V260.23C776.32 262.163 777.887 263.73 779.82 263.73H780.01C781.943 263.73 783.51 262.163 783.51 260.23V252.77C783.51 250.837 781.943 249.27 780.01 249.27Z" fill="#F7F3EF" stroke="#070707" stroke-width="4" stroke-linecap="round" stroke-linejoin="round"/>
<path d="M722.69 275.94H722.5C720.567 275.94 719 277.507 719 279.44V286.9C719 288.833 720.567 290.4 722.5 290.4H722.69C724.623 290.4 726.19 288.833 726.19 286.9V279.44C726.19 277.507 724.623 275.94 722.69 275.94Z" fill="#F7F3EF" stroke="#070707" stroke-width="4" stroke-linecap="round" stroke-linejoin="round"/>
<path d="M739.18 275.94H738.99C737.057 275.94 735.49 277.507 735.49 279.44V286.9C735.49 288.833 737.057 290.4 738.99 290.4H739.18C741.113 290.4 742.68 288.833 742.68 286.9V279.44C742.68 277.507 741.113 275.94 739.18 275.94Z" fill="#F7F3EF" stroke="#070707" stroke-width="4" stroke-linecap="round" stroke-linejoin="round"/>
<path d="M755.66 275.94H755.47C753.537 275.94 751.97 277.507 751.97 279.44V286.9C751.97 288.833 753.537 290.4 755.47 290.4H755.66C757.593 290.4 759.16 288.833 759.16 286.9V279.44C759.16 277.507 757.593 275.94 755.66 275.94Z" fill="#F7F3EF" stroke="#070707" stroke-width="4" stroke-linecap="round" stroke-linejoin="round"/>
<path d="M772.15 275.94H771.96C770.027 275.94 768.46 277.507 768.46 279.44V286.9C768.46 288.833 770.027 290.4 771.96 290.4H772.15C774.083 290.4 775.65 288.833 775.65 286.9V279.44C775.65 277.507 774.083 275.94 772.15 275.94Z" fill="#F7F3EF" stroke="#070707" stroke-width="4" stroke-linecap="round" stroke-linejoin="round"/>
<path d="M788.64 275.94H788.45C786.517 275.94 784.95 277.507 784.95 279.44V286.9C784.95 288.833 786.517 290.4 788.45 290.4H788.64C790.573 290.4 792.14 288.833 792.14 286.9V279.44C792.14 277.507 790.573 275.94 788.64 275.94Z" fill="#F7F3EF" stroke="#070707" stroke-width="4" stroke-linecap="round" stroke-linejoin="round"/>
<path d="M722.69 302.6H722.5C720.567 302.6 719 304.167 719 306.1V313.56C719 315.493 720.567 317.06 722.5 317.06H722.69C724.623 317.06 726.19 315.493 726.19 313.56V306.1C726.19 304.167 724.623 302.6 722.69 302.6Z" fill="#F7F3EF" stroke="#070707" stroke-width="4" stroke-linecap="round" stroke-linejoin="round"/>
<path d="M739.18 302.6H738.99C737.057 302.6 735.49 304.167 735.49 306.1V313.56C735.49 315.493 737.057 317.06 738.99 317.06H739.18C741.113 317.06 742.68 315.493 742.68 313.56V306.1C742.68 304.167 741.113 302.6 739.18 302.6Z" fill="#F7F3EF" stroke="#070707" stroke-width="4" stroke-linecap="round" stroke-linejoin="round"/>
<path d="M755.66 302.6H755.47C753.537 302.6 751.97 304.167 751.97 306.1V313.56C751.97 315.493 753.537 317.06 755.47 317.06H755.66C757.593 317.06 759.16 315.493 759.16 313.56V306.1C759.16 304.167 757.593 302.6 755.66 302.6Z" fill="#F7F3EF" stroke="#070707" stroke-width="4" stroke-linecap="round" stroke-linejoin="round"/>
<path d="M772.15 302.6H771.96C770.027 302.6 768.46 304.167 768.46 306.1V313.56C768.46 315.493 770.027 317.06 771.96 317.06H772.15C774.083 317.06 775.65 315.493 775.65 313.56V306.1C775.65 304.167 774.083 302.6 772.15 302.6Z" fill="#F7F3EF" stroke="#070707" stroke-width="4" stroke-linecap="round" stroke-linejoin="round"/>
<path d="M788.64 302.6H788.45C786.517 302.6 784.95 304.167 784.95 306.1V313.56C784.95 315.493 786.517 317.06 788.45 317.06H788.64C790.573 317.06 792.14 315.493 792.14 313.56V306.1C792.14 304.167 790.573 302.6 788.64 302.6Z" fill="#F7F3EF" stroke="#070707" stroke-width="4" stroke-linecap="round" stroke-linejoin="round"/>
<path d="M783.3 145.37H752.44C744.39 145.37 736.671 148.568 730.979 154.259C725.287 159.951 722.09 167.671 722.09 175.72H813.65C813.65 167.671 810.452 159.951 804.761 154.259C799.069 148.568 791.349 145.37 783.3 145.37V145.37Z" fill="#F7F3EF" stroke="#070707" stroke-width="4" stroke-linecap="round" stroke-linejoin="round"/>
<path d="M751.65 145.37H759.77C767.607 145.37 775.123 148.483 780.665 154.025C786.207 159.567 789.32 167.083 789.32 174.92V175.72H722.09V174.92C722.09 171.039 722.854 167.195 724.34 163.61C725.826 160.024 728.003 156.766 730.748 154.022C733.493 151.277 736.752 149.101 740.339 147.617C743.925 146.132 747.768 145.369 751.65 145.37V145.37Z" fill="#F7F3EF" stroke="#070707" stroke-width="4" stroke-linecap="round" stroke-linejoin="round"/>
<path d="M987.22 200.51V332C987.223 335.075 986.006 338.025 983.838 340.205C981.669 342.385 978.725 343.617 975.65 343.63H903.39C901.859 343.636 900.342 343.34 898.926 342.759C897.509 342.177 896.222 341.321 895.138 340.241C894.053 339.16 893.193 337.875 892.606 336.461C892.02 335.047 891.719 333.531 891.72 332V263.47C891.728 241.402 886.048 219.704 875.23 200.47L987.22 200.51Z" fill="#F7F3EF" stroke="#070707" stroke-width="4" stroke-linecap="round" stroke-linejoin="round"/>
<path d="M987.22 225.6H973.61" stroke="#070707" stroke-width="4" stroke-linecap="round" stroke-linejoin="round"/>
<path d="M987.22 257.27H973.61" stroke="#070707" stroke-width="4" stroke-linecap="round" stroke-linejoin="round"/>
<path d="M987.22 241.44H959.99" stroke="#070707" stroke-width="4" stroke-linecap="round" stroke-linejoin="round"/>
<path d="M987.22 273.11H959.99" stroke="#070707" stroke-width="4" stroke-linecap="round" stroke-linejoin="round"/>
<path d="M987.22 288.94H973.61" stroke="#070707" stroke-width="4" stroke-linecap="round" stroke-linejoin="round"/>
<path d="M987.22 320.61H973.61" stroke="#070707" stroke-width="4" stroke-linecap="round" stroke-linejoin="round"/>
<path d="M987.22 304.78H959.99" stroke="#070707" stroke-width="4" stroke-linecap="round" stroke-linejoin="round"/>
<path d="M185.46 49.5298H355.1V134.53C355.1 143.489 351.541 152.081 345.206 158.416C338.871 164.751 330.279 168.31 321.32 168.31H219.25C210.291 168.31 201.699 164.751 195.364 158.416C189.029 152.081 185.47 143.489 185.47 134.53V49.5298H185.46Z" fill="#F7F3EF" stroke="#070707" stroke-width="4" stroke-linecap="round" stroke-linejoin="round"/>
<path d="M355.1 49.5298H382.65C385.103 49.5298 387.456 50.5043 389.191 52.239C390.925 53.9738 391.9 56.3265 391.9 58.7798V60.0598C391.9 62.513 390.925 64.8658 389.191 66.6005C387.456 68.3352 385.103 69.3098 382.65 69.3098H355.05V49.5298H355.1Z" fill="#F7F3EF" stroke="#070707" stroke-width="4" stroke-linecap="round" stroke-linejoin="round"/>
<path d="M185.43 69.2998H157.83C155.376 69.2998 153.024 68.3253 151.289 66.5905C149.554 64.8558 148.58 62.5031 148.58 60.0498V58.7698C148.58 56.3166 149.554 53.9638 151.289 52.2291C153.024 50.4944 155.376 49.5198 157.83 49.5198H185.43V69.2998Z" fill="#F7F3EF" stroke="#070707" stroke-width="4" stroke-linecap="round" stroke-linejoin="round"/>
<path d="M155.65 91.2002H384.87V217.94C384.87 226.899 381.311 235.491 374.976 241.826C368.641 248.161 360.049 251.72 351.09 251.72H189.47C185.03 251.725 180.634 250.856 176.531 249.16C172.428 247.465 168.699 244.978 165.558 241.84C162.417 238.703 159.925 234.977 158.225 230.876C156.525 226.775 155.65 222.38 155.65 217.94V91.2002Z" fill="#F7F3EF" stroke="#070707" stroke-width="4" stroke-linecap="round" stroke-linejoin="round"/>
<path d="M384.87 91.2002H422.16C425.473 91.2028 428.65 92.521 430.992 94.8649C433.334 97.2088 434.65 100.387 434.65 103.7V105.42C434.65 108.735 433.333 111.915 430.988 114.259C428.644 116.603 425.465 117.92 422.15 117.92H384.87V91.2002Z" fill="#F7F3EF" stroke="#070707" stroke-width="4" stroke-linecap="round" stroke-linejoin="round"/>
<path d="M155.69 117.93H118.4C115.092 117.92 111.923 116.598 109.587 114.255C107.251 111.912 105.94 108.738 105.94 105.43V103.71C105.94 100.395 107.257 97.2156 109.601 94.8714C111.945 92.5272 115.125 91.2102 118.44 91.2102H155.69V117.93Z" fill="#F7F3EF" stroke="#070707" stroke-width="4" stroke-linecap="round" stroke-linejoin="round"/>
<path d="M381.29 343.1H159.29C150.332 343.097 141.741 339.537 135.407 333.203C129.072 326.869 125.512 318.278 125.51 309.32V140.32H415.07V309.32C415.07 318.279 411.511 326.871 405.176 333.206C398.841 339.541 390.249 343.1 381.29 343.1V343.1Z" fill="#F7F3EF" stroke="#070707" stroke-width="4" stroke-linecap="round" stroke-linejoin="round"/>
<path d="M465.65 174H415.07V149.4H465.65C468.912 149.4 472.041 150.696 474.347 153.003C476.654 155.309 477.95 158.438 477.95 161.7V161.7C477.95 164.962 476.654 168.091 474.347 170.397C472.041 172.704 468.912 174 465.65 174Z" fill="#F7F3EF" stroke="#070707" stroke-width="4" stroke-linecap="round" stroke-linejoin="round"/>
<path d="M74.8899 174H125.49V149.4H74.8899C71.6277 149.4 68.4991 150.696 66.1924 153.003C63.8857 155.309 62.5898 158.438 62.5898 161.7C62.5885 163.316 62.9058 164.916 63.5234 166.408C64.1411 167.901 65.0471 169.258 66.1895 170.4C67.3319 171.543 68.6884 172.449 70.1813 173.066C71.6742 173.684 73.2742 174.001 74.8899 174V174Z" fill="#F7F3EF" stroke="#070707" stroke-width="4" stroke-linecap="round" stroke-linejoin="round"/>
<path d="M415.48 135.74H124.93C121.147 135.74 118.08 138.807 118.08 142.59V142.6C118.08 146.383 121.147 149.45 124.93 149.45H415.48C419.263 149.45 422.33 146.383 422.33 142.6V142.59C422.33 138.807 419.263 135.74 415.48 135.74Z" fill="#F7F3EF" stroke="#070707" stroke-width="4" stroke-linecap="round" stroke-linejoin="round"/>
<path d="M355.1 49.5301H185.46C193.69 33.7301 228.54 21.8701 270.29 21.8701C312.04 21.8701 346.88 33.7301 355.1 49.5301Z" fill="#F7F3EF" stroke="#070707" stroke-width="4" stroke-linecap="round" stroke-linejoin="round"/>
<path d="M286.53 2H254.03C253.302 2.00135 252.586 2.18048 251.943 2.52179C251.3 2.8631 250.75 3.35628 250.341 3.95847C249.932 4.56065 249.676 5.2536 249.596 5.97711C249.515 6.70063 249.613 7.4328 249.88 8.10999L255.65 22.68H284.93L290.65 8.10999C290.916 7.43515 291.014 6.70568 290.935 5.98453C290.857 5.26338 290.604 4.57224 290.198 3.97076C289.792 3.36929 289.247 2.87558 288.608 2.53223C287.969 2.18887 287.256 2.0062 286.53 2V2Z" fill="#F7F3EF" stroke="#070707" stroke-width="4" stroke-linecap="round" stroke-linejoin="round"/>
<path d="M621.09 214.71V333.16C621.09 338.95 615.04 343.63 607.57 343.63H523.5C516.03 343.63 509.98 338.95 509.98 333.16V271.42C509.98 251.55 503.37 232.02 490.79 214.71H621.09Z" fill="#F7F3EF" stroke="#070707" stroke-width="4" stroke-linecap="round" stroke-linejoin="round"/>
<path d="M667.65 221.54V279.17C664.947 279.175 662.352 278.107 660.435 276.2C658.519 274.293 657.438 271.703 657.43 269V232.1C657.43 230.286 656.709 228.546 655.427 227.263C654.144 225.981 652.404 225.26 650.59 225.26H621.1V214.71H660.79C661.69 214.706 662.581 214.88 663.413 215.221C664.245 215.563 665.002 216.065 665.639 216.7C666.276 217.334 666.782 218.089 667.127 218.919C667.472 219.75 667.65 220.641 667.65 221.54Z" fill="#F7F3EF" stroke="#070707" stroke-width="4" stroke-linecap="round" stroke-linejoin="round"/>
<defs>
<filter id="filter0_f" x="295" y="291" width="492" height="492" filterUnits="userSpaceOnUse" color-interpolation-filters="sRGB">
<feFlood flood-opacity="0" result="BackgroundImageFix"/>
<feBlend mode="normal" in="SourceGraphic" in2="BackgroundImageFix" result="shape"/>
<feGaussianBlur stdDeviation="15" result="effect1_foregroundBlur"/>
</filter>
<linearGradient id="paint0_linear" x1="757" y1="268.636" x2="295.545" y2="821.728" gradientUnits="userSpaceOnUse">
<stop stop-color="#2C343D"/>
<stop offset="1" stop-color="#2C343D"/>
</linearGradient>
<linearGradient id="paint1_linear" x1="757" y1="268.636" x2="295.545" y2="821.728" gradientUnits="userSpaceOnUse">
<stop stop-color="#FF3B00"/>
<stop offset="0.9999" stop-color="#DB3200"/>
<stop offset="1" stop-color="#3ABAB4"/>
</linearGradient>
</defs>
</svg>
