<svg width="178" height="176" viewBox="0 0 178 176" fill="none" xmlns="http://www.w3.org/2000/svg">
<path d="M49.3037 165.687L63.8284 151.579C63.8284 151.579 92.2484 148.534 105.758 140.241C119.268 131.948 117.512 128.711 117.512 128.711C128.464 123.544 124.84 113.201 124.84 113.201C135.579 105.254 129.215 101.58 129.215 101.58C139.953 88.7602 128.423 83.5938 126.038 79.4831C123.652 75.3723 102.185 77.8286 96.1257 79.4831C90.0661 81.1375 51.689 89.7549 46.9185 92.536C42.148 95.3171 13.6772 125.929 13.6772 125.929L49.3037 165.687Z" fill="#FFC9B0"/>
<path d="M49.3039 166.702C49.1666 166.696 49.032 166.663 48.9082 166.604C48.7843 166.544 48.6738 166.46 48.5832 166.357L12.9263 126.63C12.7551 126.443 12.6602 126.198 12.6602 125.945C12.6602 125.691 12.7551 125.447 12.9263 125.26C14.0935 124.001 41.5594 94.5052 46.4213 91.6734C49.7809 89.7144 67.5739 85.3601 85.5089 81.0666C90.4114 79.8892 94.2785 78.9656 95.8619 78.5291C100.348 77.301 123.937 73.8398 126.921 78.996C127.592 79.9524 128.365 80.8337 129.225 81.6249C133.041 85.4413 138.756 91.1557 130.646 101.458C131.508 102.309 132.028 103.447 132.108 104.655C132.26 107.375 130.21 110.39 126.018 113.628C126.616 116.145 127.804 124.57 118.618 129.32C118.527 131.086 116.588 134.75 106.306 141.124C93.4056 149.092 67.7363 152.188 64.2954 152.573L50.0245 166.428C49.8297 166.611 49.5708 166.709 49.3039 166.702V166.702ZM15.0578 125.94L49.3851 164.185L63.1485 150.817C63.3121 150.662 63.5228 150.566 63.7473 150.543C64.0315 150.543 92.0963 147.498 105.261 139.378C116.629 132.355 116.619 129.33 116.598 129.086C116.504 128.847 116.504 128.581 116.598 128.342C116.692 128.102 116.874 127.908 117.106 127.797C127.073 123.088 124.048 113.922 123.917 113.536C123.846 113.332 123.842 113.111 123.906 112.905C123.97 112.699 124.098 112.518 124.272 112.39C129.215 108.725 130.169 106.228 130.098 104.777C130.063 104.31 129.922 103.858 129.684 103.455C129.447 103.052 129.119 102.709 128.728 102.453C128.602 102.377 128.495 102.276 128.413 102.155C128.33 102.034 128.275 101.897 128.251 101.752C128.225 101.608 128.23 101.46 128.267 101.318C128.304 101.176 128.371 101.044 128.464 100.93C136.32 91.5516 131.6 86.8318 127.814 83.0357C126.817 82.1321 125.934 81.1095 125.185 79.9907C123.419 76.9457 103.87 78.4073 96.4202 80.4576C94.8063 80.9042 90.9189 81.8279 86.0063 83.0053C72.8113 86.1619 50.8467 91.4298 47.4363 93.3989C43.8432 95.5101 25.0251 115.211 15.0578 125.94V125.94Z" fill="#093F68"/>
<path d="M144.298 99.8336C145.627 100.84 147.2 101.474 148.855 101.671C149.683 101.76 150.521 101.639 151.289 101.318C152.058 100.997 152.732 100.486 153.25 99.8336C154.006 98.537 154.326 97.0321 154.164 95.5401C153.959 89.6533 152.052 83.9521 148.673 79.1275C144.948 73.8495 133.204 71.4034 133.448 80.4978C133.519 86.9836 139.121 96.2506 144.298 99.8336Z" fill="#FFC9B0"/>
<path d="M149.302 102.706H148.784C146.939 102.506 145.183 101.804 143.709 100.676C138.472 97.0527 132.544 87.6639 132.371 80.5285C132.27 75.9102 134.96 74.337 136.574 73.799C140.634 72.4694 146.795 74.7328 149.484 78.5594C152.978 83.5411 154.952 89.429 155.168 95.5099C155.352 97.2266 154.967 98.9559 154.072 100.433C153.512 101.16 152.788 101.745 151.959 102.14C151.13 102.535 150.22 102.729 149.302 102.706V102.706ZM139.152 75.4332C138.491 75.4249 137.833 75.5208 137.203 75.7174C135.295 76.3467 134.351 77.9504 134.401 80.4777C134.523 86.923 140.126 95.7027 144.856 99.0015C146.037 99.9063 147.439 100.478 148.916 100.656C149.569 100.731 150.231 100.641 150.841 100.395C151.451 100.148 151.99 99.7532 152.408 99.2451C153.024 98.125 153.276 96.8407 153.128 95.5708C152.934 89.8861 151.098 84.3793 147.84 79.7165C146.788 78.4194 145.467 77.3651 143.969 76.6258C142.471 75.8865 140.832 75.4797 139.162 75.4332H139.152Z" fill="#093F68"/>
<path d="M168.465 1.521H58.256C53.8387 1.521 50.2578 5.10192 50.2578 9.5192V76.4483C50.2578 80.8656 53.8387 84.4465 58.256 84.4465H168.465C172.882 84.4465 176.463 80.8656 176.463 76.4483V9.5192C176.463 5.10192 172.882 1.521 168.465 1.521Z" fill="#519FFF"/>
<path d="M168.465 85.4512H58.2665C55.8751 85.4512 53.5815 84.5019 51.8896 82.8119C50.1977 81.1219 49.2459 78.8294 49.2432 76.438V9.51906C49.2459 7.12768 50.1977 4.83516 51.8896 3.14515C53.5815 1.45514 55.8751 0.505858 58.2665 0.505859H168.465C170.855 0.508546 173.146 1.45902 174.835 3.14874C176.525 4.83846 177.476 7.12944 177.478 9.51906V76.438C177.476 78.8276 176.525 81.1186 174.835 82.8083C173.146 84.4981 170.855 85.4485 168.465 85.4512ZM58.2665 2.53586C56.4135 2.53586 54.6363 3.27126 53.325 4.58057C52.0138 5.88989 51.2759 7.66607 51.2732 9.51906V76.438C51.2759 78.291 52.0138 80.0672 53.325 81.3765C54.6363 82.6858 56.4135 83.4212 58.2665 83.4212H168.465C170.316 83.4185 172.091 82.6819 173.4 81.3729C174.709 80.0639 175.446 78.2892 175.448 76.438V9.51906C175.446 7.66783 174.709 5.89318 173.4 4.58416C172.091 3.27514 170.316 2.53854 168.465 2.53586H58.2665Z" fill="#093F68"/>
<path d="M176.463 18.2275H50.2578V35.2288H176.463V18.2275Z" fill="white"/>
<path d="M176.463 36.2949H50.2582C49.989 36.2949 49.7308 36.188 49.5404 35.9976C49.3501 35.8073 49.2432 35.5491 49.2432 35.2799V18.2279C49.2432 17.9587 49.3501 17.7005 49.5404 17.5102C49.7308 17.3198 49.989 17.2129 50.2582 17.2129H176.463C176.732 17.2129 176.991 17.3198 177.181 17.5102C177.371 17.7005 177.478 17.9587 177.478 18.2279V35.2799C177.478 35.5491 177.371 35.8073 177.181 35.9976C176.991 36.188 176.732 36.2949 176.463 36.2949ZM51.2732 34.2649H175.448V19.2429H51.2732V34.2649Z" fill="#093F68"/>
<path d="M138.431 75.4738C136.036 75.4738 133.695 74.7636 131.704 73.433C129.713 72.1025 128.161 70.2113 127.244 67.9987C126.328 65.7861 126.088 63.3514 126.555 61.0025C127.022 58.6536 128.175 56.496 129.869 54.8025C131.562 53.109 133.72 51.9558 136.069 51.4885C138.418 51.0213 140.852 51.2611 143.065 52.1776C145.278 53.0941 147.169 54.6461 148.499 56.6374C149.83 58.6287 150.54 60.9699 150.54 63.3648C150.537 66.5755 149.261 69.6539 146.991 71.9242C144.72 74.1945 141.642 75.4711 138.431 75.4738V75.4738ZM138.431 53.2859C136.438 53.2859 134.489 53.877 132.832 54.9845C131.174 56.092 129.882 57.6661 129.119 59.5078C128.357 61.3495 128.157 63.376 128.546 65.3311C128.935 67.2863 129.895 69.0821 131.304 70.4917C132.714 71.9013 134.51 72.8612 136.465 73.2501C138.42 73.639 140.447 73.4394 142.288 72.6765C144.13 71.9137 145.704 70.6219 146.812 68.9644C147.919 67.3069 148.51 65.3582 148.51 63.3648C148.505 60.6934 147.441 58.1329 145.552 56.2438C143.663 54.3548 141.103 53.2912 138.431 53.2859V53.2859Z" fill="#093F68"/>
<path d="M155.767 75.4738C153.372 75.4738 151.031 74.7636 149.04 73.433C147.048 72.1025 145.496 70.2113 144.58 67.9987C143.663 65.7861 143.424 63.3514 143.891 61.0025C144.358 58.6536 145.511 56.496 147.205 54.8025C148.898 53.109 151.056 51.9558 153.405 51.4885C155.754 51.0213 158.188 51.2611 160.401 52.1776C162.614 53.0941 164.505 54.6461 165.835 56.6374C167.166 58.6287 167.876 60.9699 167.876 63.3648C167.873 66.5755 166.597 69.6539 164.327 71.9242C162.056 74.1945 158.978 75.4711 155.767 75.4738V75.4738ZM155.767 53.2859C153.774 53.2859 151.825 53.877 150.168 54.9845C148.51 56.092 147.218 57.6661 146.455 59.5078C145.693 61.3495 145.493 63.376 145.882 65.3311C146.271 67.2863 147.231 69.0821 148.64 70.4917C150.05 71.9013 151.846 72.8612 153.801 73.2501C155.756 73.639 157.783 73.4394 159.624 72.6765C161.466 71.9137 163.04 70.6219 164.147 68.9644C165.255 67.3069 165.846 65.3582 165.846 63.3648C165.843 60.6925 164.781 58.1305 162.891 56.2409C161.001 54.3513 158.439 53.2886 155.767 53.2859V53.2859Z" fill="#093F68"/>
<path d="M72.9027 43.9987H59.6468C59.3776 43.9987 59.1195 43.8918 58.9291 43.7015C58.7388 43.5111 58.6318 43.2529 58.6318 42.9837C58.6318 42.7146 58.7388 42.4564 58.9291 42.266C59.1195 42.0757 59.3776 41.9688 59.6468 41.9688H72.9027C73.1719 41.9688 73.4301 42.0757 73.6204 42.266C73.8108 42.4564 73.9177 42.7146 73.9177 42.9837C73.9177 43.2529 73.8108 43.5111 73.6204 43.7015C73.4301 43.8918 73.1719 43.9987 72.9027 43.9987V43.9987Z" fill="#093F68"/>
<path d="M92.1065 43.9987H78.8202C78.551 43.9987 78.2928 43.8918 78.1025 43.7015C77.9121 43.5111 77.8052 43.2529 77.8052 42.9837C77.8052 42.7146 77.9121 42.4564 78.1025 42.266C78.2928 42.0757 78.551 41.9688 78.8202 41.9688H92.0761C92.3453 41.9688 92.6034 42.0757 92.7938 42.266C92.9841 42.4564 93.0911 42.7146 93.0911 42.9837C93.0911 43.2529 92.9841 43.5111 92.7938 43.7015C92.6034 43.8918 92.3453 43.9987 92.0761 43.9987H92.1065Z" fill="#093F68"/>
<path d="M111.3 43.9987H98.1048C97.8356 43.9987 97.5775 43.8918 97.3871 43.7015C97.1968 43.5111 97.0898 43.2529 97.0898 42.9837C97.0898 42.7146 97.1968 42.4564 97.3871 42.266C97.5775 42.0757 97.8356 41.9688 98.1048 41.9688H111.3C111.569 41.9688 111.827 42.0757 112.018 42.266C112.208 42.4564 112.315 42.7146 112.315 42.9837C112.315 43.2529 112.208 43.5111 112.018 43.7015C111.827 43.8918 111.569 43.9987 111.3 43.9987Z" fill="#093F68"/>
<path d="M130.514 43.9987H117.258C116.989 43.9987 116.731 43.8918 116.54 43.7015C116.35 43.5111 116.243 43.2529 116.243 42.9837C116.243 42.7146 116.35 42.4564 116.54 42.266C116.731 42.0757 116.989 41.9688 117.258 41.9688H130.514C130.783 41.9688 131.041 42.0757 131.232 42.266C131.422 42.4564 131.529 42.7146 131.529 42.9837C131.529 43.2529 131.422 43.5111 131.232 43.7015C131.041 43.8918 130.783 43.9987 130.514 43.9987Z" fill="#093F68"/>
<path d="M31.8457 107.274C31.8457 107.274 37.2962 90.9321 43.305 81.7261C49.3138 72.52 67.5433 58.2694 74.0291 56.3511C80.5149 54.4327 110.884 46.0184 115.644 50.7889C120.404 55.5594 115.269 65.9022 106.509 69.8709C97.7496 73.8395 84.1791 76.6308 84.1791 76.6308C84.1791 76.6308 90.8172 93.3275 74.2118 107.243" fill="#FFC9B0"/>
<path d="M31.8356 108.289C31.7289 108.287 31.623 108.27 31.521 108.238C31.3942 108.196 31.277 108.129 31.1761 108.041C31.0753 107.953 30.9928 107.846 30.9334 107.727C30.8739 107.607 30.8388 107.476 30.8299 107.343C30.821 107.21 30.8385 107.076 30.8815 106.949C31.1048 106.279 36.4437 90.3843 42.4525 81.1783C48.4613 71.9722 66.8125 57.4171 73.745 55.3871C79.9263 53.5601 111.026 44.7296 116.375 50.0685C117.277 51.0293 117.928 52.1987 118.268 53.4722C118.608 54.7457 118.627 56.0836 118.324 57.3664C117.39 62.685 112.721 68.1863 106.976 70.805C99.5767 74.1748 88.97 76.6514 85.5393 77.4025C86.6862 81.4625 89.3861 95.9059 74.9122 108.035C74.7049 108.207 74.4377 108.29 74.1693 108.266C73.9009 108.241 73.6534 108.111 73.4811 107.903C73.3088 107.696 73.2259 107.429 73.2507 107.16C73.2754 106.892 73.4057 106.644 73.613 106.472C80.2816 100.89 83.9356 94.221 84.4634 86.6593C84.733 83.3984 84.3323 80.1169 83.286 77.0168C83.231 76.8788 83.207 76.7304 83.2157 76.582C83.2243 76.4337 83.2655 76.2891 83.3361 76.1584C83.4068 76.0278 83.5053 75.9142 83.6246 75.8257C83.744 75.7373 83.8813 75.6761 84.0269 75.6465C84.1589 75.6465 97.5975 72.8451 106.134 68.9577C111.31 66.613 115.512 61.7004 116.355 57.0213C116.587 56.0603 116.582 55.0573 116.339 54.0988C116.097 53.1403 115.625 52.2552 114.964 51.52C111.452 48.0284 88.7264 53.0831 74.3134 57.3359C68.335 59.102 50.2477 72.9466 44.1577 82.2948C38.291 91.2877 32.8608 107.446 32.7999 107.609C32.7301 107.809 32.5996 107.981 32.4267 108.103C32.2538 108.225 32.0472 108.29 31.8356 108.289V108.289Z" fill="#093F68"/>
<path d="M133.752 83.9082H104.317C99.7932 83.9082 96.126 87.5755 96.126 92.0992V93.1853C96.126 97.7091 99.7932 101.376 104.317 101.376H133.752C138.276 101.376 141.943 97.7091 141.943 93.1853V92.0992C141.943 87.5755 138.276 83.9082 133.752 83.9082Z" fill="#FFC9B0"/>
<path d="M133.752 102.391H104.317C101.876 102.389 99.5361 101.418 97.8102 99.6921C96.0843 97.9662 95.1135 95.6262 95.1108 93.1854V92.1196C95.1135 89.6789 96.0843 87.3388 97.8102 85.6129C99.5361 83.887 101.876 82.9163 104.317 82.9136H133.752C136.192 82.9163 138.531 83.8874 140.255 85.6136C141.979 87.3397 142.948 89.6798 142.948 92.1196V93.2057C142.942 95.642 141.972 97.9769 140.248 99.6986C138.524 101.42 136.188 102.389 133.752 102.391V102.391ZM104.317 84.9233C102.414 84.926 100.591 85.6829 99.2456 87.0281C97.9004 88.3732 97.1435 90.1969 97.1408 92.0993V93.1854C97.1435 95.0878 97.9004 96.9115 99.2456 98.2567C100.591 99.6018 102.414 100.359 104.317 100.361H133.752C135.653 100.359 137.476 99.6015 138.82 98.256C140.163 96.9106 140.918 95.0868 140.918 93.1854V92.1196C140.918 90.2182 140.163 88.3945 138.82 87.049C137.476 85.7035 135.653 84.9463 133.752 84.9436L104.317 84.9233Z" fill="#093F68"/>
<path d="M132.23 101.691H102.795C98.2708 101.691 94.6035 105.359 94.6035 109.882V110.969C94.6035 115.492 98.2708 119.16 102.795 119.16H132.23C136.753 119.16 140.421 115.492 140.421 110.969V109.882C140.421 105.359 136.753 101.691 132.23 101.691Z" fill="#FFC9B0"/>
<path d="M132.229 120.174H102.794C100.354 120.172 98.0136 119.201 96.2877 117.475C94.5618 115.749 93.5911 113.409 93.5884 110.968V109.882C93.5911 107.442 94.5618 105.102 96.2877 103.376C98.0136 101.65 100.354 100.679 102.794 100.676H132.229C134.669 100.679 137.008 101.65 138.733 103.376C140.457 105.102 141.425 107.442 141.425 109.882V110.968C141.425 113.408 140.457 115.748 138.733 117.474C137.008 119.201 134.669 120.172 132.229 120.174ZM102.794 102.706C100.892 102.709 99.0683 103.466 97.7232 104.811C96.378 106.156 95.6211 107.98 95.6184 109.882V110.968C95.6211 112.871 96.378 114.694 97.7232 116.04C99.0683 117.385 100.892 118.142 102.794 118.144H132.229C134.131 118.142 135.954 117.385 137.297 116.039C138.641 114.694 139.395 112.87 139.395 110.968V109.882C139.395 107.981 138.641 106.157 137.297 104.812C135.954 103.466 134.131 102.709 132.229 102.706H102.794Z" fill="#093F68"/>
<path d="M129.245 119.159H99.8102C95.2864 119.159 91.6191 122.826 91.6191 127.35V128.436C91.6191 132.96 95.2864 136.627 99.8102 136.627H129.245C133.769 136.627 137.436 132.96 137.436 128.436V127.35C137.436 122.826 133.769 119.159 129.245 119.159Z" fill="#FFC9B0"/>
<path d="M129.245 137.643H99.81C97.3693 137.64 95.0293 136.669 93.3034 134.943C91.5775 133.217 90.6067 130.877 90.604 128.437V127.351C90.6067 124.91 91.5775 122.57 93.3034 120.844C95.0293 119.118 97.3693 118.147 99.81 118.145H129.245C131.686 118.147 134.026 119.118 135.752 120.844C137.478 122.57 138.448 124.91 138.451 127.351V128.437C138.448 130.877 137.478 133.217 135.752 134.943C134.026 136.669 131.686 137.64 129.245 137.643V137.643ZM99.81 120.175C97.9077 120.177 96.084 120.934 94.7388 122.279C93.3936 123.625 92.6367 125.448 92.634 127.351V128.437C92.6367 130.339 93.3936 132.163 94.7388 133.508C96.084 134.853 97.9077 135.61 99.81 135.613H129.245C131.147 135.61 132.971 134.853 134.316 133.508C135.662 132.163 136.418 130.339 136.421 128.437V127.351C136.418 125.448 135.662 123.625 134.316 122.279C132.971 120.934 131.147 120.177 129.245 120.175H99.81Z" fill="#093F68"/>
<path d="M62.2045 154.461L19.2801 113.892L1.47705 132.74L43.2443 174.599L62.2045 154.461Z" fill="#F56132"/>
<path d="M43.2951 175.613C43.1615 175.614 43.0291 175.589 42.9054 175.538C42.7817 175.488 42.6693 175.413 42.5744 175.319L0.807178 133.45C0.624235 133.261 0.521973 133.008 0.521973 132.745C0.521973 132.482 0.624235 132.229 0.807178 132.04L18.6103 113.201C18.7014 113.103 18.8111 113.023 18.933 112.968C19.055 112.912 19.1868 112.881 19.3208 112.876C19.5877 112.869 19.8466 112.968 20.0414 113.15L62.9759 153.75C63.165 153.941 63.2711 154.198 63.2711 154.466C63.2711 154.734 63.165 154.991 62.9759 155.182L43.9751 175.35C43.882 175.447 43.7703 175.525 43.6465 175.58C43.5228 175.634 43.3895 175.662 43.2545 175.664L43.2951 175.613ZM2.88793 132.72L43.224 173.147L60.7734 154.501L19.3208 115.333L2.88793 132.72Z" fill="#093F68"/>
</svg>
