<svg xmlns="http://www.w3.org/2000/svg" viewBox="0 0 400 300" width="406" height="306" class="illustration styles_illustrationTablet__1DWOa"><g id="_572_team_success_outline" data-name="#572_team_success_outline"><path d="M293.46,107.11c-3.2,8.58-7.54,17.48-9.37,19.27-5.34,3.09-16-4-35.15-4-4.39,0-15.72-10.64-19.85-14.47A203.58,203.58,0,0,0,211.44,93l-5.76,8.09,28.58,34.94v34.49h30.45v-33A53.88,53.88,0,0,0,279,139.79a22.07,22.07,0,0,0,11.88-2.93c5.18-3.27,10.61-15.61,14.26-25.38Z" fill="#519fff"></path><path d="M264.71,171.54H234.26a1,1,0,0,1-1-1V136.41l-28.35-34.67a1,1,0,0,1,0-1.21l5.75-8.09a1,1,0,0,1,.65-.4,1,1,0,0,1,.75.17,203.51,203.51,0,0,1,17.74,15l.43.4c3.69,3.42,14.9,13.81,18.75,13.81a93.71,93.71,0,0,1,23.25,3.25c5.2,1.26,9,2.18,11.29,1,1.6-1.72,5.75-10,9-18.82a1,1,0,0,1,1.29-.59l11.72,4.37a1,1,0,0,1,.59,1.29c-5.38,14.42-10.31,23.13-14.66,25.88-5.82,3.68-14.77,4-25.75,1.14v31.69A1,1,0,0,1,264.71,171.54Zm-29.45-2h28.45v-32a1,1,0,0,1,.4-.79,1,1,0,0,1,.88-.17c11,3.11,19.87,2.93,25.4-.56,3.77-2.39,8.55-10.88,13.5-24L294,108.4c-2.91,7.61-7.19,16.69-9.25,18.7a1,1,0,0,1-.2.15c-3,1.72-7.13.72-12.87-.68a90.79,90.79,0,0,0-22.78-3.19c-4.08,0-12.46-7.25-20.11-14.34l-.42-.4c-8.51-7.88-14.64-12.62-16.75-14.21l-4.72,6.64L235,135.42a1,1,0,0,1,.22.63Zm48.83-43.16h0Z" fill="#093f68"></path><polygon points="249.42 143.75 246.56 123.8 252.74 123.8 249.42 143.75" fill="#fff"></polygon><path d="M249.42,144.75h0a1,1,0,0,1-1-.86l-2.86-19.95a1,1,0,0,1,1-1.15h6.18a1,1,0,0,1,.76.36,1,1,0,0,1,.23.81l-3.33,20A1,1,0,0,1,249.42,144.75Zm-1.71-20,1.78,12.43,2.07-12.43Z" fill="#093f68"></path><path d="M247.94,72.5a14.76,14.76,0,0,1,2.3-.18c3.55,0,7.18-.09,10.42,1.5a19.69,19.69,0,0,1,11,17.56l-.75,14.55H228.3a8.85,8.85,0,0,1,.18-2.71,11.8,11.8,0,0,0-.42-2.82,39.66,39.66,0,0,1-.86-7.21,28.08,28.08,0,0,1,2.34-11.1c.86-2.1,1.88-4.28,3.74-5.6s4.81-1.35,6.13.5A14.8,14.8,0,0,1,247.94,72.5Z" fill="#725858"></path><path d="M270.88,106.93H230.13c-2.38,0-2.79,0-2.82-.86a5.21,5.21,0,0,1,.06-2.09,6,6,0,0,0,.11-.81,7.41,7.41,0,0,0-.27-1.93c0-.21-.09-.42-.13-.64a40.64,40.64,0,0,1-.88-7.4,29,29,0,0,1,2.41-11.49c.89-2.14,2-4.56,4.09-6a5.89,5.89,0,0,1,6.72-.12,15.89,15.89,0,0,1,8.37-4l.15,1-.15-1a15.55,15.55,0,0,1,2.45-.19h.64c3.42,0,7,0,10.22,1.6a20.65,20.65,0,0,1,11.53,18.46s0,0-.75,14.61A1,1,0,0,1,270.88,106.93Zm-41.63-2h40.68c.17-3.21.7-13.47.7-13.6a18.64,18.64,0,0,0-10.41-16.62c-2.84-1.38-6-1.39-9.34-1.39h-.64a13.12,13.12,0,0,0-2.14.17,13.69,13.69,0,0,0-7.95,4.18,1.06,1.06,0,0,1-.8.32,1,1,0,0,1-.75-.42c-1-1.37-3.31-1.27-4.74-.26-1.66,1.17-2.59,3.19-3.4,5.16a27.14,27.14,0,0,0-2.26,10.71,38.47,38.47,0,0,0,.84,7c0,.2.08.39.13.59a9.21,9.21,0,0,1,.31,2.46,9.31,9.31,0,0,1-.14,1.06C229.31,104.52,229.27,104.73,229.25,104.93Z" fill="#093f68"></path><path d="M246.56,120.24h6.18a0,0,0,0,1,0,0v3.56a2.62,2.62,0,0,1-2.62,2.62h-.93a2.62,2.62,0,0,1-2.62-2.62v-3.56a0,0,0,0,1,0,0Z" fill="#ffc9b0"></path><path d="M250.12,127.42h-.94a3.63,3.63,0,0,1-3.62-3.63v-3.55a1,1,0,0,1,1-1h6.18a1,1,0,0,1,1,1v3.55A3.63,3.63,0,0,1,250.12,127.42Zm-2.56-6.18v2.55a1.63,1.63,0,0,0,1.62,1.63h.94a1.63,1.63,0,0,0,1.62-1.63v-2.55Z" fill="#093f68"></path><ellipse cx="233" cy="104.18" rx="5.66" ry="5.18" fill="#ffc9b0"></ellipse><path d="M233,110.35a6.19,6.19,0,1,1,6.66-6.17A6.43,6.43,0,0,1,233,110.35ZM233,100a4.2,4.2,0,1,0,4.66,4.18A4.44,4.44,0,0,0,233,100Z" fill="#093f68"></path><ellipse cx="265.98" cy="104.18" rx="5.66" ry="5.18" fill="#ffc9b0"></ellipse><path d="M266,110.35a6.19,6.19,0,1,1,6.65-6.17A6.44,6.44,0,0,1,266,110.35ZM266,100a4.2,4.2,0,1,0,4.65,4.18A4.44,4.44,0,0,0,266,100Z" fill="#093f68"></path><path d="M249.65,121.05h0a18.12,18.12,0,0,1-18.12-18.12V93.18s4.56-2.6,5.92-6.71c0,0,7,7.92,13.67,7.39a158.24,158.24,0,0,0,16.65-2.32v11.39A18.12,18.12,0,0,1,249.65,121.05Z" fill="#ffc9b0"></path><path d="M249.65,122.05a19.15,19.15,0,0,1-19.12-19.12V93.18a1,1,0,0,1,.51-.87s4.24-2.47,5.46-6.15a1,1,0,0,1,1.7-.35c.07.08,6.73,7.52,12.84,7a157.74,157.74,0,0,0,16.52-2.3,1,1,0,0,1,.84.2,1,1,0,0,1,.37.78v11.39A19.15,19.15,0,0,1,249.65,122.05ZM232.53,93.73v9.2a17.12,17.12,0,1,0,34.24,0V92.75c-2.57.47-8.88,1.57-15.57,2.1-5.59.46-11.15-4.34-13.43-6.59A15.87,15.87,0,0,1,232.53,93.73Z" fill="#093f68"></path><path d="M249.56,106.94a10.43,10.43,0,0,1-1.71-.15,1,1,0,0,1,.34-2,8,8,0,0,0,1.9.09,15.25,15.25,0,0,0-1.33-3.34,1,1,0,1,1,1.78-.92c.94,1.8,2,4.19,1.43,5.34a1.39,1.39,0,0,1-.93.79A6.16,6.16,0,0,1,249.56,106.94Z" fill="#093f68"></path><polygon points="234.34 225.05 221.01 225.05 234.27 159.84 247.6 159.84 234.34 225.05" fill="#093f68"></polygon><path d="M234.34,226.05H221a1,1,0,0,1-.78-.37,1,1,0,0,1-.2-.83l13.26-65.21a1,1,0,0,1,1-.8H247.6a1,1,0,0,1,.77.37,1,1,0,0,1,.21.83l-13.26,65.21A1,1,0,0,1,234.34,226.05Zm-12.11-2h11.29l12.86-63.21h-11.3Z" fill="#093f68"></path><polygon points="263.61 225.05 253.25 225.05 252.74 159.84 264.71 159.84 263.61 225.05" fill="#093f68"></polygon><path d="M263.61,226.05H253.25a1,1,0,0,1-1-1l-.51-65.2a1,1,0,0,1,.29-.71,1,1,0,0,1,.71-.3h12a1,1,0,0,1,1,1l-1.1,65.2A1,1,0,0,1,263.61,226.05Zm-9.37-2h8.38l1.07-63.21h-9.94Z" fill="#093f68"></path><rect x="234.84" y="159.74" width="29.87" height="12.16" fill="#093f68"></rect><path d="M264.71,172.9H234.84a1,1,0,0,1-1-1V159.74a1,1,0,0,1,1-1h29.87a1,1,0,0,1,1,1V171.9A1,1,0,0,1,264.71,172.9Zm-28.87-2h27.87V160.74H235.84Z" fill="#093f68"></path><polygon points="234.34 225.05 232.57 233.83 212.32 233.83 223.37 225.05 234.34 225.05" fill="#519fff"></polygon><path d="M232.57,234.83H212.32a1,1,0,0,1-.62-1.78l11-8.79a1,1,0,0,1,.62-.21h11a1,1,0,0,1,.78.36,1,1,0,0,1,.2.83L233.55,234A1,1,0,0,1,232.57,234.83Zm-17.38-2h16.56l1.37-6.78h-9.41Z" fill="#093f68"></path><polygon points="253.89 225.05 253.89 233.83 272.46 233.83 261.99 225.05 253.89 225.05" fill="#519fff"></polygon><path d="M272.46,234.83H253.89a1,1,0,0,1-1-1v-8.78a1,1,0,0,1,1-1H262a1,1,0,0,1,.64.23l10.48,8.79a1,1,0,0,1,.29,1.1A1,1,0,0,1,272.46,234.83Zm-17.57-2h14.83l-8.09-6.78h-6.74Z" fill="#093f68"></path><rect x="296.6" y="101.23" width="10.43" height="10.43" rx="3.32" transform="translate(-13.46 51.44) rotate(-9.53)" fill="#ffc9b0"></rect><path d="M300.25,112.94a4.31,4.31,0,0,1-4.25-3.61l-.63-3.72a4.34,4.34,0,0,1,3.55-5l3.73-.62a4.32,4.32,0,0,1,5,3.55l.62,3.73a4.25,4.25,0,0,1-.74,3.22,4.32,4.32,0,0,1-2.8,1.76l-3.73.62A4.49,4.49,0,0,1,300.25,112.94Zm3.12-11a2.56,2.56,0,0,0-.39,0l-3.73.63a2.33,2.33,0,0,0-1.91,2.67L298,109a2.33,2.33,0,0,0,2.68,1.91l3.73-.63h0a2.32,2.32,0,0,0,1.9-2.67l-.62-3.73a2.33,2.33,0,0,0-2.29-1.94Z" fill="#093f68"></path><rect x="292.81" y="102.84" width="3.93" height="6.46" rx="1.97" transform="translate(-17.86 85.97) rotate(-16.11)" fill="#ffc9b0"></rect><path d="M295.12,110.24a2.9,2.9,0,0,1-1.43-.37,3,3,0,0,1-1.42-1.77l-.7-2.42a3,3,0,1,1,5.7-1.65l.7,2.42a3,3,0,0,1-.25,2.26,2.9,2.9,0,0,1-1.77,1.41A3,3,0,0,1,295.12,110.24Zm-.7-6.36a1.09,1.09,0,0,0-.26,0,1,1,0,0,0-.67,1.2l.7,2.42a1,1,0,0,0,1.2.66h0a1,1,0,0,0,.66-1.19l-.7-2.43A1,1,0,0,0,294.42,103.88Z" fill="#093f68"></path><path d="M234.26,144.75a1,1,0,0,1-1-1V132.56a1,1,0,0,1,2,0v11.19A1,1,0,0,1,234.26,144.75Z" fill="#093f68"></path><path d="M264.71,138.54a1,1,0,0,1-1-1v-7.33a1,1,0,1,1,2,0v7.33A1,1,0,0,1,264.71,138.54Z" fill="#093f68"></path><path d="M248.85,114.79a11,11,0,0,1-8-3.54,1,1,0,0,1,1.55-1.26c.23.28,5.38,6.3,14.3-.18a1,1,0,0,1,1.17,1.62C254.37,114,251.35,114.79,248.85,114.79Z" fill="#093f68"></path><path d="M244.55,100.75a1,1,0,0,1-1-1,1.71,1.71,0,0,0-3.42,0,1,1,0,0,1-2,0,3.71,3.71,0,0,1,7.42,0A1,1,0,0,1,244.55,100.75Z" fill="#093f68"></path><path d="M260,100.75a1,1,0,0,1-1-1,1.71,1.71,0,0,0-3.42,0,1,1,0,0,1-2,0,3.71,3.71,0,0,1,7.42,0A1,1,0,0,1,260,100.75Z" fill="#093f68"></path><path d="M190,93s3.78-2.36,4.51-4.33a91.37,91.37,0,0,0,3.78-13.18c.17-.85.77-2,1.58-1.63.5.2.63.83.69,1.37.49,4.35-.26,14.8-.36,15.4s-2.58,7.88-4.45,10.46Q192.88,97.06,190,93Z" fill="#ffc9b0"></path><path d="M195.74,102.11h0a1,1,0,0,1-.81-.42l-5.75-8.09a1,1,0,0,1-.17-.77,1,1,0,0,1,.45-.65c1.35-.85,3.66-2.64,4.1-3.83a89.64,89.64,0,0,0,3.74-13A3.38,3.38,0,0,1,198.74,73a1.77,1.77,0,0,1,1.49-.09,2.5,2.5,0,0,1,1.31,2.19c.51,4.53-.26,15-.36,15.66-.12.81-2.67,8.19-4.62,10.9A1,1,0,0,1,195.74,102.11Zm-4.34-8.83,4.28,6a58.51,58.51,0,0,0,3.53-8.82c.09-.63.81-11,.35-15.12,0-.13,0-.24-.05-.32a2,2,0,0,0-.25.68A92.28,92.28,0,0,1,195.43,89C194.83,90.68,192.66,92.4,191.4,93.28Z" fill="#093f68"></path><path d="M211.44,93s-3.78-2.36-4.51-4.33a90.12,90.12,0,0,1-3.78-13.18c-.18-.85-.77-2-1.58-1.63-.5.2-.63.83-.69,1.37-.49,4.35.26,14.8.35,15.4s2.59,7.88,4.45,10.46Z" fill="#ffc9b0"></path><path d="M205.68,102.11a1,1,0,0,1-.81-.42c-2-2.7-4.5-10.08-4.63-10.89-.09-.65-.86-11.15-.36-15.66A2.52,2.52,0,0,1,201.2,73a1.74,1.74,0,0,1,1.48.09,3.39,3.39,0,0,1,1.45,2.27,88.4,88.4,0,0,0,3.74,13c.44,1.19,2.75,3,4.1,3.83a1,1,0,0,1,.45.65,1,1,0,0,1-.17.77l-5.75,8.09A1,1,0,0,1,205.68,102.11ZM201.92,75c0,.08,0,.18,0,.32-.47,4.16.26,14.49.35,15.14a60.17,60.17,0,0,0,3.52,8.8l4.28-6c-1.25-.88-3.42-2.6-4-4.24a91,91,0,0,1-3.82-13.32A2.5,2.5,0,0,0,201.92,75Z" fill="#093f68"></path><polygon points="135.18 226.12 123.8 225.91 135.93 165.91 147.3 166.13 135.18 226.12" fill="#ffc9b0"></polygon><path d="M135.17,227.12h0l-11.38-.21a1,1,0,0,1-.76-.37,1,1,0,0,1-.2-.83l12.13-60a1,1,0,0,1,1-.8l11.37.21a1,1,0,0,1,.76.38,1,1,0,0,1,.2.82l-12.13,60A1,1,0,0,1,135.17,227.12ZM125,224.93l9.34.18,11.72-58-9.34-.17Z" fill="#093f68"></path><polygon points="165.57 226.12 154.19 225.91 154.9 165.91 166.28 166.13 165.57 226.12" fill="#ffc9b0"></polygon><path d="M165.57,227.12h0l-11.38-.21a1,1,0,0,1-1-1l.71-60a1,1,0,0,1,.3-.71,1,1,0,0,1,.72-.28l11.37.21a1,1,0,0,1,1,1l-.71,60a1,1,0,0,1-.31.7A1,1,0,0,1,165.57,227.12Zm-10.37-2.19,9.38.17.68-58-9.37-.18Z" fill="#093f68"></path><polygon points="167.93 155.68 168.99 199 127.51 198.16 135.84 155.68 167.93 155.68" fill="#093f68"></polygon><path d="M169,200h0l-41.48-.84a1,1,0,0,1-.75-.37,1,1,0,0,1-.21-.82l8.33-42.48a1,1,0,0,1,1-.81h32.09a1,1,0,0,1,1,1L170,199a1,1,0,0,1-.29.73A1,1,0,0,1,169,200Zm-40.27-2.82L168,198l-1-41.3h-30.3Z" fill="#093f68"></path><path d="M144.57,70.64s-5.23.71-5.82,1a8.89,8.89,0,0,0-5.38,6.3l-6.7,27.67a28.59,28.59,0,0,0-1.19,9.3c.71,7.6,7.66,13.53,15.12,15.14s15.24-.27,22.37-3c4.46-1.68,9.22-4,12-8.07,3.37-5,.91-9.26,1.12-14.74.31-8.35.18-20-4.14-27.63C166.26,66.69,151.12,62.13,144.57,70.64Z" fill="#725858"></path><path d="M146.37,131.64a28.4,28.4,0,0,1-6-.62c-7.31-1.58-15.11-7.6-15.9-16-.31-3.32.5-6.67,1.21-9.62l6.7-27.67a9.9,9.9,0,0,1,5.92-7s3.88-.84,5.71-1c2.67-3.23,6.72-4.83,11.46-4.49a22.52,22.52,0,0,1,17.3,10.92c4.47,7.85,4.57,19.83,4.26,28.16a29.05,29.05,0,0,0,.35,4.83c.42,3.32.86,6.75-1.63,10.43-3,4.45-8.23,6.85-12.44,8.45C156.87,130.44,151.34,131.64,146.37,131.64Zm-1.75-60c-.56.06-4.89.69-5.47.9a7.94,7.94,0,0,0-4.81,5.63l-6.7,27.67c-.71,2.94-1.44,6-1.16,9,.7,7.47,7.74,12.83,14.33,14.25,6.11,1.33,13,.39,21.81-2.93,3.93-1.49,8.8-3.71,11.5-7.7,2.06-3.05,1.71-5.84,1.29-9.06a30.14,30.14,0,0,1-.35-5.15c.3-8.09.21-19.69-4-27.1a20.4,20.4,0,0,0-15.7-9.91c-4.21-.3-7.76,1.14-10,4A1,1,0,0,1,144.62,71.64Z" fill="#093f68"></path><path d="M139.4,121.37l-1,.87A10.21,10.21,0,0,1,139.4,121.37Z" fill="#519fff"></path><path d="M138.4,123.24a1,1,0,0,1-.7-1.72,13.32,13.32,0,0,1,1.1-1,1,1,0,0,1,1.28,1.53c-.17.16-.54.48-1,.91A1,1,0,0,1,138.4,123.24Z" fill="#093f68"></path><path d="M195.75,101.11c-7.63,10.68-16.81,17-27.81,31v23.61h-32.1l-.79-17s-16.9,4.22-20.84,4.22c-8.6,0-9.78-25.57-9.78-25.57l8.39-1.56s2.7,10.31,4.29,12.24c0,0,22.12-6.45,22.29-6.6s4.17-2.3,6.55-2.3h10.74c1.6,0,33.3-26,33.3-26Z" fill="#519fff"></path><path d="M167.94,156.68h-32.1a1,1,0,0,1-1-1l-.74-15.83c-3.95,1-16.45,4-19.89,4-9.28,0-10.66-23.81-10.78-26.53a1,1,0,0,1,.82-1l8.39-1.55a1,1,0,0,1,1.15.73c.92,3.52,2.65,9.28,3.75,11.32,8.5-2.48,20.74-6.07,21.46-6.35h0c1-.59,4.57-2.39,6.95-2.39h10.6c2.26-1,21.23-16.31,32.8-25.82a1,1,0,0,1,.77-.22.94.94,0,0,1,.68.41l5.76,8.09a1,1,0,0,1,0,1.16,118.29,118.29,0,0,1-12.92,14.56,187,187,0,0,0-14.7,16.17v23.26A1,1,0,0,1,167.94,156.68Zm-31.14-2h30.14V132.07a1,1,0,0,1,.21-.61,188.12,188.12,0,0,1,15.07-16.62,118.57,118.57,0,0,0,12.3-13.74l-4.72-6.63c-20.69,17-31.83,25.6-33.11,25.6H146c-1.95,0-5.59,1.89-6,2.14h0c-.45.23-2.95,1-22.55,6.72a1,1,0,0,1-1-.33c-1.45-1.75-3.52-9-4.24-11.71l-6.62,1.22a88.06,88.06,0,0,0,1.6,11.78c1.66,7.72,4.19,12,7.13,12,3.77,0,20.43-4.15,20.59-4.19a1,1,0,0,1,.84.16,1,1,0,0,1,.41.76Z" fill="#093f68"></path><polygon points="150.41 120.27 153.41 142.86 156.57 120.27 150.41 120.27" fill="#f56132"></polygon><path d="M153.41,143.76h0a.9.9,0,0,1-.89-.78l-3-22.59a.87.87,0,0,1,.21-.71.89.89,0,0,1,.68-.31h6.16a.9.9,0,0,1,.89,1L154.3,143A.9.9,0,0,1,153.41,143.76Zm-2-22.59,2,15,2.1-15Z" fill="#093f68"></path><path d="M150.35,118.14h6.27a0,0,0,0,1,0,0v3.61a2.66,2.66,0,0,1-2.66,2.66H153a2.66,2.66,0,0,1-2.66-2.66v-3.61A0,0,0,0,1,150.35,118.14Z" fill="#ffc9b0"></path><path d="M154,125.41H153a3.67,3.67,0,0,1-3.67-3.66v-3.61a1,1,0,0,1,1-1h6.28a1,1,0,0,1,1,1v3.61A3.67,3.67,0,0,1,154,125.41Zm-2.61-6.27v2.61a1.66,1.66,0,0,0,1.67,1.66H154a1.66,1.66,0,0,0,1.67-1.66v-2.61Z" fill="#093f68"></path><ellipse cx="135.56" cy="101.84" rx="6.1" ry="5.25" fill="#ffc9b0"></ellipse><path d="M135.56,108.09c-3.91,0-7.1-2.8-7.1-6.25s3.19-6.25,7.1-6.25,7.1,2.8,7.1,6.25S139.47,108.09,135.56,108.09Zm0-10.5c-2.81,0-5.1,1.9-5.1,4.25s2.29,4.25,5.1,4.25,5.1-1.91,5.1-4.25S138.37,97.59,135.56,97.59Z" fill="#093f68"></path><ellipse cx="171.1" cy="101.84" rx="6.1" ry="5.25" fill="#ffc9b0"></ellipse><path d="M171.1,108.09c-3.91,0-7.1-2.8-7.1-6.25s3.19-6.25,7.1-6.25,7.09,2.8,7.09,6.25S175,108.09,171.1,108.09Zm0-10.5c-2.81,0-5.1,1.9-5.1,4.25s2.29,4.25,5.1,4.25,5.09-1.91,5.09-4.25S173.91,97.59,171.1,97.59Z" fill="#093f68"></path><path d="M164.67,86.26l-5.95-7.65s-1.33,4.71-2.16,7.62l-9.37,0L145,79.38l-2.6,6.81-7.27,0v14.4A18.38,18.38,0,0,0,153.49,119h0a18.39,18.39,0,0,0,18.39-18.39V86.28Z" fill="#ffc9b0"></path><path d="M153.49,120a19.41,19.41,0,0,1-19.38-19.39V86.17a1,1,0,0,1,.29-.71,1,1,0,0,1,.71-.29l6.58,0L144,79a1,1,0,0,1,1-.64,1,1,0,0,1,.93.69l2,6.14,7.89,0c.82-2.91,1.95-6.89,1.95-6.89a1,1,0,0,1,.77-.71,1,1,0,0,1,1,.37l5.65,7.26,6.72,0a1,1,0,0,1,1,1v14.29A19.41,19.41,0,0,1,153.49,120ZM136.11,87.17v13.4a17.39,17.39,0,1,0,34.77,0V87.28l-6.21,0a1,1,0,0,1-.79-.39l-4.73-6.09c-.47,1.64-1.14,4-1.62,5.73a1,1,0,0,1-1,.72h0l-9.38,0a1,1,0,0,1-.94-.7l-1.34-4.12-1.59,4.16a1,1,0,0,1-.93.64h0Z" fill="#093f68"></path><circle cx="144.98" cy="97.9" r="1.7" fill="#093f68"></circle><circle cx="162.54" cy="97.9" r="1.7" fill="#093f68"></circle><path d="M153.4,104.62a11.55,11.55,0,0,1-1.74-.14,1,1,0,0,1,.35-2,8.36,8.36,0,0,0,2,.09,15.18,15.18,0,0,0-1.36-3.41,1,1,0,0,1,1.78-.93c1,1.83,2,4.25,1.45,5.42a1.35,1.35,0,0,1-.93.78A6.32,6.32,0,0,1,153.4,104.62Z" fill="#093f68"></path><path d="M148.46,93.66h0l-8.11,0a1.59,1.59,0,0,1,0-3.18h0l8.12,0a1.59,1.59,0,1,1,0,3.18Z" fill="#093f68"></path><path d="M160,93.86a1.59,1.59,0,0,1-.08-3.18l8.11-.41a1.59,1.59,0,1,1,.16,3.17l-8.11.42Z" fill="#093f68"></path><path d="M155.47,108.61l-5.12-.7s-.76,6.59,1.72,6.61C154,114.53,154.77,112.54,155.47,108.61Z" fill="#093f68"></path><path d="M167.93,141.88a1,1,0,0,1-1-1v-8.81a1,1,0,0,1,2,0v8.81A1,1,0,0,1,167.93,141.88Z" fill="#093f68"></path><path d="M135.05,139.64a1,1,0,0,1-1-1V133a1,1,0,0,1,2,0v5.64A1,1,0,0,1,135.05,139.64Z" fill="#093f68"></path><polygon points="135.18 226.12 135.18 233.83 115.26 233.83 123.8 225.91 135.18 226.12" fill="#093f68"></polygon><path d="M135.17,234.83H115.26a1,1,0,0,1-.68-1.73l8.54-7.92a1.12,1.12,0,0,1,.7-.27l11.37.21a1,1,0,0,1,1,1v7.71A1,1,0,0,1,135.17,234.83Zm-17.36-2h16.36V227.1l-10-.18Z" fill="#093f68"></path><polygon points="154.19 226.12 154.19 233.83 174.1 233.83 165.57 225.91 154.19 226.12" fill="#093f68"></polygon><path d="M174.1,234.83H154.19a1,1,0,0,1-1-1v-7.71a1,1,0,0,1,1-1l11.38-.21a1.07,1.07,0,0,1,.7.27l8.53,7.92a1,1,0,0,1-.68,1.73Zm-18.91-2h16.36l-6.37-5.91-10,.18Z" fill="#093f68"></path><path d="M112.82,115.73l-1.16-4.9s2.17-4.66.58-5.29-6.57-2.87-9.29.39,1.48,11.36,1.48,11.36Z" fill="#ffc9b0"></path><path d="M104.43,118.29a1,1,0,0,1-.89-.54c-.46-.89-4.42-8.79-1.36-12.46s8.18-1.57,10.13-.8l.29.12a1.82,1.82,0,0,1,1,1c.59,1.48-.42,4.11-.93,5.27l1.09,4.57a1,1,0,0,1-.8,1.22l-8.39,1.55Zm2.51-13.08a4,4,0,0,0-3.23,1.36c-1.69,2,.17,7.19,1.28,9.6l6.62-1.23-.93-3.88a1,1,0,0,1,.07-.65c.73-1.58,1.22-3.45,1-4l-.24-.09A13.1,13.1,0,0,0,106.94,105.21Zm4.93,1.26h0Z" fill="#093f68"></path><path d="M107.68,106.62a5.89,5.89,0,0,0-2.29.82,2.68,2.68,0,0,0-.82.75,1.21,1.21,0,0,0-.17,1.07c.24.64,1.06.83,1.74.8a5.61,5.61,0,0,0,1.94-.41,2.31,2.31,0,0,0,2,2.44" fill="#ffc9b0"></path><path d="M110.1,113.09H110a3.25,3.25,0,0,1-2.18-1.18,3.55,3.55,0,0,1-.56-1,6.62,6.62,0,0,1-1.09.13,2.59,2.59,0,0,1-2.72-1.46,2.2,2.2,0,0,1,.27-2,3.64,3.64,0,0,1,1.14-1,6.9,6.9,0,0,1,2.68-1,1,1,0,0,1,.27,2,4.93,4.93,0,0,0-1.9.68,1.91,1.91,0,0,0-.52.44.46.46,0,0,0-.06.19,1.28,1.28,0,0,0,.76.14,4.64,4.64,0,0,0,1.61-.34,1,1,0,0,1,1,.14,1,1,0,0,1,.39.9,1.2,1.2,0,0,0,.31.88,1.25,1.25,0,0,0,.8.46,1,1,0,0,1-.08,2Z" fill="#093f68"></path><path d="M289.19,234.83H103.79a1,1,0,1,1,0-2h185.4a1,1,0,0,1,0,2Z" fill="#093f68"></path><path d="M183.38,83.71a1,1,0,0,1-.58-.19,1,1,0,0,1-.23-1.39c.82-1.15.61-3-.64-5.46a49.82,49.82,0,0,0-8.88-12.43,1,1,0,0,1,1.23-1.56l7.88,4.72A8.52,8.52,0,0,0,186,68.94c1.34,0,2.79-.67,4.44-2.15a22.07,22.07,0,0,0,6.16-9.36,1,1,0,0,1,1.05-.68,1,1,0,0,1,.89.88A19.12,19.12,0,0,0,200,63.85a5.93,5.93,0,0,0,4.3,3.46,8.25,8.25,0,0,0,3.05-.46,40,40,0,0,0,17-10.07,1,1,0,0,1,1.28-.11,1,1,0,0,1,.33,1.24c-3,6.43-6.36,13.72-6.57,21.23a1,1,0,0,1-1,1,1,1,0,0,1-1-1c.17-6.24,2.37-12.21,4.79-17.69a42.11,42.11,0,0,1-14.29,7.38,9.76,9.76,0,0,1-3.81.52,7.83,7.83,0,0,1-5.9-4.55,14.58,14.58,0,0,1-1.12-3.36,23.94,23.94,0,0,1-5.32,6.9c-2,1.84-4,2.71-5.83,2.65a10.15,10.15,0,0,1-4.81-1.81L178.6,67.6a52.59,52.59,0,0,1,5.12,8.17c1.6,3.19,1.76,5.72.47,7.52A1,1,0,0,1,183.38,83.71Z" fill="#dfeaef"></path><path d="M198.75,139.48a.62.62,0,0,1-.19,0,1,1,0,0,1-.81-1,18.43,18.43,0,0,0-2.11-9.44c-.65-1.23-2-3.33-4-3.56a6.63,6.63,0,0,0-2.87.56,36.19,36.19,0,0,0-8.53,4.48,1,1,0,0,1-1.39-1.41,15.8,15.8,0,0,0,3-9.4,1,1,0,0,1,1-1h0a1,1,0,0,1,1,1,17.75,17.75,0,0,1-1.4,7,38.45,38.45,0,0,1,5.61-2.58,8.36,8.36,0,0,1,3.78-.67c2.75.31,4.55,2.68,5.57,4.62a20.28,20.28,0,0,1,2,5.89q1-2.37,2.25-4.64a5.17,5.17,0,0,1,1.84-2.19,5.23,5.23,0,0,1,2.39-.56,20.68,20.68,0,0,1,6.39.27,9,9,0,0,1,3.24,1.53,47.9,47.9,0,0,1,.34-7.18,1,1,0,0,1,1.11-.87,1,1,0,0,1,.87,1.11,46.71,46.71,0,0,0-.15,9.89,1,1,0,0,1-1.91.47,5.72,5.72,0,0,0-4-3,19.17,19.17,0,0,0-5.77-.22,3.88,3.88,0,0,0-1.52.3,3.51,3.51,0,0,0-1.08,1.41,60.65,60.65,0,0,0-3.76,8.54A1,1,0,0,1,198.75,139.48Z" fill="#dfeaef"></path></g></svg>