<svg width="924" height="168" viewBox="0 0 924 168" fill="none" xmlns="http://www.w3.org/2000/svg">
<path d="M189.62 52.4703H202.867V39.753C202.867 24.3862 211.346 14.3184 228.302 14.3184L236.78 15.908V31.2748L227.772 29.6851C222.473 29.6851 220.354 32.8644 220.354 38.1633V52.4703H237.31V67.8371H220.354V131.424H203.397V67.8371H189.62V52.4703Z" fill="#D70F64"/>
<path d="M280.231 50.8806C301.957 50.8806 321.562 67.837 321.562 92.2119C321.562 116.587 302.487 133.543 280.231 133.543C257.976 133.543 238.9 116.587 238.9 92.2119C238.9 67.3071 258.506 50.8806 280.231 50.8806ZM280.231 118.176C296.128 118.176 304.606 106.519 304.606 92.2119C304.606 77.9049 296.128 66.2474 280.231 66.2474C264.335 66.2474 255.856 77.9049 255.856 92.2119C255.856 105.989 264.335 118.176 280.231 118.176V118.176Z" fill="#D70F64"/>
<path d="M369.782 50.8806C391.507 50.8806 411.113 67.837 411.113 92.2119C411.113 116.587 392.037 133.543 369.782 133.543C347.527 133.543 328.451 116.587 328.451 92.2119C328.981 67.3071 348.057 50.8806 369.782 50.8806ZM369.782 118.176C385.679 118.176 394.157 106.519 394.157 92.2119C394.157 77.9049 385.679 66.2474 369.782 66.2474C353.885 66.2474 345.407 77.9049 345.407 92.2119C345.407 105.989 353.885 118.176 369.782 118.176V118.176Z" fill="#D70F64"/>
<path d="M499.075 131.424H483.708L482.118 124.535L481.059 123.475L479.999 124.535C474.7 129.834 466.752 133.013 458.273 133.013C436.548 133.013 418.002 116.057 418.002 91.6821C418.002 67.3072 436.548 50.3508 458.273 50.3508C466.752 50.3508 475.23 53.5301 479.999 58.829L481.059 59.8888L482.118 58.829V14.8483H499.075V131.424ZM459.333 65.7175C443.437 65.7175 434.958 77.3751 434.958 91.6821C434.958 105.989 443.437 117.647 459.333 117.647C473.64 117.647 483.708 105.989 483.708 91.6821C483.708 77.905 473.64 65.7175 459.333 65.7175V65.7175Z" fill="#D70F64"/>
<path d="M516.031 52.4703H531.398L532.988 59.3588L534.047 60.4186L535.107 59.3588C540.406 54.0599 548.354 50.8806 556.833 50.8806C578.558 50.8806 597.104 67.837 597.104 92.2119C597.104 116.587 578.558 133.543 556.833 133.543C548.354 133.543 539.876 130.364 535.107 125.065L534.047 124.005L532.988 125.065V167.456H516.561V52.4703H516.031ZM555.243 118.176C571.14 118.176 579.618 106.519 579.618 92.2119C579.618 77.9049 571.14 66.2474 555.243 66.2474C540.936 66.2474 530.868 77.9049 530.868 92.2119C530.868 105.989 540.936 118.176 555.243 118.176Z" fill="#D70F64"/>
<path d="M638.965 82.1441H652.742V78.4348C652.742 68.8969 646.384 64.6578 637.376 64.6578C629.957 64.6578 625.188 68.367 622.539 75.2555L607.702 72.0762C610.881 58.829 622.539 50.3508 637.905 50.3508C659.101 50.3508 669.699 60.9485 669.699 81.6142V130.894H655.922L654.332 120.296C649.033 128.244 640.555 131.954 629.427 131.954C615.12 131.954 605.052 123.475 605.052 107.579C604.522 92.2119 618.3 82.1441 638.965 82.1441V82.1441ZM631.547 118.176C636.846 118.176 642.145 116.587 645.854 112.878C650.093 109.168 652.212 104.399 652.212 98.0407V96.451H637.905C627.838 96.451 621.479 101.22 621.479 108.638C621.479 113.937 625.188 118.176 631.547 118.176V118.176Z" fill="#D70F64"/>
<path d="M684.536 52.4703H699.902L701.492 59.3588L702.552 60.4186L703.612 59.3588C706.791 54.0599 715.269 50.8806 722.158 50.8806C742.293 50.8806 753.951 64.1278 753.951 82.6739V131.424H736.995V82.6739C736.465 72.0761 731.166 65.7175 720.038 65.7175C709.97 65.7175 702.022 73.6658 701.492 83.7337V131.424H684.536V52.4703Z" fill="#D70F64"/>
<path d="M844.562 131.424H829.196L827.606 124.535L826.546 123.475L825.486 124.535C820.187 129.834 812.239 133.013 803.761 133.013C782.035 133.013 763.489 116.057 763.489 91.6821C763.489 67.3072 782.035 50.3508 803.761 50.3508C812.239 50.3508 820.717 53.5301 825.486 58.829L826.546 59.8888L827.606 58.829V14.8483H844.562V131.424ZM805.351 65.7175C789.454 65.7175 780.976 77.3751 780.976 91.6821C780.976 105.989 789.454 117.647 805.351 117.647C819.658 117.647 829.725 105.989 829.725 91.6821C829.725 77.905 819.658 65.7175 805.351 65.7175Z" fill="#D70F64"/>
<path d="M892.782 82.1441H906.559V78.4348C906.559 68.8969 900.2 64.6578 891.192 64.6578C883.774 64.6578 879.005 68.367 876.355 75.2555L861.518 72.0762C864.698 58.829 876.355 50.3508 891.722 50.3508C912.918 50.3508 923.515 60.9485 923.515 81.6142V130.894H909.738L908.149 120.296C902.85 128.244 894.371 131.954 883.244 131.954C868.937 131.954 858.869 123.475 858.869 107.579C858.339 92.2119 871.586 82.1441 892.782 82.1441V82.1441ZM885.363 118.176C890.662 118.176 895.961 116.587 899.67 112.878C903.909 109.168 906.029 104.399 906.029 98.0407V96.451H891.722C881.654 96.451 875.295 101.22 875.295 108.638C875.295 113.937 879.005 118.176 885.363 118.176V118.176Z" fill="#D70F64"/>
<path d="M72.5151 106.519C82.053 106.519 90.0014 99.6304 90.0014 91.1522H55.0288C55.0288 99.6304 62.4472 106.519 72.5151 106.519V106.519Z" fill="#D70F64"/>
<path d="M131.333 33.3943C135.572 30.215 137.691 24.9161 137.691 19.0873C137.691 8.48958 129.213 0.54126 118.615 0.54126C111.727 0.54126 105.898 3.72059 102.719 9.01947C93.1807 4.25048 82.5829 2.13093 71.9851 2.13093C60.8575 2.13093 50.2597 4.78037 41.2516 9.01947C38.0722 3.72059 32.2435 0.54126 25.3549 0.54126C14.7572 0.54126 6.27892 9.01947 6.27892 19.0873C6.27892 24.9161 8.92842 29.6851 12.6376 33.3943C4.68932 45.0519 0.450195 58.2991 0.450195 73.1359C0.450195 112.348 32.2435 144.671 71.9851 144.671C111.197 144.671 143.52 112.878 143.52 73.1359C143.52 58.2991 139.281 44.522 131.333 33.3943V33.3943ZM72.5149 138.842C36.4825 138.842 6.80884 109.168 6.80884 73.1359C6.80884 59.3589 11.048 46.6415 17.9365 36.0438C24.2952 26.5058 33.3033 18.5575 43.901 13.7885C52.3792 9.54936 62.4471 7.42981 72.5149 7.42981C82.5828 7.42981 92.6508 9.54936 101.129 13.7885C111.727 19.0873 120.205 26.5058 127.093 36.0438C133.982 46.6415 138.221 59.3589 138.221 73.1359C138.221 109.168 108.547 138.842 72.5149 138.842Z" fill="#D70F64"/>
<path d="M72.5149 86.9131C73.5747 87.4429 84.7024 83.2038 84.7024 77.905C84.7024 74.7256 75.6943 74.1957 72.5149 74.1957C69.3356 74.1957 60.3276 74.7256 60.3276 77.905C59.7977 83.2038 71.4552 87.4429 72.5149 86.9131Z" fill="#D70F64"/>
<path d="M113.846 42.4024C107.488 38.1633 93.7106 36.0438 88.4117 42.9323C88.4117 42.9323 81.5231 50.3507 88.4117 57.7692C95.3002 65.1876 100.069 72.6061 101.659 78.4348C103.249 84.7935 105.898 86.913 110.667 86.913C115.436 86.913 124.974 79.4946 126.564 67.3072C127.623 55.1197 120.205 46.1116 113.846 42.4024V42.4024ZM99.5394 57.7692C97.4198 57.7692 95.8302 56.1795 95.8302 54.06C95.8302 51.9404 97.4198 50.3507 99.5394 50.3507C101.659 50.3507 103.249 51.9404 103.249 54.06C103.249 56.1795 101.659 57.7692 99.5394 57.7692Z" fill="#D70F64"/>
<path d="M56.0885 42.9323C50.7896 36.0438 37.0125 38.1633 30.6538 42.4024C24.2952 46.6415 16.8768 55.1197 17.9365 67.3072C18.9963 79.4946 28.5343 86.913 33.8332 86.913C38.6022 86.913 41.2516 84.2636 42.8413 78.4348C44.4309 72.0762 49.7298 65.1876 56.0885 57.7692C62.977 49.8209 56.0885 42.9323 56.0885 42.9323V42.9323ZM46.0205 57.7692C43.901 57.7692 42.3113 56.1795 42.3113 54.06C42.3113 51.9404 43.901 50.3507 46.0205 50.3507C48.1401 50.3507 49.7298 51.9404 49.7298 54.06C49.7298 56.1795 48.1401 57.7692 46.0205 57.7692Z" fill="#D70F64"/>
</svg>
