<?xml version="1.0" encoding="UTF-8"?>
<!-- Generator: Adobe Illustrator 25.2.1, SVG Export Plug-In . SVG Version: 6.00 Build 0)  -->
<svg xmlns="http://www.w3.org/2000/svg" xmlns:xlink="http://www.w3.org/1999/xlink" version="1.1" id="Capa_1" x="0px" y="0px" viewBox="0 0 512 512" style="enable-background:new 0 0 512 512;" xml:space="preserve" width="512" height="512">
<g>
	<g>
		<g>
			<g>
				<g>
					<path style="fill-rule:evenodd;clip-rule:evenodd;fill:#FFBA67;" d="M464.82,171.11c5.064-0.137,13.939-0.272,19.437,1.784       c16.754,6.263,19.842,26.371,21.506,48.292c1.886,25.025,1.226,54.034,0.628,81.658c-0.305,14.145-0.699,28.898-4.579,37.822       c-5.559,12.794-16.392,20.042-33.288,22.851c-7.56,1.262-16.827,2.831-21.47-2.168c-1.823-1.966-5.269-12.133-2.343-18.157       c2.395-4.946,9.977-5.566,15.862-6.834c5.028-1.087,13.05-1.708,16.536-6.134c4.423-5.621,3.368-21.284,3.386-30.67       c0.025-11.832-0.912-21.116-0.664-32.466c0.21-9.596,0.566-21.835,0.383-33.473c-0.237-14.646-0.354-28.307-8.51-33.319       c-6.453-3.973-23.312-2.044-27.496-8.11c-2.589-3.751-2.135-13.453,0.371-17.073C448.346,169.684,457.06,171.311,464.82,171.11       z"/>
					<path style="fill-rule:evenodd;clip-rule:evenodd;fill:#F7F7FC;" d="M477.268,180.257c4.973-1.546,12.621,7.766,15.755,13.663       c3.529,6.641,5.507,15.611,5.314,23.006c-0.094,3.501-1.142,9.053-3.959,9.137c-3.082,0.093-3.657-4.09-4.273-7.608       c-1.583-9.003-3.466-20.321-7.971-26.476c-1.024-1.404-2.592-2.832-4.006-4.186C476.63,186.36,471.963,181.908,477.268,180.257       z"/>
					<path style="fill-rule:evenodd;clip-rule:evenodd;fill:#F7F7FC;" d="M495.521,236.337c6.152-1.564,4.731,17.221,4.264,24.348       c-0.431,6.531-0.924,11.969-4.021,12.21c-4.91,0.382-4.08-10.123-4.079-16.826c-0.003-2.916,0.346-6.834,0.549-9.557       C492.55,242.209,492.737,237.046,495.521,236.337z"/>
				</g>
				<g>
					<path style="fill-rule:evenodd;clip-rule:evenodd;fill:#FFBA67;" d="M307.921,59.116c29.077-0.759,63.156,2.6,86.575,9.043       c11.135,3.062,19.641,5.551,23.56,16.221c2.516,6.844,0.745,49.276,1.939,52.653c1.096,3.09,6.4,4.376,9.447,5.67       c8.456,3.602,17.647,7.793,21.505,16.176c2.982,6.461,3.219,15.773,3.543,26.042c0.843,26.503,0.449,61.571,0.514,87.122       c0.073,29.68,1.131,56.935,1.202,86.797c0.019,9.874,0.64,19.743-0.628,29.025c-1.612,11.725-7.943,16.903-15.532,23.238       c-14.007,11.695-28.527,22.562-43.091,33.573c-9.292,7.03-18.837,14.275-29.833,21.218c-4.597,2.908-10.33,6.513-16.256,9.219       c-5.923,2.697-13.687,5.217-20.265,5.028c-7.095-0.209-16.256-4.453-23.737-8.034c-28.566-13.649-54.402-28.719-79.973-45.792       c-6.184-4.125-13.116-7.466-19.559-11.693c-11.9-7.798-26.371-18.02-27.617-34.415c-0.721-9.507,0.663-19.669,0.985-29.7       c0.919-28.573,3.879-57.609,4.934-86.324c0.616-16.86,1.635-37.803,2.962-58.012c0.922-14.048,0.41-29.737,2.633-42.988       c1.801-10.71,6.186-17.248,14.488-21.889c2.75-1.543,6.712-2.584,11.015-4.204c2.9-1.089,8.563-2.82,9.678-5.257       c0.792-1.732,0.788-15.43,1.252-28.59c0.001-0.015,1.785-0.401,1.846-1.912c0.033-0.804-1.632-3.313-1.632-3.313       c0.432-9.029,1.18-16.956,2.689-19.387c5.729-9.236,21.295-14.511,34.581-16.335C279.114,60.375,292.413,59.52,307.921,59.116z       "/>
					<path style="fill-rule:evenodd;clip-rule:evenodd;fill:#D8773A;" d="M456.206,358.839c-0.072-29.862-1.13-57.116-1.202-86.797       c-0.065-25.551,0.329-60.619-0.514-87.122c-0.324-10.27-0.561-19.582-3.543-26.042c-0.172-0.374-0.367-0.73-0.56-1.088       c-5.827-0.585-12.042-0.581-17.165-0.318c-35.445,1.839-63.134,18.836-81.487,40.262c-2.715,3.161-6.987,7.394-7.733,10.079       c-0.62,2.157-0.432,5.445-0.526,8.529c-0.673,20.807-0.877,40.659-1.323,61.125c-0.522,24.081-0.085,47.288,0.204,69.692       c0.582,44.904,0.39,89.814,1.874,130.564c2.346-0.782,4.601-1.685,6.636-2.611c5.926-2.706,11.659-6.311,16.256-9.219       c10.996-6.943,20.541-14.189,29.833-21.218c14.564-11.01,29.084-21.878,43.091-33.573c7.589-6.335,13.921-11.513,15.532-23.237       C456.846,378.581,456.225,368.712,456.206,358.839z"/>
					<path style="fill-rule:evenodd;clip-rule:evenodd;fill:#D8773A;" d="M327.937,207.811c-0.416-1.623-2.629-3.689-4.316-5.903       c-4.638-6.089-10.249-11.594-15.371-16.045c-16.113-14.012-32.376-22.852-54.354-29.528       c-17.944-5.447-44.512-9.125-60.632-0.897c-0.879,2.313-1.553,4.874-2.036,7.743c-2.223,13.251-1.711,28.94-2.633,42.988       c-1.327,20.21-2.346,41.153-2.962,58.012c-1.055,28.715-4.015,57.751-4.934,86.324c-0.321,10.031-1.706,20.193-0.985,29.7       c1.246,16.395,15.717,26.617,27.617,34.415c6.443,4.228,13.375,7.568,19.559,11.693c25.571,17.073,51.407,32.142,79.973,45.792       c7.433,3.559,16.524,7.767,23.6,8.026c-0.356-85.477-2.922-176.019-2.374-263.435       C328.109,213.665,328.478,209.902,327.937,207.811z"/>
					<g>
						<path style="fill-rule:evenodd;clip-rule:evenodd;fill:#D8773A;" d="M421.982,140.028c0.18-0.089,0.365-0.179,0.549-0.27        c-1.19-0.731-2.14-1.61-2.536-2.727c-0.183-0.518-0.296-1.961-0.366-4.047c-0.913,0.333-1.799,0.665-2.645,0.936        c-28.529,9.126-64.002,16.191-103.492,15.218c-20.621-0.509-39.716-3.693-55.51-8.29        c-11.242-3.274-21.838-7.118-31.094-11.905c-0.149,1.492-0.306,2.506-0.48,2.887c-0.327,0.714-1.051,1.366-1.975,1.961        c3.078,1.784,6.217,3.305,8.328,4.334c22.721,11.082,54.513,17.913,88.08,18.531c22.506,0.417,44.104-1.811,62.975-5.182        C398.018,148.933,411.069,145.361,421.982,140.028z"/>
						<path style="fill-rule:evenodd;clip-rule:evenodd;fill:#D8773A;" d="M414.856,105.85c-0.676,3.751-5.918,5.154-10.381,6.592        c-4.341,1.396-9.385,2.472-14.084,3.516c-10.213,2.265-20.81,4.52-30.507,4.79c-4.468,0.126-14.489,0.162-14.289-3.032        c0.177-2.784,12.083-3.403,15.116-3.767c6.104-0.723,11.998-1.296,17.128-2.082c13.197-2.023,20.424-5.424,30.55-6.973        C409.895,104.663,414.21,104.146,414.856,105.85z"/>
						<path style="fill-rule:evenodd;clip-rule:evenodd;fill:#F7F7FC;" d="M239.02,102.117c-3.403-1.254-7.76-3.456-11.145-4.1        c-0.113,1.67-0.114,3.526-0.214,5.219c1.14,0.705,3.133,1.327,4.18,1.896c16.413,8.916,39.97,13.174,66.686,14.851        c7.49,0.47,15.55,0.934,22.271,0.301c1.747-0.168,4.755-0.236,5.357-2.058c-2.899-2.402-7.411-2.466-11.345-3.044        C288.679,111.354,258.968,109.458,239.02,102.117z"/>
						<path style="fill-rule:evenodd;clip-rule:evenodd;fill:#F7F7FC;" d="M408.641,124.742c-0.234,2.158-3.192,3.133-5.552,4.245        c-4.454,2.09-8.714,3.678-15.127,4.579c-2.649,0.369-6.365,1.324-8.181-0.994c0.904-2.235,4.192-2.204,6.55-2.857        C392.773,127.944,400.314,124.254,408.641,124.742z"/>
						<path style="fill-rule:evenodd;clip-rule:evenodd;fill:#F7F7FC;" d="M264.685,131.18c2.483-2.161,6.913-1.279,10.275-1.144        c10.9,0.446,21.986,2.105,33.083,2.623c14.529,0.677,30.321-1.087,44.436-1.494c3.35-0.097,20.879-0.806,21.457,2.915        c0.405,2.552-6.669,3.728-10.338,4.417c-21.382,3.978-51.338,1.877-73.76-1.322c-4.601-0.655-9.289-1.371-13.613-2.201        C272.053,134.174,267.19,133.87,264.685,131.18z"/>
					</g>
					<g>
						<g>
							<path style="fill-rule:evenodd;clip-rule:evenodd;fill:#F7F7FC;" d="M255.854,160.477c-3.395,1.775-7.574,0.255-11.262-0.583         c-3.588-0.815-7.296-1.843-10.873-2.625c-7.435-1.632-15.472-2.334-21.397-5.588c1.461-3.463,7.491-2.997,10.998-3.177         c8.471-0.437,23.453,3.147,29.22,7.121C254.119,156.71,255.928,158.542,255.854,160.477z"/>
							<path style="fill-rule:evenodd;clip-rule:evenodd;fill:#F7F7FC;" d="M429.128,157.044c-0.448,2.59-3.316,3.469-5.213,4.327         c-6.293,2.845-12.615,5.465-18.638,8.821c-19.417,10.83-37.968,23.379-54.782,37.424c-3.183,2.649-6.187,7.072-11.078,6.593         c-1.01-4.936,2.223-9.028,4.717-12.541c7.15-10.112,16.868-17.825,27.176-25.032c14.138-9.883,29.796-18.793,48.287-21.166         C421.734,155.196,427.224,154.498,429.128,157.044z"/>
							<path style="fill-rule:evenodd;clip-rule:evenodd;fill:#F7F7FC;" d="M335.214,218.901c-4.311,0.025-7.561-3.443-10.449-6.036         c-14.506-12.973-29.063-27.853-45.977-38.908c-5.061-3.311-10.505-6.414-15.488-10.244c-1.387-1.061-3.531-2.701-3.31-4.852         c0.557-0.545,2.239-0.8,4.108-0.596c7.967,0.868,16.029,6.496,22.663,10.739c7.349,4.7,13.185,9.007,19.165,14.077         c9.271,7.856,17.753,14.861,24.746,24.788C332.948,211.102,336.137,214.547,335.214,218.901z"/>
						</g>
						<g>
							<path style="fill-rule:evenodd;clip-rule:evenodd;fill:#FFBA67;" d="M444.739,381.613c-2.657-0.466-4.345,1.667-5.732,2.986         c-4.596,4.377-8.978,8.864-14.003,12.85c-16.184,12.843-33.817,24.403-52.399,34.009c-3.501,1.81-8.688,2.903-9.63,7.189         c4.528,2.467,9.455,1.078,13.602,0.127c11.949-2.735,22.295-8.409,32.322-14.759c13.733-8.7,26.965-19.005,34.624-33.837         C444.409,388.467,446.673,384.057,444.739,381.613z"/>
							<path style="fill-rule:evenodd;clip-rule:evenodd;fill:#FFBA67;" d="M308.267,440.879c-2.282-4.899-7.954-6.726-12.449-8.621         c-22.483-9.464-47.147-17.978-68.76-31.218c-6.469-3.963-12.9-8.473-19.912-12.065c-1.952-1-4.96-2.554-7.279-1.15         c-0.316,0.921,0.299,2.975,1.529,4.982c5.255,8.562,15.96,14.675,24.324,19.916c9.276,5.812,17.285,10.11,26.242,14.175         c13.876,6.29,26.369,12.144,41.368,14.745C298.214,442.492,303.836,444.254,308.267,440.879z"/>
							<g>
								<path style="fill-rule:evenodd;clip-rule:evenodd;fill:#FFBA67;" d="M201.362,252.416          c4.537,1.069,3.747,11.105,3.772,19.335c0.023,15.074-0.641,32.687-2.067,47.769c-0.76,8.164-1.415,17.839-5.572,17.853          c-4.12,0.012-3.968-9.355-4.199-15.934C192.816,307.802,194.24,250.743,201.362,252.416z"/>
								<path style="fill-rule:evenodd;clip-rule:evenodd;fill:#752C00;" d="M446.074,274.156c1.462,3.91,2.525,15.858-3.849,14.36          c-2.225-0.523-2.93-4.63-2.545-8.503C440.102,275.789,441.537,271.454,446.074,274.156z"/>
								<path style="fill-rule:evenodd;clip-rule:evenodd;fill:#752C00;" d="M310.55,238.178c8.695-1.888,5.27,21.121-0.803,21.166          c-6.431,0.045-4.526-15.769-1.974-19.514C308.255,239.115,309.52,238.404,310.55,238.178z"/>
								<path style="fill-rule:evenodd;clip-rule:evenodd;fill:#F7F7FC;" d="M440.759,321.102          c-2.784-1.721-2.388-7.422-2.811-12.018c-0.101-1.125-0.695-2.377-0.609-3.429c0.271-3.408,3.152-8.549,7.306-6.333          C447.921,301.072,449.473,323.571,440.759,321.102z"/>
								<path style="fill-rule:evenodd;clip-rule:evenodd;fill:#752C00;" d="M344.206,344.671c5.521-1.959,4.977,7.74,4.821,15.135          c-0.274,12.615-0.712,23.91-1.773,34.127c-0.582,5.619-0.84,12.021-4.618,11.514c-3.142-0.424-2.702-6.243-2.814-12.358          c-0.195-10.568-0.193-21.242,0.423-31.765c0.273-4.615,0.426-11.987,1.607-14.653          C342.246,345.776,343.537,344.912,344.206,344.671z"/>
								<path style="fill-rule:evenodd;clip-rule:evenodd;fill:#752C00;" d="M310.912,282.664          c-5.47,1.764-6.787-13.922-0.451-15.592C316.952,265.358,315.094,281.313,310.912,282.664z"/>
								<path style="fill-rule:evenodd;clip-rule:evenodd;fill:#F7F7FC;" d="M210.649,330.49c6.603-1.719,4.157,18.328,0.376,19.166          c-2.908,0.644-5.185-2.537-4.87-7.417C206.41,338.312,208.226,331.118,210.649,330.49z"/>
								<path style="fill-rule:evenodd;clip-rule:evenodd;fill:#752C00;" d="M199.054,348.392c2.67,3.417,1.787,23.44-4.663,20.63          C191.104,367.594,191.829,343.671,199.054,348.392z"/>
								<path style="fill-rule:evenodd;clip-rule:evenodd;fill:#F7F7FC;" d="M356.399,395.041c8.446-1.554,7.305,21.238,1.24,21.548          c-5.585,0.286-4.659-7.646-4.487-13.42C353.275,398.739,352.21,395.813,356.399,395.041z"/>
								<path style="fill-rule:evenodd;clip-rule:evenodd;fill:#752C00;" d="M342.973,415.383c4.15-0.868,4.154,7.137,3.798,14.429          c-0.332,7.104-0.617,13.271-4.368,12.201c-2.303-0.653-2.561-6.764-2.621-12.694          C339.711,422.543,339.216,416.17,342.973,415.383z"/>
								<path style="fill-rule:evenodd;clip-rule:evenodd;fill:#F7F7FC;" d="M326.341,228.329c1.208-0.798,4.169-0.197,5.124,2.564          c1.655,4.793,1.54,17.716,1.7,23.365c0.376,13.258,0.437,31.128-0.09,43.067c-0.287,6.353-0.497,19.701-5.306,15.555          c-3.803-3.277-3.15-32.841-3.191-40.872c-0.053-11.176-0.001-19.32-0.123-31.308          C324.378,234.012,324.082,229.834,326.341,228.329z"/>
							</g>
						</g>
					</g>
				</g>
			</g>
			<g>
				<path style="fill-rule:evenodd;clip-rule:evenodd;fill:#FFEFE6;" d="M306.728,0.332c-0.054-0.29,0.137-0.32,0.346-0.332      c18.89,1.999,37.993,7.933,50.91,15.789c13.764,8.372,24.964,20.094,26.844,38.155c12.985,1.792,26.475,7.946,30.697,18.081      c2.404,5.772,1.083,11.285-2.704,14.291c-8.954,7.114-24.458,11.02-37.182,13.547c-30.881,6.137-74.618,5.617-106.548-1.619      c-10.869-2.458-22.935-7.012-31.495-12.975c-3.49-2.432-6.752-5.717-7.032-6.641c-0.384-1.286-0.091-4.376,0.129-6.148      c1.57-12.173,14.946-25.224,28.928-26.362c3.383-0.276,6.434-0.038,9.546,0.886c2.241-1.542,4.549-4.088,7.638-5.641      c6.335-3.188,17.032-4.894,26.116-7.292c8.626-2.278,19.243-5.657,20.107-13.575C324.098,10.761,313.274,3.86,306.728,0.332z"/>
				<g>
					<g>
						<path style="fill-rule:evenodd;clip-rule:evenodd;fill:#FFBA67;" d="M341.249,15.427c-0.054-0.296,0.134-0.322,0.352-0.337        c9.945,3.573,19.506,8.794,25.59,16.949c1.758,2.353,5.278,7.855,2.874,9.627c-2.795,2.053-6.528-2.629-8.434-4.962        C355.456,29.181,349.589,20.912,341.249,15.427z"/>
						<path style="fill-rule:evenodd;clip-rule:evenodd;fill:#FFBA67;" d="M337.333,80.405c-0.471-1.729-4.214-2.302-6.436-2.875        c-7.497-1.934-14.877-2.639-23.121-4.941c-13.624-3.799-28.755-8.064-33.414-18.826c-1.103-2.54-2.105-5.959-2.956-8.52        c-0.765,0.644-1.503,1.253-2.229,1.755c-0.838,8.892,3.979,15.091,9.002,19.832c11.365,10.72,32.54,17.49,54.315,15.846        C333.965,82.565,337.877,82.398,337.333,80.405z"/>
						<path style="fill-rule:evenodd;clip-rule:evenodd;fill:#FFBA67;" d="M384.898,53.955c-0.023-0.003-0.047-0.008-0.07-0.011        c-0.16-1.541-0.412-3.02-0.704-4.471c-2.079,0.729-5.771,3.035-7.823,3.825c-13.151,5.074-30.625,3.823-44.411,0.07        c-7.496-2.041-17.622-8.803-21.061-5.581c-2.775,2.601,1.855,6.591,4.61,8.3c13.23,8.207,38.325,10.639,55.9,5.646        C375.928,60.43,382.674,58.235,384.898,53.955z"/>
					</g>
					<g>
						<path style="fill-rule:evenodd;clip-rule:evenodd;fill:#D8773A;" d="M250.66,58.61c-0.883-0.726-1.684-1.857-1.615-2.709        c0.262-3.313,9.335-7.186,11.497-3.776c1.786,2.808-0.446,4.693-3.808,5.927C254.219,58.969,252.291,59.957,250.66,58.61z"/>
						<g>
							<path style="fill-rule:evenodd;clip-rule:evenodd;fill:#FFBA67;" d="M389.71,62.388c0.362-1.083,1.132-2.23,1.955-2.471         c3.191-0.939,10.048,6.149,7.643,9.386c-1.986,2.666-4.542,1.262-6.904-1.438C390.645,65.849,389.035,64.399,389.71,62.388z"/>
							<path style="fill-rule:evenodd;clip-rule:evenodd;fill:#D8773A;" d="M387.537,76.919c0.778-0.27,1.688-0.376,2.414-0.003         c1.363,0.691,3.146,4.82,3.27,7.339c0.194,4.116-5.205,5.249-6.923,1.552C384.773,82.516,384.093,78.113,387.537,76.919z"/>
							<path style="fill-rule:evenodd;clip-rule:evenodd;fill:#D8773A;" d="M403.754,74.781c5.759-2.295,5.063,7.894,1.183,8.884         C399.382,85.075,400.266,76.168,403.754,74.781z"/>
						</g>
						<path style="fill-rule:evenodd;clip-rule:evenodd;fill:#FFBA67;" d="M240.314,63.022c5.764-2.295,5.074,7.899,1.191,8.884        C235.951,73.314,236.826,64.412,240.314,63.022z"/>
					</g>
				</g>
			</g>
		</g>
		<g>
			<path style="fill-rule:evenodd;clip-rule:evenodd;fill:#752C00;" d="M257.16,495.627c-4.342-5.94,3.998-11.544,8.175-12.535     c2.407-0.574,5.993-0.413,6.644,1.545C273.471,489.109,261.408,497.561,257.16,495.627z"/>
			<path style="fill-rule:evenodd;clip-rule:evenodd;fill:#752C00;" d="M128.853,504.887c0.704-7.32,10.666-5.96,14.434-3.927     c2.184,1.178,4.756,3.682,3.941,5.576C145.362,510.868,130.736,509.153,128.853,504.887z"/>
			<path style="fill-rule:evenodd;clip-rule:evenodd;fill:#752C00;" d="M93.049,482.439c-3.329,0.135-7.961-3.135-8.611-5.836     c-0.927-3.827,0.999-9.173,3.489-9.391C91.967,466.853,95.179,478.279,93.049,482.439z"/>
			<path style="fill-rule:evenodd;clip-rule:evenodd;fill:#752C00;" d="M238.803,509.458c-1.839,2.867-11.889,2.948-15.235,1.998     C222.8,503.067,238.329,503.916,238.803,509.458z"/>
			<g>
				<g>
					<path style="fill-rule:evenodd;clip-rule:evenodd;fill:#B25B1A;" d="M247.861,432.374       c10.119,4.048,15.115,10.147,16.021,18.862c0.649,6.259,0.52,11.941-4.389,17.179c-7.152,7.638-17.664,5.651-26.507,8.786       c-4.985,1.771-10.758,5.821-16.317,7.188c-7.287,1.784-14.988,1.505-24.137,0.291c-8.149-1.08-16.931-2.984-25.092-2.885       c-7.743,0.092-15.041,1.548-23.515,2.412c-7.596,0.774-18.669,0.714-25.039-4.633c-4.467-3.749-2.553-8.14-6.257-12.264       c-2.526-2.8-6.603-4.223-8.702-6.916c-3.737-4.788-4.709-14.428,1.771-23.03c2.549-3.394,9.817-7.535,14.614-8.988       c5.984-1.811,16.034-2.179,22.322-3.498c3.425-0.716,6.916-2.195,10.246-3.35c9.077-3.143,21.369-9.446,32.412-7.379       c4.819,0.898,10.234,3.612,15.911,5.919c10.328,4.204,21.114,7.178,30.861,8.663       C237.903,429.621,242.562,430.254,247.861,432.374z"/>
					<path style="fill-rule:evenodd;clip-rule:evenodd;fill:#752C00;" d="M263.882,459.211c0.399,5.188-1.382,12.317-6.636,16.405       c-2.508,1.961-6.47,3.206-9.774,4.94c-3.326,1.751-6.323,4.276-9.27,5.659c-3.795,1.78-8.516,2.462-13.051,3.613       c-4.344,1.1-8.522,2.581-12.893,4.144c-8.881,3.169-18.321,3.933-27.224,3.518c-14.277-0.662-29.541-5.403-44.384-6.635       c-7.926-0.659-18.599,1.027-26.701-7.307c-2.053-2.105-4.108-5.983-6.538-9.301c-6.023-8.237-7.679-12.892-6.409-22.536       c1.866,1.6,0.353,4.104,2.219,5.617c2.937,2.372,7.027,3.194,10.29,6.441c5.516,5.474,3.007,13.283,12.084,16.294       c5.698,1.893,16.097-0.956,24.014-1.695c7.895-0.738,15.958-1.545,23.985-0.824c15.044,1.357,35.255,6.77,49.24,2.593       c4.685-1.405,9.427-4.966,13.67-6.393C245.818,470.602,257.261,472.396,263.882,459.211z"/>
				</g>
				<g>
					<path style="fill-rule:evenodd;clip-rule:evenodd;fill:#752C00;" d="M217.818,423.143c3.345,1.477,8.416,4.085,5.498,8.742       c-2.356,3.774-7.995,1.39-11.912,0.675c-2.874-0.519-11.069-1.353-10.131-5.909c1.129-5.495,11.075-5.732,14.132-4.809       C215.82,421.969,217.622,423.055,217.818,423.143z"/>
					<path style="fill-rule:evenodd;clip-rule:evenodd;fill:#752C00;" d="M236.571,444.402c1.534-2.88,4.748-3.633,8.133-2.716       c2.856,0.771,7.861,4.162,5.551,6.992C248.023,451.418,239.933,446.197,236.571,444.402z"/>
					<path style="fill-rule:evenodd;clip-rule:evenodd;fill:#752C00;" d="M230.997,454.687c-1.238,3.033-5.111,2.046-7.415,2.215       c-2.349,0.174-5.656,1.47-7.487-0.933C217.807,449.702,228.242,448.396,230.997,454.687z"/>
					<path style="fill-rule:evenodd;clip-rule:evenodd;fill:#752C00;" d="M189.012,432.91c-3.919,3.001-8.477,3.838-13.725,2.365       C176.918,429.289,185.894,427.929,189.012,432.91z"/>
					<path style="fill-rule:evenodd;clip-rule:evenodd;fill:#752C00;" d="M138.393,429.578c1.668-9.322,12.473-13.076,20.072-10.044       c2.448,4.664-5.368,6.199-9.517,7.748C144.946,428.786,141.246,430.942,138.393,429.578z"/>
					<path style="fill-rule:evenodd;clip-rule:evenodd;fill:#752C00;" d="M203.532,466.069c-3.112,3.095-7.111,3.235-11.437,2.267       C192.111,463.328,201.434,461.022,203.532,466.069z"/>
					<path style="fill-rule:evenodd;clip-rule:evenodd;fill:#752C00;" d="M148.424,461.195c0.599-9.198,12.363-14.412,20.018-8.291       c1.442,1.15,2.601,3.109,1.958,4.605c-1.073,2.49-8.152,2.754-10.595,3.168C155.402,461.419,152.579,462.438,148.424,461.195z"/>
					<path style="fill-rule:evenodd;clip-rule:evenodd;fill:#752C00;" d="M130.759,444.548c-0.6,2.328-3.799,3.71-5.913,4.365       c-2.06,0.64-5.277,1.494-7.517-0.063C116.652,442.102,126.943,439.368,130.759,444.548z"/>
					<path style="fill-rule:evenodd;clip-rule:evenodd;fill:#752C00;" d="M134.437,466.526c-2.55,2.623-6.959,3.44-9.847,1.79       C125.287,463.821,132.939,462.191,134.437,466.526z"/>
				</g>
			</g>
			<g>
				<path style="fill-rule:evenodd;clip-rule:evenodd;fill:#B25B1A;" d="M203.152,386.606c4.361-0.413,13.038-0.619,17.592,0.73      c8.534,2.516,12.392,9.11,21.929,13.219c0.277,0.121,0.708,0.361,0.784,0.391c13.908,4.542,35.996,6.07,39.55,21.764      c2.203,9.734-3.596,17.422-11.664,20.75c-6.565,2.714-15.072,1.44-23.838,2.813c-7.233,1.137-12.709,4.342-19.131,5.531      c-14.463,2.674-26.597-2.87-41.823-1.827c-7.867,0.54-12.959,2.8-19.54,2.8c-11.791-0.001-18.43-4.771-28.562-8.51      c-6.074-2.246-12.907-3.139-16.815-5.42c-5.979-3.489-12.754-13.104-11.018-22.637c0.868-4.8,6.995-9.446,12.464-12.937      c7.444-4.742,12.108-8.248,19.119-10.221c8.587-2.419,19.584-2.146,30.484-2.831c5.458-0.346,10.59-0.745,15.63-1.222      C193.747,388.484,198.247,387.076,203.152,386.606z"/>
				<path style="fill-rule:evenodd;clip-rule:evenodd;fill:#752C00;" d="M110.372,418.164c1.276,4.715,3.923,10.172,8.105,12.875      c6.401,4.14,14.984,3.352,23.866,6.962c5.531,2.248,10.868,7.549,17.613,7.759c5.648,0.179,11.965-2.836,18.75-3.574      c20.737-2.257,43.557,5.019,62.155,3.717c5.508-0.389,10.611-2.814,16.013-4.744c5.832-2.082,11.696-2.93,15.623-4.74      c3.797-1.748,7.715-4.496,10.721-6.651c0.008,6.531-2.538,14.416-6.387,18.365c-1.91,1.957-5.374,2.993-8.973,4.719      c-2.947,1.412-5.944,3.071-8.978,4.326c-11.966,4.95-24.083,2.524-39.079,3.249c-4.763,0.232-9.5,1.342-14.459,1.609      c-7.904,0.42-16.302-1.45-24.638-2.27c-11.858-1.166-25.002,0.774-33.609-2.236c-6.155-2.155-9.526-6.175-14.893-9.727      c-2.353-1.566-4.87-3.342-7.824-4.667c-3.16-1.414-6.474-2.365-8.221-3.881C111.472,435.182,109.104,426.329,110.372,418.164z"/>
				<g>
					<path style="fill-rule:evenodd;clip-rule:evenodd;fill:#752C00;" d="M170.361,397.653c-0.908-7.257,6.75-13.885,14.414-14.115       c3.3-0.1,8.252,1.587,9.003,4.661c1.994,8.117-6.329,7.686-12.869,9.03C176.948,398.043,172.946,399.442,170.361,397.653z"/>
					<path style="fill-rule:evenodd;clip-rule:evenodd;fill:#752C00;" d="M259.116,407.152c-3.664,2.79-8.403,0.099-12.12-1.137       c-3.831-1.271-8.301-2.141-10.571-4.658C238.104,389.431,260.023,397.139,259.116,407.152z"/>
					<path style="fill-rule:evenodd;clip-rule:evenodd;fill:#752C00;" d="M133.621,398.158c-0.166,4.038-4.293,5.983-7.013,7.838       c-2.685,1.834-5.839,4.874-9.37,4.332c-0.697-3.76,1.453-7.991,4.27-10.18C124.45,397.869,129.85,395.725,133.621,398.158z"/>
					<path style="fill-rule:evenodd;clip-rule:evenodd;fill:#752C00;" d="M218.072,406.493c-1.869,3.038-8.134,0.825-10.946,0.036       C206.345,399.905,218.641,400.47,218.072,406.493z"/>
					<path style="fill-rule:evenodd;clip-rule:evenodd;fill:#752C00;" d="M143.056,417.283c-1.086-4.154,3.336-8.733,7.4-9.404       c3.002-0.496,6.644,0.171,7.049,2.712c0.553,3.51-3.117,4.333-5.848,5.491C148.93,417.23,145.624,419.228,143.056,417.283z"/>
					<path style="fill-rule:evenodd;clip-rule:evenodd;fill:#752C00;" d="M245.886,425.56c-2.325,2.643-7.574,2.274-11.724,1.992       c-5.241-0.361-11.028-1.529-13.3-3.865C221.65,410.949,244.647,416.68,245.886,425.56z"/>
					<path style="fill-rule:evenodd;clip-rule:evenodd;fill:#752C00;" d="M166.958,435.185c0.343-4.672,5.817-6.439,11.712-5.898       c2.171,0.198,7.959,1.67,7.432,4.666C185.392,438.035,169.313,436.44,166.958,435.185z"/>
				</g>
			</g>
			<g>
				<g>
					<path style="fill-rule:evenodd;clip-rule:evenodd;fill:#B25B1A;" d="M127.765,363.824c10.832-1.283,18.136,1.69,23.096,8.915       c3.56,5.187,6.161,10.242,4.349,17.187c-2.637,10.127-12.82,13.403-19.088,20.384c-3.539,3.94-6.674,10.257-10.895,14.105       c-5.557,5.05-12.454,8.486-21.074,11.793c-7.671,2.942-16.296,5.467-23.422,9.454c-6.754,3.776-12.471,8.542-19.504,13.352       c-6.302,4.308-16.054,9.546-24.21,7.891c-5.713-1.16-6.123-5.931-11.357-7.782c-3.548-1.259-7.818-0.557-10.944-1.921       c-5.578-2.421-11.03-10.428-9.444-21.077c0.61-4.2,5.03-11.308,8.547-14.88c4.379-4.449,13.037-9.573,17.936-13.735       c2.664-2.264,5.012-5.232,7.392-7.843c6.476-7.089,14.262-18.5,24.951-21.961c4.66-1.511,10.716-1.72,16.806-2.402       c11.081-1.239,21.976-3.781,31.243-7.132C117.718,366.158,122.108,364.493,127.765,363.824z"/>
					<path style="fill-rule:evenodd;clip-rule:evenodd;fill:#752C00;" d="M154.668,379.745c2.836,4.366,4.669,11.483,2.013,17.584       c-1.269,2.917-4.155,5.906-6.226,9.009c-2.092,3.127-3.522,6.775-5.439,9.395c-2.491,3.383-6.317,6.235-9.742,9.414       c-3.3,3.038-6.262,6.334-9.355,9.8c-6.285,7.03-14.211,12.207-22.23,16.095c-12.859,6.24-28.535,9.367-42.167,15.375       c-7.272,3.207-15.841,9.787-26.953,6.337c-2.795-0.867-6.455-3.294-10.174-5.049c-9.227-4.357-12.913-7.651-16.406-16.734       c2.408,0.514,2.27,3.435,4.633,3.872c3.716,0.684,7.696-0.547,12.123,0.742c7.453,2.177,8.988,10.232,18.398,8.546       c5.913-1.063,13.684-8.535,20.286-12.965c6.583-4.417,13.284-8.981,20.679-12.179c13.861-5.996,34.208-10.895,44.488-21.247       c3.456-3.473,5.913-8.861,8.959-12.146C144.247,398.381,155.157,394.491,154.668,379.745z"/>
				</g>
				<g>
					<path style="fill-rule:evenodd;clip-rule:evenodd;fill:#752C00;" d="M96.967,370.065c3.648-0.296,9.343-0.427,9.008,5.055       c-0.269,4.443-6.354,5.037-10.143,6.286c-2.769,0.911-10.376,4.099-11.725-0.354c-1.63-5.366,6.995-10.332,10.123-10.979       C94.652,369.99,96.753,370.083,96.967,370.065z"/>
					<path style="fill-rule:evenodd;clip-rule:evenodd;fill:#752C00;" d="M123.598,379.783c-0.019-3.266,2.441-5.459,5.853-6.27       c2.871-0.69,8.89-0.098,8.215,3.49C137.006,380.475,127.408,379.755,123.598,379.783z"/>
					<path style="fill-rule:evenodd;clip-rule:evenodd;fill:#752C00;" d="M123.616,391.482c0.366,3.257-3.517,4.239-5.456,5.488       c-1.982,1.272-4.265,3.993-7.026,2.756C109.653,393.402,118.195,387.269,123.616,391.482z"/>
					<path style="fill-rule:evenodd;clip-rule:evenodd;fill:#752C00;" d="M76.322,392.408c-2.003,4.505-5.601,7.422-10.914,8.634       C63.971,395.001,71.211,389.523,76.322,392.408z"/>
					<path style="fill-rule:evenodd;clip-rule:evenodd;fill:#752C00;" d="M30.27,413.661c-2.987-8.984,4.703-17.442,12.836-18.411       c4.375,2.931-1.763,8.012-4.646,11.349C35.644,409.836,33.427,413.494,30.27,413.661z"/>
					<path style="fill-rule:evenodd;clip-rule:evenodd;fill:#752C00;" d="M104.923,414.6c-1.251,4.206-4.692,6.236-8.966,7.454       C93.587,417.649,100.674,411.17,104.923,414.6z"/>
					<path style="fill-rule:evenodd;clip-rule:evenodd;fill:#752C00;" d="M54.185,436.648c-3.863-8.367,3.982-18.572,13.626-16.852       c1.813,0.326,3.769,1.495,3.918,3.116c0.256,2.698-5.843,6.308-7.79,7.844C60.426,433.509,58.425,435.752,54.185,436.648z"/>
					<path style="fill-rule:evenodd;clip-rule:evenodd;fill:#752C00;" d="M30.712,430.465c0.581,2.33-1.564,5.071-3.1,6.656       c-1.509,1.544-3.925,3.832-6.641,3.537C17.158,435.05,24.887,427.732,30.712,430.465z"/>
					<path style="fill-rule:evenodd;clip-rule:evenodd;fill:#752C00;" d="M44.449,448.011c-0.995,3.522-4.479,6.345-7.806,6.278       C35.12,450.006,41.054,444.921,44.449,448.011z"/>
				</g>
			</g>
		</g>
	</g>
</g>















</svg>
