<?xml version="1.0" encoding="UTF-8" standalone="no"?>
<!-- Created with Inkscape (http://www.inkscape.org/) -->

<svg
   xmlns:dc="http://purl.org/dc/elements/1.1/"
   xmlns:cc="http://creativecommons.org/ns#"
   xmlns:rdf="http://www.w3.org/1999/02/22-rdf-syntax-ns#"
   xmlns:svg="http://www.w3.org/2000/svg"
   xmlns="http://www.w3.org/2000/svg"
   xmlns:sodipodi="http://sodipodi.sourceforge.net/DTD/sodipodi-0.dtd"
   xmlns:inkscape="http://www.inkscape.org/namespaces/inkscape"
   width="211.23396"
   height="70.582138"
   viewBox="0 0 55.888987 18.674857"
   version="1.1"
   id="svg43"
   inkscape:version="0.92.0 r15299"
   sodipodi:docname="glovo.svg">
  <defs
     id="defs37" />
  <sodipodi:namedview
     id="base"
     pagecolor="#ffffff"
     bordercolor="#666666"
     borderopacity="1.0"
     inkscape:pageopacity="0.0"
     inkscape:pageshadow="2"
     inkscape:zoom="4.2870662"
     inkscape:cx="104.61698"
     inkscape:cy="34.29113"
     inkscape:document-units="mm"
     inkscape:current-layer="layer1"
     showgrid="false"
     fit-margin-top="0"
     fit-margin-left="0"
     fit-margin-right="0"
     fit-margin-bottom="0"
     units="px"
     inkscape:window-width="1280"
     inkscape:window-height="744"
     inkscape:window-x="-4"
     inkscape:window-y="-4"
     inkscape:window-maximized="1" />
  <metadata
     id="metadata40">
    <rdf:RDF>
      <cc:Work
         rdf:about="">
        <dc:format>image/svg+xml</dc:format>
        <dc:type
           rdf:resource="http://purl.org/dc/dcmitype/StillImage" />
        <dc:title></dc:title>
      </cc:Work>
    </rdf:RDF>
  </metadata>
  <g
     inkscape:label="Layer 1"
     inkscape:groupmode="layer"
     id="layer1"
     transform="translate(-100.832,-307.80873)">
    <g
       id="g66"
       transform="translate(0.26458302,-0.26457786)">
      <path
         id="path45"
         d="m 100.832,320.13804 v -0.0336 c 0,-3.44884 2.63736,-6.36773 6.35661,-6.36773 1.84838,0 3.07684,0.43921 4.2037,1.25095 a 1.0948458,1.0948458 0 0 1 0.43947,0.87895 1.0702396,1.0702396 0 0 1 -1.0705,1.07077 c -0.28178,0 -0.49583,-0.12409 -0.6649,-0.24792 -0.78899,-0.57494 -1.65682,-0.96916 -2.98662,-0.96916 -2.27674,0 -4.00103,1.99495 -4.00103,4.35027 v 0.0339 c 0,2.53577 1.66794,4.40664 4.19259,4.40664 1.16073,0 2.22012,-0.37201 2.97524,-0.93557 v -2.31034 h -2.43416 c -0.52997,0 -0.96944,-0.40561 -0.96944,-0.93557 0,-0.52969 0.43947,-0.94668 0.96917,-0.94668 h 3.43747 c 0.61992,0 1.09326,0.47361 1.09326,1.09326 v 3.29089 c 0,0.61992 -0.24792,1.05939 -0.75513,1.37504 -1.05939,0.71014 -2.53576,1.34144 -4.38414,1.34144 -3.86556,-0.0116 -6.40159,-2.76173 -6.40159,-6.34577 m 13.46808,-5.75866 a 1.0511896,1.0511896 0 0 1 1.05939,-1.05939 c 0.59743,0 1.07077,0.47334 1.07077,1.05939 v 10.90957 c 0,0.59716 -0.4736,1.05939 -1.07077,1.05939 a 1.0511896,1.0511896 0 0 1 -1.05939,-1.05939 z m 3.78672,7.29165 v -0.0336 c 0,-2.65985 2.10767,-4.85775 4.95908,-4.85775 2.85142,0 4.94771,2.16429 4.94771,4.82389 v 0.0339 c 0,2.6371 -2.10767,4.84611 -4.98157,4.84611 -2.82893,-0.0111 -4.92522,-2.17514 -4.92522,-4.81251 m 7.77663,0 v -0.0336 c 0,-1.63433 -1.18348,-2.99799 -2.85141,-2.99799 -1.71318,0 -2.79506,1.34117 -2.79506,2.95275 v 0.0339 c 0,1.62295 1.18348,2.9755 2.82892,2.9755 1.72429,0.0111 2.81755,-1.33006 2.81755,-2.93053 m 7.44961,4.76753 h -0.10134 c -0.58605,0 -0.96943,-0.372 -1.21708,-0.93556 l -3.09959,-7.08899 c -0.0564,-0.15769 -0.12383,-0.33813 -0.12383,-0.52969 0,-0.5297 0.47334,-1.02553 1.05939,-1.02553 0.58606,0 0.87895,0.33814 1.05939,0.77761 l 2.38919,6.1648 2.43443,-6.19866 c 0.15769,-0.37174 0.43948,-0.74375 1.00304,-0.74375 0.58605,0 1.0369,0.43948 1.0369,1.02553 0,0.19156 -0.0677,0.40587 -0.12409,0.5072 l -3.09933,7.11148 c -0.24791,0.55218 -0.63103,0.93556 -1.21708,0.93556 m 5.21811,-4.76753 v -0.0336 c 0,-2.65985 2.10767,-4.85775 4.95909,-4.85775 2.85115,0 4.9477,2.16429 4.9477,4.82389 v 0.0339 c 0,2.6371 -2.10767,4.84611 -4.98157,4.84611 -2.8403,-0.0111 -4.92522,-2.17514 -4.92522,-4.81251 m 7.77663,0 v -0.0336 c 0,-1.63433 -1.18348,-2.99799 -2.85141,-2.99799 -1.71318,0 -2.79506,1.34117 -2.79506,2.95275 v 0.0339 c 0,1.62295 1.18322,2.9755 2.84004,2.9755 1.71318,0.0111 2.80643,-1.33006 2.80643,-2.93053"
         inkscape:connector-curvature="0"
         style="fill:#00a082;fill-rule:nonzero;stroke-width:0.26458332" />
      <path
         id="path47"
         d="m 151.99897,308.33816 c -2.31008,0 -4.18094,1.87086 -4.18094,4.18121 0,0.87921 0.2704,1.72429 0.78872,2.43443 l 0.11271,0.15769 2.17514,3.0771 c 0,0 0.27067,0.43921 0.84534,0.43921 h 0.5297 c 0.57494,0 0.84534,-0.43921 0.84534,-0.43921 l 2.17488,-3.0771 0.11298,-0.15769 c 0.51858,-0.72126 0.78898,-1.55522 0.78898,-2.43417 -0.0114,-2.31087 -1.88224,-4.18174 -4.19285,-4.18174 m 1.72429,5.42105 -0.11271,0.15769 -1.60047,2.26536 -1.61131,-2.26536 -0.11298,-0.16907 c -0.25929,-0.37174 -0.4056,-0.78899 -0.4056,-1.23957 a 2.1164021,2.1164021 0 0 1 2.11878,-2.11878 2.1164021,2.1164021 0 0 1 2.11879,2.11878 2.1677312,2.1677312 0 0 1 -0.3945,1.25095 m -2.89639,6.75111 c 0,-0.63103 0.49609,-1.14962 1.16099,-1.14962 0.67627,0 1.16099,0.50721 1.16099,1.13824 v 0.0114 c 0,0.61992 -0.49609,1.13824 -1.1721,1.13824 -0.66517,-0.0111 -1.14962,-0.51859 -1.14962,-1.13824"
         inkscape:connector-curvature="0"
         style="fill:#ffcc1b;fill-rule:nonzero;stroke-width:0.26458332" />
    </g>
  </g>
</svg>
