<svg width="1000" height="193" viewBox="0 0 1000 193" fill="none" xmlns="http://www.w3.org/2000/svg">
<g clip-path="url(#clip0)">
<path d="M37.2046 142.355C42.7639 149.439 47.8236 156.902 52.347 164.689C56.2092 172.013 57.819 176.978 60.642 185.802C62.3727 190.677 63.9372 192.132 67.3006 192.132C70.9662 192.132 72.6289 189.657 73.9138 185.829C76.5818 177.496 78.6753 171.136 81.9782 165.127C88.4592 153.526 96.5122 143.217 104.425 133.308C106.568 130.504 120.418 114.167 126.654 101.277C126.654 101.277 134.317 87.1173 134.317 67.3418C134.317 48.8436 126.759 36.0139 126.759 36.0139L105 41.8411L91.7847 76.6457L88.5159 81.445L87.8621 82.3142L86.9929 83.4025L85.4662 85.1409L83.2857 87.3214L71.5179 96.9087L42.0984 113.895L37.2046 142.355Z" fill="#34A853"/>
<path d="M6.84033 98.8965C14.0204 115.297 27.8667 129.714 37.2348 142.366L86.993 83.4252C86.993 83.4252 79.9829 92.5931 67.2666 92.5931C53.1029 92.5931 41.66 81.2826 41.66 67.0206C41.66 57.2405 47.544 50.5215 47.544 50.5215L13.7672 59.5722L6.84033 98.8965Z" fill="#FBBC04"/>
<path d="M87.5485 2.99298C104.074 8.32137 118.219 19.5072 126.775 36.0026L87.0081 83.3912C87.0081 83.3912 92.892 76.5512 92.892 66.8316C92.892 52.2371 80.6027 41.3347 67.327 41.3347C54.7732 41.3347 47.5629 50.4875 47.5629 50.4875V20.6334L87.5485 2.99298Z" fill="#4285F4"/>
<path d="M15.9553 23.9324C25.826 12.123 43.1943 -0.0377808 67.1381 -0.0377808C78.7547 -0.0377808 87.5069 3.01187 87.5069 3.01187L47.525 50.5139H19.1976L15.9553 23.9324Z" fill="#1A73E8"/>
<path d="M6.84031 98.8965C6.84031 98.8965 0.234619 85.961 0.234619 67.2209C0.234619 49.5087 7.11996 34.0261 15.9553 23.9324L47.5477 50.5177L6.84031 98.8965Z" fill="#EA4335"/>
<path d="M686.607 155.827V54.8257H699.584L734.71 116.329H735.277L770.403 54.8257H783.38V155.827H770.403V95.8732L770.97 78.9433H770.403L738.81 134.381H731.196L699.603 78.9433H699.036L699.603 95.8732V155.823L686.607 155.827ZM821.321 157.943C813.99 157.943 807.849 155.827 802.917 151.595C797.986 147.362 795.51 141.769 795.51 134.808C795.51 127.25 798.42 121.385 804.255 117.104C810.09 112.822 817.277 110.687 825.795 110.687C833.414 110.687 839.664 112.096 844.558 114.919V112.943C844.558 107.864 842.82 103.798 839.343 100.744C835.866 97.6909 831.585 96.1604 826.502 96.1604C822.742 96.1604 819.337 97.0523 816.28 98.8058C813.223 100.559 811.133 103.038 810.007 106.137L798.156 101.062C799.754 96.9238 802.906 93.1259 807.603 89.5661C812.3 86.0063 818.509 84.2755 826.222 84.2755C835.065 84.2755 842.396 86.8641 848.227 92.0338C854.058 97.2035 856.972 104.497 856.972 113.903V155.695H844.562V146.096H843.995C838.818 154.032 831.248 157.943 821.321 157.943V157.943ZM823.437 146.096C828.796 146.096 833.659 144.093 838.035 140.103C842.412 136.112 844.596 131.411 844.596 125.931C840.93 122.92 835.428 121.416 828.093 121.416C821.79 121.416 817.039 122.776 813.846 125.508C810.653 128.24 809.047 131.434 809.047 135.099C809.047 138.485 810.505 141.165 813.419 143.141C816.333 145.117 819.673 146.104 823.433 146.104L823.437 146.096ZM905.6 157.943C900.336 157.943 895.609 156.81 891.429 154.557C887.249 152.305 884.117 149.478 882.057 146.092H881.49L882.057 155.683V186.154H869.08V86.5693H881.498V96.1604H882.065C884.132 92.7745 887.257 89.9553 891.437 87.6955C895.616 85.4356 900.347 84.3095 905.608 84.3095C914.541 84.3095 922.254 87.8353 928.743 94.8907C935.231 101.946 938.478 110.687 938.478 121.128C938.478 131.57 935.228 140.314 928.743 147.366C922.258 154.418 914.541 157.947 905.608 157.947L905.6 157.943ZM903.484 146.096C909.504 146.096 914.67 143.814 919.001 139.294C923.331 134.774 925.489 128.69 925.489 121.166C925.489 113.642 923.328 107.562 919.001 103.038C914.674 98.5148 909.5 96.236 903.484 96.236C897.373 96.236 892.173 98.4921 887.896 103.008C883.618 107.524 881.483 113.589 881.483 121.204C881.483 128.819 883.622 134.884 887.896 139.4C892.17 143.916 897.37 146.172 903.484 146.172V146.096ZM972.961 157.943C965.252 157.943 958.88 156.061 953.847 152.301C948.813 148.541 945.155 143.836 942.774 138.194L954.338 133.395C958.004 142.087 964.262 146.368 973.105 146.368C977.148 146.368 980.466 145.476 983.051 143.723C985.636 141.97 986.932 139.585 986.932 136.671C986.932 132.159 983.78 129.098 977.477 127.503L963.513 124.121C959.092 122.995 954.909 120.852 950.96 117.705C947.011 114.557 945.034 110.298 945.034 104.943C945.034 98.8322 947.736 93.8704 953.144 90.0536C958.552 86.2368 964.972 84.3397 972.398 84.3397C978.508 84.3397 983.962 85.7266 988.761 88.4966C993.464 91.1646 997.102 95.3749 999.059 100.416L987.771 105.071C985.239 98.9607 979.967 95.9035 971.975 95.9035C968.12 95.9035 964.87 96.7046 962.244 98.2994C959.617 99.8941 958.295 102.063 958.295 104.792C958.295 108.741 961.318 111.42 967.462 112.833L981.142 116.076C987.631 117.58 992.427 120.168 995.529 123.834C998.632 127.5 1000.18 131.641 1000.18 136.252C1000.18 142.457 997.645 147.589 992.566 151.768C987.487 155.948 980.953 157.974 972.916 157.974L972.961 157.943ZM302.041 95.6087H248.81V111.405H286.6C284.737 133.55 266.307 142.997 248.912 142.997C243.4 143.022 237.938 141.949 232.846 139.84C227.753 137.731 223.132 134.628 219.252 130.713C215.372 126.798 212.31 122.15 210.247 117.038C208.183 111.927 207.159 106.456 207.233 100.945C207.233 77.0349 225.743 58.6199 248.953 58.6199C266.866 58.6199 277.409 70.04 277.409 70.04L288.47 58.5896C288.47 58.5896 274.273 42.7934 248.387 42.7934C215.422 42.7934 189.914 70.6182 189.914 100.673C189.914 130.119 213.911 158.843 249.229 158.843C280.293 158.843 303.042 137.559 303.042 106.088C303.042 99.452 302.079 95.6125 302.079 95.6125L302.041 95.6087Z" fill="white"/>
<path d="M345.741 84.3738C323.898 84.3738 308.246 101.447 308.246 121.363C308.246 141.573 323.43 158.964 346.036 158.964C366.469 158.964 383.206 143.349 383.206 121.793C383.206 97.0901 363.733 84.3662 345.779 84.3662L345.741 84.3738ZM345.957 99.025C356.7 99.025 366.877 107.709 366.877 121.699C366.877 135.394 356.738 144.335 345.904 144.335C334 144.335 324.609 134.801 324.609 121.597C324.609 108.68 333.886 99.0287 345.953 99.0287L345.957 99.025Z" fill="white"/>
<path d="M426.899 84.3738C405.056 84.3738 389.404 101.447 389.404 121.363C389.404 141.573 404.588 158.964 427.194 158.964C447.627 158.964 464.364 143.349 464.364 121.793C464.364 97.0901 444.891 84.3662 426.937 84.3662L426.899 84.3738ZM427.114 99.025C437.858 99.025 448.035 107.709 448.035 121.699C448.035 135.394 437.896 144.335 427.062 144.335C415.158 144.335 405.767 134.801 405.767 121.597C405.767 108.68 415.044 99.0287 427.111 99.0287L427.114 99.025Z" fill="white"/>
<path d="M506.81 84.3738C486.762 84.3738 471 101.935 471 121.642C471 144.09 489.268 158.979 506.458 158.979C517.089 158.979 522.738 154.758 526.918 149.909V157.263C526.918 170.131 519.103 177.84 507.267 177.84C495.873 177.84 490.163 169.367 488.176 164.56L473.842 170.554C478.928 181.305 489.162 192.521 507.392 192.521C527.326 192.521 542.521 179.967 542.521 153.598V86.5958H526.884V92.9143C522.077 87.7371 515.501 84.3549 506.78 84.3549L506.81 84.3738ZM508.261 98.9985C518.094 98.9985 528.184 107.388 528.184 121.722C528.184 136.293 518.113 144.32 508.042 144.32C497.355 144.32 487.408 135.643 487.408 121.858C487.408 107.497 497.733 98.9947 508.261 98.9947V98.9985ZM612.312 84.3738C593.402 84.3738 577.519 99.4142 577.519 121.623C577.519 145.114 595.216 159.051 614.126 159.051C629.907 159.051 639.596 150.416 645.371 142.68L632.522 134.102C629.178 139.294 623.581 144.373 614.251 144.373C603.764 144.373 598.946 138.629 595.96 133.066L645.972 112.282L643.375 106.235C638.538 94.3239 627.269 84.3775 612.388 84.3775L612.312 84.3738ZM612.962 98.7188C619.779 98.7188 624.677 102.347 626.767 106.685L593.368 120.645C591.932 109.837 602.165 98.7188 612.966 98.7188H612.962ZM553.632 156.829H570.055V46.8596H553.632V156.829Z" fill="white"/>
</g>
<defs>
<clipPath id="clip0">
<rect width="1000" height="192.2" fill="white"/>
</clipPath>
</defs>
</svg>
