<svg xmlns="http://www.w3.org/2000/svg" xmlns:xlink="http://www.w3.org/1999/xlink" viewBox="0 0 109 33" fill="#fff" fill-rule="evenodd" stroke="#000" stroke-linecap="round" stroke-linejoin="round"><use xlink:href="#A" x=".5" y=".5"/><symbol id="A" overflow="visible"><g stroke="none" fill-rule="nonzero"><path d="M37.316 15.94v-.038c0-3.587 2.632-6.757 6.552-6.757 1.979 0 3.267.522 4.461 1.399a.75.75 0 0 1 .298.599c0 .41-.336.746-.727.746-.166 0-.32-.074-.468-.186-.929-.711-1.979-1.194-3.619-1.194-2.895 0-4.964 2.447-4.964 5.358v.038c0 3.119 1.998 5.435 5.172 5.435 1.492 0 2.876-.576 3.773-1.307v-3.254h-3.513c-.359-.005-.648-.295-.653-.653 0-.375.298-.672.653-.672h4.202c.391 0 .727.336.727.746v3.974c0 .352-.166.673-.503.897-1.194.878-2.802 1.588-4.74 1.588-4.109-.003-6.648-2.991-6.648-6.725z" fill="#12100b"/><g fill="#2b2422"><path d="M51.298 13.351c0-.384.311-.711.692-.711a.7.7 0 0 1 .711.711v1.771c.692-1.569 2.062-2.517 3.247-2.517.416 0 .692.311.692.711 0 .384-.256.656-.621.711-1.825.218-3.321 1.588-3.321 4.304v3.212c0 .384-.288.711-.692.711a.7.7 0 0 1-.711-.711v-8.192z"/><use xlink:href="#C"/><path d="M71.147 22.305h-.077c-.384 0-.641-.237-.801-.602l-3.539-7.99c-.032-.128-.09-.256-.09-.384 0-.365.311-.692.711-.692s.602.237.711.544l3.042 7.372 3.1-7.407c.09-.272.288-.512.657-.512a.69.69 0 0 1 .692.692.92.92 0 0 1-.074.346L71.925 21.7c-.16.365-.394.602-.778.602z"/><use xlink:href="#C" x="19.029"/><path d="M86.762 19.661V13.97h-.769a.64.64 0 0 1-.621-.621c0-.346.288-.621.621-.621h.769v-2.226c0-.384.288-.711.692-.711.384 0 .711.33.711.711v2.226h2.44c.346 0 .641.288.641.621a.63.63 0 0 1-.641.621h-2.443v5.508c0 1.153.641 1.569 1.588 1.569.493 0 .749-.128.858-.128.332.002.6.27.602.602 0 .256-.16.455-.4.544a3.62 3.62 0 0 1-1.387.256c-1.515-.003-2.664-.749-2.664-2.668zm5.444-.238v-.032c0-1.986 1.643-3.042 4.035-3.042.981-.009 1.959.125 2.901.4v-.33c0-1.697-1.041-2.572-2.808-2.572a5.87 5.87 0 0 0-2.443.529.82.82 0 0 1-.256.054c-.33 0-.621-.272-.621-.602 0-.288.202-.512.384-.583a7.46 7.46 0 0 1 3.084-.637c1.332 0 2.354.346 3.042 1.041.641.64.967 1.55.967 2.754v5.162c0 .4-.288.692-.673.692-.4 0-.672-.288-.672-.657v-.858c-.657.858-1.752 1.624-3.411 1.624-1.755 0-3.523-1.002-3.523-2.937zm6.949-.73v-.913a9.79 9.79 0 0 0-2.773-.4c-1.771 0-2.754.769-2.754 1.954v.032c0 1.185 1.095 1.88 2.37 1.88 1.729 0 3.154-1.057 3.154-2.555zm3.228-5.342c0-.384.311-.711.692-.711a.7.7 0 0 1 .711.711v1.771c.692-1.569 2.063-2.517 3.247-2.517.416 0 .692.311.692.711 0 .384-.256.656-.621.711-1.825.218-3.321 1.588-3.321 4.304v3.212c0 .384-.288.711-.692.711a.7.7 0 0 1-.711-.711v-8.192z"/></g><path d="M15.903 0a3.18 3.18 0 0 0-3.178 3.178v11.133a3.18 3.18 0 0 0 3.178 3.178 3.18 3.18 0 0 0 3.178-3.178V6.904c3.703 1.312 6.363 4.842 6.363 9a9.54 9.54 0 0 1-14.311 8.262 9.54 9.54 0 0 1-4.77-8.262A9.49 9.49 0 0 1 9.16 9.16c1.24-1.24 1.24-3.256 0-4.496s-3.256-1.24-4.496 0A15.8 15.8 0 0 0 0 15.904c0 8.784 7.12 15.904 15.904 15.904s15.904-7.12 15.904-15.904C31.802 7.12 24.682 0 15.904 0z" fill="#0671b4"/></g></symbol><defs ><path id="C" d="M57.155 19.423v-.032c0-1.986 1.643-3.042 4.035-3.042.981-.009 1.959.125 2.901.4v-.33c0-1.697-1.041-2.572-2.808-2.572a5.87 5.87 0 0 0-2.443.529.82.82 0 0 1-.256.054c-.33 0-.621-.272-.621-.602 0-.288.202-.512.384-.583a7.46 7.46 0 0 1 3.084-.637c1.332 0 2.354.346 3.042 1.041.641.64.967 1.55.967 2.754v5.162c0 .4-.288.692-.672.692-.4 0-.672-.288-.672-.657v-.858c-.657.858-1.752 1.624-3.411 1.624-1.755 0-3.523-1.002-3.523-2.937zm6.949-.73v-.913c-.692-.202-1.624-.4-2.773-.4-1.771 0-2.754.769-2.754 1.954v.032c0 1.185 1.095 1.88 2.37 1.88 1.729 0 3.154-1.057 3.154-2.555z"/></defs></svg>