<?xml version="1.0" encoding="UTF-8"?>
<!-- Generator: Adobe Illustrator 25.2.1, SVG Export Plug-In . SVG Version: 6.00 Build 0)  -->
<svg xmlns="http://www.w3.org/2000/svg" xmlns:xlink="http://www.w3.org/1999/xlink" version="1.1" id="Capa_1" x="0px" y="0px" viewBox="0 0 512 512" style="enable-background:new 0 0 512 512;" xml:space="preserve" width="512" height="512">
<g>
	<g>
		<g>
			<g>
				<g>
					<path style="fill-rule:evenodd;clip-rule:evenodd;fill:#752C00;" d="M243.917,189.944c21.437-1.27,45.574-0.177,66.586,1.251       c31.427,2.145,61.579,5.396,88.888,12.566c8.949,2.349,17.39,5.085,25.751,7.851c17.377,5.749,33.946,12.058,46.487,21.045       c12.547,8.995,22.599,21.721,29.838,38.006c7.158,16.094,9.486,35.159,10.367,57.168c0.824,20.612-1.549,42.422-4.401,62.5       c-2.094,14.775-5.015,28.707-10.05,40.83c-3.104,7.483-5.904,14.904-11.306,19.788c-5.563,5.034-13.489,8.922-21.359,12.877       c-7.797,3.925-16.126,7.282-24.183,10.053c-17.613,6.046-34.894,11.067-53.393,14.764       c-38.059,7.596-80.637,11.035-124.063,12.246c-21.01,0.585-45.131,0.789-66.275-0.94c-20.795-1.7-40.916-4.487-59.681-8.482       c-19.044-4.054-38.494-6.685-56.531-11.62c-17.745-4.857-34.542-11.019-47.427-20.731C14.258,444.866,8.528,414.582,4.27,385.3       c-2.816-19.324-5.383-40.884-3.77-63.131c0.779-10.772,1.552-21.166,3.77-30.147c4.505-18.282,13.717-32.168,24.495-43.663       c9.926-10.587,26.24-18.8,42.717-25.751c44.285-18.693,96.298-27.607,156.1-31.414c2.583-0.164,5.356-0.07,8.17-0.311       c2.709-0.228,5.246-1.187,7.534-0.94C243.487,189.963,243.718,189.955,243.917,189.944z"/>
					<g>
						<path style="fill-rule:evenodd;clip-rule:evenodd;fill:#F7F7FC;" d="M486.657,264.856c-0.966-0.314-2.196-0.373-2.806,0.081        c-2.365,1.788-0.937,10.469,2.661,10.466c2.967-0.003,3.313-2.583,2.639-5.706        C488.639,267.362,488.459,265.436,486.657,264.856z"/>
						<path style="fill-rule:evenodd;clip-rule:evenodd;fill:#F7F7FC;" d="M481.057,289.824c-0.628-0.371-1.404-0.631-2.11-0.44        c-1.308,0.36-3.611,3.638-4.178,5.821c-0.929,3.55,3.584,5.523,5.749,2.612C482.458,295.218,483.849,291.499,481.057,289.824z        "/>
						<path style="fill-rule:evenodd;clip-rule:evenodd;fill:#F7F7FC;" d="M471.96,264.676c-4.607-3.055-5.856,5.974-2.647,7.539        C473.904,274.46,474.755,266.529,471.96,264.676z"/>
						<path style="fill-rule:evenodd;clip-rule:evenodd;fill:#F7F7FC;" d="M463.387,245.809c-2.747,2.623,0.233,4.487,3.474,6.702        c2.975,2.027,5.461,3.971,7.303,1.646c0.438-0.553,0.943-1.624,0.803-2.543c-0.454-2.986-8.423-7.058-10.095-6.801        C464.365,244.894,463.712,245.501,463.387,245.809z"/>
					</g>
					<g>
						<path style="fill-rule:evenodd;clip-rule:evenodd;fill:#F7F7FC;" d="M473.587,436.615c-0.113-5.826,6.237-8.382,8.67-4.347        C485.366,437.428,475.864,444.514,473.587,436.615z"/>
						<path style="fill-rule:evenodd;clip-rule:evenodd;fill:#F7F7FC;" d="M462.096,429.922c-1.267-0.559-2.58-1.606-2.787-2.623        c-0.808-3.952,8.463-11.537,12.136-8.291c3.026,2.674,1.064,5.63-2.44,8.203C466.378,429.137,464.464,430.942,462.096,429.922        z"/>
						<path style="fill-rule:evenodd;clip-rule:evenodd;fill:#F7F7FC;" d="M479.768,412.824c-4.919-1.611-2.347-5.652,0.333-10.278        c2.47-4.231,4.387-8.076,8.012-6.302c0.865,0.416,2.11,1.439,2.484,2.65c1.2,3.936-6.219,13.623-8.428,14.292        C481.505,413.382,480.343,413.014,479.768,412.824z"/>
					</g>
					<g>
						<path style="fill-rule:evenodd;clip-rule:evenodd;fill:#D8773A;" d="M79.142,271.687c-1.463-5.646,4.124-9.607,7.424-6.242        C90.79,269.74,83.191,278.84,79.142,271.687z"/>
						<path style="fill-rule:evenodd;clip-rule:evenodd;fill:#D8773A;" d="M66.413,267.834c-1.367-0.242-2.884-0.961-3.321-1.901        c-1.702-3.657,5.558-13.189,9.886-10.88c3.56,1.901,2.338,5.228-0.475,8.543C70.395,266.081,68.956,268.285,66.413,267.834z"/>
						<path style="fill-rule:evenodd;clip-rule:evenodd;fill:#D8773A;" d="M79.634,247.104c-5.155-0.427-3.595-4.948-2.06-10.071        c1.418-4.688,2.393-8.871,6.326-7.988c0.943,0.204,2.398,0.907,3.039,2c2.078,3.547-2.889,14.695-4.881,15.855        C81.456,247.243,80.238,247.157,79.634,247.104z"/>
					</g>
					<g>
						<g>
							<path style="fill-rule:evenodd;clip-rule:evenodd;fill:#D8773A;" d="M141.785,245.995c3.695-0.534,7.421,0.814,7.787,4.175         c0.566,5.241-7.837,8.264-11.859,10.273c-5.963,2.98-10.428,5.201-14.456,7.708c-2.153,1.34-4.146,3.738-7.043,3.85         c-3.735,0.156-6.089-2.261-6.301-4.492c-0.489-5.225,9.76-10.117,13.714-12.525c5.013-3.05,10.89-7.214,17.415-8.989         C141.266,245.933,141.556,246.027,141.785,245.995z"/>
							<path style="fill-rule:evenodd;clip-rule:evenodd;fill:#D8773A;" d="M443.473,283.243c3.681-0.757,7.225,0.61,7.413,4.497         c0.164,3.415-9.126,11.825-12.973,12.842c-4.761,1.262-9.881-0.497-10.01-4.495c-0.099-3.214,3.909-4.575,7.045-6.745         C438.503,286.881,439.98,283.96,443.473,283.243z"/>
							<path style="fill-rule:evenodd;clip-rule:evenodd;fill:#D8773A;" d="M274.093,441.552         c-10.369,4.401-17.122,10.665-27.054,17.02c-2.47,1.581-7.391,4.696-10.372,4.494c-2.854-0.191-5.518-2.9-5.566-5.139         c-0.062-3.289,4.819-6.277,8.157-8.672c6.554-4.691,12.992-9.373,20.384-13.164c3.692-1.893,8.143-3.982,12.23-4.814         C282.121,429.194,286.401,441.689,274.093,441.552z"/>
						</g>
						<path style="fill-rule:evenodd;clip-rule:evenodd;fill:#D8773A;" d="M303.375,396.596        c-29.508,13.264-58.266,26.976-90.429,39.176c-4.629,1.756-9.386,3.458-16.311,5.456c-7.982,2.309-20.376,4.54-22.234-3.848        c-1.082-4.884,2.457-8.901,5.19-12.206c18.424-22.301,47.569-38.344,70.415-55.554        c-39.114,18.824-76.991,38.642-118.599,56.518c-6.068,2.607-12.928,5.434-21.125,8.35c-8.995,3.198-28.297,8.764-29.647-3.534        c-0.553-4.991,3.37-10.605,6.299-14.45c9.043-11.862,21.318-21.743,32.985-30.509c17.331-13.006,33.409-24.441,50.404-35.318        c-29.457,13.328-60.336,28.345-91.17,42.709c-4.758,2.215-10.407,4.61-15.568,6.745c-5.19,2.135-12.794,5.324-17.79,4.814        c-3.367-0.346-6.573-3.139-7.04-5.461c-1.434-7.059,7.542-13.234,11.859-17.342c15.224-14.48,33.092-26.559,51.145-38.529        c24.6-16.314,48.99-31.328,74.494-45.923c-42.972,14.875-84.573,32.066-128.609,47.204        c-4.051,1.396-13.932,6.151-19.638,5.458c-3.198-0.384-6.132-3.474-6.302-6.097c-0.424-6.393,11.588-12.719,17.049-16.376        c20.164-13.532,42.623-26.304,63.746-37.895c25.534-14.005,50.807-27.832,80.054-39.495c3.474-1.385,8.976-4.583,12.971-3.536        c1.657,0.44,4.022,1.914,4.076,4.822c0.062,3.246-2.972,4.422-7.04,6.098c-9.483,3.912-17.82,8.648-26.686,12.845        c-36.102,17.09-69.387,35.656-102.291,55.876c66.27-24.997,136.999-49.822,204.582-75.785        c15.984-6.138,32.456-13.865,49.293-20.551c4.417-1.751,13.47-5.861,18.158-5.139c2.626,0.406,5.536,2.545,5.563,5.781        c0.04,5.329-10.369,8.474-16.308,10.917c-7.12,2.94-13.301,5.303-19.64,7.708c-13.69,5.182-26.986,10.694-38.548,16.053        c-24.747,11.478-49.789,23.826-72.638,36.29c-23.595,12.866-46.305,26.32-68.198,40.137        c-22.014,13.895-42.975,28.689-62.264,44.959c63.974-28.952,128.171-60.134,193.831-89.913        c32.864-14.901,61.295-31.449,95.254-46.243c5.571-2.425,16.128-7.969,21.493-6.423c2.03,0.583,3.955,2.602,4.078,5.139        c0.293,5.985-10.748,9.284-16.673,12.2c-19.334,9.518-40.261,18.607-59.305,27.617        c-25.982,12.294-51.033,26.828-74.864,40.459c-24.409,13.967-47.76,29.024-70.416,44.315        c-11.25,7.585-22.435,15.683-32.987,24.084c-10.557,8.407-21.174,17.208-28.165,28.259        c29.263-9.019,54.885-22.301,81.166-34.362c12.888-5.912,25.687-12.52,38.54-18.945        c50.692-25.314,102.656-49.736,154.18-75.144c9.099-4.481,18.741-9.572,28.538-14.445c3.526-1.756,7.792-3.818,11.116-3.209        c2.333,0.419,4.736,2.46,4.825,5.456c0.14,5.075-7.719,7.319-12.974,9.953c-36.024,18.046-70.034,37.689-103.408,58.124        c-19.165,11.738-38.166,23.504-55.962,35.965c-17.965,12.571-35.798,25.33-50.404,40.782        c41.44-14.22,78.561-31.497,117.858-50.096c18.016-8.525,38.768-17.855,55.594-27.937        c12.319-7.378,25.824-15.251,40.024-22.478c3.633-1.845,10.877-6.248,15.199-5.778c2.669,0.285,5.732,2.454,5.928,5.456        c0.354,5.365-8.592,8.78-14.085,11.881c-16.821,9.507-35.242,17.825-50.775,27.617c-10.791,6.801-21.514,13.562-31.132,20.873        c-9.754,7.41-19.428,15.302-25.571,25.69c15.119,0.642,28.909-3.131,41.509-6.745c6.106-1.751,12.337-3.713,18.529-5.781        c5.805-1.933,11.889-3.842,17.417-6.42c5.305-2.476,10.208-5.588,15.573-8.35c10.906-5.625,19.544-9.658,32.984-14.772        c4.981-1.896,12.904-6.087,18.9-4.495c2.201,0.585,4.559,2.685,4.817,5.136c0.634,5.971-7.955,8.772-12.968,11.242        c-5.888,2.9-12.485,5.88-16.682,7.708c-12.222,5.321-24.269,8.898-35.578,13.806c-4.779,2.075-9.454,5.294-13.712,8.028        c-12.931,8.294-25.571,17.949-34.84,29.542c27.867-8.358,51.505-20.234,78.943-30.187c3.813-1.385,8.27-3.633,12.23-3.206        c3.399,0.357,6.097,3.139,6.302,5.775c0.349,4.546-5.574,8.901-9.266,11.559c-8.919,6.436-15.994,10.783-25.201,17.345        c-3.353,2.384-8.001,7.818-14.456,6.739c-2.215-0.368-4.693-2.636-4.819-4.814c-0.346-6.106,8.546-7.112,11.489-11.242        c-12.888,4.879-29.507,12.235-44.473,17.342c-6.218,2.118-15.621,5.136-21.496,2.572c-2.438-1.066-4.946-4.309-5.19-6.745        c-0.61-6.148,4.854-11.473,8.527-15.739c4.508-5.227,8.399-9.142,12.971-12.52c0.067-0.266,0.371-0.322,0.371-0.642        c-12.759,3.12-48.297,14.088-54.848-0.325c-1.6-3.512,0.022-9.043,1.847-12.2        C295.917,404.071,300.441,400.392,303.375,396.596z"/>
					</g>
				</g>
				<g>
					<g>
						<path style="fill-rule:evenodd;clip-rule:evenodd;fill:#F7F7FC;" d="M87.481,446.485c-0.301,1.6-1.874-0.628-2.344-0.964        c-2.446-1.732-4.489-3.866-7.657-5.34c-8.135-3.786-20.094-2.261-26.874-6.973c-3.791-2.639-6.602-7.859-7.609-12.319        c-1.477-6.514-0.883-11.747-4.75-17.119c-5.491-7.628-17.836-9.792-18.765-22.588c-0.612-8.498,6.146-16.002,5.512-23.52        c-0.647-7.639-8.001-13.46-6.957-21.901c0.416-3.332,1.974-6.752,3.319-8.662c3.971-5.676,10.385-7.824,12.131-13.924        c0.851-2.978,0.338-5.912,0.505-8.302c0.475-6.739,2.878-12.686,8.036-16.238c5.413-3.735,14.928-3.966,18.967-10.058        c0.258-0.094,0.309,0.086,0.354,0.271c9.585,25.357,24.079,46.592,28.358,79.625        C93.794,390.074,91.727,420.038,87.481,446.485z"/>
						<path style="fill-rule:evenodd;clip-rule:evenodd;fill:#FFDCC5;" d="M88.881,436.997c-3.699-4.075-8.867-7.503-13.363-9.549        c-5.805-2.639-15.726-3.232-18.816-8.329c-1.46-2.408-1.46-6.425-2.306-10.471c-2.035-9.776-8.243-16.206-13.573-21.678        c-2.021-2.078-4.677-4.301-5.289-6.6c-1.503-5.644,2.814-11.827,2.497-17.428c-0.239-4.164-2.134-8.189-3.756-11.865        c-1.396-3.179-4.612-7.743-4.339-11.473c0.185-2.398,3.566-5.007,5.781-6.763c2.465-1.96,5.375-3.934,6.788-6.267        c3.192-5.263,1.906-12.16,3.893-18.873c1.713-5.773,6.468-9.349,10.654-13.094c1.96-1.751,3.601-3.759,5.273-5.751        c0.659-0.785,1.368-1.606,2.055-2.465c-0.47-1.114-0.933-2.234-1.388-3.36c-5.628,8.116-15.866,11.869-19.923,20.981        c-2.956,6.645-1.284,14.904-4.973,20.282c-1.649,2.4-4.849,4.129-7.148,5.993c-2.551,2.073-4.86,4.073-5.689,7.386        c-1.78,7.053,4.438,14.134,6.017,22.025c1.775,8.895-3.635,13.044-2.363,20.895c0.682,4.204,4.583,7.851,7.41,10.758        c4.881,5.013,9.722,10.112,11.492,17.834c1.219,5.327,1.055,9.368,2.9,12.606c4.057,7.139,12.273,7.249,19.326,9.851        c4.175,1.541,8.823,3.896,12.305,6.96c2.047,1.804,3.779,3.951,5.397,6.186C88.143,442.221,88.526,439.627,88.881,436.997z"/>
						<path style="fill-rule:evenodd;clip-rule:evenodd;fill:#FFDCC5;" d="M72.18,303.792c-8.238,4.359-18.3,11.428-22.602,18.702        c-1.144,1.931-2.113,5.306-1.254,7.445c2.159,5.37,12.168,0.69,17.022-0.62c-5.273,6.669-14.456,13.382-12.904,25.107        c2.065,5.351,11.577,3.396,16.953,1.289c-2.097,2.371-4.073,4.497-6.315,7.47c-1.96,2.594-5.104,6.022-3.464,9.951        c2.169,5.201,12.525,1.442,18.671,2.333c-4.057,4.43-15.935,11.567-15.889,19.154c0.051,8.305,8.286,7.112,15.728,6.519        c-1.89,3.657-5.625,8.1-5.595,13.076c0.062,8.458,11.454,9.596,18.102,5.257c0.06-0.039,0.118-0.088,0.177-0.129        c1.602-19.175,1.641-39.652-1.104-60.873C86.876,336.618,79.574,319.928,72.18,303.792z"/>
					</g>
					<g>
						<path style="fill-rule:evenodd;clip-rule:evenodd;fill:#F7F7FC;" d="M147.463,431.79c-0.502,1.544-1.777-0.867-2.196-1.256        c-2.207-2.035-3.957-4.414-6.911-6.283c-7.583-4.801-19.64-4.82-25.754-10.367c-3.423-3.104-5.542-8.643-5.969-13.194        c-0.626-6.65,0.633-11.76-2.513-17.586c-4.465-8.27-16.432-12.002-15.704-24.812c0.481-8.506,8.146-15.079,8.482-22.618        c0.338-7.66-6.208-14.375-4.084-22.61c0.838-3.254,2.822-6.444,4.395-8.168c4.674-5.112,11.309-6.422,13.822-12.249        c1.224-2.841,1.098-5.826,1.571-8.168c1.337-6.626,4.481-12.214,10.05-15.076c5.848-3.004,15.312-2.014,20.102-7.537        c0.266-0.059,0.298,0.121,0.311,0.311c6.256,26.382,17.909,49.304,17.909,82.608        C160.974,376.649,155.072,406.103,147.463,431.79z"/>
						<path style="fill-rule:evenodd;clip-rule:evenodd;fill:#FFDCC5;" d="M138.044,411.376        c-5.418-3.367-15.181-5.227-17.589-10.686c-1.138-2.569-0.626-6.551-0.942-10.675c-0.77-9.956-6.097-17.13-10.681-23.241        c-1.74-2.32-4.081-4.863-4.401-7.228c-0.765-5.789,4.307-11.368,4.715-16.961c0.301-4.161-1.063-8.393-2.196-12.249        c-0.98-3.329-3.579-8.272-2.83-11.932c0.486-2.357,4.173-4.508,6.597-5.966c2.698-1.63,5.837-3.211,7.539-5.34        c3.834-4.814,3.447-11.814,6.28-18.22c2.438-5.51,7.615-8.444,12.249-11.621c2.167-1.485,4.051-3.268,5.969-5.024        c0.754-0.692,1.561-1.414,2.35-2.176c-0.324-1.166-0.639-2.337-0.947-3.513c-6.624,7.326-17.259,9.734-22.448,18.251        c-3.783,6.21-3.19,14.611-7.537,19.474c-1.941,2.164-5.338,3.472-7.854,5.021c-2.795,1.732-5.343,3.418-6.594,6.599        c-2.669,6.763,2.583,14.585,3.136,22.613c0.626,9.051-5.276,12.472-5.021,20.416c0.135,4.256,3.534,8.377,5.969,11.623        c4.197,5.598,8.342,11.274,9.105,19.157c0.526,5.442-0.153,9.429,1.259,12.877c3.109,7.601,11.239,8.766,17.906,12.252        c3.939,2.062,8.245,4.994,11.303,8.479c1.799,2.052,3.241,4.404,4.559,6.828c0.727-2.493,1.439-5.016,2.129-7.578        C146.926,418.043,142.238,413.979,138.044,411.376z"/>
						<path style="fill-rule:evenodd;clip-rule:evenodd;fill:#FFDCC5;" d="M150.609,288.31c-8.732,3.264-19.616,8.986-24.816,15.645        c-1.383,1.772-2.779,4.988-2.199,7.225c1.453,5.604,11.975,2.245,16.963,1.571c-6.087,5.934-16.059,11.411-16.021,23.244        c1.361,5.571,11.04,4.852,16.647,3.453c-2.39,2.083-4.615,3.936-7.223,6.597c-2.277,2.323-5.832,5.316-4.712,9.422        c1.482,5.442,12.235,3.039,18.215,4.715c-4.589,3.869-17.286,9.424-18.215,16.958c-1.015,8.237,7.308,8.108,14.762,8.479        c-2.341,3.383-6.621,7.314-7.225,12.251c-1.029,8.396,10.125,10.987,17.277,7.537c0.064-0.031,0.126-0.072,0.19-0.104        c4.053-18.813,6.721-39.117,6.721-60.514C160.974,322.753,155.873,305.264,150.609,288.31z"/>
					</g>
					<g>
						<path style="fill-rule:evenodd;clip-rule:evenodd;fill:#F7F7FC;" d="M198.985,433.817c-0.671,1.482-1.665-1.063-2.038-1.493        c-1.963-2.272-3.439-4.833-6.162-7.021c-6.992-5.625-18.972-7.002-24.422-13.205c-3.05-3.466-4.53-9.209-4.441-13.779        c0.126-6.683,1.952-11.618-0.518-17.755c-3.504-8.723-14.971-13.782-12.807-26.431c1.434-8.396,9.795-14.061,10.976-21.512        c1.2-7.574-4.551-14.987-1.514-22.929c1.203-3.141,3.536-6.084,5.292-7.62c5.222-4.556,11.956-5.107,15.111-10.614        c1.541-2.688,1.748-5.662,2.484-7.939c2.076-6.43,5.829-11.629,11.688-13.849c6.151-2.328,15.444-0.274,20.822-5.222        c0.274-0.029,0.279,0.153,0.279,0.346c3.238,26.914,12.233,51.006,8.479,84.095        C218.62,380.553,209.437,409.148,198.985,433.817z"/>
						<path style="fill-rule:evenodd;clip-rule:evenodd;fill:#FFDCC5;" d="M214.324,269.249c-7.407,6.538-18.247,7.73-24.367,15.61        c-4.457,5.743-4.811,14.158-9.682,18.502c-2.172,1.931-5.695,2.846-8.369,4.108c-2.975,1.399-5.692,2.787-7.295,5.81        c-3.415,6.417,0.924,14.783,0.572,22.822c-0.406,9.059-6.648,11.792-7.295,19.715c-0.344,4.25,2.567,8.726,4.621,12.222        c3.539,6.038,7.018,12.147,6.887,20.065c-0.089,5.467-1.214,9.352-0.196,12.939c2.229,7.899,10.181,9.975,16.405,14.19        c3.684,2.494,7.639,5.891,10.283,9.698c1.554,2.241,2.723,4.738,3.759,7.295c1.003-2.396,1.994-4.822,2.968-7.29        c-2.617-4.839-6.816-9.406-10.69-12.466c-5.007-3.949-14.493-6.9-16.273-12.592c-0.843-2.685,0.116-6.586,0.266-10.718        c0.359-9.98-4.127-17.707-7.988-24.299c-1.469-2.5-3.515-5.287-3.56-7.671c-0.11-5.837,5.558-10.81,6.594-16.322        c0.771-4.103-0.113-8.466-0.803-12.423c-0.601-3.415-2.628-8.619-1.466-12.174c0.746-2.287,4.653-4.011,7.228-5.19        c2.862-1.31,6.159-2.526,8.09-4.454c4.358-4.347,4.758-11.346,8.294-17.393c3.044-5.203,8.517-7.529,13.478-10.165        c2.32-1.23,4.398-2.792,6.503-4.323c0.827-0.603,1.71-1.229,2.58-1.898C214.679,271.652,214.497,270.453,214.324,269.249z"/>
						<path style="fill-rule:evenodd;clip-rule:evenodd;fill:#FFDCC5;" d="M191.856,304.352c-1.573,1.606-3.321,4.648-2.996,6.935        c0.811,5.73,11.647,3.576,16.673,3.472c-6.715,5.211-17.237,9.529-18.536,21.289c0.725,5.687,10.428,6.071,16.152,5.308        c-2.602,1.799-5.029,3.386-7.921,5.74c-2.521,2.049-6.393,4.626-5.743,8.828c0.865,5.574,11.816,4.401,17.571,6.739        c-4.997,3.326-18.239,7.418-20.011,14.797c-1.938,8.071,6.345,8.884,13.712,10.093c-2.709,3.101-7.4,6.516-8.557,11.355        c-1.971,8.227,8.82,12.061,16.314,9.438c0.066-0.023,0.133-0.057,0.199-0.081c6.146-18.237,11.087-38.109,13.499-59.374        c2.483-21.891-0.613-39.844-3.931-57.282C209.235,293.868,197.777,298.327,191.856,304.352z"/>
					</g>
					<g>
						<path style="fill-rule:evenodd;clip-rule:evenodd;fill:#F7F7FC;" d="M268.106,431.79c-0.502,1.544-1.78-0.867-2.199-1.256        c-2.204-2.035-3.955-4.414-6.911-6.283c-7.577-4.801-19.635-4.82-25.754-10.367c-3.426-3.104-5.536-8.643-5.963-13.194        c-0.631-6.65,0.628-11.76-2.518-17.586c-4.468-8.27-16.429-12.002-15.704-24.812c0.478-8.506,8.146-15.079,8.482-22.618        c0.341-7.66-6.208-14.375-4.084-22.61c0.838-3.254,2.822-6.444,4.395-8.168c4.674-5.112,11.309-6.422,13.822-12.249        c1.23-2.841,1.101-5.826,1.571-8.168c1.337-6.626,4.484-12.214,10.05-15.076c5.851-3.004,15.318-2.014,20.105-7.537        c0.269-0.059,0.293,0.121,0.311,0.311c6.253,26.382,17.906,49.304,17.906,82.608        C281.614,376.649,275.712,406.103,268.106,431.79z"/>
						<path style="fill-rule:evenodd;clip-rule:evenodd;fill:#FFDCC5;" d="M258.682,411.376        c-5.415-3.367-15.178-5.227-17.586-10.686c-1.138-2.569-0.625-6.551-0.942-10.675c-0.768-9.956-6.092-17.13-10.678-23.241        c-1.74-2.32-4.084-4.863-4.401-7.228c-0.765-5.789,4.312-11.368,4.712-16.961c0.301-4.161-1.066-8.393-2.196-12.249        c-0.98-3.329-3.582-8.272-2.83-11.932c0.486-2.357,4.173-4.508,6.597-5.966c2.704-1.63,5.837-3.211,7.539-5.34        c3.837-4.814,3.447-11.814,6.28-18.22c2.438-5.51,7.614-8.444,12.251-11.621c2.164-1.485,4.049-3.268,5.968-5.024        c0.753-0.692,1.56-1.414,2.35-2.176c-0.324-1.167-0.639-2.338-0.947-3.514c-6.623,7.328-17.259,9.735-22.445,18.253        c-3.789,6.21-3.19,14.611-7.542,19.474c-1.939,2.164-5.338,3.472-7.854,5.021c-2.798,1.732-5.343,3.418-6.591,6.599        c-2.669,6.763,2.588,14.585,3.139,22.613c0.623,9.051-5.279,12.472-5.026,20.416c0.134,4.256,3.536,8.377,5.969,11.623        c4.197,5.598,8.348,11.274,9.105,19.157c0.529,5.442-0.153,9.429,1.259,12.877c3.106,7.601,11.244,8.766,17.903,12.252        c3.944,2.062,8.251,4.994,11.304,8.479c1.801,2.053,3.244,4.406,4.564,6.832c0.727-2.494,1.439-5.017,2.129-7.58        C267.567,418.044,262.878,413.98,258.682,411.376z"/>
						<path style="fill-rule:evenodd;clip-rule:evenodd;fill:#FFDCC5;" d="M271.25,288.31c-8.729,3.264-19.616,8.987-24.817,15.645        c-1.383,1.772-2.776,4.988-2.199,7.225c1.45,5.604,11.978,2.245,16.963,1.571c-6.086,5.934-16.056,11.411-16.021,23.244        c1.361,5.571,11.04,4.852,16.649,3.453c-2.384,2.083-4.618,3.936-7.225,6.597c-2.274,2.323-5.832,5.316-4.709,9.422        c1.482,5.442,12.235,3.039,18.215,4.715c-4.591,3.869-17.288,9.424-18.215,16.958c-1.018,8.237,7.306,8.108,14.759,8.479        c-2.341,3.383-6.615,7.314-7.222,12.251c-1.028,8.396,10.122,10.987,17.275,7.537c0.064-0.031,0.127-0.072,0.19-0.104        c4.052-18.813,6.72-39.117,6.72-60.514C281.614,322.753,276.513,305.264,271.25,288.31z"/>
					</g>
					<g>
						<path style="fill-rule:evenodd;clip-rule:evenodd;fill:#F7F7FC;" d="M315.439,434.075c-0.5,1.547-1.783-0.867-2.196-1.256        c-2.204-2.033-3.957-4.411-6.911-6.286c-7.585-4.798-19.643-4.814-25.754-10.361c-3.426-3.104-5.542-8.643-5.969-13.197        c-0.626-6.648,0.631-11.757-2.516-17.584c-4.465-8.27-16.432-12.002-15.704-24.814c0.481-8.503,8.146-15.076,8.485-22.613        c0.341-7.66-6.21-14.381-4.087-22.615c0.84-3.257,2.822-6.444,4.401-8.168c4.667-5.115,11.304-6.42,13.817-12.249        c1.227-2.843,1.098-5.821,1.573-8.165c1.332-6.629,4.478-12.214,10.047-15.079c5.853-3.007,15.315-2.014,20.102-7.534        c0.268-0.062,0.298,0.121,0.317,0.309c6.253,26.385,17.898,49.304,17.898,82.602        C328.941,378.94,323.048,408.388,315.439,434.075z"/>
						<path style="fill-rule:evenodd;clip-rule:evenodd;fill:#FFDCC5;" d="M306.017,413.659        c-5.418-3.364-15.178-5.225-17.592-10.683c-1.139-2.57-0.623-6.554-0.943-10.673c-0.765-9.958-6.095-17.13-10.678-23.246        c-1.74-2.32-4.084-4.863-4.395-7.22c-0.768-5.789,4.307-11.368,4.709-16.963c0.3-4.162-1.066-8.396-2.199-12.249        c-0.98-3.329-3.579-8.272-2.827-11.937c0.486-2.352,4.173-4.508,6.597-5.969c2.698-1.622,5.835-3.208,7.537-5.338        c3.839-4.811,3.453-11.814,6.283-18.215c2.443-5.515,7.614-8.444,12.249-11.623c2.169-1.485,4.054-3.267,5.969-5.023        c0.755-0.693,1.563-1.416,2.354-2.179c-0.324-1.166-0.639-2.337-0.946-3.513c-6.621,7.328-17.258,9.735-22.449,18.251        c-3.786,6.213-3.184,14.611-7.539,19.474c-1.939,2.172-5.335,3.474-7.851,5.029c-2.8,1.724-5.343,3.41-6.599,6.594        c-2.669,6.766,2.591,14.585,3.144,22.613c0.623,9.048-5.281,12.469-5.024,20.414c0.135,4.261,3.528,8.377,5.963,11.626        c4.196,5.601,8.347,11.274,9.11,19.157c0.523,5.442-0.156,9.43,1.257,12.877c3.107,7.596,11.244,8.761,17.903,12.254        c3.942,2.062,8.248,4.991,11.309,8.476c1.799,2.052,3.241,4.403,4.559,6.828c0.727-2.494,1.439-5.016,2.129-7.578        C314.901,420.329,310.212,416.264,306.017,413.659z"/>
						<path style="fill-rule:evenodd;clip-rule:evenodd;fill:#FFDCC5;" d="M318.583,290.597        c-8.728,3.263-19.619,8.984-24.818,15.643c-1.38,1.77-2.776,4.989-2.199,7.225c1.45,5.606,11.978,2.245,16.964,1.571        c-6.087,5.939-16.059,11.414-16.021,23.244c1.359,5.569,11.043,4.855,16.647,3.45c-2.384,2.086-4.613,3.939-7.225,6.597        c-2.274,2.32-5.829,5.319-4.709,9.427c1.485,5.437,12.238,3.039,18.217,4.709c-4.591,3.872-17.288,9.427-18.217,16.958        c-1.015,8.243,7.308,8.114,14.762,8.484c-2.344,3.386-6.618,7.308-7.225,12.249c-1.026,8.396,10.125,10.987,17.275,7.539        c0.065-0.031,0.128-0.073,0.193-0.105c4.05-18.813,6.715-39.116,6.715-60.521C328.941,325.036,323.844,307.55,318.583,290.597        z"/>
					</g>
					<g>
						<path style="fill-rule:evenodd;clip-rule:evenodd;fill:#F7F7FC;" d="M391.699,431.79c-0.497,1.544-1.777-0.867-2.199-1.256        c-2.199-2.035-3.958-4.414-6.906-6.283c-7.585-4.801-19.643-4.82-25.756-10.367c-3.426-3.104-5.544-8.643-5.971-13.194        c-0.623-6.65,0.636-11.76-2.51-17.586c-4.465-8.27-16.426-12.002-15.701-24.812c0.483-8.506,8.141-15.079,8.479-22.618        c0.341-7.66-6.208-14.375-4.084-22.61c0.838-3.254,2.825-6.444,4.401-8.168c4.667-5.112,11.304-6.422,13.817-12.249        c1.23-2.841,1.095-5.826,1.571-8.168c1.334-6.626,4.481-12.214,10.052-15.076c5.851-3.004,15.312-2.014,20.102-7.537        c0.263-0.059,0.29,0.121,0.314,0.311c6.253,26.382,17.9,49.304,17.9,82.608C405.207,376.649,399.306,406.103,391.699,431.79z"/>
						<path style="fill-rule:evenodd;clip-rule:evenodd;fill:#FFDCC5;" d="M382.278,411.376        c-5.418-3.367-15.178-5.227-17.586-10.686c-1.138-2.569-0.626-6.551-0.943-10.675c-0.765-9.956-6.097-17.13-10.678-23.241        c-1.74-2.32-4.089-4.863-4.401-7.228c-0.765-5.789,4.309-11.368,4.715-16.961c0.301-4.161-1.066-8.393-2.199-12.249        c-0.98-3.329-3.582-8.272-2.83-11.932c0.486-2.357,4.175-4.508,6.6-5.966c2.696-1.63,5.834-3.211,7.534-5.34        c3.84-4.814,3.45-11.814,6.288-18.22c2.435-5.51,7.609-8.444,12.244-11.621c2.167-1.485,4.052-3.268,5.971-5.024        c0.754-0.693,1.562-1.415,2.352-2.178c-0.324-1.167-0.639-2.338-0.947-3.514c-6.623,7.329-17.259,9.736-22.449,18.255        c-3.789,6.21-3.19,14.611-7.539,19.474c-1.941,2.164-5.335,3.472-7.854,5.021c-2.798,1.732-5.34,3.418-6.597,6.599        c-2.666,6.763,2.591,14.585,3.144,22.613c0.62,9.051-5.281,12.472-5.029,20.416c0.137,4.256,3.536,8.377,5.971,11.623        c4.197,5.598,8.348,11.274,9.105,19.157c0.529,5.442-0.153,9.429,1.259,12.877c3.106,7.601,11.244,8.766,17.903,12.252        c3.944,2.062,8.251,4.994,11.306,8.479c1.799,2.052,3.241,4.404,4.559,6.828c0.727-2.494,1.44-5.018,2.129-7.581        C391.161,418.041,386.472,413.979,382.278,411.376z"/>
						<path style="fill-rule:evenodd;clip-rule:evenodd;fill:#FFDCC5;" d="M394.847,288.309        c-8.727,3.264-19.614,8.987-24.818,15.645c-1.383,1.772-2.776,4.988-2.199,7.225c1.447,5.604,11.978,2.245,16.961,1.571        c-6.084,5.934-16.056,11.411-16.013,23.244c1.353,5.571,11.041,4.852,16.641,3.453c-2.384,2.083-4.613,3.936-7.225,6.597        c-2.274,2.323-5.832,5.316-4.712,9.422c1.485,5.442,12.241,3.039,18.217,4.715c-4.591,3.869-17.286,9.424-18.217,16.958        c-1.009,8.237,7.309,8.108,14.767,8.479c-2.346,3.383-6.621,7.314-7.228,12.251c-1.028,8.396,10.128,10.987,17.275,7.537        c0.064-0.031,0.127-0.072,0.191-0.104c4.052-18.813,6.72-39.117,6.72-60.514C405.207,322.753,400.108,305.263,394.847,288.309        z"/>
					</g>
					<g>
						<path style="fill-rule:evenodd;clip-rule:evenodd;fill:#F7F7FC;" d="M440.981,433.82c-0.666,1.479-1.665-1.066-2.038-1.495        c-1.96-2.269-3.432-4.833-6.157-7.021c-6.992-5.625-18.969-7.005-24.422-13.207c-3.05-3.472-4.53-9.212-4.441-13.782        c0.131-6.677,1.957-11.615-0.51-17.761c-3.507-8.718-14.977-13.776-12.807-26.422c1.442-8.399,9.797-14.064,10.981-21.517        c1.203-7.572-4.548-14.985-1.503-22.927c1.2-3.139,3.528-6.087,5.289-7.62c5.217-4.554,11.953-5.101,15.111-10.611        c1.541-2.685,1.751-5.663,2.484-7.937c2.073-6.43,5.826-11.629,11.688-13.849c6.151-2.325,15.449-0.268,20.827-5.219        c0.268-0.024,0.282,0.153,0.277,0.346c3.235,26.916,12.222,51.008,8.466,84.098        C460.63,380.564,451.442,409.156,440.981,433.82z"/>
						<path style="fill-rule:evenodd;clip-rule:evenodd;fill:#FFDCC5;" d="M456.351,269.255        c-7.407,6.536-18.247,7.726-24.369,15.604c-4.462,5.743-4.817,14.158-9.687,18.497c-2.169,1.933-5.698,2.851-8.366,4.111        c-2.978,1.396-5.692,2.784-7.3,5.807c-3.415,6.417,0.926,14.783,0.569,22.827c-0.406,9.056-6.648,11.79-7.295,19.71        c-0.347,4.25,2.564,8.726,4.618,12.225c3.539,6.036,7.019,12.144,6.887,20.064c-0.091,5.467-1.216,9.352-0.204,12.939        c2.231,7.896,10.184,9.975,16.405,14.193c3.689,2.494,7.636,5.896,10.281,9.701c1.555,2.24,2.723,4.735,3.759,7.289        c1.003-2.395,1.995-4.82,2.97-7.286c-2.617-4.84-6.813-9.405-10.689-12.467c-5.005-3.949-14.493-6.906-16.271-12.592        c-0.841-2.688,0.118-6.586,0.271-10.718c0.357-9.98-4.13-17.707-7.99-24.302c-1.469-2.5-3.507-5.295-3.555-7.673        c-0.11-5.837,5.563-10.807,6.597-16.319c0.768-4.103-0.116-8.463-0.803-12.423c-0.596-3.415-2.62-8.619-1.461-12.176        c0.744-2.282,4.653-4.011,7.225-5.185c2.865-1.31,6.159-2.526,8.09-4.454c4.36-4.347,4.758-11.346,8.302-17.393        c3.042-5.201,8.517-7.529,13.478-10.163c2.325-1.232,4.395-2.79,6.498-4.32c0.828-0.603,1.713-1.23,2.585-1.899        C456.704,271.656,456.523,270.458,456.351,269.255z"/>
						<path style="fill-rule:evenodd;clip-rule:evenodd;fill:#FFDCC5;" d="M433.882,304.355c-1.573,1.603-3.324,4.645-3.004,6.932        c0.808,5.735,11.647,3.582,16.676,3.474c-6.715,5.211-17.243,9.529-18.537,21.286c0.717,5.687,10.418,6.073,16.147,5.311        c-2.607,1.799-5.032,3.389-7.918,5.738c-2.527,2.049-6.398,4.626-5.749,8.831c0.862,5.571,11.817,4.403,17.571,6.739        c-5,3.327-18.242,7.416-20.016,14.794c-1.936,8.071,6.347,8.884,13.712,10.093c-2.712,3.101-7.402,6.519-8.56,11.355        c-1.971,8.227,8.818,12.063,16.311,9.44c0.068-0.024,0.135-0.058,0.203-0.083c6.15-18.233,11.092-38.104,13.506-59.37        c2.485-21.892-0.608-39.846-3.922-57.285C451.261,293.87,439.793,298.327,433.882,304.355z"/>
					</g>
				</g>
			</g>
			<g>
				<g>
					<path style="fill:#00AF93;" d="M164.83,289.174L164.83,289.174c5.802,0.314,12.981-2.868,14.002-7.937       c0.094-0.457,0.059-0.929-0.113-1.375c-1.388-3.678-3.971-4.578-5.891-4.677c-2.04-0.113-4.175,0.612-6.237,1.308       c-2.314,0.784-4.784,1.56-6.291,0.999c-0.808-0.293-1.702-0.134-2.384,0.376c-0.51,0.392-0.84,0.966-0.95,1.589       c-0.631,0.508-0.999,1.305-0.929,2.164C156.423,286.008,159.782,288.9,164.83,289.174z"/>
					<path style="fill:#00AF93;" d="M114.095,309.287c-0.306,4.433-0.631,9.03,1.718,11.688c1.037,1.173,2.481,1.842,4.183,1.928       h0.006c1.632,0.094,3.541-0.336,5.853-1.313c0.687-0.285,1.208-0.87,1.423-1.584c0.212-0.717,0.094-1.49-0.325-2.102       c-1.563-2.325-1.581-7.201-1.6-11.919c-0.035-8.256-0.081-18.523-9.685-19.044c-0.768-0.04-1.584-0.013-2.433,0.089       c-1.127,0.132-1.997,1.028-2.175,2.113c-0.548,0.437-0.908,1.103-0.934,1.842c-0.107,2.728,0.975,4.747,2.016,6.702       c1.044,1.949,2.024,3.791,2.14,6.68C114.336,305.81,114.218,307.491,114.095,309.287z"/>
					<path style="fill:#00AF93;" d="M181.385,300.059c-4.111-0.22-7.92,4.161-9.566,8.603c-1.619,4.411-0.916,8.323,1.893,10.471       c0.4,0.306,0.878,0.483,1.388,0.51c0,0,0.065,0.005,0.105,0.008c5.496,0.059,7.266-4.371,8.436-7.306       c0.674-1.694,1.313-3.286,2.309-3.85c1.026-0.577,1.517-1.788,1.163-2.908C185.686,300.966,182.913,300.142,181.385,300.059z"/>
					<path style="fill:#00AF93;" d="M233.449,324.411c0.459-0.475,0.701-1.082,0.685-1.745c0.032-0.094,0.091-0.166,0.14-0.247       c0.333-0.529,0.934-1.501,0.856-3.034c0.019-4.309-3.823-5.41-5.902-5.998c-0.669-0.196-1.305-0.376-1.694-0.553       c-0.752-0.381-1.665-2.094-2.387-3.466c-1.423-2.672-3.2-6.001-6.766-6.197c-1.667-0.094-3.383,0.558-5.233,1.979       c-0.741,0.572-1.104,1.501-0.937,2.422c1.313,7.193,4.551,16.834,17.441,17.533l0,0c0.66,0.035,1.335,0.046,2.049,0.032       C232.361,325.125,232.984,324.892,233.449,324.411z"/>
					<path style="fill:#00AF93;" d="M164.894,345.158c0.448-0.376,0.752-0.9,0.859-1.485c0.516-2.937,0.148-5.136-1.106-6.71       c-0.685-0.854-1.949-1.882-4.164-2.113c-3.053-7.859-6.855-11.964-11.317-12.203c-1.614-0.086-3.238,0.344-4.841,1.283       c-0.594,0.341-1.034,0.937-1.184,1.622c-1.256,5.8,2.137,8.221,4.621,9.647c0.779,3.952,2.889,6.667,4.768,9.091l0.647,0.843       c0.489,0.639,1.235,0.988,2.057,0.983c0.789-0.029,1.67,0.065,2.551,0.148c0.618,0.051,1.216,0.11,1.796,0.142       C161.355,346.503,163.372,346.43,164.894,345.158z"/>
					<path style="fill:#00AF93;" d="M99.048,327.638c-3.56-0.193-7.754,2.116-9.983,5.499c-1.74,2.655-2.024,5.604-0.776,8.106       c0.362,0.722,1.077,1.211,1.874,1.342c0.177,0.223,0.392,0.408,0.636,0.564c0.354,0.22,0.768,0.344,1.173,0.362       c0.239,0.013,0.489-0.005,0.725-0.075c5.131-1.262,8.46-4.559,11.406-7.467l0.693-0.679c0.669-0.663,0.91-1.654,0.62-2.559       C104.405,329.655,102.085,327.8,99.048,327.638z"/>
					<path style="fill:#00AF93;" d="M231.623,357.468c-0.046,0.833,0.322,1.584,0.926,2.076c-0.709,2.226,0.473,4.868-0.099,8.514       c-0.867,2.476-3.866,6.511-2.374,9.045c-0.277,0.373-0.456,0.833-0.483,1.335c-0.078,1.38,0.975,2.551,2.36,2.626       c5.722,0.309,9.677-7.241,10.066-14.416c0.156-2.878-0.304-5.426-1.329-7.375c-1.34-2.532-3.633-4.006-6.447-4.156       C232.866,355.041,231.695,356.096,231.623,357.468z"/>
					<path style="fill:#00AF93;" d="M83.838,370.394c0.008-3.345,0.037-6.793-2.272-9.717c-0.446-0.561-1.109-0.905-1.818-0.94       c-0.016,0-0.027-0.005-0.027-0.005c-4.685-0.199-7.889,3.472-8.17,9.322c-0.277,5.802,2.414,12.23,7.249,12.49       c1.657,0.094,3.289-0.55,4.849-1.917c0.722-0.623,1.015-1.608,0.762-2.535C83.809,374.845,83.817,372.579,83.838,370.394z"/>
					<path style="fill:#00AF93;" d="M128.698,383.668c-3.853-2.881-7.188-5.381-7.488-10.568c-0.075-1.265-1.208-2.274-2.476-2.349       c-0.349-0.016-0.703-0.043-1.058-0.075c-0.389-0.029-0.789-0.056-1.171-0.075c-1.785-0.094-3.805-0.008-5.219,1.356       c-0.376,0.36-0.623,0.827-0.72,1.329c-0.881,4.64,0.779,10.192,4.433,14.85c3.526,4.487,8.16,7.306,12.423,7.534       c2.854,0.156,5.44-0.83,7.478-2.846c0.881-0.878,0.991-2.28,0.236-3.276C133.319,387.132,130.972,385.373,128.698,383.668z"/>
					<path style="fill:#00AF93;" d="M168.583,388.38c0.134-2.4-0.325-4.54-1.3-6.192c-1.238-2.094-3.302-3.321-5.807-3.458       c-1.372-0.075-2.548,0.991-2.618,2.363c-0.059,1.106,0.604,2.065,1.581,2.446c-1.587,4.119-4.17,9.242-3.257,12.904       c-0.443,0.424-0.733,0.993-0.768,1.659c-0.075,1.375,0.983,2.548,2.352,2.626C164.22,401.021,168.25,394.582,168.583,388.38z"/>
					<path style="fill:#00AF93;" d="M200.145,392.813c-0.279-0.722-0.881-1.27-1.63-1.482c-0.62-0.177-1.195-0.279-1.761-0.309       c-2.065-0.11-3.345,0.776-4.199,1.364c-0.263,0.18-0.483,0.338-0.666,0.419c-1.128,0.486-1.724,1.729-1.42,2.916       c0.499,1.901,0.752,4.07,1.018,6.363c0.77,6.634,1.724,14.907,10.45,16.249c0.081,0.005,0.161,0.013,0.241,0.019       c0.964,0.051,1.885-0.465,2.341-1.327c3.222-6.111-0.532-15.068-3.281-21.6C200.84,394.488,200.475,393.613,200.145,392.813z"/>
					<path style="fill:#00AF93;" d="M236.649,419.343c0.011-3.743,0.027-9.988-6.344-10.334c-0.671-0.035-1.423,0-2.207,0.118       c-0.754,0.107-1.412,0.564-1.802,1.214c-2.105,3.638-2.285,11.902,0.438,15.06c0.446,0.516,1.23,0.832,1.912,0.867       c0.333,0.011,0.663,0.048,1.01,0.07c0.368,0.027,0.725,0.054,1.085,0.075c1.904,0.102,3.872,0.011,5.305-1.35       c0.585-0.553,0.873-1.375,0.746-2.18C236.641,421.875,236.641,420.645,236.649,419.343z"/>
					<path style="fill:#00AF93;" d="M168.078,412.73c-4.127-0.223-6.025,4.747-7.867,9.553c-0.671,1.77-1.375,3.603-1.981,4.516       c-0.685,1.05-0.502,2.441,0.451,3.262c0.325,0.293,0.599,0.969,0.768,1.453c0.325,0.934,1.173,1.587,2.159,1.659l0.33,0.021       c8.839,0.478,10.455-7.421,11.642-13.189l0.25-1.249c0.137-0.634,0.021-1.297-0.325-1.845       C171.8,414.206,170.028,412.837,168.078,412.73z"/>
				</g>
				<g>
					<path style="fill:#00AF93;" d="M350.791,275.908L350.791,275.908c-5.808-0.319-12.603-4.25-13.07-9.403       c-0.046-0.462,0.046-0.932,0.26-1.348c1.775-3.515,4.441-4.127,6.358-4.022c2.043,0.11,4.086,1.058,6.06,1.976       c2.215,1.031,4.588,2.065,6.151,1.665c0.835-0.194,1.708,0.051,2.33,0.636c0.465,0.446,0.73,1.052,0.768,1.681       c0.575,0.575,0.857,1.407,0.69,2.253C359.485,273.666,355.836,276.179,350.791,275.908z"/>
					<path style="fill:#00AF93;" d="M399.059,301.372c-0.177,4.441-0.352,9.048-2.975,11.435c-1.154,1.058-2.664,1.56-4.36,1.471       h-0.005c-1.638-0.089-3.493-0.72-5.681-1.941c-0.65-0.357-1.106-0.996-1.248-1.729c-0.129-0.733,0.073-1.496,0.553-2.059       c1.81-2.143,2.355-6.984,2.878-11.672c0.921-8.208,2.081-18.408,11.677-17.89c0.773,0.04,1.581,0.156,2.411,0.346       c1.112,0.255,1.882,1.243,1.938,2.341c0.5,0.489,0.781,1.195,0.73,1.933c-0.193,2.722-1.485,4.613-2.725,6.446       c-1.254,1.82-2.425,3.552-2.857,6.406C399.187,297.889,399.128,299.578,399.059,301.372z"/>
					<path style="fill:#00AF93;" d="M333.151,284.942c4.113,0.223,7.429,4.991,8.584,9.583c1.139,4.564,0.013,8.374-3.01,10.208       c-0.43,0.26-0.926,0.387-1.431,0.357c0,0-0.07-0.005-0.105-0.005c-5.475-0.534-6.761-5.128-7.604-8.168       c-0.489-1.761-0.956-3.413-1.879-4.081c-0.953-0.682-1.316-1.939-0.846-3.018C328.78,285.383,331.624,284.859,333.151,284.942z       "/>
					<path style="fill:#00AF93;" d="M278.77,303.536c-0.411-0.523-0.58-1.146-0.497-1.81c-0.024-0.094-0.075-0.175-0.113-0.258       c-0.274-0.561-0.765-1.595-0.526-3.109c0.451-4.282,4.392-4.965,6.514-5.324c0.69-0.123,1.337-0.234,1.751-0.365       c0.784-0.304,1.879-1.906,2.739-3.195c1.708-2.503,3.834-5.62,7.4-5.426c1.67,0.089,3.3,0.918,4.983,2.532       c0.679,0.644,0.94,1.611,0.677,2.505c-2.086,7.011-6.339,16.247-19.229,15.549l0,0c-0.661-0.037-1.337-0.097-2.043-0.188       C279.769,304.365,279.173,304.065,278.77,303.536z"/>
					<path style="fill:#00AF93;" d="M344.686,331.559c-0.411-0.424-0.653-0.98-0.696-1.568c-0.193-2.98,0.406-5.123,1.82-6.557       c0.768-0.771,2.14-1.662,4.371-1.651c3.882-7.48,8.108-11.148,12.565-10.909c1.614,0.086,3.19,0.69,4.672,1.793       c0.558,0.411,0.932,1.047,1.004,1.743c0.626,5.899-3.013,7.95-5.633,9.097c-1.203,3.84-3.59,6.312-5.724,8.522l-0.73,0.765       c-0.559,0.583-1.337,0.851-2.153,0.757c-0.776-0.115-1.662-0.115-2.556-0.126c-0.61-0.013-1.216-0.019-1.794-0.051       C348.055,333.274,346.058,332.99,344.686,331.559z"/>
					<path style="fill:#00AF93;" d="M412.04,321.24c3.552,0.191,7.475,2.943,9.325,6.546c1.445,2.827,1.407,5.783-0.102,8.138       c-0.435,0.679-1.203,1.095-2.011,1.136c-0.196,0.196-0.432,0.368-0.69,0.491c-0.381,0.177-0.8,0.255-1.2,0.231       c-0.25-0.008-0.491-0.059-0.72-0.148c-4.959-1.812-7.918-5.448-10.528-8.651l-0.617-0.754c-0.599-0.736-0.73-1.743-0.344-2.615       C406.493,322.671,408.998,321.079,412.04,321.24z"/>
					<path style="fill:#00AF93;" d="M277.02,336.604c-0.048,0.829-0.497,1.533-1.146,1.96c0.462,2.288-0.996,4.79-0.819,8.474       c0.593,2.553,3.139,6.892,1.383,9.252c0.234,0.4,0.362,0.875,0.336,1.375c-0.073,1.385-1.251,2.433-2.631,2.357       c-5.722-0.314-8.839-8.243-8.45-15.42c0.15-2.876,0.883-5.362,2.116-7.19c1.606-2.371,4.046-3.587,6.855-3.437       C276.04,334.053,277.09,335.226,277.02,336.604z"/>
					<path style="fill:#00AF93;" d="M422.546,365.389c0.349-3.329,0.695-6.761,3.305-9.419c0.502-0.505,1.203-0.776,1.909-0.744       c0.016,0.003,0.024,0.003,0.024,0.003c4.68,0.309,7.472,4.301,7.115,10.154c-0.346,5.797-3.711,11.897-8.549,11.634       c-1.657-0.089-3.209-0.905-4.613-2.43c-0.65-0.698-0.835-1.708-0.489-2.602C422.098,369.819,422.334,367.561,422.546,365.389z"/>
					<path style="fill:#00AF93;" d="M376.516,373.747c4.146-2.451,7.722-4.573,8.581-9.701c0.215-1.248,1.45-2.132,2.712-2.065       c0.352,0.021,0.709,0.03,1.069,0.04c0.387,0.011,0.787,0.029,1.168,0.048c1.788,0.097,3.783,0.398,5.042,1.909       c0.336,0.397,0.534,0.891,0.572,1.401c0.381,4.707-1.869,10.045-6.012,14.284c-3.984,4.081-8.898,6.382-13.159,6.151       c-2.854-0.156-5.316-1.41-7.126-3.638c-0.784-0.966-0.735-2.374,0.115-3.281C371.546,376.692,374.075,375.194,376.516,373.747z       "/>
					<path style="fill:#00AF93;" d="M336.354,374.128c0.126-2.403,0.811-4.481,1.957-6.014c1.46-1.949,3.641-2.945,6.148-2.811       c1.367,0.078,2.43,1.257,2.352,2.631c-0.059,1.103-0.827,1.987-1.839,2.258c1.136,4.267,3.147,9.639,1.842,13.181       c0.4,0.467,0.623,1.069,0.588,1.735c-0.075,1.377-1.254,2.427-2.62,2.352C339.327,387.166,336.016,380.33,336.354,374.128z"/>
					<path style="fill:#00AF93;" d="M304.495,375.13c0.362-0.69,1.023-1.165,1.788-1.294c0.633-0.11,1.214-0.148,1.777-0.115       c2.07,0.113,3.243,1.13,4.027,1.804c0.239,0.207,0.446,0.387,0.617,0.486c1.071,0.612,1.531,1.909,1.096,3.055       c-0.698,1.839-1.181,3.966-1.694,6.218c-1.479,6.519-3.318,14.633-12.139,15.025c-0.078,0-0.164,0-0.247-0.005       c-0.961-0.054-1.82-0.663-2.175-1.571c-2.551-6.425,2.148-14.92,5.585-21.12C303.628,376.727,304.087,375.892,304.495,375.13z"/>
					<path style="fill:#00AF93;" d="M265.343,397.571c0.397-3.722,1.052-9.932,7.424-9.591c0.676,0.037,1.415,0.153,2.183,0.354       c0.741,0.188,1.345,0.714,1.657,1.404c1.702,3.842,0.991,12.074-2.054,14.923c-0.5,0.462-1.316,0.695-1.992,0.663       c-0.336-0.032-0.671-0.032-1.015-0.048c-0.368-0.011-0.73-0.021-1.085-0.043c-1.909-0.105-3.848-0.403-5.128-1.912       c-0.523-0.612-0.72-1.461-0.507-2.25C265.082,400.089,265.219,398.867,265.343,397.571z"/>
					<path style="fill:#00AF93;" d="M334.228,398.392c4.13,0.223,5.483,5.367,6.79,10.342c0.481,1.834,0.983,3.727,1.482,4.707       c0.575,1.117,0.242,2.478-0.797,3.193c-0.352,0.255-0.695,0.899-0.918,1.361c-0.427,0.894-1.343,1.45-2.325,1.42l-0.33-0.016       c-8.841-0.481-9.599-8.506-10.155-14.367l-0.115-1.27c-0.067-0.647,0.124-1.291,0.529-1.799       C330.37,399.461,332.284,398.287,334.228,398.392z"/>
				</g>
			</g>
		</g>
		<g>
			<g>
				<g>
					<path style="fill-rule:evenodd;clip-rule:evenodd;fill:#FF4E4E;" d="M207.81,12.979c0.105,5.295-4.21,9.207-7.534,12.252       c-17.057,15.616-36.73,27.88-55.283,43.343c-3.163,2.637-6.79,6.055-10.678,9.11c-5.166,4.052-14.287,9.451-20.416,3.764       c-2.537-2.349-3.697-8.992-2.822-14.134c2.062-12.168,11.473-22.782,19.154-30.463c6.114-6.116,12.949-11.752,20.416-16.649       c2.363-1.549,5.517-4.124,8.482-2.51c0.516,4.342-2.824,7.754-5.026,10.678c-2.489,3.308-5.26,6.369-7.542,9.738       c-0.054,0.255-0.312,0.312-0.312,0.628c12.662-9.204,26.495-19.291,43.657-25.128c2.497-0.851,5.969-2.003,9.11-2.51       C201.986,10.611,205.756,10.002,207.81,12.979z"/>
					<path style="fill-rule:evenodd;clip-rule:evenodd;fill:#FF6464;" d="M120.182,114.432c0.749-0.107,3.842-0.604,5.969,0.312       c4.634,1.992,7.131,11.011,9.107,17.901c2.296,8.004,4.538,14.904,5.029,21.675c0.148,2.11-0.07,5.067-0.32,6.28       c-1.445,7.088-10.023,13.97-14.762,18.534c-2.589,2.495-5.19,5.322-8.477,8.162c-2.365,2.046-7.061,5.684-10.995,4.715       c-3.673-0.91-6.103-8.068-7.539-11.309c-4.994-11.263-8.632-23.026-8.793-38.317c-0.035-3.05-0.354-6.949,0.314-9.11       c0.5-1.633,3.824-4.425,5.966-6.283C101.631,121.835,111.421,115.654,120.182,114.432z"/>
					<path style="fill-rule:evenodd;clip-rule:evenodd;fill:#FF8282;" d="M119.239,67.314c13.275-0.972,15.366,16.475,14.134,31.728       c-0.61,7.539-2.497,16.518-6.283,20.728c-0.993,1.101-2.61,1.987-3.767,2.827c-6.159,4.476-12.235,9.263-20.731,12.251       c-2.548,0.894-8.388,2.787-10.992,0.94c-3.311-2.349-0.991-14.665,0-19.471c2.62-12.737,6.744-22.758,11.934-33.299       c1.815-3.687,5.445-11.532,8.793-13.819C114.028,68.042,116.748,67.5,119.239,67.314z"/>
					<g>
						<path style="fill-rule:evenodd;clip-rule:evenodd;fill:#FF4E4E;" d="M195.459,149.879c0.326-1.745-3.71-5.347-3.71-5.347        c3.078-20.383,4.083-45.49,22.347-47.376c8.428-0.87,14.356,2.336,20.1,5.34c15.124,7.904,24.5,17.927,24.5,41.461        c-0.005,18.588-5.987,34.687-14.133,47.427c-7.864,12.292-20.43,21.308-33.296,27.95        c-13.698,7.075-31.994,11.065-51.194,7.539c-23.163-4.25-42.605-12.439-51.511-31.411c-0.207-0.429-0.435-1.748-0.948-2.508        c-0.87-1.313-1.445-0.698-1.568-1.887c-0.25-2.518,5.069-7.435,6.594-9.107c2.817-3.069,5.746-5.453,8.168-7.539        c2.811-2.414,5.907-5.077,8.482-7.223c1.165-0.972,3.099-2.065,4.398-3.453c1.555-1.662,1.922-3.257,3.458-4.086        c4.522-2.438,10.882-0.873,16.016,0c2.457,0.419,5.155,0.832,7.854,1.256c1.261,0.199,2.663,0.559,4.005,0.849        c1.43,0.309,4.459,1.977,5.509,1.847c1.024-0.125,0.25-2.147,1.161-2.876c0.791-0.633,1.596-1.375,2.516-2.021        c2.951-2.068,5.759-3.68,8.749-5.173C182.954,153.539,192.588,151.128,195.459,149.879z"/>
						<g>
							<path style="fill-rule:evenodd;clip-rule:evenodd;fill:#F7F7FC;" d="M234.509,148.982         c-11.532-4.481-28.884-7.067-42.762-4.45c-0.278,1.841-0.571,3.647-0.897,5.39c-2.874,1.251-5.442,2.4-7.895,3.625         c3.866-0.705,7.591-1.522,11.982-1.74c12.81-0.639,26.132,1.262,37.06,3.453c3.163,0.639,9.666,2.83,10.053-0.94         C242.344,151.393,237.597,150.18,234.509,148.982z"/>
							<path style="fill-rule:evenodd;clip-rule:evenodd;fill:#F7F7FC;" d="M188.025,208.024c3.719-0.177,4.18-6.253,3.77-10.99         c-1.028-11.757-9.03-23.692-15.704-31.411c-1.429-1.649-2.886-3.315-4.406-4.89c-0.909,0.727-1.8,1.312-2.822,1.437         c-1.05,0.13-2.413-0.1-3.843-0.409c8.304,7.523,12.799,19.832,16.094,32.132         C182.099,197.583,183.098,208.266,188.025,208.024z"/>
						</g>
					</g>
				</g>
				<g>
					<path style="fill-rule:evenodd;clip-rule:evenodd;fill:#F7F7FC;" d="M209.075,198.165c2.868-5.08,9.636-4.046,9.674,0.666       C218.805,204.851,207.018,206.123,209.075,198.165z"/>
					<path style="fill-rule:evenodd;clip-rule:evenodd;fill:#F7F7FC;" d="M202.585,186.553c-0.814-1.122-1.407-2.693-1.069-3.676       c1.316-3.813,13.159-5.628,14.67-0.961c1.243,3.839-1.947,5.383-6.275,5.818C206.672,188.062,204.105,188.639,202.585,186.553z       "/>
					<path style="fill-rule:evenodd;clip-rule:evenodd;fill:#F7F7FC;" d="M226.495,180.815c-3.413-3.885,0.851-6.055,5.515-8.672       c4.277-2.392,7.88-4.728,10.101-1.361c0.534,0.803,1.093,2.317,0.792,3.549c-0.966,4-12.281,8.57-14.52,8.025       C227.711,182.179,226.892,181.272,226.495,180.815z"/>
				</g>
			</g>
			<polygon style="fill-rule:evenodd;clip-rule:evenodd;fill:#42758B;" points="477.048,143.895 480.318,156.884 166.304,232.226      164.816,226.33    "/>
			<polygon style="fill-rule:evenodd;clip-rule:evenodd;fill:#42758B;" points="496.009,165.951 495.051,179.304 173.228,152.58      173.663,146.518    "/>
		</g>
	</g>
</g>















</svg>
