<?xml version="1.0" encoding="UTF-8"?>
<!-- Generator: Adobe Illustrator 25.2.1, SVG Export Plug-In . SVG Version: 6.00 Build 0)  -->
<svg xmlns="http://www.w3.org/2000/svg" xmlns:xlink="http://www.w3.org/1999/xlink" version="1.1" id="Capa_1" x="0px" y="0px" viewBox="0 0 512 512" style="enable-background:new 0 0 512 512;" xml:space="preserve" width="512" height="512">
<g>
	<g>
		<g>
			<g>
				<path style="fill-rule:evenodd;clip-rule:evenodd;fill:#7AB0C9;" d="M81.993,183.454c-0.842-0.037-1.156-0.622-1.052-1.644      c0.034-0.95-1.333-0.437-1.318-1.368c-1.563-5.214-2.311-10.759-3.683-16.429c-2.538-10.489-5.214-21.366-7.102-33.13      c-1.676-10.398-3.338-21.174,1.313-28.752c6.367-10.371,21.418-15.145,35.265-18.616c20.939-5.251,43.607-9.248,64.482-13.968      c10.971-2.478,22.05-5.34,33.162-6.021c11.479-0.706,18.076,6.977,23.164,14.785c6.176,9.485,11.677,20.559,16.58,32.858      c1.024,2.572,1.99,5.572,3.419,9.035c1.18,2.854,3.671,6.821,3.16,8.485c-0.629,2.059-5.806,3.133-9.213,4.387      c-9.626,3.528-19.705,7.811-28.95,11.225c-13.175,4.866-26.741,9.149-39.743,13.686c-13.232,4.624-27.106,8.969-41.054,12.321      c-14.508,3.493-29.16,6.493-42.636,10.679c-1.145,0.355-2.153,0.852-3.16,1.37c-0.575,0.299-0.825,0.496-1.313,0.822      C83.032,183.362,82.403,184.229,81.993,183.454z"/>
				<g>
					<path style="fill-rule:evenodd;clip-rule:evenodd;fill:#F7F7FC;" d="M98.271,98.561c1.511,0.289,3.182,1.098,3.656,2.143       c1.842,4.073-6.307,14.533-11.072,11.931c-3.925-2.145-2.53-5.814,0.622-9.457C93.837,100.457,95.464,98.033,98.271,98.561z"/>
					<path style="fill-rule:evenodd;clip-rule:evenodd;fill:#F7F7FC;" d="M87.671,135.672c1.098-0.039,2.318,0.178,3.113,0.936       c1.471,1.422,2.16,7.426,1.331,10.729c-1.333,5.367-8.729,4.725-9.499-0.701C81.924,141.807,82.763,135.872,87.671,135.672z"/>
					<path style="fill-rule:evenodd;clip-rule:evenodd;fill:#F7F7FC;" d="M117.865,108.934c8.307-0.716,3.444,12.138-1.935,11.896       C108.235,120.488,112.831,109.374,117.865,108.934z"/>
					<path style="fill-rule:evenodd;clip-rule:evenodd;fill:#F7F7FC;" d="M142.833,90.14c1.745,5.456-3.548,5.774-9.44,6.364       c-5.399,0.538-10.097,1.316-10.857-3.083c-0.183-1.052-0.077-2.837,0.77-3.952c2.755-3.634,16.251-3.271,18.281-1.721       C142.201,88.217,142.626,89.496,142.833,90.14z"/>
				</g>
			</g>
			<g>
				<path style="fill-rule:evenodd;clip-rule:evenodd;fill:#568EAF;" d="M345.36,69.604c16.283,4.029,35.759,5.436,45.394,15.745      c6.238,6.67,5.703,22.536,6.019,35.554c0.215,8.939,0.656,17.443,1.094,26.597c0.133,2.768,0.965,5.69-0.546,8.142      c-1.558-0.012-3.116-0.452-4.651-0.814c-23.694-5.582-48.828-10.428-73.018-15.74c-22.549-4.95-45.332-9.771-68.093-14.656      c-2.957-0.637-6.584-0.521-9.025-2.713c-0.212-1.931,1.933-1.523,2.733-2.444c2.407-8.142,6.386-16.412,9.847-24.968      c6.016-14.876,10.544-28.99,30.081-30.399c12.24-0.881,27.508,0.886,38.835,2.444c1.558-3.972,2.755-8.302,3.829-12.761      c-2.148-1.484-6.283-1.002-7.934-2.98c-0.731-3.118,0.108-7.685,2.738-7.872c4.624-0.333,8.816,0.832,13.674,1.901      c3.846,0.842,8.655,2.064,9.845,5.698C348.243,56.658,344.822,62.05,345.36,69.604z"/>
				<g>
					<path style="fill-rule:evenodd;clip-rule:evenodd;fill:#F7F7FC;" d="M293.846,76.654c-4.14,3.92-1.56,10.102,2.921,9.028       C302.499,84.307,300.914,72.818,293.846,76.654z"/>
					<path style="fill-rule:evenodd;clip-rule:evenodd;fill:#F7F7FC;" d="M281.293,73.25c-1.264-0.509-2.893-0.699-3.747-0.151       c-3.308,2.153-2.217,13.829,2.565,14.153c3.943,0.274,4.649-3.123,4.031-7.334C283.688,76.77,283.626,74.19,281.293,73.25z"/>
					<path style="fill-rule:evenodd;clip-rule:evenodd;fill:#F7F7FC;" d="M281.511,97.297c-4.498-2.318-5.55,2.246-6.927,7.292       c-1.261,4.624-2.622,8.601,1.103,9.909c0.886,0.311,2.452,0.484,3.558-0.094c3.565-1.864,5.221-13.679,4.17-15.676       C283.093,98.124,282.039,97.569,281.511,97.297z"/>
				</g>
			</g>
			<g>
				<path style="fill-rule:evenodd;clip-rule:evenodd;fill:#42758B;" d="M389.779,159.498      c-39.652,14.36-83.194,28.192-123.414,42.377c-3.083,1.086-6.265,2.829-8.487,3.012c-1.56,0.126-3.424-0.587-5.478-0.82      c-49.472-5.639-99.551-11.823-148.952-17.799c-7.236-0.876-14.553-1.341-21.631-3.012c0.003-1.647-1.442-1.847-1.916-3.014      c0.635-1.691,2.674-2.39,4.108-3.009c11.269-4.881,24.023-9.366,36.141-13.691c13.812-4.93,27.842-10.131,41.891-15.059      c28.4-9.964,55.52-19.549,83.767-29.298c23.83,5.893,51.896,11.319,78.054,17.248      C347.125,141.708,400.157,155.733,389.779,159.498z"/>
				<path style="fill-rule:evenodd;clip-rule:evenodd;fill:#F2BD4E;" d="M311.149,127.514c17.705-1.795,26.837,8.566,35.87,17.246      c3.175,3.049,5.584,5.15,8.487,7.665c2.775,2.407,7.34,5.024,7.394,8.764c0.062,4.093-5.91,7.5-9.583,9.86      c-4.293,2.755-8.613,5.125-12.321,7.117c-17.806,9.571-33.075,17.545-53.664,24.092c-10.66,3.394-20.497,7.329-31.49,7.396      c-5.268,0.032-10.751-1.19-16.153-1.918c-5.335-0.716-10.702-1.195-15.883-1.916c-10.334-1.442-20.653-3.528-31.485-4.106      c-16.325-0.876-36.094,0.491-51.751-1.918c-6.302-0.97-16.328-3.95-9.857-10.131c0.788-0.75,2.18-1.972,3.286-2.464      c2.37-1.052,5.31-0.336,7.668-1.096c2.417-0.78,5.096-4.922,6.843-7.939c5.463-9.438,9.968-18.811,20.263-24.097      c8.49-4.36,19.305-2.649,29.022-0.548c4.55,0.985,10.42,2.977,15.883,2.192c2.95-0.425,5.456-2.16,7.668-3.56      c6.211-3.938,14.279-9.658,26.01-7.939c3.836,0.56,7.441,2.256,11.499,3.56c3.861,1.237,8.542,2.926,12.595,2.464      c3.777-0.432,6.964-3.458,9.583-6.024c2.777-2.72,5.747-5.098,8.216-7.12C294.928,132.436,301.156,128.521,311.149,127.514z"/>
				<path style="fill-rule:evenodd;clip-rule:evenodd;fill:#FFE09D;" d="M336.317,125.622c23.845-1.15,41.094,7.767,52.985,20.863      c1.896,2.088,4.135,4.081,4.281,6.228c0.351,5.251-6.616,11.704-9.633,14.089c-4.733,3.74-11.124,6.559-17.394,9.754      c-29.989,15.261-59.302,29.841-93.656,40.906c-13.778,4.439-27.259,9.564-40.138,13.543c-12.121,3.752-30.456,8.914-46.29,4.878      c-6.727-1.716-13.027-4.816-18.997-7.855c-12.089-6.154-22.746-12.802-35.058-18.964c-5.912-2.96-11.877-6.051-17.927-8.939      c-8.443-4.034-17.528-8.724-27.293-13.007c-3.13-1.368-7.423-3.059-7.492-5.957c-0.096-4.041,8.559-6.359,11.773-7.855      c9.48-4.416,17.246-8.324,27.029-12.19c4.369-1.728,9.927-3.686,15.787-3.794c7.332-0.133,12.635,1.131,17.927,2.711      c9.085,2.703,15.345,6.49,20.07,13.274c1.17,1.684,1.758,4.187,4.012,4.607c2.382,0.442,6.226-1.412,8.566-2.441      c2.913-1.281,5.241-2.703,7.218-3.792c6.461-3.545,16.207-8.115,20.873-8.127c9.27-0.027,18.458,4.036,25.156,7.584      c3.133,1.662,6.69,3.984,10.433,5.962c3.985,2.106,8.786,4.471,13.652,3.251c7.717-1.94,11.968-9.576,16.323-15.985      c9.198-13.548,15.37-26.291,30.77-33.322C316.585,127.711,324.882,126.173,336.317,125.622z"/>
			</g>
			<g>
				<g>
					<path style="fill-rule:evenodd;clip-rule:evenodd;fill:#568EAF;" d="M80.201,180.227       c59.058,6.744,118.301,13.311,176.606,20.811c-0.595,77.462-0.96,157.412-1.642,236.293       c-50.413-10.282-99.971-21.416-149.774-32.307C96.677,330.5,88.369,255.568,79.927,180.772       C79.811,180.247,80.112,179.788,80.201,180.227z"/>
					<g>
						<path style="fill-rule:evenodd;clip-rule:evenodd;fill:#42758B;" d="M110.698,194.711c-2.78,5.597,2.207,10.976,6.409,8.176        C122.482,199.31,116.51,188.1,110.698,194.711z"/>
						<path style="fill-rule:evenodd;clip-rule:evenodd;fill:#42758B;" d="M96.504,195.957c-1.491-0.044-3.236,0.373-3.905,1.259        c-2.59,3.461,2.942,15.051,7.981,13.58c4.155-1.21,3.602-4.967,1.375-9.065C100.298,198.668,99.259,196.041,96.504,195.957z"/>
						<path style="fill-rule:evenodd;clip-rule:evenodd;fill:#42758B;" d="M105.813,220.59c-5.503-0.679-4.856,4.407-4.367,10.114        c0.452,5.229,0.555,9.83,4.878,9.769c1.029-0.012,2.706-0.43,3.621-1.437c2.96-3.266,0.2-16.037-1.637-17.695        C107.751,220.844,106.462,220.671,105.813,220.59z"/>
					</g>
					<g>
						<path style="fill-rule:evenodd;clip-rule:evenodd;fill:#42758B;" d="M217.281,405.009c-1.449-0.511-2.98-1.56-3.291-2.664        c-1.207-4.305,8.428-13.42,12.743-10.129c3.562,2.713,1.622,6.13-2.042,9.255        C221.949,403.807,219.972,405.954,217.281,405.009z"/>
						<path style="fill-rule:evenodd;clip-rule:evenodd;fill:#42758B;" d="M233.362,369.922c-1.096-0.124-2.271-0.524-2.943-1.392        c-1.239-1.629-1.012-7.665,0.301-10.805c2.133-5.108,9.346-3.36,9.287,2.12C239.963,364.725,238.235,370.465,233.362,369.922z        "/>
						<path style="fill-rule:evenodd;clip-rule:evenodd;fill:#42758B;" d="M199.474,391.804c-8.317-0.546-1.575-12.518,3.708-11.472        C210.739,381.831,204.52,392.125,199.474,391.804z"/>
						<path style="fill-rule:evenodd;clip-rule:evenodd;fill:#42758B;" d="M171.961,406.619c-0.901-5.661,4.377-5.174,10.292-4.871        c5.414,0.281,10.176,0.225,10.262,4.685c0.027,1.072-0.346,2.817-1.355,3.792c-3.266,3.175-16.557,0.78-18.33-1.054        C172.297,408.608,172.065,407.285,171.961,406.619z"/>
					</g>
				</g>
				<g>
					<path style="fill-rule:evenodd;clip-rule:evenodd;fill:#7AB0C9;" d="M394.254,157.226c1.224,1.973,0.504,4.523,0.276,6.572       c-7.495,67.511-15.585,136.018-23.274,204.26c-0.523,4.646-0.368,11.092-1.916,13.691c-0.992,1.669-3.962,2.471-6.846,3.834       c-7.231,3.412-14.363,7.376-21.357,10.679c-27.007,12.738-52.518,25.415-79.407,38.057c-2.409,1.136-4.784,2.984-7.665,3.012       c-2.414-4.002-1.311-8.892-1.094-13.415c0.699-14.681,0.277-30.024,0.277-44.905c0-48.517,1.639-98.07,1.639-147.858       c0-9.731,0.975-19.421-0.271-29.021c5.27-2.664,11.052-4.125,16.698-6.026c28.281-9.492,56.624-18.256,85.431-27.926       c8.213-2.757,16.886-5.651,25.467-8.49C386.414,158.3,389.907,156.446,394.254,157.226z"/>
					<path style="fill-rule:evenodd;clip-rule:evenodd;fill:#568EAF;" d="M394.815,158.683c-0.105-0.507-0.276-0.998-0.561-1.456       c-4.347-0.78-7.841,1.074-12.042,2.464c-8.581,2.839-17.254,5.732-25.467,8.49c-28.807,9.67-57.15,18.433-85.431,27.926       c-5.536,1.864-11.199,3.312-16.385,5.878c19.523,25.605,40.327,51.888,59.212,79.279c2.293,3.33,5.954,10.771,10.129,10.677       c2.602-0.054,4.989-3.718,6.574-6.569c1.842-3.318,3.142-6.399,4.379-9.038c14.471-30.861,28.37-60.793,43.809-89.808       C384.046,177.102,389.74,167.818,394.815,158.683z"/>
					<path style="fill-rule:evenodd;clip-rule:evenodd;fill:#568EAF;" d="M347.434,316.036c-3.17-6.051-8.477-17.384-16.153-18.345       c-4.878-0.612-8.86,3.831-11.225,6.569c-3.829,4.429-6.643,9.966-9.857,15.335c-15.715,26.267-29.513,56.266-42.715,84.335       c-5.018,10.668-10.042,21.119-14.215,31.714c0.21,0.576,0.469,1.14,0.798,1.687c2.881-0.027,5.256-1.876,7.665-3.012       c26.889-12.642,52.4-25.319,79.407-38.057c6.994-3.303,14.126-7.268,21.357-10.679c2.883-1.363,5.853-2.165,6.846-3.834       c1.205-2.023,1.378-6.374,1.642-10.395C363.985,351.609,356.775,333.849,347.434,316.036z"/>
				</g>
				<path style="fill-rule:evenodd;clip-rule:evenodd;fill:#42758B;" d="M254.617,202.132c-0.795-3.278,30.922-39.768,42.027-51.862      c5.638-6.144,11.302-10.297,19.441-14.239c7.529-3.646,15.689-6.818,23.82-10.131c16.32-6.646,31.89-12.43,49.01-18.893      c8.426-3.18,16.843-7.004,25.19-8.487c1.906-0.336,5.108-0.04,6.021,2.192c1.795,4.362-3.061,13.116-4.379,16.155      c-2.131,4.915-4.673,9.65-6.846,13.965c-3.681,7.32-6.564,13.82-10.129,21.082c-1.23,2.508-1.906,5.53-3.286,7.117      c-1.286,1.481-4.797,3.118-7.665,4.382c-2.928,1.286-6.179,2.316-8.764,3.288C361.984,173.11,256.409,209.538,254.617,202.132z"/>
			</g>
		</g>
		<g>
			<g>
				<path style="fill-rule:evenodd;clip-rule:evenodd;fill:#008969;" d="M159.41,354.051c-0.084,8.72-36.062,28.538-79.6,28.126      c-43.537-0.412-78.77-7.813-78.684-16.528c0.131-13.842,31.429-6.534,80.585-11.227      C125.17,350.271,159.494,345.339,159.41,354.051z"/>
				<path style="fill-rule:evenodd;clip-rule:evenodd;fill:#752C00;" d="M154.119,363.162c-0.054,5.717-30.771,19.426-74.308,19.014      c-43.537-0.412-78.79-5.379-78.738-11.087c0.089-9.07,31.411-4.179,80.548-7.093      C125.061,361.42,154.175,357.457,154.119,363.162z"/>
			</g>
			<g>
				<path style="fill-rule:evenodd;clip-rule:evenodd;fill:#00AF93;" d="M96.635,465.686c-8.282,3.138-18.72,4.453-30.278,3.113      c-1.466-0.165-3.342-0.415-5.177-0.639c-1.691-0.21-3.898-0.279-4.891-0.787c-0.844-0.432-1.953-2.53-2.632-3.585      c-2.385-3.696-4.488-7.883-8.055-10.304c-3.634-2.464-7.919-3.663-11.963-5.157c-4.021-1.481-8.248-3.029-11.81-5.295      c-1.572-1.004-3.024-2.126-4.391-3.332L6.567,411.574L0,377.072c0.008-1.833,0.046-3.687,0.122-5.56      c0.106-2.479-0.003-5.184,0.968-7.552c1.471-0.124,2.548,1.437,3.681,2.261c0.115,0.083,0.23,0.166,0.347,0.249      c1.268,0.898,0.256,3.557,1.684,4.342c1.19,0.655,4.797-0.546,6.084,0.035c6.888,3.109,15.083,5.184,23.649,6.498      c8.572,1.313,17.969,1.988,27.467,2.008c0,0,2.626,2,4.397,1.958c2.189-0.052,7.468-2.275,7.468-2.275      c1.761-0.098,3.516-0.22,5.259-0.364l7.63,1.815l3.983-3.081c1.585-0.211,3.162-0.438,4.73-0.678c0,0,8.276,0.365,12.535-0.544      c4.124-0.88,12.595-4.794,12.595-4.794c0.392-0.109,0.784-0.218,1.174-0.329c2.072-0.587,4.129-1.234,6.187-1.917      c0.451-0.15,1.315,0.076,1.765-0.079c3.096-1.063,5.745-2.61,8.717-3.88c4.693-2.006,9.181-4.254,13.253-6.739      c1.299-0.8,2.659-1.614,3.582-2.486c0.417-0.395,0.815-0.543,1.484-0.284c0.795,0.311,0.694,1.889,0.405,4.155      c-1.178,9.211-2.868,18.721-4.369,27.815l-5.319,19.035l-6.147,25.08c-1.956,3.314-4.294,6.233-7.171,8.647      c-4.004,3.37-8.796,5.169-14.597,6.979c-5.503,1.723-11.334,3.182-15.767,5.782C101.239,455.836,99.296,460.29,96.635,465.686z"/>
				<g>
					<path style="fill-rule:evenodd;clip-rule:evenodd;fill:#FFE09D;" d="M122.554,371.388c-7.994,2.209-16.409,3.995-25.101,5.33       c0.189,0.103,0.378,0.214,0.569,0.3C106.069,380.644,117.306,376.238,122.554,371.388z"/>
					<path style="fill-rule:evenodd;clip-rule:evenodd;fill:#FFE09D;" d="M140.442,365.184c-3.407,1.456-6.921,2.777-10.482,3.959       c6.53,4.768,12.601,11.857,15.535,21.264c4.108,13.185,0.713,29.548-9.099,34.132c-2.812,1.313-7.142,1.605-10.536,0.78       c-4.034-0.98-7.418-3.32-10.038-5.799c1.01-11.904-3.13-28.182-11.553-30.157c-3.387-0.802-5.369,0.889-7.041,1.903       c-0.744-5.022-2.209-9.88-4.492-13.866c-3.287,0.438-6.604,0.819-9.952,1.128c-0.54,0.05-1.09,0.08-1.633,0.125       c1.174,0.816,2.186,1.977,2.793,2.835c8.087,11.442,2.538,31.651-3.246,41.207c-2.227,3.678-5.001,6.935-8.203,9.137       c-3.254-7.179-5.17-17.439-4.55-28.999c0.259-4.831,1.37-9.958,2.767-14.232c1.015-3.096,2.882-7.357,5.143-9.575       c-3.933,0.22-7.895,0.325-11.846,0.316c-3.106,6.144-5.126,14.171-5.703,22.087c-0.941,12.908,1.53,26.16,5.592,34.927       c-7.589,1.874-14.363-1.548-16.829-6.737c2.145-2.661,4.387-6.08,6.234-9.813c1.827-3.676,3.787-7.9,3.414-12.689       c-0.452-5.844-5.831-9.978-11.554-7.569c-7.966,3.355-12.649,17.676-9.48,27.987c-3.165,2.345-6.522,5.305-11.887,4.273       c-4.478-0.869-7.451-5.505-9.127-9.08c8.32-0.847,13.222-4.204,17.651-10.361c3.162-4.399,5.759-10.608,5.204-16.841       c-0.556-6.189-4.955-12.654-12.158-13.279c-9.813-0.847-15.647,7.505-18.989,13.422c-0.057-4.883,0.918-9.344,2.101-13.582       c1.135-4.05,2.287-8.423,4.41-11.242c-2.829-1.277-5.434-2.729-7.758-4.373c-1.582,2.31-2.866,5.022-3.809,7.214       c-0.453,1.053-0.892,2.193-1.316,3.379c-0.029,6.656,0.336,13.041,0.775,19.066c1.379,18.719,5.979,34.141,16.657,43.57       c1.248,0.641,2.596,1.168,4.077,1.518c8.068,1.901,12.941-1.439,18.468-4.653c4.594,7.744,17.663,12.657,29.096,8.398       c4.698,5.118,10.005,10.576,18.767,10.707c7.315,0.109,13.225-3.95,17.184-8.396c4.281-4.794,7.011-10.944,8.714-17.022       c5.52,2.933,10.294,5.782,18.597,5.216c4.175-0.28,7.869-1.664,10.989-3.708c6.093-10.316,8.352-24.433,10.626-38.917       c0.269-1.711,0.553-3.449,0.841-5.196c-2.614-8.402-7.461-15.635-13.241-21.404       C141.194,365.881,140.817,365.534,140.442,365.184z M12.572,412.835c-0.306-7.152,2.893-16.311,7.643-19.668       c1.508-1.069,3.631-1.728,5.932-0.82c3.799,4.606,0.4,12.694-3.446,16.639C20.19,411.551,16.558,413.689,12.572,412.835z        M104.105,429.5c-1.543,4.676-4.638,10.173-8.026,13.081c-2.503,2.153-6.458,4.16-10.993,2.968       c-3.017-0.793-5.123-3.01-7.186-5.55c9.341-7.166,15.355-17.72,18.505-31.191c1.286,3.639,4.041,8.105,6.69,11.469       c0.884,1.123,2.274,2.686,2.385,3.313C105.643,424.573,104.774,427.471,104.105,429.5z"/>
				</g>
			</g>
		</g>
		<g>
			<path style="fill-rule:evenodd;clip-rule:evenodd;fill:#752C00;" d="M510.077,326.165c0.096,1.007-0.417,1.407-1.094,1.647     c-5.162,1.479-8.833,4.703-12.869,7.939c-14.372,11.514-23.823,26.797-35.047,42.165c-4.681,6.409-9.816,14.432-17.251,17.797     c-6.295,2.854-17.157,3.469-26.558,4.108c-28.543,1.948-57.614,4.533-86.798,3.831c-20.495-0.489-37.899-2.328-56.952-4.105     c-8.386-0.783-18.13-1.822-27.377-3.012c-9.003-1.153-19.174-1.913-25.467-4.93c-4.671-2.234-8.329-6.554-12.324-10.951     c-11.008-12.124-22.122-25.477-34.497-35.322c0.706-2.548-2.148,0.084-2.464-2.461c-0.23-1.866,3.846-3.088,6.024-4.108     c15.19-7.122,32.223-16.239,46.546-23.003c6.041,2.755,11.141,4.498,15.607,7.122c4.713,2.767,8.233,6.214,11.778,10.951     c3.091,4.145,5.799,9.129,8.759,13.965c3.511,5.735,7.623,11.588,13.689,13.963c9.956,3.9,25.968,1.916,39.156,1.916     c28.219,0,54.172,0.822,82.962,0.822c13.898,0,26.903-1.415,35.048-6.846c4.214-2.81,7.122-7.401,10.131-11.773     c6.303-9.156,11.59-16.562,19.441-24.368c3.599-3.58,7.705-7.433,12.05-9.86c1.703-0.951,3.797-1.257,5.473-1.913     c2.56-1.005,6.456,1.555,9.583,3.012c6.433,2.992,13.469,6.283,20.537,9.581C509.393,322.908,513.827,324.585,510.077,326.165z"/>
			<g>
				<g>
					<g>
						<path style="fill-rule:evenodd;clip-rule:evenodd;fill:#F7F7FC;" d="M282.451,276.414c12.417-0.476,23.26,7.453,29.557,14.4        c7.283,8.026,12.38,16.041,17.177,26.269c7.026,14.987,16.269,28.084,21.221,44.209c1.703,5.545,3.303,13.42,1.516,19.199        c-3.898,12.603-17.397,15.79-32.841,17.686c-6.752,0.827-15.249,1.911-23.746,2.271c-15.076,0.642-36.292,2.545-48.504-2.02        c-12.802-4.784-15.182-20.238-13.136-38.146c1.898-16.602,5.557-31.609,9.346-46.228c2.133-8.221,4.55-16.32,8.845-21.979        c5.029-6.628,15.582-13.496,25.763-15.407C279.145,276.386,281.037,276.468,282.451,276.414z"/>
						<g>
							<path style="fill-rule:evenodd;clip-rule:evenodd;fill:#D8773A;" d="M277.649,283.992c-0.812-1.373-1.116-3.493-1.261-5.811         c-0.089-1.397-0.637-4.177,0-5.809c0.558-1.424,2.748-1.953,4.041-1.012C282.569,272.918,283.199,287.555,277.649,283.992z"/>
							<path style="fill-rule:evenodd;clip-rule:evenodd;fill:#D8773A;" d="M297.611,288.791c-0.723-1.471,0.123-2.896,0.755-3.789         c0.711-0.217,1.037-0.815,2.02-0.758c0.832-1.368,2.928-2.681,4.802-1.516C307.249,285.474,300.791,290.655,297.611,288.791z         "/>
							<path style="fill-rule:evenodd;clip-rule:evenodd;fill:#D8773A;" d="M260.981,287.024c2.118-0.553,8.154,2.75,7.83,6.315         c-0.271,2.948-3.935,3.474-6.315,1.264c-0.583-0.54-0.926-1.733-1.516-2.528c-0.632-0.847-1.945-1.58-2.022-2.525         C258.823,287.923,260.043,287.268,260.981,287.024z"/>
							<path style="fill-rule:evenodd;clip-rule:evenodd;fill:#D8773A;" d="M299.63,300.157c2.202,2.802-2.446,8.996-6.317,8.591         C289.82,304.907,294.728,297.94,299.63,300.157z"/>
							<path style="fill-rule:evenodd;clip-rule:evenodd;fill:#D8773A;" d="M267.799,307.99c3.318,1.499,4.649,12.491-0.76,12.124         C262.684,319.82,260.505,307.489,267.799,307.99z"/>
							<path style="fill-rule:evenodd;clip-rule:evenodd;fill:#D8773A;" d="M317.059,310.264c3.974-0.728,4.36,2.849,2.276,5.809         c-1.93,2.745-2.639,3.614-5.056,6.065c-1.113,1.128-3.799,3.172-5.053,1.007c-0.402-0.696-0.005-3.928,0.509-5.557         C310.542,315.026,314.003,310.822,317.059,310.264z"/>
							<path style="fill-rule:evenodd;clip-rule:evenodd;fill:#D8773A;" d="M250.368,327.441c-2.866,1.353-9.433,1.197-10.862-1.264         c0.114-2.735,2.18-2.923,5.305-3.031c2.883-0.096,6.49-0.237,6.063,3.031C250.81,326.671,250.41,326.868,250.368,327.441z"/>
							<path style="fill-rule:evenodd;clip-rule:evenodd;fill:#D8773A;" d="M294.323,331.988c6.554-1.484,4.036,15.555-1.767,11.62         C289.966,341.853,291.202,332.697,294.323,331.988z"/>
							<path style="fill-rule:evenodd;clip-rule:evenodd;fill:#D8773A;" d="M324.386,334.007c1.597-0.217,3.199,0.299,3.538,2.276         c0.444,2.617-1.429,3.854-2.78,5.305c-1.318,1.417-2.827,3.528-5.053,2.78C316.432,343.137,321.1,334.459,324.386,334.007z"/>
							<path style="fill-rule:evenodd;clip-rule:evenodd;fill:#D8773A;" d="M273.357,348.158c-3.37,0.555-4.604-0.933-5.557-4.55         c-0.844-3.187-1.577-7.401,2.777-6.315C272.08,340.179,273.663,344.299,273.357,348.158z"/>
							<path style="fill-rule:evenodd;clip-rule:evenodd;fill:#D8773A;" d="M244.053,357.001c-3.073-2.743,1.17-5.712,4.295-6.065         c0.862-0.82,1.832-2.787,3.538-3.029c1.632-0.237,3.16,0.262,3.535,1.511c0.714,2.405-2.259,4.523-4.044,5.56         C249.159,356.27,246.811,357.149,244.053,357.001z"/>
							<path style="fill-rule:evenodd;clip-rule:evenodd;fill:#D8773A;" d="M267.548,368.618c-0.296-1.543,0.365-3.017,1.01-4.293         c0.896-1.782,2.797-5.48,5.054-5.811c1.755-0.259,3.15,0.592,3.283,1.768c0.257,2.212-4.056,8.771-6.317,9.094         C269.029,369.598,269.012,368.855,267.548,368.618z"/>
							<path style="fill-rule:evenodd;clip-rule:evenodd;fill:#D8773A;" d="M323.878,360.788c0.783-0.269,1.585-0.442,2.276-0.252         c3.024,0.834,5.925,14.54,1.264,15.158c-2.128,0.279-2.765-1.563-3.789-4.044         C322.448,368.798,319.548,362.284,323.878,360.788z"/>
							<path style="fill-rule:evenodd;clip-rule:evenodd;fill:#D8773A;" d="M304.681,371.65c-2.336,0.597-4.505-0.551-6.315-1.768         c-1.476-0.997-3.609-2.945-3.283-5.051c0.795-5.189,10.265,0.98,10.605,3.533C305.866,369.66,304.955,370.462,304.681,371.65         z"/>
						</g>
					</g>
					
						<rect x="274.293" y="359.684" transform="matrix(0.9937 -0.112 0.112 0.9937 -40.7267 35.4315)" style="fill-rule:evenodd;clip-rule:evenodd;fill:#42758B;" width="41.514" height="41.168"/>
				</g>
				<g>
					<g>
						<path style="fill-rule:evenodd;clip-rule:evenodd;fill:#F7F7FC;" d="M397.681,276.414c12.413-0.476,23.255,7.453,29.555,14.4        c7.283,8.026,12.383,16.041,17.177,26.269c7.026,14.987,16.268,28.084,21.221,44.209c1.701,5.545,3.303,13.42,1.516,19.199        c-3.901,12.603-17.399,15.79-32.838,17.686c-6.754,0.827-15.251,1.911-23.749,2.271c-15.076,0.642-36.289,2.545-48.502-2.02        c-12.805-4.784-15.185-20.238-13.136-38.146c1.898-16.602,5.555-31.609,9.346-46.228c2.133-8.221,4.547-16.32,8.838-21.979        c5.031-6.628,15.585-13.496,25.77-15.407C394.373,276.386,396.264,276.468,397.681,276.414z"/>
						<g>
							<path style="fill-rule:evenodd;clip-rule:evenodd;fill:#D8773A;" d="M392.879,283.992c-0.814-1.373-1.116-3.493-1.266-5.811         c-0.086-1.397-0.634-4.177,0-5.809c0.56-1.424,2.748-1.953,4.046-1.012C397.795,272.918,398.424,287.555,392.879,283.992z"/>
							<path style="fill-rule:evenodd;clip-rule:evenodd;fill:#D8773A;" d="M412.836,288.791c-0.718-1.471,0.126-2.896,0.76-3.789         c0.706-0.217,1.034-0.815,2.017-0.758c0.829-1.368,2.928-2.681,4.799-1.516C422.476,285.474,416.016,290.655,412.836,288.791         z"/>
							<path style="fill-rule:evenodd;clip-rule:evenodd;fill:#D8773A;" d="M376.206,287.024c2.118-0.553,8.159,2.75,7.831,6.315         c-0.269,2.948-3.933,3.474-6.312,1.264c-0.585-0.54-0.928-1.733-1.518-2.528c-0.632-0.847-1.94-1.58-2.022-2.525         C374.051,287.923,375.273,287.268,376.206,287.024z"/>
							<path style="fill-rule:evenodd;clip-rule:evenodd;fill:#D8773A;" d="M414.858,300.157c2.2,2.802-2.447,8.996-6.315,8.591         C405.047,304.907,409.953,297.94,414.858,300.157z"/>
							<path style="fill-rule:evenodd;clip-rule:evenodd;fill:#D8773A;" d="M383.027,307.99c3.318,1.499,4.651,12.491-0.76,12.124         C377.912,319.82,375.729,307.489,383.027,307.99z"/>
							<path style="fill-rule:evenodd;clip-rule:evenodd;fill:#D8773A;" d="M432.287,310.264c3.972-0.728,4.357,2.849,2.276,5.809         c-1.931,2.745-2.637,3.614-5.053,6.065c-1.116,1.128-3.804,3.172-5.056,1.007c-0.4-0.696-0.005-3.928,0.508-5.557         C425.769,315.026,429.228,310.822,432.287,310.264z"/>
							<path style="fill-rule:evenodd;clip-rule:evenodd;fill:#D8773A;" d="M365.598,327.441c-2.868,1.353-9.435,1.197-10.862-1.264         c0.108-2.735,2.18-2.923,5.303-3.031c2.883-0.096,6.49-0.237,6.063,3.031C366.035,326.671,365.638,326.868,365.598,327.441z"/>
							<path style="fill-rule:evenodd;clip-rule:evenodd;fill:#D8773A;" d="M409.55,331.988c6.557-1.484,4.039,15.555-1.767,11.62         C405.19,341.853,406.432,332.697,409.55,331.988z"/>
							<path style="fill-rule:evenodd;clip-rule:evenodd;fill:#D8773A;" d="M439.614,334.007c1.597-0.217,3.199,0.299,3.535,2.276         c0.444,2.617-1.427,3.854-2.78,5.305c-1.318,1.417-2.824,3.528-5.054,2.78C431.665,343.137,436.328,334.459,439.614,334.007z         "/>
							<path style="fill-rule:evenodd;clip-rule:evenodd;fill:#D8773A;" d="M388.586,348.158c-3.372,0.555-4.604-0.933-5.559-4.55         c-0.844-3.187-1.578-7.401,2.78-6.315C387.31,340.179,388.89,344.299,388.586,348.158z"/>
							<path style="fill-rule:evenodd;clip-rule:evenodd;fill:#D8773A;" d="M359.281,357.001c-3.073-2.743,1.17-5.712,4.293-6.065         c0.867-0.82,1.832-2.787,3.535-3.029c1.634-0.237,3.165,0.262,3.54,1.511c0.716,2.405-2.259,4.523-4.044,5.56         C364.384,356.27,362.038,357.149,359.281,357.001z"/>
							<path style="fill-rule:evenodd;clip-rule:evenodd;fill:#D8773A;" d="M382.775,368.618c-0.296-1.543,0.366-3.017,1.007-4.293         c0.901-1.782,2.799-5.48,5.056-5.811c1.755-0.259,3.15,0.592,3.283,1.768c0.254,2.212-4.056,8.771-6.315,9.094         C384.259,369.598,384.241,368.855,382.775,368.618z"/>
							<path style="fill-rule:evenodd;clip-rule:evenodd;fill:#D8773A;" d="M439.107,360.788c0.78-0.269,1.582-0.442,2.276-0.252         c3.024,0.834,5.925,14.54,1.261,15.158c-2.128,0.279-2.765-1.563-3.789-4.044         C437.678,368.798,434.773,362.284,439.107,360.788z"/>
							<path style="fill-rule:evenodd;clip-rule:evenodd;fill:#D8773A;" d="M419.909,371.65c-2.335,0.597-4.508-0.551-6.312-1.768         c-1.479-0.997-3.612-2.945-3.286-5.051c0.795-5.189,10.265,0.98,10.61,3.533C421.094,369.66,420.183,370.462,419.909,371.65z         "/>
						</g>
					</g>
					
						<rect x="389.518" y="359.684" transform="matrix(0.9937 -0.112 0.112 0.9937 -39.9999 48.3316)" style="fill-rule:evenodd;clip-rule:evenodd;fill:#42758B;" width="41.515" height="41.168"/>
				</g>
			</g>
			<g>
				<path style="fill-rule:evenodd;clip-rule:evenodd;fill:#FF4E4E;" d="M511.995,324.252c0.114,2.999-1.669,5.984-3.012,8.487      c-19.327,35.953-37.704,73.729-56.952,110.068c-1.343,2.54-2.17,5.411-4.379,7.396c-62.709-0.022-125.509,0.271-189.203,0.271      c-4.315,0-9.628,0.805-12.595,0c-1.728-0.469-3.592-3.975-5.204-6.298c-22.213-32.085-43.826-62.578-65.711-94.192      c-1.526-2.2-3.592-4.498-3.832-7.391c2.308-1.261,4.932-1.281,7.115-1.368c10.805-0.432,17.187,2.012,24.645,5.752      c10.052,5.036,18.216,11.013,26.286,18.066c3.948,3.454,8.122,7.389,12.321,9.86c8.248,4.853,22.692,6.088,34.499,7.394      c13.402,1.481,26.259,2.009,39.156,2.738c13.681,0.773,27.239,1.385,40.249,1.642c13.336,0.264,26.476,1.37,40.249,1.37      c14.568,0,26.469-1.777,36.144-5.749c10.27-4.217,16.083-10.643,23.272-18.621c6.517-7.233,13.114-14.758,20.537-21.357      c7.379-6.557,14.955-13.094,24.64-16.974C503.742,323.933,508.193,322.474,511.995,324.252z"/>
				<g>
					<g>
						<path style="fill-rule:evenodd;clip-rule:evenodd;fill:#DF3333;" d="M435.051,431.954c-1.449-0.508-2.977-1.558-3.293-2.664        c-1.205-4.303,8.431-13.417,12.746-10.126c3.562,2.713,1.624,6.13-2.042,9.255        C439.722,430.752,437.747,432.902,435.051,431.954z"/>
						<path style="fill-rule:evenodd;clip-rule:evenodd;fill:#DF3333;" d="M451.13,396.87c-1.094-0.126-2.264-0.523-2.94-1.392        c-1.239-1.629-1.015-7.668,0.304-10.805c2.128-5.11,9.344-3.36,9.282,2.121C457.731,391.676,456.008,397.413,451.13,396.87z"/>
						<path style="fill-rule:evenodd;clip-rule:evenodd;fill:#DF3333;" d="M417.243,418.747c-8.314-0.543-1.57-12.516,3.713-11.467        C428.509,408.779,422.289,419.073,417.243,418.747z"/>
						<path style="fill-rule:evenodd;clip-rule:evenodd;fill:#DF3333;" d="M389.732,433.564c-0.903-5.658,4.375-5.169,10.289-4.868        c5.416,0.281,10.178,0.222,10.267,4.685c0.022,1.069-0.346,2.814-1.355,3.792c-3.271,3.175-16.56,0.78-18.332-1.057        C390.067,435.559,389.838,434.23,389.732,433.564z"/>
					</g>
					<g>
						<path style="fill-rule:evenodd;clip-rule:evenodd;fill:#F7F7FC;" d="M252.568,433.554c-0.647-6.216-7.734-8.097-9.788-3.486        C240.15,435.964,251.183,442.251,252.568,433.554z"/>
						<path style="fill-rule:evenodd;clip-rule:evenodd;fill:#F7F7FC;" d="M263.899,424.921c1.284-0.758,2.538-2.042,2.626-3.155        c0.343-4.308-10.524-11.151-14.002-7.214c-2.864,3.239-0.39,6.122,3.678,8.396        C259.245,424.652,261.524,426.321,263.899,424.921z"/>
						<path style="fill-rule:evenodd;clip-rule:evenodd;fill:#F7F7FC;" d="M242.871,409.067c5.014-2.365,1.75-6.317-1.713-10.882        c-3.17-4.179-5.72-8.016-9.341-5.653c-0.862,0.56-2.059,1.809-2.291,3.147c-0.758,4.342,8.398,13.671,10.833,14.089        C241.094,409.885,242.281,409.344,242.871,409.067z"/>
					</g>
				</g>
			</g>
		</g>
	</g>
</g>















</svg>
