<?xml version="1.0" encoding="UTF-8"?>
<!-- Generator: Adobe Illustrator 25.2.1, SVG Export Plug-In . SVG Version: 6.00 Build 0)  -->
<svg xmlns="http://www.w3.org/2000/svg" xmlns:xlink="http://www.w3.org/1999/xlink" version="1.1" id="Capa_1" x="0px" y="0px" viewBox="0 0 512 512" style="enable-background:new 0 0 512 512;" xml:space="preserve" width="512" height="512">
<g>
	<g>
		<g>
			<g>
				<path id="XMLID_5_" style="fill:#00AF93;" d="M325.244,361.944h-38.267c-9.554-9.543-8.611-23.433-8.611-23.433      s0-140.152,0-150.671c0-10.529,7.173-44.964,14.351-58.837c6.358-12.297,12.094-33.979,14.95-51.736      c0.367-2.282,17.577-64.5,17.577-64.5l17.603,64.5c2.861,17.757,8.563,39.439,14.924,51.736      c7.175,13.872,14.346,48.308,14.346,58.837c0,10.52,0,150.671,0,150.671s0.941,13.89-8.608,23.433H325.244z"/>
				<g>
					<path style="fill-rule:evenodd;clip-rule:evenodd;fill:#42758A;" d="M315.216,87.018c5.159-3.86,6.124,14.138,1.538,14.136       C312.815,101.154,313.616,89.498,315.216,87.018z"/>
					<path style="fill-rule:evenodd;clip-rule:evenodd;fill:#42758A;" d="M318.817,106.295c1.216,1.993,1.461,7.847-1.54,7.461       C314.7,113.42,314.634,104.52,318.817,106.295z"/>
					<path style="fill-rule:evenodd;clip-rule:evenodd;fill:#42758A;" d="M300.303,160.544c-1.536-0.083-3.081-0.557-3.856-2.054       c-1.74-3.36,0.334-12.394,4.112-9.512C302.813,150.691,302.206,158.602,300.303,160.544z"/>
					<path style="fill-rule:evenodd;clip-rule:evenodd;fill:#42758A;" d="M302.1,165.174c5.089-1.845,5.486,8.542,1.801,8.997       C300.038,174.649,298.774,166.381,302.1,165.174z"/>
					<path style="fill-rule:evenodd;clip-rule:evenodd;fill:#42758A;" d="M293.876,169.543c4.415-1.178,5.385,12.282,3.599,17.228       c-0.685,1.894-2.225,3.689-3.858,3.597C289.125,190.121,290.027,170.569,293.876,169.543z"/>
				</g>
				
					<rect id="XMLID_4_" x="290.299" y="202.883" transform="matrix(-1 -1.224647e-16 1.224647e-16 -1 650.4857 493.816)" style="fill:#752C00;" width="69.887" height="88.05"/>
			</g>
			<g>
				<g>
					<path id="XMLID_3_" style="fill:#752C00;" d="M314.604,14.559h21.305c3.185,0,5.767-2.582,5.767-5.767v-3.03       c0-3.182-2.58-5.762-5.762-5.762h-21.305c-3.185,0-5.766,2.582-5.766,5.766v3.031C308.841,11.98,311.421,14.559,314.604,14.559       z"/>
					<path id="XMLID_2_" style="fill:#752C00;" d="M325.259,77.267h-17.592c2.271-12.358,4.196-63.782,4.196-63.782h13.396h13.388       c0,0,1.929,51.424,4.2,63.782H325.259z"/>
				</g>
				<g>
					<path style="fill-rule:evenodd;clip-rule:evenodd;fill:#F7F7FC;" d="M329.209,29.393c0.615-0.56,1.944-0.678,2.826-0.261       c1.578,2.462,1.865,7.836,1.543,12.6c-0.13,1.979-0.428,6.557-2.829,6.688c-2.98,0.158-3.254-6.109-3.342-9.001       C327.282,35.169,328.156,31.91,329.209,29.393z"/>
					<path style="fill-rule:evenodd;clip-rule:evenodd;fill:#F7F7FC;" d="M332.035,56.129c2.17,1.834,1.734,10.91-1.027,11.055       C327.752,67.359,326.861,55.093,332.035,56.129z"/>
				</g>
			</g>
		</g>
		<g>
			<path id="XMLID_1_" style="fill:#BFDBE2;" d="M387.052,250.081c-18.09-8.4-28.423-26.49-31.333-53.298     c-2.905-26.808,13.565-84.633,13.565-84.633h37.767h37.624c0,0,16.471,57.825,13.563,84.633     c-2.903,26.808-13.243,44.898-31.333,53.298c-18.092,8.398-16.148,56.853-14.537,76.235c1.615,19.383,5.492,32.627,17.445,36.828     c11.95,4.198,23.578,6.137,24.23,8.073h-46.992h-47.132c0.647-1.935,12.273-3.875,24.23-8.073     c11.95-4.2,15.826-17.445,17.438-36.828C403.202,306.934,405.144,258.479,387.052,250.081z"/>
			<path style="fill:#FF4E4E;" d="M365.277,212.975c0.79,2.515,1.725,5.117,2.839,7.816c10.259,24.811,37.999,24.247,38.848,24.228     c0.847,0.02,28.592,0.584,38.85-24.228c1.104-2.675,2.034-5.28,2.827-7.816H365.277z"/>
			<path style="fill:#7AB0C9;" d="M444.923,111.141c0.322,7.298-16.256,13.963-37.034,14.884     c-20.769,0.917-38.791-4.74-39.114-12.032c-0.325-7.3,17.175-13.482,37.944-14.401C427.5,98.672,444.598,103.844,444.923,111.141     z"/>
			<g>
				<path style="fill-rule:evenodd;clip-rule:evenodd;fill:#7AB0C9;" d="M362.407,190.67c5.166-3.858,6.131,14.14,1.549,14.14      C360.009,204.81,360.814,193.151,362.407,190.67z"/>
				<path style="fill-rule:evenodd;clip-rule:evenodd;fill:#7AB0C9;" d="M439.685,126.606c0.555-0.619,1.867-0.878,2.787-0.551      c1.823,2.282,2.673,7.599,2.846,12.367c0.079,1.979,0.263,6.568-2.111,6.943c-2.945,0.474-3.877-5.734-4.266-8.599      C438.375,132.548,438.904,129.222,439.685,126.606z"/>
				<path style="fill-rule:evenodd;clip-rule:evenodd;fill:#F7F7FC;" d="M374.91,186.505c1.224,1.99,1.466,7.847-1.543,7.459      C370.796,193.63,370.73,184.732,374.91,186.505z"/>
				<path style="fill-rule:evenodd;clip-rule:evenodd;fill:#7AB0C9;" d="M365.146,174.539c2.168,1.834,1.736,10.906-1.031,11.055      C360.858,185.765,359.973,173.501,365.146,174.539z"/>
				<path style="fill-rule:evenodd;clip-rule:evenodd;fill:#F7F7FC;" d="M442.575,183.472c-1.538-0.081-3.081-0.557-3.86-2.056      c-1.736-3.357,0.336-12.389,4.112-9.51C445.089,173.624,444.479,181.53,442.575,183.472z"/>
				<path style="fill-rule:evenodd;clip-rule:evenodd;fill:#7AB0C9;" d="M434.464,193.072c5.087-1.845,5.486,8.54,1.799,8.992      C432.402,202.543,431.133,194.275,434.464,193.072z"/>
				<path style="fill-rule:evenodd;clip-rule:evenodd;fill:#F7F7FC;" d="M448.199,183.946c4.413-1.176,5.387,12.282,3.597,17.228      c-0.682,1.896-2.225,3.689-3.855,3.599C443.448,204.527,444.35,184.973,448.199,183.946z"/>
			</g>
		</g>
		<g>
			<path style="fill-rule:evenodd;clip-rule:evenodd;fill:#FAC549;" d="M253.268,238.212c-13.815-1.472-23.148,6.232-34.227,9.493     c-8.306,2.44-18.086,2.434-28.46,3.302c-20.486,1.703-36.977,4.007-50.729,12.367c-6.993,4.25-12.569,8.841-18.551,13.199     c-5.969,4.336-13.32,8.172-20.214,11.13c-16.767,7.222-28.289,10.638-37.527,25.577c-4.832,7.814-6.756,19.815-8.253,29.277     c-1.762,11.158-2.78,22.15-0.825,32.167c3.552,18.16,14.287,35.401,21.035,49.903c7.906,16.984,18.34,28.621,33.823,37.115     c14.713,8.077,34.15,12.409,49.484,21.035c21.528,12.115,40.547,33.531,76.301,28.46c9.385-1.336,18.579-4.446,27.214-7.836     c8.251-3.25,15.347-8.031,23.508-11.955c7.915-3.82,16.453-6.287,26.391-9.085c17.914-5.038,34.89-10.945,44.54-25.981     c4.926-7.658,7.658-16.62,13.199-23.095c8.02-9.352,18.983-13.754,26.393-21.86c14.518-15.848,22.378-45.563,14.434-75.048     c-6.269-23.282-24.368-40.812-44.541-51.558c-10.195-5.435-22.296-8.746-35.046-12.782c-12.795-4.051-23.881-8.319-34.24-14.024     c-9.973-5.493-19.424-12.302-30.927-16.912C262.267,239.586,259.429,238.879,253.268,238.212"/>
			<path style="fill-rule:evenodd;clip-rule:evenodd;fill:#B25B1A;" d="M252.032,241.102c-3.5-0.175-7.458-0.086-7.842,3.302     c-0.538,4.711,10.965,7.41,15.668,7.84c4.239,0.38,7.445-0.459,7.842-2.892C268.628,243.693,257.698,241.392,252.032,241.102"/>
			<path style="fill-rule:evenodd;clip-rule:evenodd;fill:#B25B1A;" d="M285.43,264.612c8.371-3.039-9.047-14.792-10.307-7.426     C274.333,261.827,281.882,263.08,285.43,264.612"/>
			<path style="fill-rule:evenodd;clip-rule:evenodd;fill:#B25B1A;" d="M169.135,273.275c-1.486-0.445-6.094,1.203-5.359,4.948     c0.182,0.935,1.027,2.216,2.06,2.473C168.549,281.359,175.222,275.09,169.135,273.275"/>
			<path style="fill-rule:evenodd;clip-rule:evenodd;fill:#B25B1A;" d="M157.999,286.465c-4.299-1.194-10.634,3.026-15.676,5.365     c-3.761,1.769-12.453,4.643-11.959,8.659c0.54,4.283,8.158,2.655,12.376,1.65c3.886-0.924,8.626-2.047,11.959-4.119     C158.187,295.842,165.104,288.455,157.999,286.465"/>
			<path style="fill-rule:evenodd;clip-rule:evenodd;fill:#B25B1A;" d="M363.787,291.012c-1.788,5.606,4.845,7.834,8.253,9.892     c3.763,2.28,7.755,6.717,12.367,5.773c2.853-3.869-1.319-6.853-4.531-9.493C375.18,293.351,370.44,288.817,363.787,291.012"/>
			<path style="fill-rule:evenodd;clip-rule:evenodd;fill:#B25B1A;" d="M91.598,300.081c2.776,1.284,14.43-1.894,10.73-7.015     C97.679,292.504,89.92,294.308,91.598,300.081"/>
			<path style="fill-rule:evenodd;clip-rule:evenodd;fill:#B25B1A;" d="M395.129,321.524c4.843-3.298-6.568-15.738-8.657-9.076     C385.621,315.176,391.17,323.286,395.129,321.524"/>
			<path style="fill-rule:evenodd;clip-rule:evenodd;fill:#B25B1A;" d="M62.734,334.723c-4.705,0.408-5.293,10.864-1.235,11.547     C66.561,347.125,67.248,336.491,62.734,334.723"/>
			<path style="fill-rule:evenodd;clip-rule:evenodd;fill:#B25B1A;" d="M60.254,356.583c-2.804,3.489-1.422,10.107,0,15.255     c1.13,4.077,3.195,11.325,7.838,10.722c7.5-0.988-1.683-24.103-3.298-25.568C63.673,355.975,61.918,356.012,60.254,356.583"/>
			<path style="fill-rule:evenodd;clip-rule:evenodd;fill:#B25B1A;" d="M407.924,380.501c-0.794-1.367-2.997-2.245-4.953-1.238     c-1.834,3.248-7.257,16.174-1.648,16.905C405.449,396.715,408.255,386.428,407.924,380.501"/>
			<path style="fill-rule:evenodd;clip-rule:evenodd;fill:#B25B1A;" d="M313.893,434.528c-2.837-0.647-12.468,7.882-12.369,11.134     c0.037,1.38,1.556,3.482,2.886,3.704c2.787,0.483,4.99-3.331,7.009-5.352C312.767,442.653,320.682,436.075,313.893,434.528"/>
			<path style="fill-rule:evenodd;clip-rule:evenodd;fill:#B25B1A;" d="M97.374,436.998c-1.92-0.454-3.234-0.301-3.708,2.067     c-0.891,4.463,8.608,10.642,9.48,4.948C103.45,442.03,98.568,437.284,97.374,436.998"/>
			<path style="fill-rule:evenodd;clip-rule:evenodd;fill:#B25B1A;" d="M353.07,447.314c-3.73-1.834-8.042,2.025-11.136,4.123     c-2.229,1.505-4.733,3.12-7.421,4.944c-3.948,2.69-14.002,7.898-13.195,11.961c1.086,5.512,12.613,0.042,15.259-1.235     c4.648-2.247,10.564-5.839,13.197-8.246C351.538,457.228,358.115,449.796,353.07,447.314"/>
			<path style="fill-rule:evenodd;clip-rule:evenodd;fill:#B25B1A;" d="M120.471,451.85c-4.178-0.641-5.747-0.287-6.601,1.65     c-2.532,5.74,13.37,10.366,14.845,5.361C129.911,454.821,123.756,452.354,120.471,451.85"/>
			<path style="fill-rule:evenodd;clip-rule:evenodd;fill:#B25B1A;" d="M146.452,452.262c-1.881-0.209-5.319-0.726-5.775,2.473     c-0.649,4.505,8.479,8.097,13.192,10.309c3.241,1.519,14.829,7.461,16.093,2.062c0.968-4.156-7.283-8.117-9.894-9.49     C156.133,455.562,151.508,452.811,146.452,452.262"/>
			<path style="fill-rule:evenodd;clip-rule:evenodd;fill:#B25B1A;" d="M313.063,470.822c-3.134-1.44-10.998,1.929-10.311,5.773     C303.875,482.877,320.572,474.26,313.063,470.822"/>
			<path style="fill-rule:evenodd;clip-rule:evenodd;fill:#B25B1A;" d="M210.788,484.427c-4.079,4.983,14.752,10.807,13.611,3.302     C223.954,484.784,213.704,482.05,210.788,484.427"/>
			<path style="fill-rule:evenodd;clip-rule:evenodd;fill:#B25B1A;" d="M238.829,496.8c-3.702-0.204-21.535-0.228-21.439,5.773     c0.07,4.158,7.656,4.983,12.775,4.95c6.655-0.033,16.945-1.723,16.501-7.011C246.397,497.277,242.702,497.011,238.829,496.8"/>
			<path style="fill-rule:evenodd;clip-rule:evenodd;fill:#B25B1A;" d="M202.537,502.159c2.473,1.681,6.359,0.757,6.601-1.646     C209.574,496.138,200.189,495.973,202.537,502.159"/>
			<path style="fill-rule:evenodd;clip-rule:evenodd;fill:#FF4E4E;" d="M226.868,256.368c-11.799-1.196-24.5,3.513-32.162,8.244     c-7.434,4.582-14.709,12.045-20.205,18.966c-6.886,8.67-13.247,17.434-23.508,21.867c-8.391,3.605-19.049,3.829-29.283,5.365     c-9.732,1.446-18.832,4.226-25.983,8.238c-9.069,5.084-17.827,14.065-17.322,29.698c0.38,11.852,6.287,20.006,9.073,32.581     c2.666,12.032,1.152,27.106,5.361,36.292c9.146,19.962,39.478,22.529,60.212,30.519c9.771,3.765,18.849,8.22,27.631,13.197     c15.749,8.916,35.919,22.738,58.968,21.856c11.555-0.432,21.794-4.352,30.527-10.309c16.251-11.079,24.752-31.666,40.415-41.236     c6.811-4.167,15.869-7.222,25.156-9.082c9.1-1.819,20.104-1.619,29.702-4.529c14.232-4.319,24.32-17.535,29.272-30.936     c3.888-10.522,4.121-22.58,1.233-34.64c-5.486-23.036-17.204-37.119-32.169-47.843c-14.553-10.425-37.756-15.643-60.62-19.378     c-11.753-1.927-21.483-5.19-30.514-9.495C256.588,268.094,248.699,258.571,226.868,256.368"/>
			<path style="fill-rule:evenodd;clip-rule:evenodd;fill:#FFFFFF;" d="M292.858,306.677c-8.178-1.233-22.132,2.651-20.203,15.678     c0.88,5.997,6.08,9.234,11.123,11.544c7.636,3.489,16.892,2.646,23.521,6.601c8.479,5.051,11.843,13.601,17.726,19.378     c3.928,3.858,9.76,8.646,16.082,8.244c4.856-0.298,9.565-4.97,10.309-8.65c1.214-5.977-1.685-10.072-4.121-13.611     c-2.501-3.641-6.508-6.82-6.594-10.728c-0.138-5.492,5.799-8.04,5.769-13.609c-0.026-4.981-4.347-8.742-8.246-10.307     c-7.755-3.116-18.173,1.016-27.218,0.408C303.621,311.132,299.739,307.724,292.858,306.677"/>
			<path style="fill-rule:evenodd;clip-rule:evenodd;fill:#FFFFFF;" d="M187.278,312.042c-9.328-0.944-21.95,0.292-28.862,3.706     c-6.149,3.03-13.892,11.479-10.726,21.862c1.911,6.276,9.528,9.743,17.726,9.071c10.19-0.838,18.186-8.275,26.815-9.071     c7.347-0.68,22.334,4.103,24.331-3.711c1.85-7.248-6.577-13.587-9.896-15.672C200.641,314.434,194.991,312.819,187.278,312.042"/>
			<path style="fill-rule:evenodd;clip-rule:evenodd;fill:#FFFFFF;" d="M205.019,372.255c-0.856-2.372-3.605-3.408-6.188-4.946     c-5.222-3.129-13.469-7.592-12.784-15.672c0.685-8.099,9.971-8.099,14.834-6.19c6.17,2.42,11.149,8.099,16.916,10.309     c3.877,1.481,7.516,2.488,12.784,2.886c14.952,1.134,25.573-7.395,38.357-7.421c10.491-0.026,21.608,3.871,23.095,10.722     c1.407,6.458-2.111,11.621-6.186,14.024c-4.865,2.866-11.514,1.72-15.67,5.773c2.148,4.979,8.104,14.807,2.475,19.793     c-4.163,3.693-13.984,0.869-18.977-1.235c-5.683-2.389-10.603-6.3-16.907-7.009c-6.111-0.687-11.573,2.061-16.907,2.469     c-8.089,0.621-13.342,0.29-17.324-4.944C201.297,381.655,207.386,378.86,205.019,372.255 M197.181,363.177     C195.855,362.606,200.338,364.529,197.181,363.177"/>
			<path style="fill-rule:evenodd;clip-rule:evenodd;fill:#FFFFFF;" d="M167.07,375.548c-6.517-1.2-16.679,2.675-18.143,9.896     c-1.047,5.17,1.887,10.107,3.713,13.616c1.966,3.777,5.299,7.966,5.359,11.95c0.11,7.382-10.524,13.212-8.663,22.275     c0.985,4.744,7.816,8.163,11.968,8.668c5.22,0.639,8.916-1.481,14.013-0.834c7.735,1.001,13.269,8.591,23.515,7.015     c6.899-1.058,12.4-7.735,10.722-16.905c-0.952-5.203-5.054-9.335-10.722-13.197c-5.187-3.539-10.533-6.1-13.197-10.313     c-4.099-6.484-2.679-17.678-7.015-24.745C176.642,379.737,172.837,376.604,167.07,375.548"/>
			<path style="fill-rule:evenodd;clip-rule:evenodd;fill:#00AF93;" d="M223.984,302.967c-2.385,1.874-8.218,0.305-10.311,2.478     c-1.578,12.273,12.451,14.191,18.147,21.03c-1.001,3.031-3.959,2.129-4.538,4.951c-0.862,4.241,4.13,7.906,7.842,10.304     c4.281,2.787,8.707,5.282,12.363,5.782c2.027-2.212,0.649-3.695,0.829-5.782c0.327-3.761,1.503-7.542,2.89-11.128     c2.032-5.275,6.126-9.773,2.885-16.089c-3.05-0.79-5.064,1.023-7.426,2.069c-4.472-6.397,3.711-28.09-4.948-28.875     c-3.891-0.344-4.711,3.632-6.594,6.186c-5.389-3.618-7.586-15.968-14.03-19.382c-4.814-2.559-8.288,1.001-7.829,7.009     C213.928,290.198,221.075,296.432,223.984,302.967"/>
			<path style="fill-rule:evenodd;clip-rule:evenodd;fill:#00AF93;" d="M118.823,329.364c-6.01,10.497,2.686,20.932,3.708,30.929     c-4.582-0.65-5.957-4.487-11.546-4.123c-2.341,2.159-1.56,5.683-0.83,7.834c2.131,6.258,9.122,11.733,11.961,16.912     c-5.543-2.692-10.884-2.027-9.072,6.181c1.13,5.146,7.671,13.917,11.139,16.905c2.1,1.826,5.297,3.805,7.834,2.89     c0.865-6.388,1.786-10.939,4.542-15.668c2.53-4.358,7.017-7.709,8.242-11.961c0.571-1.99,0.97-5.078-0.825-7.009     c-3.204-1.097-5.275,1.273-7.838,2.06c-0.535-10.333,5.617-17.965,6.601-26.804c0.268-2.409,0.312-6.067-1.238-8.25     c-6.276-1.784-8.229,4.083-10.311,7.836C127.735,340.768,129.152,327.451,118.823,329.364"/>
			<path style="fill-rule:evenodd;clip-rule:evenodd;fill:#00AF93;" d="M364.209,371.015c-1.606-2.752-0.593-6.486-3.713-7.011     c-6.743-1.132-7.809,14.439-12.378,16.912c-1.824-1.341-1.345-4.983-3.292-6.192c-5.819-0.564-7.823,5.187-10.32,8.251     c-2.813,3.463-6.392,6.75-10.304,8.244c-3.61,1.382-5.817,0.362-6.19,2.897c-0.577,3.932,5.262,3.392,10.728,4.114     c5.712,0.753,12.209,4.472,15.672,4.953c9.284,1.286,9.783-7.447,2.883-9.894c5.8-3.259,22.114-2.602,28.454-6.19     c2.293-1.295,4.997-4.496,3.309-7.419c-1.584-1.446-4.233-1.826-7.432-1.648c3.985-3.952,13.693-9.058,11.549-18.152     c-0.836-3.557-4.724-5.141-8.659-3.296C369.892,358.746,366.486,367.743,364.209,371.015"/>
			<path style="fill-rule:evenodd;clip-rule:evenodd;fill:#00AF93;" d="M223.984,406.892c-0.406,3.853,2.499,4.369,2.469,7.838     c-4.086,0.217-15.112-4.044-16.078,2.063c-1.369,8.602,18.307,8.161,21.033,14.017c-1.703,3.388-7.18,2.991-6.188,9.078     c8.343,8.044,20.761-6.603,30.528-0.413c0.197,3.094-5.525,5.589-3.307,10.719c5.503,3.816,9.486-1.94,12.782-4.534     c1.97-1.545,4.134-2.508,6.19-3.708c2.014-1.183,4.409-2.267,5.776-4.125c-1.508-2.563-3.913-2.251-5.776-3.3     c-2.038-1.163-4.274-3.074-5.775-4.948c-3.928-4.929-5.563-13.1-13.197-12.786c-1.547,1.758-0.371,6.225-1.65,8.253     c-5.587-1.67-8.545-8.143-12.784-12.378C234.704,409.363,229.582,404.448,223.984,406.892"/>
			<path style="fill-rule:evenodd;clip-rule:evenodd;fill:#FAC549;" d="M186.872,292.658c3.827,2.06,3.386-1.053,7.002-0.827     c4.926,0.314,4.983,8.714,9.491,3.713c0.522-5.523-4.959-9.896-10.726-9.486C189.729,286.268,185.046,288.151,186.872,292.658"/>
			<path style="fill-rule:evenodd;clip-rule:evenodd;fill:#FAC549;" d="M261.106,296.371c0.116-2.877,0.206-5.703-1.663-6.599     c-8.198,0.604-3.823,10.285-1.635,12.782c5.955,6.813,18.224,5.337,18.551-4.534c0.112-3.16-3.083-10.318-7.002-10.318     c-1.101,0-3.085,0.619-3.305,2.48c-0.287,2.482,4.781,3.489,4.538,7.421C270.265,302.622,262.631,301.237,261.106,296.371"/>
			<path style="fill-rule:evenodd;clip-rule:evenodd;fill:#FAC549;" d="M353.07,332.662c-0.132,1.494,0.064,2.682,0.413,3.715     c5.944,0.239,10.234,2.993,11.546,7.831c0.924,3.401-0.263,6.739,2.892,7.011c7.445,0.645,0.417-13.991-1.242-15.672     C363.221,332.039,358.264,330.11,353.07,332.662"/>
			<path style="fill-rule:evenodd;clip-rule:evenodd;fill:#FAC549;" d="M149.757,357.408c6.291-1.988,11.47,0.478,14.017,4.534     c-0.36,1.018-0.808,3.197,0,4.127c2.453,1.936,5.688-0.711,5.775-2.892c0.228-6.142-9.874-13.982-17.32-12.369     C149.23,351.452,146.487,354.935,149.757,357.408"/>
			<path style="fill-rule:evenodd;clip-rule:evenodd;fill:#FAC549;" d="M294.506,383.395c4.139,0.121,3.689,4.834,7.013,5.762     c5.837-1.565,0.437-9.212-2.886-10.717c-2.728-1.244-6.655-0.75-8.663,0.823c-1.474,1.156-5.453,9.844,0,9.894     C293.547,389.201,292.006,385.133,294.506,383.395"/>
			<path style="fill-rule:evenodd;clip-rule:evenodd;fill:#FAC549;" d="M297.398,404.834v2.471c1.501,1.929,5.879,0.994,7.831,2.484     c-1.288,3.621-6.056,4.663-10.304,4.114c-1.277-0.652-0.783-3.063-2.482-3.298c-6.642-0.706-4.334,6.524-1.648,8.248     c5.721,3.678,19.218-0.406,20.21-7.428C311.858,405.413,303.996,400.61,297.398,404.834"/>
			<path style="fill-rule:evenodd;clip-rule:evenodd;fill:#FAC549;" d="M108.508,421.746h3.294c2.017-1.152,0.296-6.037,2.899-6.598     c4.101,0.02,5.216,3.035,7.009,5.359c8.812-0.07,1.099-10.895-5.767-11.136C110.009,409.163,104.077,415.889,108.508,421.746"/>
			<path style="fill-rule:evenodd;clip-rule:evenodd;fill:#FAC549;" d="M220.682,465.871c0.013-0.404,0.511-0.325,0.825-0.417     c1.685-1.606-0.231-6.835,2.477-7.421c6.32-0.417,3.366,6.998,8.253,7.011c5.363,0.011,1.044-8.13-0.83-9.892     c-4.332-4.086-13.39-3.954-14.847,3.3C216.17,460.392,215.361,465.974,220.682,465.871"/>
		</g>
	</g>
</g>















</svg>
