<svg id="Layer_1" data-name="Layer 1" xmlns="http://www.w3.org/2000/svg" xmlns:xlink="http://www.w3.org/1999/xlink" viewBox="0 0 337.79 288.76" width="406" height="306" class="illustration styles_illustrationTablet__1DWOa"><defs><linearGradient id="linear-gradient" x1="166.6" y1="148.19" x2="201.46" y2="131.43" gradientUnits="userSpaceOnUse"><stop offset="0.01"></stop><stop offset="0.13" stop-opacity="0.69"></stop><stop offset="1" stop-opacity="0"></stop></linearGradient><linearGradient id="linear-gradient-2" x1="189.35" y1="133.44" x2="215.89" y2="133.44" xlink:href="#linear-gradient"></linearGradient><linearGradient id="linear-gradient-3" x1="1258.71" y1="196.22" x2="1320.97" y2="196.22" gradientTransform="matrix(-1, 0, 0, 1, 1574.3, 0)" xlink:href="#linear-gradient"></linearGradient><linearGradient id="linear-gradient-4" x1="1272.03" y1="189.52" x2="1314.64" y2="189.52" gradientTransform="matrix(-1, 0, 0, 1, 1574.3, 0)" xlink:href="#linear-gradient"></linearGradient><linearGradient id="linear-gradient-5" x1="247.86" y1="179.08" x2="286.54" y2="179.08" xlink:href="#linear-gradient"></linearGradient><linearGradient id="linear-gradient-6" x1="109.07" y1="196.22" x2="171.33" y2="196.22" xlink:href="#linear-gradient"></linearGradient><linearGradient id="linear-gradient-7" x1="122.39" y1="189.52" x2="164.99" y2="189.52" xlink:href="#linear-gradient"></linearGradient><linearGradient id="linear-gradient-8" x1="139.28" y1="222.28" x2="196.89" y2="222.28" xlink:href="#linear-gradient"></linearGradient><linearGradient id="linear-gradient-9" x1="185.09" y1="179.91" x2="127.69" y2="159.11" xlink:href="#linear-gradient"></linearGradient><linearGradient id="linear-gradient-10" x1="198.97" y1="127.82" x2="162.75" y2="190.99" xlink:href="#linear-gradient"></linearGradient><linearGradient id="linear-gradient-11" x1="161.03" y1="162.5" x2="203.09" y2="162.5" xlink:href="#linear-gradient"></linearGradient><linearGradient id="linear-gradient-12" x1="147.27" y1="177.47" x2="166.72" y2="177.47" xlink:href="#linear-gradient"></linearGradient><linearGradient id="linear-gradient-13" x1="236.17" y1="138.99" x2="246.31" y2="138.99" xlink:href="#linear-gradient"></linearGradient><linearGradient id="linear-gradient-14" x1="222.05" y1="275.56" x2="226.93" y2="241.93" xlink:href="#linear-gradient"></linearGradient><linearGradient id="linear-gradient-15" x1="213.06" y1="259.33" x2="233.29" y2="259.33" xlink:href="#linear-gradient"></linearGradient><linearGradient id="linear-gradient-16" x1="207.14" y1="90.37" x2="209.45" y2="206.51" xlink:href="#linear-gradient"></linearGradient><linearGradient id="linear-gradient-17" x1="202.06" y1="174.38" x2="231.34" y2="174.38" xlink:href="#linear-gradient"></linearGradient></defs><title>7</title><path d="M197.75,56c-1.73.25-3.46.45-5.19.61-34.92,3.19-71.87-11.82-104.24,1.65-40.7,17-52.19,69.35-49.86,113.38A359.84,359.84,0,0,0,50.27,246c6.1,22.68,15.68,46.39,35.6,58.83C102,314.94,122,315.82,141,316.42l76.29,2.37c30.65.95,62.88,1.55,90-12.74,31.57-16.63,60.43-57.3,67.5-92.13,3.38-16.69-1.45-29.44-2.09-45.88-.9-23.45,4.65-45.21-.32-68.88-6.07-28.88-24.79-57-53-65.68C279.39,21.11,239.31,50.19,197.75,56Z" transform="translate(-38.17 -30.45)" fill="#519fff" opacity="0.18" style="isolation: isolate;"></path><ellipse cx="170.97" cy="238.58" rx="135.71" ry="17.19" fill="#519fff" opacity="0.18" style="isolation: isolate;"></ellipse><path d="M182,144.08l13.48-11.82a2,2,0,0,1,1-.58,1.67,1.67,0,0,1,1.28.55c1.62,1.53,1.81,4.13,1,6.23a17.18,17.18,0,0,1-3.77,5.47l-9.91,11a9.78,9.78,0,0,1-2.34,2.11,6.7,6.7,0,0,1-3.27.79,19.77,19.77,0,0,1-7.44-1.87c-4-1.61-8.35-3.5-10.5-7.28-2.36-4.14-1.88-15.94,4.43-16.63C171.84,131.44,178.64,140.45,182,144.08Z" transform="translate(-38.17 -30.45)" fill="#519fff"></path><path d="M182,144.08l13.48-11.82a2,2,0,0,1,1-.58,1.67,1.67,0,0,1,1.28.55c1.62,1.53,1.81,4.13,1,6.23a17.18,17.18,0,0,1-3.77,5.47l-9.91,11a9.78,9.78,0,0,1-2.34,2.11,6.7,6.7,0,0,1-3.27.79,19.77,19.77,0,0,1-7.44-1.87c-4-1.61-8.35-3.5-10.5-7.28-2.36-4.14-1.88-15.94,4.43-16.63C171.84,131.44,178.64,140.45,182,144.08Z" transform="translate(-38.17 -30.45)" fill="url(#linear-gradient)"></path><path d="M195.23,132.16s-7.2-7.49-5.66-10.27,7.32-5.09,8.22-4.45,14.5,21.25,14.5,21.25l-.89,2.51,4.49,5.84-2.89,2.5-4.94-5.49-5-1.1Z" transform="translate(-38.17 -30.45)" fill="#3e3e52"></path><path d="M195.23,132.16s-7.2-7.49-5.66-10.27,7.32-5.09,8.22-4.45,14.5,21.25,14.5,21.25l-.89,2.51,4.49,5.84-2.89,2.5-4.94-5.49-5-1.1Z" transform="translate(-38.17 -30.45)" fill="url(#linear-gradient-2)"></path><path d="M240.3,220.88q-9.41,18.48-19.68,36.5a28.48,28.48,0,0,0,12-1.23,4.46,4.46,0,0,0,2.1-1.2c.76-.92.73-2.22.88-3.39a18.17,18.17,0,0,1,2.22-6,119.61,119.61,0,0,1,8.49-13.91c4.49-6.35,9.76-12.58,11.24-20.21a2.25,2.25,0,0,0-.14-1.7,2.2,2.2,0,0,0-2-.64,13.56,13.56,0,0,0-8.69,3.89" transform="translate(-38.17 -30.45)" fill="#e4a98a"></path><polyline points="227.41 191.83 219.71 189.52 209.69 234.72 212 234.72" fill="#3e3e52"></polyline><polyline points="248.15 191.83 255.86 189.52 265.87 234.72 263.56 234.72" fill="#3e3e52"></polyline><path d="M304.73,165.48c5.17,1.41,8.85,6.29,10.16,11.49s.6,10.69-.5,15.94c-1.78,8.54-4.86,17.25-11.34,23.09-4.15,3.74-9.41,6-14.67,7.93s-10.62,3.48-16.16,3.43-11.26-1.91-15-6a15.92,15.92,0,0,1-2.72-16.51c2-4.64,6.1-8,10.44-10.62s9-4.55,13.21-7.4a47,47,0,0,0,13.88-14.54C294.76,167.54,298.74,163.84,304.73,165.48Z" transform="translate(-38.17 -30.45)" fill="#519fff"></path><path d="M257.25,221.33c3.7,4.12,9.44,6,15,6s11-1.55,16.16-3.43,10.52-4.19,14.67-7.93c6.49-5.84,9.56-14.56,11.34-23.09,1.1-5.25,1.8-10.74.49-15.94s-5-10.08-10.15-11.49a10.09,10.09,0,0,0-4-.32c-3.84.51-6.64,3.51-8.69,7.1a47,47,0,0,1-13.88,14.54,100.65,100.65,0,0,1-9.94,5.57c-1.1.59-2.19,1.19-3.26,1.83-4.35,2.59-8.47,6-10.45,10.62A15.92,15.92,0,0,0,257.25,221.33Z" transform="translate(-38.17 -30.45)" fill="url(#linear-gradient-3)"></path><path d="M259.69,204.65a3.94,3.94,0,0,0,.93,1.77q1.44,1.82,2.91,3.6a11.51,11.51,0,0,0,3.24,2.95,10.15,10.15,0,0,0,4.79.9,36.9,36.9,0,0,0,12.36-2.1,19.73,19.73,0,0,0,8.62-5.39,26.37,26.37,0,0,0,4-7.45c2-5,4-10,4.53-15.33.26-2.55.18-5.13.52-7.68.44-3.39,1.64-8.12-.84-10.76-3.84.51-6.64,3.51-8.69,7.1a47,47,0,0,1-13.88,14.54,100.65,100.65,0,0,1-9.94,5.57l-.63.79c-2.61,3.17-5.86,5.91-7.53,9.65A3.41,3.41,0,0,0,259.69,204.65Z" transform="translate(-38.17 -30.45)" fill="url(#linear-gradient-4)"></path><path d="M247.14,163.06a9.63,9.63,0,0,1-3.3-5,44.35,44.35,0,0,0-1.94-5.8,11.71,11.71,0,0,0-4.55-4.91,4.39,4.39,0,0,0-2.51-.75,4.51,4.51,0,0,0-2.49,1.26,6.52,6.52,0,0,0-2.42,4,6.6,6.6,0,0,0,2.15,5.06c1.31,1.37,2.9,2.45,4.18,3.84a38.23,38.23,0,0,1,2.79,3.77,32.56,32.56,0,0,0,17.42,12.27,4,4,0,0,0,3,0,4.2,4.2,0,0,0,1.06-1c1.83-2.16,3.52-4.76,3.88-7.63.14-1.07.22-2.87-.48-3.8s-2.44-1-3.63-1C255.89,163.42,251.3,165.89,247.14,163.06Z" transform="translate(-38.17 -30.45)" fill="#e4a98a"></path><path d="M246.3,101.39c3.32-5.38,10.52-8.21,16.44-6a4.52,4.52,0,0,0,1.75.44,5.36,5.36,0,0,0,1.82-.64,9.06,9.06,0,0,1,6.95.13,19.51,19.51,0,0,1,5.85,4A18.69,18.69,0,0,1,284,106c2.17,5.64-.28,12.18,1.52,18,2.1,6.71,9.44,10.85,11.25,17.65a11.58,11.58,0,0,1-1.74,9.66,10.5,10.5,0,0,1-8.74,4.28c-2.18-.1-4.27-.92-6.44-1.17a9.24,9.24,0,0,1-3-.54,5.76,5.76,0,0,1-1.89-1.66c-4-5-5.65-11.56-9.39-16.78-4.15-5.8-10.33-7.43-15.76-11.53-3.73-2.81-4.84-6.93-5.56-11.41A16.15,16.15,0,0,1,246.3,101.39Z" transform="translate(-38.17 -30.45)" fill="#3e3e52"></path><path d="M246.52,122.28l-.46,1.89a2.24,2.24,0,0,0-.06,1.2c.17.55.72.87,1.13,1.26,1.19,1.13,1.35,3,2.16,4.39,1.27,2.22,4,3.22,6.54,3.35a9.9,9.9,0,0,1,3.89.55c1.55.77,2.34,2.53,2.71,4.22a14.64,14.64,0,0,1,.32,3.85c-.2,3.74-1.83,7.39-1.37,11.1,3.23-.31,6.21-1.82,9.1-3.31s6.19-3.42,6.95-6.64c1.05-4.47-2.52-8.87-3.13-13.16-.78-5.49-.12-11.09-.87-16.6a13.79,13.79,0,0,0-2.63-7,12.51,12.51,0,0,0-3.72-2.89c-5.66-3.07-12.68-2.24-16.19,3.58a28.37,28.37,0,0,0-2.88,8.15Z" transform="translate(-38.17 -30.45)" fill="#e4a98a"></path><path d="M276.08,142.17s-1-1.16-2.92,0-9.73,12.12-11.78,11.93-5.81,7.69-4.75,11.48,4,6.35,4.33,10.58,2.89,13.77,2.89,13.77l-16,6.55s5.35,20.61,6.34,20,25.25-5.68,29.29-11.5,2.89-15.27,2.89-15.27-7.48-32.3-6.16-38.71A7.8,7.8,0,0,0,276.08,142.17Z" transform="translate(-38.17 -30.45)" fill="#519fff"></path><path d="M276.08,142.17s-1-1.16-2.92,0-9.73,12.12-11.78,11.93-5.81,7.69-4.75,11.48,4,6.35,4.33,10.58,2.89,13.77,2.89,13.77l-16,6.55s5.35,20.61,6.34,20,25.25-5.68,29.29-11.5,2.89-15.27,2.89-15.27-7.48-32.3-6.16-38.71A7.8,7.8,0,0,0,276.08,142.17Z" transform="translate(-38.17 -30.45)" fill="url(#linear-gradient-5)"></path><polyline points="100.16 191.83 92.46 189.52 82.44 234.72 84.75 234.72" fill="#3e3e52"></polyline><polyline points="115.44 191.83 123.15 189.52 133.16 234.72 130.85 234.72" fill="#3e3e52"></polyline><path d="M203.4,264.27a1.22,1.22,0,0,0,.63-.15c.61-.38.25-1.33-.22-1.87a20.73,20.73,0,0,0-3.56-3l-5-3.6a4.62,4.62,0,0,0-3.41-1.15l-4.28-.19a1.87,1.87,0,0,0-.91.12,1.64,1.64,0,0,0-.71.86,12.84,12.84,0,0,0-.95,4.8,4,4,0,0,0,.3,2.14c.58,1.06,2.14,1.12,3.19,1.3,1.67.28,3.34.51,5,.67A61.26,61.26,0,0,0,203.4,264.27Z" transform="translate(-38.17 -30.45)" fill="#519fff"></path><path d="M119.93,165.48c-5.17,1.41-8.85,6.29-10.16,11.49s-.6,10.69.5,15.94c1.78,8.54,4.86,17.25,11.34,23.09,4.15,3.74,9.41,6,14.67,7.93s10.62,3.48,16.16,3.43,11.27-1.91,15-6a15.92,15.92,0,0,0,2.72-16.51c-2-4.64-6.1-8-10.44-10.62s-9-4.55-13.21-7.4a47,47,0,0,1-13.88-14.54C129.9,167.54,125.92,163.84,119.93,165.48Z" transform="translate(-38.17 -30.45)" fill="#519fff"></path><path d="M167.41,221.33c-3.7,4.12-9.43,6-15,6s-11-1.55-16.16-3.43-10.52-4.19-14.67-7.93c-6.48-5.84-9.56-14.56-11.34-23.09-1.1-5.25-1.8-10.74-.49-15.94s5-10.08,10.15-11.49a10.09,10.09,0,0,1,4-.32c3.84.51,6.64,3.51,8.69,7.1a47,47,0,0,0,13.88,14.54,100.65,100.65,0,0,0,9.94,5.57c1.1.59,2.19,1.19,3.27,1.83,4.34,2.59,8.46,6,10.44,10.62A15.92,15.92,0,0,1,167.41,221.33Z" transform="translate(-38.17 -30.45)" fill="url(#linear-gradient-6)"></path><path d="M165,204.65a3.94,3.94,0,0,1-.93,1.77c-.95,1.21-1.93,2.41-2.91,3.6a11.38,11.38,0,0,1-3.24,2.95,10.15,10.15,0,0,1-4.79.9,36.9,36.9,0,0,1-12.36-2.1,19.73,19.73,0,0,1-8.62-5.39,26.37,26.37,0,0,1-4-7.45c-2-5-4-10-4.53-15.33-.26-2.55-.18-5.13-.52-7.68-.44-3.39-1.64-8.12.84-10.76,3.84.51,6.64,3.51,8.69,7.1a47,47,0,0,0,13.88,14.54,100.65,100.65,0,0,0,9.94,5.57l.63.79c2.61,3.17,5.86,5.91,7.53,9.65A3.41,3.41,0,0,1,165,204.65Z" transform="translate(-38.17 -30.45)" fill="url(#linear-gradient-7)"></path><path d="M139.33,204.46s-1.74,6.63,14.67,6,31.84-2.78,31.84-2.78v48.28h8.66s2.39-50.07,2.39-57.78-38.59-9.5-38.59-9.5Z" transform="translate(-38.17 -30.45)" fill="#3e3e52"></path><path d="M139.33,204.46s-1.74,6.63,14.67,6,31.84-2.78,31.84-2.78v48.28h8.66s2.39-50.07,2.39-57.78-38.59-9.5-38.59-9.5Z" transform="translate(-38.17 -30.45)" fill="url(#linear-gradient-8)"></path><path d="M188.63,111.13c0,2.23.17,4.61,1.54,6.37.43.55,1,1.18.79,1.84a2.26,2.26,0,0,1-.73.87c-1.47,1.33-2,3.38-2.61,5.27s-1.52,3.9-3.32,4.74-4.05.22-6,.78c-2.25.66-3.74,2.77-4.87,4.83-.17.29-.36.62-.69.71a1.2,1.2,0,0,1-.76-.13,35,35,0,0,1-6.51-3.38.85.85,0,0,1-.37-.38.87.87,0,0,1,.07-.59c2.19-6.13.85-12.87.59-19.37-.13-3.27.07-6.7,1.67-9.56,2.37-4.22,7.43-6.35,12.27-6.45a6.46,6.46,0,0,1,2.93.47,7.59,7.59,0,0,1,2.2,1.88C187.89,102.42,188.6,106.66,188.63,111.13Z" transform="translate(-38.17 -30.45)" fill="#e4a98a"></path><path d="M189.24,101c-2.3,1.52-4.09,4.21-6.84,4.39a17.55,17.55,0,0,0-2.9,0c-1.68.38-2.64,2.13-3.2,3.76a46.57,46.57,0,0,0-1.69,7.3,8.61,8.61,0,0,0-1.89-2.91,2.57,2.57,0,0,0-4.41,2.43,8.56,8.56,0,0,0,1.42,3.1q-1.59,2.79-3.31,5.51a48.89,48.89,0,0,1-6.06-10.29,24.71,24.71,0,0,1-2-11.68,13.07,13.07,0,0,1,3-7.57,7.93,7.93,0,0,1,7.44-2.65,2.43,2.43,0,0,0,1,.11,2.28,2.28,0,0,0,.83-.5c3.48-2.77,8.24-3.26,12.68-3a14.63,14.63,0,0,1,6.79,1.63,7.09,7.09,0,0,1,2.7,2.89,30.51,30.51,0,0,1,1.53,2.76C195.23,98.65,190.74,100,189.24,101Z" transform="translate(-38.17 -30.45)" fill="#3e3e52"></path><path d="M155.64,133.58a52.5,52.5,0,0,0-21.1,29.86,58.62,58.62,0,0,0-1.5,22.38,62.86,62.86,0,0,0,2.39,11c.44,1.4,1.37,2.94,1.65,4.33.21,1-.58,2.71.36,3.5a2.13,2.13,0,0,0,1.67.27A30.91,30.91,0,0,0,156,197.17a13.09,13.09,0,0,0,3.53-4.67c.87-2.21.75-4.67.85-7,.23-5.24,2-9.54,3.73-14.34s3.13-9.75,5.07-14.54a56.29,56.29,0,0,0,3.52-10.34,16.08,16.08,0,0,0-1.21-10.66C167.74,128.75,161.14,129.91,155.64,133.58Z" transform="translate(-38.17 -30.45)" fill="#519fff"></path><path d="M172.65,146.24a56.29,56.29,0,0,1-3.52,10.34c-.89,2.2-1.67,4.42-2.41,6.65-.89,2.62-1.73,5.27-2.66,7.9-1.7,4.79-3.51,9.09-3.73,14.33-.1,2.37,0,4.83-.85,7a11.35,11.35,0,0,1-2.47,3.64h0c-.33.36-.69.7-1.05,1A31,31,0,0,1,139.1,205a2.15,2.15,0,0,1-1.66-.26c-.94-.8-.15-2.47-.36-3.51-.28-1.39-1.21-2.93-1.65-4.33a63.78,63.78,0,0,1-2.39-11,58.62,58.62,0,0,1,1.49-22.38,52.57,52.57,0,0,1,21.11-29.86c5.5-3.67,12.1-4.83,15.8,2A16.14,16.14,0,0,1,172.65,146.24Z" transform="translate(-38.17 -30.45)" fill="url(#linear-gradient-9)"></path><path d="M166.27,166.82a38.87,38.87,0,0,0,5.83,6.59,28.61,28.61,0,0,0,4.67,3.62,19.29,19.29,0,0,0,22.57-2.6,12.13,12.13,0,0,0,3.48-5.49,7.18,7.18,0,0,0-1.1-6.25,3.48,3.48,0,0,0-1.54-1.17,4.4,4.4,0,0,0-2.85.26c-3.51,1.24-6.92,3.45-10.62,3-3.27-.37-6-2.76-8-5.36-3-3.88-5.09-8.42-7-13-2.73-6.39-9.36-7.77-10.44.16A29.7,29.7,0,0,0,166.27,166.82Z" transform="translate(-38.17 -30.45)" fill="#519fff"></path><path d="M202.82,168.94a12.16,12.16,0,0,1-3.48,5.5A19.31,19.31,0,0,1,176.77,177a28.61,28.61,0,0,1-4.67-3.62,38.87,38.87,0,0,1-5.83-6.59,29.71,29.71,0,0,1-5-20.18c0-.21.06-.42.1-.62,1.34-7.22,7.68-5.75,10.34.47,1.94,4.53,4,9.08,7,13,2,2.59,4.71,5,8,5.35,3.7.42,7.11-1.79,10.62-3a4.47,4.47,0,0,1,2.85-.26,2.8,2.8,0,0,1,.94.55,3.84,3.84,0,0,1,.59.62A7.15,7.15,0,0,1,202.82,168.94Z" transform="translate(-38.17 -30.45)" fill="url(#linear-gradient-10)"></path><path d="M250.18,178.88a7.24,7.24,0,0,1,4.29,1c1.25.93,1.75,2.54,2.18,4,2.63,9.07,5.55,18.21,10.84,26a3.13,3.13,0,0,1,.69,1.61,2.63,2.63,0,0,1-.66,1.57c-3,3.92-8.31,5.23-13.22,5.16a7.8,7.8,0,0,0-3.88.53,6.85,6.85,0,0,0-2.15,2.17c-2.65,3.65-5.47,7.59-9.72,9.09s-9,.33-12.88,2.36c-3,1.58-4.81,4.71-6.83,7.45-.77,1.06-1.74,2.16-3.05,2.3-1.84.19-3.22-1.54-4.46-2.92-2.55-2.83-5.92-4.76-9-7s-6.08-5-7.23-8.62c-.62,2.8-4.08,4-6.92,3.64s-5.42-1.9-8.21-2.55c-4.42-1-9,.09-13.54.41-2.63.18-5.61-.06-7.32-2.06-1.58-1.84-1.53-4.63-.72-6.92s2.24-4.31,3.24-6.52c2.16-4.76,2.22-10.16,2.79-15.35.49-4.5,1.6-10.85,5.31-14,1.83-1.54,4.91-1,7.18-1,3.35-.08,6.7-.16,10-.22q20.24-.4,40.48-.35Q238.8,178.71,250.18,178.88Z" transform="translate(-38.17 -30.45)" fill="#519fff"></path><path d="M263,117.56a21,21,0,0,1,3,.91,2.85,2.85,0,0,1,1.77,2.41c-.2-.93.88-1.76,1.81-1.56a2.46,2.46,0,0,1,1.7,2.06,3.72,3.72,0,0,1-2.34,4c1.71,2.17,1.36,5.23,1.51,8a19.7,19.7,0,0,0,2.65,8.81,12.41,12.41,0,0,0,4,4.38c1.17.72,2.91,1.08,3.79,0a3.44,3.44,0,0,0,.58-1.95c.94-10.55,1.2-21.45-2.36-31.41a22.41,22.41,0,0,0-3.27-6.31c-3-3.89-7.8-6.12-12.65-6.91-4.65-.75-10.57.57-8.71,6.27C256,110.83,258,116,263,117.56Z" transform="translate(-38.17 -30.45)" fill="#3e3e52"></path><path d="M274.14,142.17a8.47,8.47,0,0,0-3.29,3.42c-3.8,6.26-4.91,13.87-8.76,20.1a8.87,8.87,0,0,1-1.92,2.34,9.75,9.75,0,0,1-2.49,1.32,50.11,50.11,0,0,1-15,3.41c-2.44.17-4.6.35-6.83-.59a9.92,9.92,0,0,0-13.14,5.5,1,1,0,0,0,0,.86c.17.3.58.35.93.36l5.08.21,6.83.27,1.22,0c6.77.27,14.37,1.42,21-.52s11.24-7.21,15.88-12.1a47.6,47.6,0,0,0,6.49-7.78,13.93,13.93,0,0,0,2.18-9.68C281.63,146,277.5,142.6,274.14,142.17Z" transform="translate(-38.17 -30.45)" fill="#e4a98a"></path><path d="M202.82,168.94a12.16,12.16,0,0,1-3.48,5.5A19.31,19.31,0,0,1,176.77,177a28.61,28.61,0,0,1-4.67-3.62,38.87,38.87,0,0,1-5.83-6.59,29.71,29.71,0,0,1-5-20.18c0-.21.06-.42.1-.62s.28-.38.42-.57c1.21,2.21,2.41,4.42,3.62,6.62,3.73,6.82,7.6,13.82,13.64,18.71a14.77,14.77,0,0,0,5.87,3.12c4.68,1,9.33-1.47,13.47-3.9-.52-2.88.21-8.14,2.74-7.93a3.84,3.84,0,0,1,.59.62A7.15,7.15,0,0,1,202.82,168.94Z" transform="translate(-38.17 -30.45)" fill="url(#linear-gradient-11)"></path><path d="M166.72,163.23c-.89,2.62-1.73,5.27-2.66,7.9-1.7,4.79-3.51,9.09-3.73,14.33-.1,2.37,0,4.83-.85,7a11.35,11.35,0,0,1-2.47,3.64h0a1,1,0,0,1-.3.11,1.14,1.14,0,0,1-1.44-.81,10.53,10.53,0,0,1-7.89,1.37,13.86,13.86,0,0,1,.45-5.85,21.69,21.69,0,0,1,2.56-4.11,39.62,39.62,0,0,0,3.68-7.65c.74-1.88,1.48-4,.58-5.84,1.39-.18,2.78-.41,4.16-.71a2.36,2.36,0,0,0,1.06-.4,2.61,2.61,0,0,0,.72-1.68c.39-2.42.72-4.84,1-7.28.13-1.23-.23-4.91,1.18-5.36C164.39,157.42,165.86,160.47,166.72,163.23Z" transform="translate(-38.17 -30.45)" fill="url(#linear-gradient-12)"></path><path d="M232.83,153.61l-5.44,7.4s-.71,1,.83.45,6.55-9.32,6.55-9.32c1-1.81,2.24-3.52,3.27-5.33.22-.38.42-.77.62-1.17a.5.5,0,0,1,.17-.23.56.56,0,0,1,.25,0c.32,0,.64,0,.95,0a5.72,5.72,0,0,0,.83,0,2.2,2.2,0,0,0,.89-.34,5.6,5.6,0,0,0,2-2.83,2.49,2.49,0,0,0,.25-1.64,3,3,0,0,0-.75.91,8.61,8.61,0,0,1-1.13,1.35.89.89,0,0,1-.64.32.29.29,0,0,1-.16-.07c-.08-.09,0-.23,0-.35l1.35-3.32a.7.7,0,0,0,.06-.51,1.39,1.39,0,0,0-.94.53,4.29,4.29,0,0,0-.57.94,11.19,11.19,0,0,1-1.3,2.15.29.29,0,0,1-.16.13.21.21,0,0,1-.22-.14.49.49,0,0,1,0-.27c.16-1.23,1.29-2.18,1.37-3.41a2,2,0,0,0-1.14.82,7.7,7.7,0,0,0-.67,1.27,14.21,14.21,0,0,1-.88,1.63,4.31,4.31,0,0,0-.5.95,1.23,1.23,0,0,0,.1,1,.31.31,0,0,1,.05.1.21.21,0,0,1,0,.11l-.85,1.37c-.24.38-.5.72-.76,1.07a5.92,5.92,0,0,0-.45.91c-.39.77-.78,1.54-1.18,2.3l-1.65,3.13Z" transform="translate(-38.17 -30.45)" fill="#fff"></path><path d="M236.87,136.9a1.45,1.45,0,0,0-.33.45,1.16,1.16,0,0,0,0,.64,3.08,3.08,0,0,0,2.34,1.9,18.34,18.34,0,0,1,3,.79c.87.42,1.68,1.16,2.64,1.08a2.22,2.22,0,0,0,1.52-1,7.12,7.12,0,0,0,.77-1.68.67.67,0,0,0-.27-.92,15.77,15.77,0,0,0-5.37-2.61C239.44,135.06,238.2,135.57,236.87,136.9Z" transform="translate(-38.17 -30.45)" fill="#5d2e33"></path><path d="M238.24,137.08a3.34,3.34,0,0,0,1.17.71,14.62,14.62,0,0,0,3.45.84,4.09,4.09,0,0,1,.76.15,4.88,4.88,0,0,1,1.28.86,2.17,2.17,0,0,0,1.41.56,1.67,1.67,0,0,1-.67,1.35,2.56,2.56,0,0,1-2.45.09c-.79-.32-1.5-.82-2.31-1.1-1.11-.38-2.34-.32-3.43-.74a2.27,2.27,0,0,1-.66-.38,1.88,1.88,0,0,1-.53-2,2.26,2.26,0,0,1,1-1.3C237.89,135.83,237.92,136.74,238.24,137.08Z" transform="translate(-38.17 -30.45)" fill="url(#linear-gradient-13)"></path><path d="M236.45,251.89c-2-.3-3.85,1-5.74,1.7a16.55,16.55,0,0,1-3.18.84c-1,.19-1.85.41-2.75-.27a5.14,5.14,0,0,1-1.28-1.67.44.44,0,0,0-.73-.18,29.56,29.56,0,0,0-2.83,2,41.4,41.4,0,0,0-4.71,3.31,18,18,0,0,0-1.36,1.54c-.55.67-1.38,1.77-.22,2.23a10.39,10.39,0,0,0,7.9-.07c1.2-.52,2.29-1.25,3.45-1.83a15,15,0,0,1,2.81-1.08,2.29,2.29,0,0,1,1.63,0c1,.5.86,1.94.57,3-.13.5,2.5-.29,2.72-.47a9.14,9.14,0,0,0,1.62-2.34A10.79,10.79,0,0,0,236.45,251.89Z" transform="translate(-38.17 -30.45)" fill="#519fff"></path><path d="M234.36,258.62a9.62,9.62,0,0,1-1.63,2.34,4.61,4.61,0,0,1-.82.31c-.83.25-2,.5-1.9.16.29-1.07.42-2.52-.57-3a2.32,2.32,0,0,0-1.64,0,15.84,15.84,0,0,0-2.8,1.07c-1.16.59-2.25,1.32-3.45,1.84a10.42,10.42,0,0,1-7.91.07c-1.15-.46-.32-1.56.23-2.23l0-.07a18.32,18.32,0,0,1,1.31-1.47,40.18,40.18,0,0,1,4.71-3.31,29.56,29.56,0,0,1,2.83-2,.58.58,0,0,1,.49-.09.63.63,0,0,1,.24.27,5.22,5.22,0,0,0,1.27,1.67c.91.68,1.74.46,2.76.27a17.32,17.32,0,0,0,3.18-.84c1.89-.73,3.74-2,5.74-1.7A10.91,10.91,0,0,1,234.36,258.62Z" transform="translate(-38.17 -30.45)" fill="url(#linear-gradient-14)"></path><path d="M233.28,257.54a9,9,0,0,1-1.37,3.73c-.83.25-2,.5-1.9.16.29-1.07.42-2.52-.57-3a2.32,2.32,0,0,0-1.64,0,15.84,15.84,0,0,0-2.8,1.07c-1.16.59-2.25,1.32-3.45,1.84a10.42,10.42,0,0,1-7.91.07c-1.15-.46-.32-1.56.23-2.23l0-.07c.37.1.74.2,1.11.27a10.89,10.89,0,0,0,2.42.11,19,19,0,0,0,4.05-.59c1.25-.33,2.45-.8,3.68-1.2a21.06,21.06,0,0,1,7-1.18,1.23,1.23,0,0,1,1,.38A1.05,1.05,0,0,1,233.28,257.54Z" transform="translate(-38.17 -30.45)" fill="url(#linear-gradient-15)"></path><path d="M164.6,213.52c5.36-7.93,3.89-18.42,5.27-27.89.3-2,1-4.37,2.9-5.12a6.23,6.23,0,0,1,2.24-.3l71.37-1c2,0,4,0,5.68,1,3.36,2,3.48,6.72,5.09,10.28l-7-6.86c-1,1.56-1,3.55-.92,5.41a115.31,115.31,0,0,0,1.51,13.87,24.57,24.57,0,0,0,2,6.91,9.57,9.57,0,0,0,5.1,4.86,11.11,11.11,0,0,1-5.87,1.5,4.64,4.64,0,0,1-2.51-.68,5.57,5.57,0,0,1-1.43-1.76,64.15,64.15,0,0,1-7.56-18.93,19,19,0,0,0-1.39-4.64,5.44,5.44,0,0,0-3.58-3,5.23,5.23,0,0,0-4.95,2.21,12.81,12.81,0,0,0-2,5.28,50.49,50.49,0,0,0-1,10.83c.07,3.76.56,7.58-.25,11.26-1.26,5.72-5.45,10.28-8.06,15.53a88.9,88.9,0,0,0,1.67-44.09,2.63,2.63,0,0,0-3.08-2.65l-28.11-.82c-3.06-.09-6.35-.12-8.9,1.58-2.78,1.86-4,5.29-5,8.47l-4.24,13.33a8.18,8.18,0,0,0-.56,3.07,6.75,6.75,0,0,0,1.35,3.23,19.2,19.2,0,0,0,12.13,7.89,6.3,6.3,0,0,0,3,0c2.36-.72,3.39-3.43,4.1-5.79l.14,6.47a3,3,0,0,1-.43,2,2.48,2.48,0,0,1-1.44.74c-3.15.69-6.35-.6-9.45-1.51-5.3-1.56-10.41-1.63-15.86-1.42-2,.08-3-1-3-3.11C161.48,217.28,163.35,215.38,164.6,213.52Z" transform="translate(-38.17 -30.45)" fill="url(#linear-gradient-16)"></path><path d="M252.19,128.26a21,21,0,0,1,3.17-.21,5.54,5.54,0,0,1-1.41,3.43,1.14,1.14,0,0,1-.78.46,1.12,1.12,0,0,1-.81-.58,5.13,5.13,0,0,1-.91-2.7.25.25,0,0,1,0-.17.31.31,0,0,1,.2-.11l1.2-.32" transform="translate(-38.17 -30.45)" fill="#fff"></path><path d="M183.38,123a8,8,0,0,0,.05,2c0,.37.18.79.53.92a.76.76,0,0,0,.76-.19,2.12,2.12,0,0,0,.45-.68c.24-.47,1-1.52.54-2A4.12,4.12,0,0,0,183.38,123Z" transform="translate(-38.17 -30.45)" fill="#fff"></path><rect x="156.51" y="145.61" width="40.95" height="3.03" fill="#fff"></rect><path d="M202.19,172.36a2.6,2.6,0,0,1,.4-1,2.08,2.08,0,0,1,.87-.62,7.77,7.77,0,0,1,3.77-.43,1.59,1.59,0,0,0,.72-.05,1.88,1.88,0,0,0,.57-.41,6.11,6.11,0,0,1,3.28-1.26c1.17-.13,2.37-.06,3.55-.11,2-.08,4-.48,6-.6a10.36,10.36,0,0,1,5.82,1.07c.94.55,1.74,1.32,2.71,1.82a8.89,8.89,0,0,0,2.88.81.64.64,0,0,1,.41.15.63.63,0,0,1,.12.44l0,1.65a2.85,2.85,0,0,1-.18,1.33,2.56,2.56,0,0,1-1.92,1.13,24.57,24.57,0,0,1-4.62.39c-7.79.17-15.62,0-23.4-.5-.69-.05-1.2-.13-1.33-.9A7.82,7.82,0,0,1,202.19,172.36Z" transform="translate(-38.17 -30.45)" fill="#5d2e33"></path><path d="M214.43,173.42a36.53,36.53,0,0,1-5.81-.66c-1.94-.42-3.94-1.12-5.87-.66a1,1,0,0,0-.52.26.82.82,0,0,0-.17.61c.07,1.5,1.74,2.36,3.2,2.74a37.86,37.86,0,0,0,8.5.94,152.11,152.11,0,0,0,16-.1c1.64-.12,2.27-1.5.66-2.53-.85-.54-2.08-.27-3-.27-1.36,0-2.72,0-4.07,0C220.33,173.69,217.38,173.59,214.43,173.42Z" transform="translate(-38.17 -30.45)" fill="url(#linear-gradient-17)"></path><path d="M194.41,134.94a4.32,4.32,0,0,0,.86,2.88,3.1,3.1,0,0,0,4,.54c1.87-1.28,1.92-4.35,3.91-5.43.78-.43,1.9-.61,2.11-1.48a1.53,1.53,0,0,0-.09-.87,3.75,3.75,0,0,0-2.23-2.16C198.62,126.78,194.5,130.63,194.41,134.94Z" transform="translate(-38.17 -30.45)" fill="#e4a98a"></path><path d="M211.91,157.71a4.1,4.1,0,0,1-2.89-2.54,10.07,10.07,0,0,1-.59-3.94.83.83,0,0,1,.08-.44.86.86,0,0,1,.71-.3c2.64-.23,5.3-.35,7.95-.37,0,1.18.37,2.6.37,3.78a6.2,6.2,0,0,1-.39,2.68,2.12,2.12,0,0,1-2.18,1.3l-.19,4.3a2,2,0,0,0,.21,1.25,2.9,2.9,0,0,0,1.11.76c.4.23.78.64.67,1.08s-.73.64-1.23.69c-1.63.17-3.26.27-4.9.29-.09-.62.49-1.12,1-1.43s1.17-.63,1.33-1.24a2,2,0,0,0,0-.84C212.71,161.15,212.17,159.3,211.91,157.71Z" transform="translate(-38.17 -30.45)" fill="#fff"></path><path d="M203.32,158.86c1.33-2.65,3.16-5.41,6-6.13a2.59,2.59,0,0,1-.46,2.15,9.54,9.54,0,0,0-1.16,2,.8.8,0,0,0,0,.53c.12.3.49.39.81.42a13.76,13.76,0,0,0,5.84-.67,36.89,36.89,0,0,1,3.9-1.38,1.11,1.11,0,0,1,.65,0,.88.88,0,0,1,.43.59c.35,1.22-.55,2.41-1.38,3.36-2.82,3.22-6,6.63-10.17,7.4-1,.2-2.14.2-3.19.41a21.76,21.76,0,0,0-2.74,1.1c-1.08.37-1.66.06-1.88-1.08C199.42,164.56,202.09,161.3,203.32,158.86Z" transform="translate(-38.17 -30.45)" fill="#e4a98a"></path><path d="M217.11,154.16c.18.05.39.13.41.31a.55.55,0,0,1-.06.22,5.28,5.28,0,0,1-5.25,3,2.25,2.25,0,0,1-.89-.27,2.43,2.43,0,0,1-.65-.63c-.69-.93-2-3.79.34-3.5,1,.12,1.89.49,2.9.57A19,19,0,0,1,217.11,154.16Z" transform="translate(-38.17 -30.45)" fill="#984c5d"></path></svg>