<svg width="406" height="306" viewBox="0 0 406 306" fill="none" xmlns="http://www.w3.org/2000/svg">
<path opacity="0.42" d="M128.935 32.7524C116.348 45.4915 106.851 61.2434 92.8957 72.4538C82.6216 80.7342 70.1691 86.2885 61.1498 95.9002C48.003 109.913 44.2259 130.098 42.1812 149.194C40.2067 167.666 39.3213 186.278 40.3914 204.82C41.8946 230.699 48.3661 258.324 68.0735 275.197C74.9717 281.095 83.1311 285.324 91.4498 288.942C114.053 298.767 138.239 304.445 162.853 305.707C175.592 306.344 188.426 305.809 201.21 305.261L250.415 303.147C264.428 302.548 278.39 301.949 292.352 300.981C309.824 299.777 328.181 297.662 342.328 287.35C360.863 273.834 367.901 248.719 365.678 225.884C363.455 203.049 353.462 181.806 343.64 161.08C333.818 140.353 323.85 119.085 321.665 96.2505C321.206 91.4351 321.072 86.486 319.263 81.9954C317.314 77.1737 313.601 73.3265 310.289 69.3136C301.168 58.2752 294.658 45.3386 286.25 33.7715C250.752 -15.0958 168.19 -6.92999 128.935 32.7524Z" fill="#519FFF"/>
<path opacity="0.42" d="M205.618 284.993C283.217 284.993 346.124 277.319 346.124 267.853C346.124 258.386 283.217 250.712 205.618 250.712C128.019 250.712 65.1118 258.386 65.1118 267.853C65.1118 277.319 128.019 284.993 205.618 284.993Z" fill="#519FFF"/>
<path d="M146.712 247.916L147.483 256.012C147.483 256.012 144.381 260.706 140.336 261.005C136.291 261.305 134.909 259.362 134.909 259.362L135.546 247.451" fill="#AD7862"/>
<path d="M90.3226 248.776L89.5264 257.094C89.5264 257.094 92.7112 261.91 96.8705 262.222C101.03 262.534 102.444 260.534 102.444 260.534L101.762 248.298" fill="#AD7862"/>
<path d="M100.284 66.8931C100.284 66.8931 84.1948 74.6639 83.8317 77.2118C83.4687 79.7596 85.6534 142.411 85.6534 142.411C85.6534 142.411 90.8765 149.181 106.87 149.181C123.253 149.181 128.463 144.608 128.202 142.315C127.298 134.41 131.546 77.7213 131.183 75.0397C130.82 72.3581 115.979 66.944 115.979 66.944L100.284 66.8931Z" fill="#519FFF"/>
<path opacity="0.58" d="M110.291 106.658C110.291 106.658 90.9147 110.13 89.7172 108.932C88.6344 107.849 83.9846 76.2692 83.8317 77.2246C83.5706 79.059 84.6279 109.136 85.2394 125.894C95.1886 122.888 115.998 112.327 115.998 112.327C114.456 110.107 112.522 108.186 110.291 106.658V106.658Z" fill="url(#paint0_linear)"/>
<path d="M102.801 106.888C104.201 105.828 105.662 104.852 107.176 103.964C108.858 103.066 116.508 102.282 117.877 102.69C119.247 103.098 118.648 103.894 117.024 104.206C115.4 104.518 114.005 104.168 113.648 105.149C113.291 106.13 115.457 108.142 115.31 109.856C115.164 111.569 115.215 111.455 111.31 112.792C107.406 114.13 103.711 115.932 102.711 112.907C101.711 109.881 101.495 107.327 102.801 106.888Z" fill="#BB826C"/>
<path d="M100.335 57.1858C100.335 57.1858 100.214 62.7974 100.285 66.9058C100.335 69.9695 101.386 75.8232 107.928 75.8232C114.47 75.8232 115.189 68.358 115.081 66.893C114.998 65.8484 115.501 63.7083 115.081 60.3642C114.642 56.8037 100.699 54.6953 100.335 57.1858Z" fill="#BB826C"/>
<path d="M100.246 66.3964C99.7807 66.2109 99.2631 66.2038 98.7929 66.3767C98.3226 66.5495 97.9328 66.89 97.6983 67.3327C96.7173 68.9697 96.66 72.2564 97.6983 76.7469C98.7365 81.2374 99.6091 82.384 99.6091 82.384C99.6091 82.384 103.883 76.3329 106.89 76.0908C106.87 76.0908 100.947 74.9252 100.246 66.3964Z" fill="#F3FCFF"/>
<path d="M115.125 66.3964C115.591 66.2109 116.108 66.2038 116.579 66.3767C117.049 66.5495 117.439 66.89 117.673 67.3327C118.654 68.9697 118.711 72.2564 117.673 76.7469C116.635 81.2374 115.762 82.384 115.762 82.384C115.762 82.384 111.488 76.3329 108.482 76.0908C108.501 76.0908 114.444 74.9252 115.125 66.3964Z" fill="#F3FCFF"/>
<path d="M85.6538 142.41C85.6538 142.41 84.4627 151.691 86.7494 189.405C88.8768 224.54 89.4819 249.139 89.4819 249.139C89.4819 249.139 89.7112 252.011 95.7623 252.094C101.813 252.177 103.406 248.183 103.406 248.183L109.349 158.086L134.005 250.031C134.005 250.031 141.266 254.209 146.929 251.075C150.942 248.846 128.222 142.315 128.222 142.315C128.222 142.315 108.782 152.971 85.6538 142.41Z" fill="#525263"/>
<path opacity="0.58" d="M85.6538 142.41C85.6538 142.41 84.4627 151.691 86.7494 189.405C88.8768 224.54 89.4819 249.139 89.4819 249.139C89.4819 249.139 89.7112 252.011 95.7623 252.094C101.813 252.177 103.406 248.183 103.406 248.183L109.349 158.086L134.005 250.031C134.005 250.031 141.266 254.209 146.929 251.075C150.942 248.846 128.222 142.315 128.222 142.315C128.222 142.315 108.782 152.971 85.6538 142.41Z" fill="url(#paint1_linear)"/>
<path d="M86.8257 74.3137C84.5363 75.8757 82.5595 77.8524 80.9976 80.1419C78.4497 83.9063 74.2395 115.474 76.1822 124.022C77.0039 127.64 106.756 114.136 106.756 114.136C106.756 114.136 106.055 108.085 102.934 106.021C102.934 106.021 88.3289 109.155 87.2397 108.066C86.1505 106.977 86.8257 74.3137 86.8257 74.3137Z" fill="#519FFF"/>
<path d="M120.062 37.3702C120.297 38.6442 120.737 39.8098 120.953 41.1155C121.246 42.8417 121.329 44.657 122.145 46.2112C122.501 46.9055 122.998 47.6125 122.883 48.3832C122.769 49.1539 121.947 49.7654 121.348 50.3769C119.508 52.2877 120.176 55.3069 119.61 57.721C118.973 60.2688 120.801 66.0715 112.947 63.6319C110.711 62.9377 99.8257 59.8803 99.0486 53.1349C98.0804 44.7016 92.9083 34.0262 103.112 30.4656C107.323 28.9943 114.17 26.7904 117.762 30.7714C119.157 32.3128 119.756 34.5167 119.953 36.5422C119.979 36.8416 120.017 37.1091 120.062 37.3702Z" fill="#BB826C"/>
<path d="M114.495 23.5802C115.264 23.5361 116.035 23.6564 116.754 23.9332C117.473 24.21 118.125 24.6368 118.667 25.1853C119.304 25.9178 119.75 26.9433 120.673 27.249C121.113 27.3955 121.597 27.3446 122.043 27.4783C123.4 27.8733 123.744 29.6631 123.501 31.0517C123.259 32.4402 122.686 33.8797 123.126 35.2174C123.38 35.7204 123.546 36.2633 123.616 36.8225C123.584 37.8289 122.406 38.4531 121.4 38.383C120.393 38.313 119.489 37.797 118.508 37.5104C116.813 37.0072 114.992 37.2238 113.234 37.4467C112.054 37.5166 110.899 37.8219 109.839 38.3448C109.311 38.612 108.873 39.0286 108.579 39.5428C108.286 40.0569 108.15 40.6459 108.189 41.2366C108.348 41.6903 108.389 42.1766 108.31 42.6506C108.129 42.9594 107.899 43.2369 107.629 43.4723C106.813 44.4214 107.1 45.8481 107.355 47.0711C107.635 48.4151 107.183 52.0394 105.444 50.2559C104.265 49.0457 104.998 47.0711 102.96 46.2813C99.9723 45.1029 98.7494 50.154 101.883 53.8611C105.017 57.5681 102.081 59.9376 100.049 60.5618C98.1379 61.1415 95.8321 51.9629 95.5264 50.8801C94.3417 46.6316 91.8766 39.3703 94.2525 35.2747C94.9786 34.0326 95.9086 32.8479 96.1633 31.4529C96.3481 30.5166 96.227 29.5421 96.5392 28.6249C96.7874 28.0337 97.1652 27.5058 97.6448 27.0803C98.1244 26.6547 98.6934 26.3423 99.3099 26.1662C100.556 25.8196 101.839 25.627 103.132 25.593C105.354 25.4003 107.559 25.034 109.724 24.4974C111.235 24.021 112.795 23.7134 114.374 23.5802H114.495Z" fill="#3F3D56"/>
<path d="M115.221 64.1862C115.221 64.1862 107.272 61.2562 103.673 59.6064C103.673 59.6064 111.157 66.7149 115.023 66.6639L115.221 64.1862Z" fill="#AD7862"/>
<path d="M131.183 75.0398C131.183 75.0398 140.343 115.563 140.91 120.78C141.477 125.996 134.801 128.608 131.814 127.786C125.183 125.92 126.241 114.595 126.241 114.595L131.183 75.0398Z" fill="#519FFF"/>
<path d="M140.686 119.296L149.992 149.341L143.623 153.838C143.623 153.838 130.183 134.659 129.119 128.945C128.056 123.232 127.667 115.416 133.285 115.569" fill="#519FFF"/>
<path d="M152.661 156.627C152.158 155.315 151.458 154.041 151.075 152.697C150.84 151.863 150.878 151.016 150.305 150.315C148.458 148.067 145.164 149.474 144.343 151.857C143.891 153.442 144.013 155.136 144.687 156.64C145.285 158.162 146.171 159.545 146.891 161.01C147.688 162.445 148.084 164.069 148.037 165.71C147.894 166.528 147.798 167.353 147.751 168.182C147.739 168.449 147.815 168.713 147.967 168.933C148.4 169.456 149.241 169.15 149.802 168.742C153.368 166.042 154.146 160.615 152.661 156.627Z" fill="#BB826C"/>
<path d="M143.597 154.869L141.75 152.105L149.33 147.194L151.445 150.194L143.597 154.869Z" fill="#F3FCFF"/>
<path d="M104.253 104.321L107.813 114.569L104.788 116.238C104.788 116.238 100.1 106.786 99.877 106.321C99.6541 105.856 104.253 104.321 104.253 104.321Z" fill="#F3FCFF"/>
<path d="M78.2269 257.98C76.5772 258.521 74.7937 259.445 74.3287 261.12C73.8638 262.795 74.9211 264.496 76.3606 265.375C77.8002 266.254 79.5454 266.439 81.2333 266.534C87.859 266.919 94.5027 266.207 100.896 264.426C101.716 264.269 102.475 263.885 103.087 263.318C103.826 262.483 103.845 261.248 103.826 260.133L103.743 255.088C103.772 254.802 103.697 254.515 103.533 254.279C103.416 254.174 103.277 254.094 103.127 254.046C102.976 253.998 102.818 253.982 102.661 253.999C99.7942 253.942 97.3993 254.687 94.6094 253.61C92.8132 252.916 91.3291 251.942 89.5138 252.942C88.1316 253.687 87.2398 255.075 85.7812 255.782C83.4245 256.923 80.6856 257.19 78.2269 257.98Z" fill="#525263"/>
<path d="M123.049 259.12C121.393 259.662 119.61 260.585 119.145 262.26C118.68 263.935 119.737 265.636 121.183 266.509C122.629 267.381 124.368 267.579 126.049 267.674C132.675 268.059 139.319 267.347 145.712 265.566C146.533 265.413 147.293 265.028 147.903 264.458C148.642 263.617 148.668 262.388 148.648 261.273L148.559 256.228C148.589 255.941 148.517 255.653 148.355 255.413C148.236 255.309 148.096 255.231 147.945 255.183C147.794 255.135 147.634 255.118 147.476 255.133C144.61 255.082 142.215 255.821 139.432 254.751C137.635 254.056 136.151 253.082 134.298 254.082C132.922 254.827 132.024 256.216 130.565 256.923C128.24 258.037 125.489 258.311 123.049 259.12Z" fill="#525263"/>
<path opacity="0.58" d="M78.2269 257.98C76.5772 258.521 74.7937 259.445 74.3287 261.12C73.8638 262.795 74.9211 264.496 76.3606 265.375C77.8002 266.254 79.5454 266.439 81.2333 266.534C87.859 266.919 94.5027 266.207 100.896 264.426C101.716 264.269 102.475 263.885 103.087 263.318C103.826 262.483 103.845 261.248 103.826 260.133L103.743 255.088C103.772 254.802 103.697 254.515 103.533 254.279C103.416 254.174 103.277 254.094 103.127 254.046C102.976 253.998 102.818 253.982 102.661 253.999C99.7942 253.942 97.3993 254.687 94.6094 253.61C92.8132 252.916 91.3291 251.942 89.5138 252.942C88.1316 253.687 87.2398 255.075 85.7812 255.782C83.4245 256.923 80.6856 257.19 78.2269 257.98Z" fill="url(#paint2_linear)"/>
<path opacity="0.58" d="M123.049 259.12C121.393 259.662 119.61 260.585 119.145 262.26C118.68 263.935 119.737 265.636 121.183 266.509C122.629 267.381 124.368 267.579 126.049 267.674C132.675 268.059 139.319 267.347 145.712 265.566C146.533 265.413 147.293 265.028 147.903 264.458C148.642 263.617 148.668 262.388 148.648 261.273L148.559 256.228C148.589 255.941 148.517 255.653 148.355 255.413C148.236 255.309 148.096 255.231 147.945 255.183C147.794 255.135 147.634 255.118 147.476 255.133C144.61 255.082 142.215 255.821 139.432 254.751C137.635 254.056 136.151 253.082 134.298 254.082C132.922 254.827 132.024 256.216 130.565 256.923C128.24 258.037 125.489 258.311 123.049 259.12Z" fill="url(#paint3_linear)"/>
<path d="M125.336 90.7153L126.183 123.404L128.432 126.697L125.336 90.7153Z" fill="#519FFF"/>
<path d="M102.858 77.2054C102.858 77.2054 107.024 88.4094 107.508 89.3075C107.992 90.2056 111.508 77.6194 111.508 77.6194C111.508 77.6194 112.903 75.5748 107.221 75.8041C105.658 75.8139 104.135 76.303 102.858 77.2054V77.2054Z" fill="#F3FCFF"/>
<path d="M128.151 141.774C128.151 141.774 116.049 145.073 110.266 144.863C104.482 144.653 85.6027 140.856 85.6027 140.856C85.6027 140.856 83.5008 148.971 84.6027 149.774C85.7047 150.576 91.3608 150.08 99.3674 150.411C107.374 150.742 112.247 154.379 118.635 154.233C125.024 154.086 128.827 145.411 128.827 145.411L128.151 141.774Z" fill="#F3FCFF"/>
<path d="M123.736 67.8846L111.455 148.233C110.735 152.945 113.971 157.349 118.683 158.069L251.733 178.405C256.445 179.125 260.849 175.889 261.569 171.177L273.85 90.8284C274.57 86.1165 271.334 81.7129 266.622 80.9927L133.572 60.6569C128.86 59.9367 124.456 63.1727 123.736 67.8846Z" fill="#519FFF"/>
<path d="M123.29 70.8126L111.009 151.161C110.289 155.873 113.525 160.277 118.237 160.997L251.287 181.333C255.999 182.053 260.402 178.817 261.122 174.105L273.403 93.7564C274.123 89.0444 270.887 84.6409 266.176 83.9207L133.126 63.5849C128.414 62.8647 124.01 66.1007 123.29 70.8126Z" fill="#519FFF"/>
<path opacity="0.58" d="M273.403 93.7471L261.122 174.106C261.035 174.675 260.89 175.234 260.689 175.774C260.003 177.642 258.692 179.216 256.979 180.229C255.266 181.243 253.255 181.633 251.288 181.335L118.266 160.997C117.142 160.83 116.063 160.442 115.09 159.857C114.117 159.272 113.268 158.5 112.594 157.587C111.919 156.673 111.432 155.635 111.159 154.533C110.886 153.431 110.834 152.285 111.004 151.162L116.635 114.353L123.285 70.8104C123.632 68.5479 124.862 66.5154 126.706 65.1589C128.55 63.8024 130.856 63.2326 133.12 63.5745L266.173 83.9189C268.435 84.2644 270.467 85.4937 271.822 87.3366C273.178 89.1795 273.746 91.4853 273.403 93.7471V93.7471Z" fill="url(#paint4_linear)"/>
<path opacity="0.58" d="M266.313 138.965L260.689 175.774C260.003 177.643 258.692 179.216 256.979 180.23C255.266 181.243 253.255 181.633 251.288 181.335L118.266 160.997C117.142 160.83 116.063 160.442 115.09 159.857C114.117 159.272 113.268 158.501 112.594 157.587C111.919 156.673 111.432 155.635 111.159 154.533C110.886 153.431 110.834 152.285 111.004 151.162L116.635 114.353C117.321 112.484 118.631 110.909 120.344 109.896C122.058 108.883 124.069 108.493 126.037 108.792L259.09 129.136C260.21 129.308 261.285 129.697 262.254 130.284C263.223 130.87 264.067 131.642 264.737 132.555C265.408 133.467 265.893 134.503 266.163 135.603C266.433 136.703 266.484 137.845 266.313 138.965V138.965Z" fill="url(#paint5_linear)"/>
<path d="M129.75 92.6916L127.108 109.982C126.708 112.593 128.502 115.034 131.113 115.433L151.999 118.625C154.61 119.024 157.051 117.231 157.45 114.619L160.093 97.3292C160.492 94.7177 158.698 92.277 156.087 91.8778L135.202 88.6857C132.59 88.2865 130.149 90.08 129.75 92.6916Z" fill="#FDB523"/>
<path d="M158.298 108.385L157.865 111.219L149.152 109.888C148.969 110.445 148.664 110.954 148.26 111.378C147.855 111.802 147.362 112.131 146.814 112.34L146.508 112.436L146.196 112.397C145.476 112.308 139.19 111.525 137.521 111.06C135.852 110.595 135.005 108.512 134.686 107.168L127.75 106.104L128.183 103.27L137.215 104.652L137.374 105.748C137.527 106.945 138.011 108.168 138.343 108.327C139.349 108.607 143.362 109.168 146.094 109.512C146.428 109.155 146.606 108.681 146.591 108.193L146.687 106.627L158.298 108.385Z" fill="#EFA92B"/>
<path d="M159.107 103.091L159.541 100.257L150.833 98.9256C150.823 98.3396 150.682 97.7632 150.423 97.2379C150.163 96.7125 149.79 96.2513 149.33 95.8873L149.069 95.7026L148.757 95.6453C148.044 95.5179 141.75 94.3714 140.082 94.3268C138.273 94.2758 136.897 96.0083 136.209 97.1995L129.272 96.1421L128.839 98.9766L137.871 100.359L138.324 99.3651C138.827 98.2759 139.68 97.2568 140.024 97.1995C141.063 97.1995 145.063 97.8937 147.776 98.3842C147.982 98.8257 148.012 99.3292 147.859 99.7919L147.477 101.314L159.107 103.091Z" fill="#EFA92B"/>
<path d="M128.585 100.747L128.494 101.345L158.767 105.973L158.858 105.374L128.585 100.747Z" fill="#EFA92B"/>
<path d="M127.153 110.129L127.062 110.728L157.335 115.355L157.426 114.756L127.153 110.129Z" fill="#EFA92B"/>
<path d="M130.018 91.365L129.926 91.9631L160.2 96.5902L160.291 95.992L130.018 91.365Z" fill="#EFA92B"/>
<path opacity="0.32" d="M146.444 137.373L128.725 134.585C126.286 134.201 123.997 135.868 123.613 138.307L123.469 139.226C123.085 141.666 124.751 143.954 127.191 144.338L144.91 147.125C147.349 147.509 149.638 145.843 150.022 143.403L150.166 142.485C150.55 140.045 148.883 137.756 146.444 137.373Z" fill="#519FFF"/>
<path opacity="0.32" d="M179.557 144.197L161.799 141.327C159.354 140.932 157.052 142.593 156.657 145.038L156.508 145.959C156.113 148.404 157.775 150.706 160.22 151.101L177.977 153.971C180.422 154.366 182.724 152.704 183.119 150.26L183.268 149.339C183.663 146.894 182.001 144.592 179.557 144.197Z" fill="#519FFF"/>
<path opacity="0.32" d="M213.374 149.071L195.656 146.284C193.216 145.9 190.927 147.566 190.544 150.006L190.399 150.925C190.015 153.364 191.682 155.653 194.121 156.037L211.84 158.824C214.28 159.208 216.568 157.541 216.952 155.102L217.097 154.183C217.48 151.744 215.814 149.455 213.374 149.071Z" fill="#519FFF"/>
<path opacity="0.32" d="M246.836 154.927L229.117 152.139C226.678 151.756 224.389 153.422 224.005 155.862L223.861 156.78C223.477 159.22 225.144 161.509 227.583 161.892L245.302 164.68C247.741 165.063 250.03 163.397 250.414 160.957L250.558 160.039C250.942 157.599 249.276 155.311 246.836 154.927Z" fill="#519FFF"/>
<path d="M313.072 245.929L321.894 260.884C323.685 260.456 325.27 259.416 326.376 257.944C327.482 256.472 328.039 254.66 327.952 252.821L320.308 238.457" fill="#F1DFCE"/>
<path d="M321.894 260.884C321.894 260.884 319.346 271.662 315.824 272.923C312.302 274.184 320.78 272.522 322.436 270.866C324.092 269.209 326.55 257.63 326.55 257.63" fill="#F1DFCE"/>
<path d="M253.854 249.617L252.504 265.254C254.047 265.879 255.759 265.945 257.346 265.442C258.932 264.938 260.293 263.896 261.192 262.496L263.103 247.897" fill="#F1DFCE"/>
<path d="M252.504 265.254C252.504 265.254 242.95 273.853 239.695 272.897C236.44 271.942 245.587 273.216 247.67 272.859C249.753 272.502 260.307 266.26 260.307 266.26" fill="#F1DFCE"/>
<path d="M261.256 261.986C261.256 261.986 263.415 264.165 263.167 265.993C262.918 267.821 261.963 275.547 261.963 275.547C261.502 275.677 261.008 275.63 260.581 275.413C259.88 275.044 260.046 266.967 258.593 269.127C255.855 273.19 256.753 274.732 250.542 275.649C248.816 275.904 232.243 274.044 242.001 271.776C242.001 271.776 248.096 272.254 250.721 269.63C253.345 267.006 257.829 261.305 261.256 261.986Z" fill="#525263"/>
<path d="M268.148 53.9311C268.078 54.7591 267.403 64.3644 268.148 68.4601C268.893 72.5557 271.498 78.1482 274.855 77.3775C278.212 76.6067 279.696 75.5112 279.696 77.3775C279.577 79.2545 279.328 81.1211 278.951 82.9636C278.951 82.9636 283.046 85.9445 286.772 84.8235C290.499 83.7024 291.231 80.7278 291.231 80.7278C291.231 80.7278 289.371 78.4921 290.116 72.5302C290.862 66.5683 296.448 53.5362 288.626 47.1985C283.874 43.3831 269.097 42.6888 268.148 53.9311Z" fill="#F1DFCE"/>
<path d="M267.778 44.9946C267.778 44.9946 262.441 49.4151 265.868 55.9057C266.887 57.8165 270.721 52.8164 275.568 53.9311C280.416 55.0458 279.295 67.3454 280.409 66.9696C281.524 66.5938 280.04 62.5109 282.269 60.2625C284.499 58.014 286.728 61.3835 286.371 64.7211C286.015 68.0588 284.46 68.4473 284.46 68.4473C284.46 68.4473 284.741 72.0461 285.32 73.2118C285.753 74.0717 291.817 71.4792 291.817 71.4792C291.817 71.4792 296.773 58.014 295.639 53.5489C294.505 49.0839 289.308 42.7207 283.715 42.7207C278.123 42.7207 271.498 40.8926 267.778 44.9946Z" fill="#3F3D56"/>
<path d="M248.549 107.792C248.549 107.792 246.638 100.416 244.179 98.792C241.72 97.1678 240.829 95.9448 240.268 96.4034C239.708 96.862 240.708 98.4353 240.708 98.4353C240.708 98.4353 242.555 100.212 241.287 100.416C240.02 100.62 231.007 94.8747 228.459 95.0785C225.911 95.2824 227.44 99.0468 226.777 100.722C226.115 102.397 232.421 106.875 234.962 108.295C237.504 109.716 240.912 112.213 242.536 113.13C244.16 114.047 248.593 109.983 248.549 107.792Z" fill="#F1DFCE"/>
<path d="M307.722 157.557L305.314 193.73L327.334 249.062C327.334 249.062 328.162 254.362 317.436 255.973L288.136 197.278L282.276 152.315" fill="#519FFF"/>
<path opacity="0.58" d="M307.722 157.557L305.314 193.73L327.334 249.062C327.334 249.062 328.162 254.362 317.436 255.973L288.136 197.278L282.276 152.315" fill="url(#paint6_linear)"/>
<path d="M268.288 153.946L250.326 259.254C250.326 259.254 253.899 263.464 264.708 260.973L274.957 213.922L298.766 159.143C298.766 159.143 283.237 144.799 268.288 153.946Z" fill="#519FFF"/>
<path opacity="0.58" d="M268.288 153.946L250.326 259.254C250.326 259.254 253.899 263.464 264.708 260.973L274.957 213.922L298.766 159.143C298.766 159.143 283.237 144.799 268.288 153.946Z" fill="url(#paint7_linear)"/>
<path d="M287.11 98.6645C287.11 98.6645 281.32 128.328 279.282 133.347C277.244 138.366 269.364 147.462 263.078 142.487C261.233 140.908 259.518 139.182 257.95 137.328L257.046 136.321C249.854 128.003 240.708 115.416 240.708 115.416C241.128 106.919 248.549 107.824 248.549 107.824L262.613 124.856C262.613 124.856 271.148 91.0019 275.747 85.091C278.556 81.4985 285.62 80.7915 285.62 80.7915C290.244 81.9508 287.11 98.6645 287.11 98.6645Z" fill="white"/>
<path d="M294.664 83.1354C301.168 91.2693 306.97 149.379 308.639 153.086C308.639 153.086 297.709 157.608 280.868 158.647C276.237 158.875 271.598 158.374 267.122 157.162C267.122 157.162 274.632 108.913 274.868 102.098C275.103 95.2821 278.205 82.9507 278.205 82.9507C278.205 82.9507 289.505 76.683 294.664 83.1354Z" fill="#F3FCFF"/>
<path d="M267.664 157.341C267.664 157.341 265.001 164.137 265.664 164.347C266.326 164.557 272.951 160.959 274.995 162.182C277.04 163.405 283.053 169.672 291.091 171.347C299.129 173.023 307.372 166.723 307.722 162.08C308.072 157.436 308.639 153.099 308.639 153.099C308.639 153.099 272.664 159.647 267.664 157.341Z" fill="#F3FCFF"/>
<path opacity="0.58" d="M280.397 108.932C280.397 108.932 274.396 137.334 272.798 140.532C271.199 143.729 269.091 143.602 269.091 143.602L268.798 146.264L273.995 144.532L280.397 108.932Z" fill="url(#paint8_linear)"/>
<path d="M291.18 47.5297C291.18 47.5297 295.977 40.4404 301.372 45.1857C306.767 49.9311 300.62 58.0714 301.97 65.3136C303.321 72.5557 308.862 82.0655 305.862 84.6515C302.862 87.2376 305.117 84.6515 305.117 84.6515C305.117 84.6515 304.047 77.5877 298.964 76.1928C293.881 74.7978 290.734 70.7404 290.582 63.9314" fill="#3F3D56"/>
<path d="M328.862 251.948C328.862 251.948 327.327 252.808 326.563 256.311C325.799 259.814 323.805 268.534 321.799 269.509C319.792 270.483 319.041 269.452 318.505 269.509C317.97 269.566 313.996 273.7 314.206 274.101C314.416 274.503 314.773 274.738 317.741 274.101C320.709 273.464 326.321 271.401 326.461 270.541C326.601 269.681 328.047 262.05 329.391 261.935C330.735 261.821 329.633 270.082 330.111 270.139C330.589 270.197 331.289 270.311 331.385 269.394C331.48 268.477 332.812 258.662 332.327 256.368C331.843 254.075 330.735 252.693 328.862 251.948Z" fill="#525263"/>
<path opacity="0.58" d="M261.256 261.986C261.256 261.986 263.415 264.165 263.167 265.993C262.918 267.821 261.963 275.547 261.963 275.547C261.502 275.677 261.008 275.63 260.581 275.413C259.88 275.044 260.046 266.967 258.593 269.127C255.855 273.19 256.753 274.732 250.542 275.649C248.816 275.904 232.243 274.044 242.001 271.776C242.001 271.776 248.096 272.254 250.721 269.63C253.345 267.006 257.829 261.305 261.256 261.986Z" fill="url(#paint9_linear)"/>
<path opacity="0.58" d="M328.862 251.948C328.862 251.948 327.327 252.808 326.563 256.311C325.799 259.814 323.805 268.534 321.799 269.509C319.792 270.483 319.041 269.452 318.505 269.509C317.97 269.566 313.996 273.7 314.206 274.101C314.416 274.503 314.773 274.738 317.741 274.101C320.709 273.464 326.321 271.401 326.461 270.541C326.601 269.681 328.047 262.05 329.391 261.935C330.735 261.821 329.633 270.082 330.111 270.139C330.589 270.197 331.289 270.311 331.385 269.394C331.48 268.477 332.812 258.662 332.327 256.368C331.843 254.075 330.735 252.693 328.862 251.948Z" fill="url(#paint10_linear)"/>
<path d="M284.021 71.2053C285.097 71.2053 285.97 70.3327 285.97 69.2562C285.97 68.1798 285.097 67.3071 284.021 67.3071C282.944 67.3071 282.072 68.1798 282.072 69.2562C282.072 70.3327 282.944 71.2053 284.021 71.2053Z" fill="#519FFF"/>
<path d="M246.46 145.156L277.887 149.022L275.199 188.692L270.326 191.208L243.434 183.647L246.46 145.156Z" fill="#519FFF"/>
<path opacity="0.58" d="M246.46 145.156L277.887 149.022L275.199 188.692L270.326 191.208L243.434 183.647L246.46 145.156Z" fill="url(#paint11_linear)"/>
<path d="M241.587 147.678L273.014 151.545L270.326 191.208L238.561 186.169L241.587 147.678Z" fill="#519FFF"/>
<path d="M241.587 147.678L246.46 145.156L277.887 149.022L273.014 151.544L241.587 147.678Z" fill="#519FFF"/>
<path opacity="0.58" d="M241.587 147.678L246.46 145.156L277.887 149.022L273.014 151.544L241.587 147.678Z" fill="url(#paint12_linear)"/>
<path d="M273.492 146.856C273.517 146.743 273.517 146.626 273.492 146.512C273.442 146.398 273.357 146.302 273.25 146.239C272.801 146.007 272.294 145.91 271.791 145.958C268.333 145.958 264.868 146.169 261.409 146.36C261.184 146.354 260.963 146.414 260.772 146.532C260.63 146.659 260.521 146.818 260.454 146.997C260.181 147.617 259.951 148.256 259.766 148.907C259.706 149.033 259.675 149.17 259.675 149.309C259.675 149.448 259.706 149.585 259.766 149.71C259.897 149.847 260.065 149.942 260.25 149.984C261.367 150.28 262.51 150.465 263.664 150.538L271.224 151.277C271.817 151.334 272.269 151.519 272.626 151.035C272.819 150.673 272.951 150.281 273.014 149.876C273.293 148.892 273.454 147.878 273.492 146.856V146.856Z" fill="#519FFF"/>
<path opacity="0.58" d="M273.212 146.965C273.237 146.854 273.237 146.738 273.212 146.627C273.166 146.51 273.08 146.413 272.97 146.353C272.521 146.119 272.014 146.021 271.511 146.073C268.052 146.073 264.587 146.283 261.129 146.474C260.916 146.442 260.699 146.489 260.52 146.607C260.34 146.724 260.21 146.904 260.154 147.111C259.88 147.731 259.651 148.37 259.466 149.022C259.406 149.146 259.375 149.282 259.375 149.42C259.375 149.558 259.406 149.694 259.466 149.818C259.594 149.96 259.763 150.056 259.95 150.092C261.068 150.387 262.211 150.575 263.364 150.653L270.925 151.385C271.517 151.443 271.97 151.634 272.326 151.15C272.518 150.787 272.649 150.395 272.715 149.99C273 149.005 273.167 147.989 273.212 146.965V146.965Z" fill="url(#paint13_linear)"/>
<path d="M274.231 148.825C274.256 148.759 274.256 148.686 274.231 148.621C274.17 148.54 274.086 148.479 273.989 148.449C273.527 148.284 273.04 148.202 272.549 148.207C269.091 148.054 265.626 147.997 262.167 147.946C261.952 147.929 261.736 147.953 261.53 148.016C261.396 148.068 261.281 148.159 261.199 148.277C260.914 148.621 260.665 148.992 260.454 149.385C260.371 149.538 260.301 149.716 260.454 149.857C260.593 149.956 260.755 150.022 260.925 150.048C262.046 150.279 263.18 150.445 264.32 150.544L271.849 151.347C272.435 151.411 272.887 151.545 273.256 151.277C273.446 151.085 273.591 150.855 273.683 150.602C273.976 150.049 274.161 149.446 274.231 148.825V148.825Z" fill="#519FFF"/>
<path opacity="0.58" d="M273.944 148.876C273.969 148.812 273.969 148.742 273.944 148.678C273.887 148.595 273.804 148.532 273.709 148.5C273.245 148.334 272.755 148.254 272.263 148.264C268.804 148.105 265.345 148.054 261.88 147.997C261.666 147.983 261.45 148.007 261.243 148.067C261.113 148.126 261.001 148.218 260.919 148.334C260.633 148.676 260.381 149.045 260.167 149.436C260.084 149.589 260.014 149.774 260.167 149.914C260.31 150.012 260.473 150.075 260.645 150.099C261.765 150.333 262.899 150.499 264.04 150.595L271.568 151.404C272.154 151.468 272.607 151.602 272.976 151.328C273.164 151.139 273.308 150.911 273.396 150.659C273.691 150.105 273.877 149.5 273.944 148.876V148.876Z" fill="url(#paint14_linear)"/>
<path d="M254.065 143.544C254.285 143.052 254.673 142.654 255.16 142.423C255.593 142.318 256.046 142.318 256.479 142.423C258.39 142.665 260.409 142.512 262.103 143.398C262.333 143.495 262.527 143.662 262.657 143.876C262.766 144.131 262.792 144.413 262.734 144.685C262.571 146.065 262.264 147.425 261.816 148.742C261.763 148.929 261.675 149.104 261.555 149.258C261.396 149.449 261.498 150.016 261.25 150.022C259.052 150.067 256.39 149.341 254.192 149.232C252.854 149.169 252.803 148.659 252.918 147.22C253.038 145.928 253.429 144.675 254.065 143.544V143.544Z" fill="#519FFF"/>
<path opacity="0.58" d="M254.065 143.544C254.285 143.052 254.673 142.654 255.16 142.423C255.593 142.318 256.046 142.318 256.479 142.423C258.39 142.665 260.409 142.512 262.103 143.398C262.333 143.495 262.527 143.662 262.657 143.876C262.766 144.131 262.792 144.413 262.734 144.685C262.571 146.065 262.264 147.425 261.816 148.742C261.763 148.929 261.675 149.104 261.555 149.258C261.396 149.449 261.498 150.016 261.25 150.022C259.052 150.067 256.39 149.341 254.192 149.232C252.854 149.169 252.803 148.659 252.918 147.22C253.038 145.928 253.429 144.675 254.065 143.544V143.544Z" fill="url(#paint15_linear)"/>
<path d="M262.613 124.856C262.613 124.856 268.141 137.538 267.708 151.207L269.25 151.379C269.25 151.379 267.485 129.614 263.116 123.391C263.097 123.391 260.944 122.308 262.613 124.856Z" fill="#519FFF"/>
<path d="M257.593 138.315C257.593 138.525 257.625 138.729 257.638 138.952C257.646 139.231 257.629 139.51 257.587 139.786C257.23 142.462 256.886 145.137 256.536 147.812L255.071 147.767C255.068 145.18 255.361 142.6 255.944 140.079C256.207 138.832 256.56 137.606 257.001 136.411C257.001 136.379 257.001 136.34 257.046 136.302L257.95 137.34C257.77 137.639 257.649 137.97 257.593 138.315V138.315Z" fill="#519FFF"/>
<path d="M245.224 142.882C245.227 142.731 245.284 142.587 245.383 142.474C245.495 142.389 245.631 142.34 245.772 142.334C249.134 141.831 252.558 141.913 255.893 142.576L256.396 148.048C256.441 148.481 256.434 149.003 256.071 149.232C255.866 149.34 255.632 149.382 255.402 149.353C252.682 149.303 249.971 149.015 247.3 148.493C246.848 148.404 245.886 148.392 245.536 148.079C245.186 147.767 245.224 147.2 245.167 146.806C245.001 145.501 245.02 144.181 245.224 142.882V142.882Z" fill="#519FFF"/>
<path opacity="0.58" d="M245.224 142.882C245.227 142.731 245.284 142.587 245.383 142.474C245.495 142.389 245.631 142.34 245.772 142.334C249.134 141.831 252.558 141.913 255.893 142.576L256.396 148.048C256.441 148.481 256.434 149.003 256.071 149.232C255.866 149.34 255.632 149.382 255.402 149.353C252.682 149.303 249.971 149.015 247.3 148.493C246.848 148.404 245.886 148.392 245.536 148.079C245.186 147.767 245.224 147.2 245.167 146.806C245.001 145.501 245.02 144.181 245.224 142.882V142.882Z" fill="url(#paint16_linear)"/>
<path opacity="0.58" d="M238.561 186.169L257.383 189.361L248.644 148.742L241.587 147.678L238.561 186.169Z" fill="url(#paint17_linear)"/>
<path d="M145.355 163.742C145.371 163.531 145.449 163.33 145.578 163.163C145.722 163.029 145.901 162.939 146.094 162.901C146.652 162.725 147.253 162.74 147.801 162.946C148.076 163.055 148.307 163.252 148.46 163.504C148.613 163.757 148.679 164.053 148.648 164.347C148.975 163.74 149.372 163.173 149.833 162.659C150.037 162.43 150.311 162.194 150.604 162.265C150.737 162.306 150.855 162.383 150.948 162.487C151.281 162.814 151.53 163.216 151.674 163.66C151.818 164.103 151.853 164.575 151.776 165.035C151.895 164.252 152.285 163.535 152.878 163.01C152.965 162.923 153.076 162.863 153.196 162.838C153.426 162.838 153.61 163.029 153.731 163.226C154.292 164.187 154.499 165.314 154.317 166.411C154.338 165.767 154.503 165.135 154.801 164.564C154.865 164.437 154.961 164.303 155.101 164.296C155.199 164.308 155.29 164.356 155.356 164.43C155.676 164.737 155.906 165.127 156.018 165.557C156.131 165.986 156.122 166.439 155.993 166.863C155.629 168.035 154.413 168.736 153.228 169.029C152.635 169.169 152.028 169.239 151.419 169.239C150.09 169.183 148.773 168.956 147.502 168.564C147.093 168.487 146.705 168.327 146.362 168.093C145.018 167.003 145.12 165.252 145.355 163.742Z" fill="#BB826C"/>
<g clip-path="url(#clip0)">
<path fill-rule="evenodd" clip-rule="evenodd" d="M222.963 120.747L215.935 119.626C215.832 121.335 216.975 122.072 218.371 122.295C219.801 122.523 221.003 122.384 222.034 122.03L221.572 124.925C220.255 125.426 218.822 125.539 217.443 125.249C213.946 124.691 211.835 122.119 212.528 117.777C213.111 114.123 215.658 111.552 219.068 112.096C222.486 112.641 223.809 115.785 223.221 119.465C223.166 119.814 223.011 120.558 222.963 120.747V120.747ZM218.583 115.023C217.685 114.88 216.589 115.358 216.332 116.971L220.038 117.562C220.295 115.949 219.464 115.163 218.583 115.023ZM205.828 123.396C204.572 123.196 203.889 122.55 203.444 122.086L202.782 126.12L199.069 126.306L201.739 109.572L205.017 110.095L204.945 110.996C205.821 110.396 206.893 110.154 207.941 110.32C210.47 110.724 212.48 113.37 211.812 117.555C211.085 122.116 208.4 123.807 205.828 123.396V123.396ZM206.579 113.367C205.751 113.235 205.189 113.449 204.748 113.799L203.914 119.138C204.202 119.578 204.66 119.955 205.506 120.09C206.832 120.301 207.951 119.004 208.259 117.069C208.559 115.194 207.887 113.575 206.579 113.367V113.367ZM196.795 108.783L200.396 109.358L198.387 121.949L194.785 121.375L196.795 108.783ZM197.449 104.685L201.171 104.501L200.703 107.431L196.98 107.623L197.447 104.694L197.449 104.685ZM192.381 112.237L191.018 120.774L187.426 120.2L189.435 107.609L192.661 108.124L192.596 109.204C193.715 107.8 195.469 108.402 195.923 108.644L195.395 111.949C194.965 111.728 193.458 111.255 192.381 112.237V112.237ZM184.268 115.163C183.93 117.282 186.302 116.99 186.786 116.87L186.318 119.8C185.797 119.985 184.9 120.057 183.723 119.869C183.23 119.805 182.755 119.641 182.328 119.388C181.9 119.135 181.528 118.797 181.235 118.396C180.942 117.994 180.734 117.537 180.623 117.053C180.512 116.568 180.5 116.066 180.59 115.577L182.431 104.095L186.056 103.904L185.563 106.991L188.301 107.428L187.81 110.506L185.081 110.071L184.267 115.172L184.268 115.163ZM179.889 115.09C179.476 117.68 177.227 118.832 174.245 118.356C172.906 118.142 171.627 117.655 170.485 116.925L171.032 113.498C172.131 114.344 173.553 115.072 174.738 115.261C175.541 115.389 176.106 115.264 176.212 114.602C176.487 112.875 170.926 112.649 171.56 108.673C171.965 106.136 174.195 104.936 177.108 105.4C178.294 105.59 179.452 105.953 180.57 106.623L180.03 110.007C179.019 109.25 177.845 108.738 176.602 108.512C175.852 108.392 175.312 108.53 175.221 109.096C174.964 110.71 180.571 110.817 179.888 115.099L179.889 115.09Z" fill="white"/>
</g>
<defs>
<linearGradient id="paint0_linear" x1="83.7935" y1="101.55" x2="115.998" y2="101.55" gradientUnits="userSpaceOnUse">
<stop offset="0.01"/>
<stop offset="0.13" stop-opacity="0.69"/>
<stop offset="1" stop-opacity="0"/>
</linearGradient>
<linearGradient id="paint1_linear" x1="9123.21" y1="29791.5" x2="-1263.81" y2="42709.1" gradientUnits="userSpaceOnUse">
<stop offset="0.01"/>
<stop offset="0.13" stop-opacity="0.69"/>
<stop offset="1" stop-opacity="0"/>
</linearGradient>
<linearGradient id="paint2_linear" x1="2894.8" y1="5437.23" x2="2593.75" y2="8009.45" gradientUnits="userSpaceOnUse">
<stop offset="0.01"/>
<stop offset="0.13" stop-opacity="0.69"/>
<stop offset="1" stop-opacity="0"/>
</linearGradient>
<linearGradient id="paint3_linear" x1="4918.13" y1="5669.89" x2="4617.05" y2="8242.21" gradientUnits="userSpaceOnUse">
<stop offset="0.01"/>
<stop offset="0.13" stop-opacity="0.69"/>
<stop offset="1" stop-opacity="0"/>
</linearGradient>
<linearGradient id="paint4_linear" x1="129707" y1="-553286" x2="132623" y2="-610298" gradientUnits="userSpaceOnUse">
<stop offset="0.01"/>
<stop offset="0.13" stop-opacity="0.69"/>
<stop offset="1" stop-opacity="0"/>
</linearGradient>
<linearGradient id="paint5_linear" x1="156850" y1="-502971" x2="149968" y2="-546906" gradientUnits="userSpaceOnUse">
<stop offset="0.01"/>
<stop offset="0.13" stop-opacity="0.69"/>
<stop offset="1" stop-opacity="0"/>
</linearGradient>
<linearGradient id="paint6_linear" x1="16780.4" y1="29357" x2="26038.2" y2="31972.6" gradientUnits="userSpaceOnUse">
<stop offset="0.01"/>
<stop offset="0.13" stop-opacity="0.69"/>
<stop offset="1" stop-opacity="0"/>
</linearGradient>
<linearGradient id="paint7_linear" x1="15623.9" y1="30537.9" x2="26675.7" y2="35228.7" gradientUnits="userSpaceOnUse">
<stop offset="0.01"/>
<stop offset="0.13" stop-opacity="0.69"/>
<stop offset="1" stop-opacity="0"/>
</linearGradient>
<linearGradient id="paint8_linear" x1="4517.85" y1="7660.45" x2="4729.07" y2="7660.45" gradientUnits="userSpaceOnUse">
<stop offset="0.01"/>
<stop offset="0.13" stop-opacity="0.69"/>
<stop offset="1" stop-opacity="0"/>
</linearGradient>
<linearGradient id="paint9_linear" x1="8767.25" y1="5096.03" x2="8439.93" y2="8372.24" gradientUnits="userSpaceOnUse">
<stop offset="0.01"/>
<stop offset="0.13" stop-opacity="0.69"/>
<stop offset="1" stop-opacity="0"/>
</linearGradient>
<linearGradient id="paint10_linear" x1="8724.77" y1="8618.45" x2="7595.23" y2="13801.4" gradientUnits="userSpaceOnUse">
<stop offset="0.01"/>
<stop offset="0.13" stop-opacity="0.69"/>
<stop offset="1" stop-opacity="0"/>
</linearGradient>
<linearGradient id="paint11_linear" x1="11580.5" y1="12464.5" x2="13901.1" y2="12031.7" gradientUnits="userSpaceOnUse">
<stop offset="0.01"/>
<stop offset="0.13" stop-opacity="0.69"/>
<stop offset="1" stop-opacity="0"/>
</linearGradient>
<linearGradient id="paint12_linear" x1="12774.9" y1="1554.05" x2="12774" y2="1898.02" gradientUnits="userSpaceOnUse">
<stop offset="0.01"/>
<stop offset="0.13" stop-opacity="0.69"/>
<stop offset="1" stop-opacity="0"/>
</linearGradient>
<linearGradient id="paint13_linear" x1="5197.63" y1="1453.84" x2="5267.94" y2="1281.47" gradientUnits="userSpaceOnUse">
<stop offset="0.01"/>
<stop offset="0.13" stop-opacity="0.69"/>
<stop offset="1" stop-opacity="0"/>
</linearGradient>
<linearGradient id="paint14_linear" x1="3927.21" y1="1545.22" x2="3962.23" y2="1434.39" gradientUnits="userSpaceOnUse">
<stop offset="0.01"/>
<stop offset="0.13" stop-opacity="0.69"/>
<stop offset="1" stop-opacity="0"/>
</linearGradient>
<linearGradient id="paint15_linear" x1="3665.46" y1="1942" x2="3759.57" y2="1866.18" gradientUnits="userSpaceOnUse">
<stop offset="0.01"/>
<stop offset="0.13" stop-opacity="0.69"/>
<stop offset="1" stop-opacity="0"/>
</linearGradient>
<linearGradient id="paint16_linear" x1="4069.73" y1="1909.93" x2="4084.33" y2="1755.78" gradientUnits="userSpaceOnUse">
<stop offset="0.01"/>
<stop offset="0.13" stop-opacity="0.69"/>
<stop offset="1" stop-opacity="0"/>
</linearGradient>
<linearGradient id="paint17_linear" x1="5487.09" y1="12198.5" x2="7693.86" y2="11710.8" gradientUnits="userSpaceOnUse">
<stop offset="0.01"/>
<stop offset="0.13" stop-opacity="0.69"/>
<stop offset="1" stop-opacity="0"/>
</linearGradient>
<clipPath id="clip0">
<rect width="52.9814" height="22.0756" fill="white" transform="translate(172.945 99.9968) rotate(9.06606)"/>
</clipPath>
</defs>
</svg>
