<svg xmlns="http://www.w3.org/2000/svg" width="148.747" height="29.23" viewBox="0 0 148.747 29.23"><g fill="#ff1e23"><path d="M42.321 6.193h9.391v21.9h-9.391v-4.938l-5.4 6.074c-5.34 0-12.105-4.668-12.105-12.106A12.148 12.148 0 0136.921 5.018l5.4 6.074zm-8.114 10.931a4.057 4.057 0 104.057-4.057 4.04 4.04 0 00-4.057 4.057zM82.741 6.193H54.193v8.114h10.391L54.193 24.396v3.7h25.348v-8.151h-11z"/><path d="M108.077 9.284V6.193H82.713v8.114h10.4l-14.2 13.786h29.156v-8.151h-11zM23.1 14.291v-8.1H13.068V-.002H3.691v6.193H0v8.1h3.691v4.608a9.194 9.194 0 009.195 9.194H23.1v-8.152H13.068V14.29z"/></g><path d="M117.468 10.621q0-.391.458-.391a.86.86 0 01.245.033q.113.033.154.05v2.413a1.933 1.933 0 01.125-.158 1.253 1.253 0 01.258-.221 1.735 1.735 0 01.412-.2 1.831 1.831 0 01.587-.083 2.054 2.054 0 01.77.141 1.76 1.76 0 01.616.412 1.926 1.926 0 01.412.666 2.514 2.514 0 01.15.894 2.641 2.641 0 01-.162.948 1.891 1.891 0 01-.487.724 2.2 2.2 0 01-.815.462 3.661 3.661 0 01-1.148.162q-.324 0-.6-.017t-.483-.037q-.208-.021-.333-.038t-.158-.025zm3.286 3.627a1.662 1.662 0 00-.316-1.073 1.108 1.108 0 00-.915-.391 1.238 1.238 0 00-.524.1 1.023 1.023 0 00-.374.291 1.28 1.28 0 00-.225.437 1.875 1.875 0 00-.075.541v1.562a1.716 1.716 0 00.266.058 3.574 3.574 0 00.557.033 2.1 2.1 0 00.728-.112 1.239 1.239 0 00.786-.815 2.061 2.061 0 00.093-.631zm3.536.899q.142-.291.3-.645t.312-.707q.149-.353.283-.678l.225-.549a.837.837 0 01.17-.275.452.452 0 01.337-.108.586.586 0 01.312.075.641.641 0 01.146.108q-.059.191-.158.445t-.216.537q-.117.283-.25.582t-.266.582q-.266.591-.553 1.152t-.612 1.119a6.1 6.1 0 01-.345.532 1.909 1.909 0 01-.37.387 1.546 1.546 0 01-.437.237 1.614 1.614 0 01-.536.083 1.929 1.929 0 01-.375-.033 2.258 2.258 0 01-.287-.075 1.46 1.46 0 01-.192-.079.624.624 0 01-.079-.046l.283-.632a1.043 1.043 0 00.212.1 1.062 1.062 0 00.387.066.792.792 0 00.557-.208 1.413 1.413 0 00.241-.283q.116-.175.25-.416l.216-.416q-.108-.174-.27-.449t-.345-.578q-.183-.3-.366-.62l-.341-.587q-.159-.27-.271-.47t-.146-.266q-.059-.116-.1-.221a.585.585 0 01-.042-.221.453.453 0 01.1-.283.4.4 0 01.337-.125.741.741 0 01.258.033l.1.042q.042.092.212.424t.4.765q.224.432.474.89t.445.811zm20.509 8.137v1.735h1.4v.815a1.324 1.324 0 01-.373.14 2.683 2.683 0 01-.559.047 2.13 2.13 0 01-.786-.14 1.764 1.764 0 01-.612-.4 1.819 1.819 0 01-.4-.617 2.1 2.1 0 01-.146-.792v-.019a2.141 2.141 0 01.134-.769 1.8 1.8 0 01.379-.605 1.763 1.763 0 01.582-.4 1.83 1.83 0 01.734-.146 2.437 2.437 0 01.955.186 3.4 3.4 0 01.85.524l1.526-1.84a5 5 0 00-1.508-.908 5.248 5.248 0 00-1.9-.326 4.884 4.884 0 00-1.787.32 4.381 4.381 0 00-1.427.891 4.037 4.037 0 00-.943 1.35 4.142 4.142 0 00-.333 1.474l-1.64-3.919h-2.7l-2.328 5.563v-5.5h-2.841l-1.747 2.865-1.747-2.865h-2.841v1.823a3.9 3.9 0 00-.476-.673 3.806 3.806 0 00-1.355-.968 4.8 4.8 0 00-1.937-.36 4.546 4.546 0 00-1.754.33 4.227 4.227 0 00-1.379.908 4.073 4.073 0 00-.9 1.351 4.311 4.311 0 00-.319 1.658v.03a4.237 4.237 0 00.343 1.726 3.81 3.81 0 00.957 1.328 4.447 4.447 0 001.459.855 5.415 5.415 0 001.865.308 4.972 4.972 0 002.208-.45 4.794 4.794 0 00.822-.516l-1.369-1.651a2.731 2.731 0 01-.506.29 2.506 2.506 0 01-1 .195 2.093 2.093 0 01-1.2-.33 1.583 1.583 0 01-.6-.8h5.137v3.092h2.655v-4.041l1.881 2.9h.046l1.881-2.9v4.041h4.517l.419-1.094h2.853l.431 1.094h2.958l-.385-.919a4.428 4.428 0 001.373.791 5.187 5.187 0 001.787.3 5.8 5.8 0 002.026-.337 5.427 5.427 0 001.572-.883v-3.764zm-25.3-.011a2.018 2.018 0 01.5-1.01 1.309 1.309 0 01.989-.4 1.382 1.382 0 011.02.4 1.727 1.727 0 01.469 1.01zm17.323 1.793l.746-1.979.745 1.979z" fill="#999"/></svg>