<?xml version="1.0" encoding="UTF-8"?>
<!-- Generator: Adobe Illustrator 25.2.1, SVG Export Plug-In . SVG Version: 6.00 Build 0)  -->
<svg xmlns="http://www.w3.org/2000/svg" xmlns:xlink="http://www.w3.org/1999/xlink" version="1.1" id="Capa_1" x="0px" y="0px" viewBox="0 0 512 512" style="enable-background:new 0 0 512 512;" xml:space="preserve" width="512" height="512">
<g>
	<g>
		<g>
			<g>
				<g>
					<path style="fill-rule:evenodd;clip-rule:evenodd;fill:#DF3333;" d="M422.687,357.654c0.579-10.118,1.425-19.962,2.138-29.944       c14.305-2.643,23.321-11.521,32.631-21.003c7.266-7.398,14.231-17.189,19.708-26.068c5.49-8.91,10.303-19.836,12.058-33.86       c1.687-13.448,1.113-30.039-9.563-34.069c-7.25-2.74-17.871,2.499-23.218,5.647c-13.816,8.137-24.511,19.459-34.885,30.866       c-1.007,1.106-1.892,2.549-2.812,3.677c-0.806,0.988-1.604,2.66-3.116,2.753c-2.886-8.696-6.122-17.044-10.269-24.5       c8.82-12.201,18.891-22.614,30.886-32.446c5.366-4.401,11.562-9.122,18.658-12.797c6.862-3.557,15.27-7.155,23.549-7.805       c15.96-1.253,23.786,9.176,28.214,20.963c3.373,8.985,4.943,19.995,5.271,30.628c0.719,23.781-4.684,45.228-11.091,61.671       c-6.73,17.271-16.994,32.381-28.833,43.584C459.523,346.771,444.681,357.627,422.687,357.654z"/>
					<g>
						<g>
							<path style="fill-rule:evenodd;clip-rule:evenodd;fill:#FF4E4E;" d="M260.628,152.248         c22.372-0.789,46.262,0.843,67.915,3.736c27.859,3.723,48.826,11.465,62.745,28.088c4.045,4.829,7.576,10.333,10.666,16.368         c0,0,0.21,6.572,1.022,8.38c0.786,1.748,3.784,2.273,3.784,2.273c7.915,19.911,12.179,43.934,14.82,68.089         c2.068,18.926,3.873,40.684,3.234,61.184c0,0-3.419,1.472-3.501,3.071c-0.076,1.485,3.032,6.182,3.032,6.182         c-1.553,21.709-6.368,41.209-17.221,53.285c-5.469,6.082-13.33,10.227-21.759,14.31c-8.276,4.002-17.95,6.751-27.265,8.699         c-3.613,0.754-7.276,1.408-10.982,2.023c0,0-5.084-1.815-7.077-1.526c-1.797,0.261-4.286,3.215-4.286,3.215         c-13.487,1.726-27.455,2.673-41.658,3.089c-45.294,1.327-94.075-2.445-125.85-17.876         c-17.763-8.628-27.817-18.122-33.923-38.319c-5.456-18.043-5.702-40.484-4.628-65.521         c1.031-23.837,3.751-44.282,7.726-65.099c5.91-30.94,14.263-58.324,35.906-72.861c7.124-4.787,15.521-8.474,24.817-11.195         c18.698-5.472,37.547-9.835,61.867-9.604C260.215,152.244,260.424,152.255,260.628,152.248z"/>
							<g>
								<path style="fill-rule:evenodd;clip-rule:evenodd;fill:#BF2727;" d="M268.973,151.71c28.57-1.088,60.025,1.48,84.263,6.363          c9.339,1.881,19.639,4.438,27.413,8.6c4.005,2.15,8.583,5.572,8.556,9.348c-0.061,7.336-15.162,11.48-21.135,13.697          c-25.88,9.604-53.256,16.174-87.565,15.848c-23.398-0.223-43.013-1.376-65.121-5.252c-9.246-1.624-18.389-4.137-27.73-7.369          c-6.994-2.425-20.712-6.718-21.183-13.483c-0.024-0.34-0.023-0.673,0.001-0.999c0,0,3.958-4.598,7.734-6.713          c3.657-2.048,9.929-6.354,9.929-6.354c0.248-0.096,0.481-0.189,0.696-0.278c8.461-3.488,16.388-5.62,24.778-7.486          C228.666,153.396,246.544,152.564,268.973,151.71z"/>
								<g>
									<path style="fill-rule:evenodd;clip-rule:evenodd;fill:#FFFFFF;" d="M365.279,258.024c0.148-0.034,0.246-0.33,0.605-0.295           c7.309,0.846,14.001,2.064,23.977,3.526c5.757,0.851,19.97,1.706,20.041,7.401c0.058,4.89-5.434,4.756-10.544,4.101           c-10.213-1.316-17.67-2.869-27.273-4.762c-4.39-0.868-9.875-1.386-10.148-5.501           C361.755,259.817,363.233,258.507,365.279,258.024z"/>
									<path style="fill-rule:evenodd;clip-rule:evenodd;fill:#FFFFFF;" d="M275.945,267.858c1.332-0.126,4.433,0.381,4.766,3.652           c0.399,4.018-4.25,7.511-6.706,10.138c-2.654,2.831-5.318,7.767-9.37,7.41c-1.742-0.148-3.635-1.61-3.867-3.636           c-0.246-2.263,1.102-3.384,2.752-5.374C266.538,276.418,271.069,268.303,275.945,267.858z"/>
									<path style="fill-rule:evenodd;clip-rule:evenodd;fill:#FFFFFF;" d="M322.855,269.021c1.557-0.198,5.059,0.346,5.371,3.957           c0.169,2.154-1.634,4.286-2.77,6.278c-1.203,2.124-2.009,4.011-3.056,5.979c-1.861,3.485-4.351,9.504-8.194,9.521           c-2.067,0.008-4.301-1.739-4.467-3.943c-0.106-1.394,1.105-3.625,2.149-5.677c0.936-1.817,1.721-3.64,2.461-5.087           C316.717,275.331,318.152,269.63,322.855,269.021z"/>
									<path style="fill-rule:evenodd;clip-rule:evenodd;fill:#FFFFFF;" d="M152.681,268.003c2.355-0.197,6.428,0.667,6.56,4.265           c0.185,4.973-8.249,6.209-13.282,7.679c-2.601,0.762-5.218,1.442-8.115,2.323c-2.754,0.839-5.852,2.452-8.123,1.726           c-1.546-0.493-2.979-2.633-2.963-4.232c0.042-4.201,8.345-6.268,11.472-7.394c2.075-0.74,4.689-1.446,7.224-2.334           C147.844,269.202,149.929,268.238,152.681,268.003z"/>
									<path style="fill-rule:evenodd;clip-rule:evenodd;fill:#FFFFFF;" d="M203.399,269.092c3.529-0.493,5.406,3.459,7.742,6.072           c4.303,4.811,8.3,8.749,13.073,13.927c2.353,2.56,5.366,5.534,5.02,8.458c-0.198,1.795-2.366,3.642-3.637,3.871           c-4.163,0.737-6.569-3.435-8.353-5.49c-4.005-4.605-8.363-9.497-12.46-14.525c-1.742-2.115-5.382-5.022-5.329-8.148           C199.495,270.694,201.694,269.323,203.399,269.092z"/>
									<path style="fill-rule:evenodd;clip-rule:evenodd;fill:#FFFFFF;" d="M381.4,297.799c1.298-0.143,4.71,0.575,5.07,3.65           c0.344,2.88-2.191,5.543-3.669,7.766c-3.098,4.667-5.424,8.568-8.247,14.03c-1.459,2.872-2.339,5.762-5.146,5.947           c-1.998,0.136-4.377-1.306-4.779-3.042c-0.82-3.542,3.267-10.068,5.535-14.353c1.247-2.354,2.564-4.371,3.669-6.27           C375.719,302.262,377.081,298.261,381.4,297.799z"/>
									<path style="fill-rule:evenodd;clip-rule:evenodd;fill:#FFFFFF;" d="M148.153,302.48c3.901-0.982,8.506,3.993,11.347,6.112           c3.037,2.267,8.377,5.095,8.321,8.782c-0.034,1.996-1.758,4.226-3.946,4.47c-4.023,0.436-6.666-3.336-10.441-6.405           c-1.58-1.285-3.137-2.232-4.768-3.653c-1.343-1.152-3.299-2.441-3.566-4.536           C144.677,303.909,146.546,302.886,148.153,302.48z"/>
									<path style="fill-rule:evenodd;clip-rule:evenodd;fill:#FFFFFF;" d="M272.549,319.267c3.018-0.597,6.507,0.603,6.566,3.969           c0.048,2.563-2.701,4.838-5.162,6.254c-5.17,2.988-9.394,4.605-15.37,7.353c-3.677,1.688-12.323,5.26-11.694-2.211           c0.293-3.461,9.085-6.896,11.794-8.284c2.152-1.123,4.398-2.261,6.624-3.539           C267.616,321.485,270.059,319.771,272.549,319.267z"/>
									<path style="fill-rule:evenodd;clip-rule:evenodd;fill:#FFFFFF;" d="M415.555,336.843c-2.191,0.398-5.027,2.322-3.36,6.268           c0.611,1.45,3.108,1.997,4.47,2.747c2.235,1.228,4.886,3.794,7.666,3.793c0.219-3.055,0.376-6.152,0.474-9.28           C421.775,338.22,417.483,336.491,415.555,336.843z"/>
									<path style="fill-rule:evenodd;clip-rule:evenodd;fill:#FFFFFF;" d="M323.021,345.865c1.982-0.299,5.205,0.714,5.363,3.946           c0.195,3.994-5.583,7.306-8.191,9.238c-1.367,1.002-3.254,2.307-5.138,3.547c-1.845,1.227-3.965,2.561-6.022,2.345           c-2.207-0.23-3.756-2.188-3.864-3.941c-0.198-3.249,4.906-6.212,7.285-8.03c3.428-2.638,6.41-5.945,9.965-7.11           C322.593,345.804,322.839,345.899,323.021,345.865z"/>
									<path style="fill-rule:evenodd;clip-rule:evenodd;fill:#FFFFFF;" d="M247.245,361.05c5.823-1.538,5.218,3.761,6.51,9.669           c1.078,4.94,3.301,12.587-3.714,11.67c-2.728-0.357-3.867-3.264-4.737-7.248           C244.139,369.765,242.146,362.393,247.245,361.05z"/>
									<path style="fill-rule:evenodd;clip-rule:evenodd;fill:#FFFFFF;" d="M385.198,372.572           c6.106-1.208,5.651,5.418,5.583,12.658c-0.063,6.542,1.316,14.884-4.93,14.361c-4.078-0.343-4.063-4.996-4.409-10.549           C380.995,382.038,379.584,373.671,385.198,372.572z"/>
									<path style="fill-rule:evenodd;clip-rule:evenodd;fill:#FFFFFF;" d="M205.567,387.964c2.939-0.264,6.098,4.401,8.633,6.986           c4.61,4.705,9.529,9.833,14.866,15.151c2.889,2.873,6.336,5.115,5.918,8.76c-0.201,1.826-1.705,3.632-3.637,3.867           c-3.769,0.481-7.256-3.579-9.545-5.791c-5.315-5.123-9.502-10.393-14.562-16.047c-1.94-2.178-6.206-5.376-5.913-9.058           C201.493,389.806,202.968,388.196,205.567,387.964z"/>
									<path style="fill-rule:evenodd;clip-rule:evenodd;fill:#FFFFFF;" d="M282.345,393.802c0.304,5.094-2.622,6.566-4.895,9.854           c-1.766,2.559-3.431,7.61-6.978,7.745c-1.803,0.053-4.094-1.491-4.475-3.344c-0.703-3.463,2.08-6.056,3.69-8.675           c1.61-2.627,3.161-6.003,4.864-7.158C277.333,390.348,280.679,390.874,282.345,393.802z"/>
									<path style="fill-rule:evenodd;clip-rule:evenodd;fill:#FFFFFF;" d="M343.58,424.694           c-4.274-3.954-7.483-8.012-10.692-11.807c-2.046-2.421-3.991-5.199-7.153-4.869c-1.665,0.182-3.973,0.983-4.24,3.87           c-0.275,2.892,2.395,5.231,4.134,7.234c3.358,3.91,6.424,7.118,10.148,10.492c3.824-0.49,7.599-1.056,11.34-1.677           C346.258,426.864,344.932,425.952,343.58,424.694z"/>
									<path style="fill-rule:evenodd;clip-rule:evenodd;fill:#FFFFFF;" d="M286.78,160.233c1.345-0.126,4.443,0.382,4.773,3.653           c0.402,4.016-4.248,7.511-6.706,10.138c-2.651,2.831-5.313,7.768-9.37,7.413c-1.744-0.151-3.634-1.612-3.865-3.639           c-0.246-2.261,1.097-3.381,2.749-5.372C277.375,168.795,281.908,160.678,286.78,160.233z"/>
									<path style="fill-rule:evenodd;clip-rule:evenodd;fill:#FFFFFF;" d="M350.069,165.636c1.557-0.197,5.056,0.348,5.363,3.957           c0.175,2.154-1.636,4.287-2.767,6.278c-1.2,2.125-2.006,4.011-3.056,5.979c-1.861,3.484-4.351,9.505-8.194,9.521           c-2.064,0.006-4.293-1.739-4.467-3.943c-0.106-1.393,1.105-3.625,2.152-5.679c0.936-1.815,1.721-3.638,2.456-5.084           C343.924,171.945,345.362,166.247,350.069,165.636z"/>
									<path style="fill-rule:evenodd;clip-rule:evenodd;fill:#FFFFFF;" d="M184.133,165.396           c-5.213,2.029-17.126,5.782-17.653,13.069c2.34-0.685,4.528-1.269,6.694-1.901c5.03-1.471,13.467-2.705,13.285-7.68           C186.392,167.142,185.401,166.046,184.133,165.396z"/>
									<path style="fill-rule:evenodd;clip-rule:evenodd;fill:#FFFFFF;" d="M230.617,165.707c3.521-0.49,5.403,3.459,7.737,6.07           c4.303,4.812,8.3,8.75,13.071,13.93c2.352,2.56,5.368,5.532,5.027,8.457c-0.209,1.796-2.371,3.642-3.642,3.868           c-4.163,0.74-6.566-3.431-8.353-5.486c-4.002-4.606-8.358-9.497-12.46-14.525c-1.739-2.117-5.382-5.022-5.326-8.152           C226.71,167.309,228.906,165.94,230.617,165.707z"/>
									<path style="fill-rule:evenodd;clip-rule:evenodd;fill:#FFFFFF;" d="M401.963,200.459           c-0.303,0.569-0.605,1.137-0.922,1.685c-1.099,1.898-2.416,3.913-3.663,6.27c-2.268,4.283-6.357,10.809-5.54,14.351           c0.404,1.735,2.783,3.178,4.776,3.044c2.812-0.185,3.687-3.077,5.157-5.948c1.737-3.367,3.286-6.14,4.945-8.867           C405.259,207.336,403.68,203.814,401.963,200.459z"/>
									<path style="fill-rule:evenodd;clip-rule:evenodd;fill:#FFFFFF;" d="M175.365,199.094           c3.901-0.979,8.503,3.995,11.347,6.112c3.037,2.267,8.379,5.096,8.324,8.783c-0.034,1.996-1.763,4.225-3.952,4.47           c-4.023,0.435-6.666-3.337-10.443-6.406c-1.575-1.285-3.132-2.231-4.766-3.652c-1.343-1.15-3.294-2.441-3.563-4.534           C171.889,200.524,173.753,199.501,175.365,199.094z"/>
									<path style="fill-rule:evenodd;clip-rule:evenodd;fill:#FFFFFF;" d="M299.761,215.884c3.016-0.597,6.505,0.601,6.566,3.966           c0.048,2.565-2.701,4.837-5.162,6.254c-5.17,2.991-9.394,4.608-15.376,7.358c-3.669,1.684-12.318,5.257-11.691-2.212           c0.293-3.465,9.093-6.897,11.789-8.285c2.159-1.122,4.406-2.261,6.629-3.538           C294.828,218.1,297.268,216.386,299.761,215.884z"/>
									<path style="fill-rule:evenodd;clip-rule:evenodd;fill:#FFFFFF;" d="M232.324,237.755           c5.215-0.377,11.218-0.92,10.766,4.909c-0.286,3.502-4.287,4.203-9.955,4.406c-5.852,0.209-14.739,1.849-14.971-3.744           C217.903,237.274,226.995,238.146,232.324,237.755z"/>
									<path style="fill-rule:evenodd;clip-rule:evenodd;fill:#FFFFFF;" d="M163.283,238.901c2.889-0.725,5.297,1.433,8.067,2.779           c2.183,1.052,4.493,2.068,6.88,3.364c4.06,2.219,11.321,4.846,10.702,10.008c-0.233,2.029-2.152,3.677-3.933,3.865           c-2.564,0.267-5.215-1.85-7.176-3.073c-4.28-2.655-8.154-4.952-12.833-7.623c-2.474-1.409-4.985-2.593-5.057-5.148           C159.87,240.594,162.051,239.209,163.283,238.901z"/>
									<path style="fill-rule:evenodd;clip-rule:evenodd;fill:#FFFFFF;" d="M355.118,224.938c1.982-0.299,5.205,0.712,5.371,3.95           c0.188,3.99-5.588,7.303-8.199,9.234c-1.369,1.004-3.249,2.302-5.138,3.546c-1.848,1.225-3.968,2.561-6.024,2.346           c-2.207-0.232-3.756-2.187-3.865-3.94c-0.198-3.251,4.906-6.216,7.282-8.034c3.436-2.634,6.418-5.941,9.973-7.109           C354.692,224.877,354.938,224.972,355.118,224.938z"/>
								</g>
							</g>
						</g>
						<path style="fill-rule:evenodd;clip-rule:evenodd;fill:#DF3333;" d="M276.09,117.801        c13.407-1.501,17.385,11.804,18.299,24.577c0.605,8.478,2.289,27.779-3.383,31.162c-1.819,1.084-6.146,1.189-9.904,1.451        c-3.177,0.223-7.845,0.851-10.816,0.822c-3.093-0.029-8.918-0.625-10.467-3.186c-1.282-2.112-1.126-7.26-1.433-11.752        c-0.796-11.518,0.574-27.392,4.34-34.552C265.09,121.839,269.541,118.536,276.09,117.801z"/>
					</g>
					<g>
						<path style="fill-rule:evenodd;clip-rule:evenodd;fill:#DF3333;" d="M141.447,354.87c-4.919,2.083-11.07,4.734-17.945,2.921        c-12.738-3.373-22.473-18.209-27.828-29.301c-12.45-25.797-19.216-55.663-26.353-87.046        c-2.464-10.853-4.615-22.573-7.697-34.667c-0.962-3.765-3.233-8.936-1.75-11.135c1.832-2.715,12.584-1.118,18.233-1.064        c8.915,0.084,14.215-0.588,20.086-0.735c2.535-0.064,7.113,0.099,8.635,1.626c0.84,0.854,1.018,2.999,1.798,5.268        c1.686,4.885,4.636,10.462,6.661,14.58c8.035,16.372,15.598,30.507,23.646,47.174c1.605,3.337,4.134,7.096,4.539,9.62        c0.465,2.926-0.373,6.775-0.404,10.19C142.843,305.755,142.095,331.462,141.447,354.87z"/>
						<path style="fill-rule:evenodd;clip-rule:evenodd;fill:#BF2727;" d="M80.309,189.943c6.484-0.376,15.973-0.383,21.659,1.544        c2.693,0.913,6.072,3.325,6.093,5.679c0.026,3.57-5.157,5.314-9.14,6.065c-9.381,1.775-20.118,0.913-29.274-0.548        c-4.607-0.734-9.984-1.631-10.205-4.909c-0.241-3.718,4.367-5.235,7.967-6.079C72.07,190.599,75.855,190.201,80.309,189.943z"/>
					</g>
				</g>
				<g>
					<path style="fill-rule:evenodd;clip-rule:evenodd;fill:#FFFFFF;" d="M73.202,216.426c4.634-2.07,5.366,2.321,6.143,5.613       c1.327,5.616,2.342,10.686,2.675,15.419c0.185,2.6,0.753,5.476-2.651,6.084c-2.828,0.497-3.164-2.16-4.018-4.828       c-1.491-4.611-2.818-9.312-3.581-14.082c-0.333-2.094-1.115-5.375-0.402-6.808C71.605,217.344,72.641,216.682,73.202,216.426z"/>
					<path style="fill-rule:evenodd;clip-rule:evenodd;fill:#FFFFFF;" d="M89.119,231.209c7.089-3.299,11.292,17.054,6.024,18.716       c-4.858,1.528-5.86-5.675-7.026-10.806C87.208,235.185,85.603,232.851,89.119,231.209z"/>
					<path style="fill-rule:evenodd;clip-rule:evenodd;fill:#FFFFFF;" d="M81.935,252.211c3.463-1.711,5.297,5.343,6.64,11.855       c1.343,6.338,2.498,11.839-1.055,11.753c-2.178-0.048-3.804-5.376-5.213-10.591C80.692,259.27,78.802,253.765,81.935,252.211z"/>
				</g>
			</g>
			<g>
				<g>
					<path style="fill-rule:evenodd;clip-rule:evenodd;fill:#42758A;" d="M236.284,336.613       c-0.119,12.278-50.779,40.185-112.086,39.604c-61.31-0.584-110.915-11.004-110.799-23.274       c0.185-19.491,44.261-9.2,113.474-15.81C188.068,331.293,236.4,324.345,236.284,336.613z"/>
					<path style="fill-rule:evenodd;clip-rule:evenodd;fill:#D8773A;" d="M236.149,350.633       c-0.077,8.049-50.644,26.165-111.951,25.584c-61.31-0.584-110.95-7.576-110.873-15.614c0.122-12.77,44.229-5.881,113.418-9.986       C187.918,346.991,236.225,342.6,236.149,350.633z"/>
				</g>
				<g>
					<path style="fill-rule:evenodd;clip-rule:evenodd;fill:#568EAF;" d="M147.889,493.806c-11.665,4.422-26.361,6.275-42.635,4.388       c-2.067-0.235-4.71-0.584-7.29-0.899c-2.379-0.296-5.49-0.394-6.888-1.11c-1.187-0.611-2.749-3.563-3.706-5.046       c-3.357-5.204-6.317-11.101-11.342-14.511c-5.117-3.47-11.152-5.159-16.845-7.261c-5.662-2.088-11.612-4.266-16.631-7.459       c-2.171-1.387-4.198-2.914-6.091-4.575c0,0-17.257-35.926-19.202-62.349c-0.62-8.458-5.435-25.975-5.435-25.975       c0.011-2.606,0.056-5.145,0.164-7.808c0.148-3.489-0.002-7.303,1.361-10.634c2.075-0.172,3.587,2.019,5.186,3.183       c0.164,0.119,0.329,0.238,0.496,0.355c1.51,1.07-1.147,11.95,0.526,12.906c1.956,1.118,8.27-7.709,10.422-6.739       c9.695,4.372,21.228,7.291,33.285,9.141c12.069,1.848,25.301,2.799,38.678,2.827c2.917,0.006,0.779,6.799,3.699,6.717       c2.657-0.074,10.372-7.016,13.015-7.164c2.5-0.14,4.99-0.312,7.463-0.518c0.758-0.063,13.228,6.738,13.983,6.669       c4.712-0.435,2.3-8.446,2.3-8.446c2.224-0.297,4.437-0.614,6.637-0.952c0,0,11.348,1.248,17.335-0.029       c5.812-1.239,18.031-7.482,18.031-7.482c0.569-0.157,1.136-0.316,1.701-0.476c2.916-0.826,5.832-1.721,8.729-2.683       c0,0,6.932,0.341,9.756-0.745c2.085-0.802,4.997-4.829,4.997-4.829c6.609-2.825,12.914-6.004,18.647-9.503       c1.832-1.125,3.745-2.276,5.043-3.502c0.587-0.555,1.15-0.767,2.091-0.399c1.118,0.436,0.975,2.66,0.571,5.849       c-1.66,12.984-4.045,26.391-6.159,39.209l-8.722,29.758l-7.392,32.306c-2.756,4.672-6.07,8.79-10.123,12.192       c-5.638,4.742-12.386,7.271-20.554,9.825c-7.745,2.427-15.957,4.48-22.201,8.141C154.37,479.94,151.637,486.21,147.889,493.806       z"/>
					<g>
						<path style="fill-rule:evenodd;clip-rule:evenodd;fill:#F7F7FC;" d="M184.43,361.013c-11.279,3.12-23.152,5.64-35.415,7.523        c0.275,0.15,0.55,0.292,0.827,0.418C161.178,374.063,177.043,367.85,184.43,361.013z"/>
						<path style="fill-rule:evenodd;clip-rule:evenodd;fill:#F7F7FC;" d="M209.583,352.3c-4.793,2.049-9.741,3.913-14.751,5.576        c9.188,6.714,17.729,16.691,21.858,29.931c5.783,18.563,1.002,41.607-12.812,48.064c-3.96,1.848-10.06,2.257-14.839,1.094        c-5.683-1.382-10.443-4.673-14.131-8.162c1.417-16.763-4.414-39.685-16.274-42.469c-4.768-1.128-7.557,1.25-9.915,2.68        c-1.048-7.072-3.11-13.912-6.324-19.525c-4.626,0.617-9.296,1.153-14.008,1.588c-0.757,0.069-1.519,0.128-2.279,0.191        c1.642,1.148,3.058,2.773,3.91,3.975c11.39,16.116,3.568,44.573-4.573,58.027c-3.135,5.181-7.041,9.767-11.553,12.862        c-4.578-10.105-7.274-24.555-6.405-40.833c0.367-6.804,1.927-14.022,3.899-20.038c1.428-4.356,4.049-10.345,7.231-13.473        c-5.536,0.309-11.116,0.456-16.675,0.444c-4.37,8.65-7.213,19.948-8.024,31.09c-1.324,18.177,2.154,36.839,7.872,49.183        c-10.681,2.635-20.223-2.183-23.694-9.489c3.021-3.745,6.177-8.561,8.778-13.816c2.569-5.176,5.329-11.125,4.805-17.871        c-0.637-8.226-8.21-14.049-16.269-10.652c-11.22,4.721-17.81,24.889-13.348,39.405c-4.454,3.301-9.185,7.472-16.737,6.019        c-6.307-1.221-10.494-7.75-12.852-12.785c11.715-1.192,18.616-5.921,24.852-14.591c4.451-6.193,8.115-14.937,7.33-23.715        c-0.785-8.715-6.976-17.815-17.118-18.695c-13.824-1.192-22.034,10.568-26.744,18.899c-0.079-6.875,1.292-13.158,2.96-19.124        c1.596-5.705,3.222-11.863,6.213-15.832c-3.986-1.799-7.657-3.845-10.929-6.163c-2.228,3.253-4.033,7.075-5.363,10.161        c-0.637,1.481-1.255,3.084-1.85,4.752c-0.043,9.376,0.47,18.371,1.092,26.856c1.939,26.345,8.4,48.064,23.419,61.343        c1.765,0.91,3.68,1.65,5.778,2.145c11.358,2.678,18.22-2.027,26.004-6.55c6.465,10.903,24.873,17.821,40.97,11.823        c6.616,7.206,14.086,14.895,26.424,15.075c10.301,0.153,18.622-5.556,24.199-11.818c6.029-6.753,9.873-15.41,12.273-23.972        c7.774,4.129,14.493,8.144,26.186,7.348c5.887-0.395,11.093-2.349,15.489-5.231c8.572-14.526,11.747-34.404,14.948-54.792        c0.379-2.411,0.779-4.859,1.185-7.321c-3.681-11.828-10.507-22.012-18.646-30.131        C210.635,353.277,210.107,352.79,209.583,352.3z M29.517,419.386c-0.431-10.071,4.076-22.964,10.763-27.693        c2.125-1.504,5.115-2.437,8.353-1.158c5.35,6.489,0.56,17.876-4.853,23.43C40.246,417.581,35.126,420.589,29.517,419.386z         M158.406,442.856c-2.17,6.584-6.532,14.324-11.3,18.421c-3.523,3.032-9.095,5.858-15.481,4.179        c-4.245-1.115-7.211-4.24-10.118-7.816c13.156-10.092,21.619-24.95,26.054-43.922c1.816,5.125,5.693,11.413,9.426,16.15        c1.242,1.583,3.201,3.785,3.354,4.668C160.571,435.914,159.347,439.998,158.406,442.856z"/>
					</g>
				</g>
			</g>
			<g>
				<g>
					<path style="fill-rule:evenodd;clip-rule:evenodd;fill:#00AF93;" d="M449.727,399.234c-1.882,1.829-4.686,1.71-7.184,2.598       c-2.498,0.88-5.004,2.144-7.652,3.613c1.197,0.973,4.208-0.389,5.297,1.798c1.269,2.5-3.077,3.962-5.228,4.218       c2.278,2.025,9.875,2.977,9.6,7.948c-3.159,1.742-7.314,0.156-10.813-1.517c-6.891-3.28-14.001-10.951-17.781-19.261       c-1.528-3.344-3.045-6.864-2.371-9.283c0.851-3.108,4.155-1.927,6.497,0.513c3.835,4.012,5.152,9.407,6.045,13.042       c0.872-0.402,0.605-1.599,0.804-2.564c0.161-0.804,0.484-1.782,0.645-2.77c0.238-1.412,0.584-7.631,3.6-5.453       c3.079,2.223-0.27,9.478,0.005,11.514c6.354-4.163,12.41-5.646,18.265-5.13C449.762,398.769,449.537,398.978,449.727,399.234z"/>
					<path style="fill-rule:evenodd;clip-rule:evenodd;fill:#BF2727;" d="M428.399,414.837c4.539,0.97,7.044,7.121,2.802,10.221       c7.472,7.737-4.132,18.489-11.535,11.876c-0.783,0.949-0.682,3.045-1.7,4.232c-3.616,4.287-9.724,2.662-11.717-3.013       c-6.069,6.759-18.151-1.29-14.194-9.658c-7.253-1.15-9.019-11.553-1.073-14.826c-4.57-6.249,3.669-16.325,11.072-12.452       c2.376-9.87,17.115-8.178,17.353,1.686c2.633,0.495,5.381,1.404,7.322,4.324C428.375,409.675,428.515,412.686,428.399,414.837z       "/>
					<g>
						<path style="fill-rule:evenodd;clip-rule:evenodd;fill:#FFFFFF;" d="M415.36,402.641c1.026,1.012,1.626,2.646,0.632,3.965        c-1.591,2.136-3.521,1.697-4.612,1.808c-1.615,0.166-3.296,0.343-4.216-0.441c-4.578-3.997,3.381-6.806,5.509-6.68        C413.528,401.346,414.39,401.69,415.36,402.641z"/>
						<path style="fill-rule:evenodd;clip-rule:evenodd;fill:#FFFFFF;" d="M407.475,415.083c-0.016-2.585,6.153-3.989,7.39-1.16        C416.111,416.822,408.699,419.619,407.475,415.083z"/>
						<path style="fill-rule:evenodd;clip-rule:evenodd;fill:#FFFFFF;" d="M399.625,407.336c3.777,2.144-2.25,7.108-4.414,4.842        C392.871,409.72,397.42,406.085,399.625,407.336z"/>
						<path style="fill-rule:evenodd;clip-rule:evenodd;fill:#FFFFFF;" d="M400.291,417.684c0.431,0.37,0.973,1.078,1.052,1.697        c0.317,2.36-4.726,7.412-7.282,5.25C390.13,421.31,396.931,414.774,400.291,417.684z"/>
					</g>
				</g>
				<g>
					<path style="fill-rule:evenodd;clip-rule:evenodd;fill:#00AF93;" d="M375.048,449.17c1.039,2.722-0.344,5.048-1.647,7.422       c-1.863,3.41-5.617,9.042-9.41,11.316c-3.375,2.019-9.074,2.154-12.296,1.819c-1.795-0.19-3.695-0.685-5.363-1.237       c-1.66-0.545-3.822-1.11-4.538-2.884c0.166-1.797,2.389-1.919,3.714-2.067c4.137-0.449,8.781,0.595,12.378,1.232       c-2.157-1.71-4.964-4.512-6.687-8.004c-0.571-1.16-1.769-4.086-0.579-4.861c1.605-1.073,3.976,1.898,5.117,3.212       c1.697,1.951,2.844,3.73,4.129,5.781c-0.283-3.642-1.406-7.848-2.149-11.723c-0.22-1.15-0.732-2.609,0.084-3.544       c1.742,0.185,1.898,2.471,2.308,3.788c1.419,4.575,2.122,9.315,2.397,13.449c0.04,0.151-0.084,0.257,0.003,0.415       c1.961-3.87,4.412-8.474,8.162-12.13C371.728,450.122,373.081,448.166,375.048,449.17z"/>
					<path style="fill-rule:evenodd;clip-rule:evenodd;fill:#BF2727;" d="M379.753,461.467c4.134-0.962,8.839,2.725,9.164,7.998       c1.174,0.769,2.575,1.047,3.307,2.482c0.952,1.88,0.19,4.179-1.158,5.524c2.863,1.977,3.677,6.767,1.245,8.675       c4.372,4.065,1.586,11.429-4.457,11.303c-0.595-0.018-2.252-0.74-2.397-0.663c-0.322,0.185-0.304,1.959-0.574,2.556       c-1.316,2.905-6.307,4.274-8.503,2.398c-3.875,5.093-12.405,4.731-13.618-2.057c-0.917-0.322-1.631,0.095-2.559-0.166       c-3.026-0.851-4.546-4.745-3.301-7.43c-2.503-0.262-4.967-1.75-6.108-4.372c-1.425-3.264,0.24-6.288,2.886-8.247       c-2.432-2.006-2.834-5.128-2.395-6.854c0.682-2.662,3.732-5.239,6.933-4.702c0.357,0.064,1.229,0.412,1.229,0.412       c0.42-0.198,0.793-2.162,1.158-2.646c1.396-1.821,4.38-2.754,6.518-2.641C368.786,457.925,376.816,456.317,379.753,461.467z"/>
					<g>
						<path style="fill-rule:evenodd;clip-rule:evenodd;fill:#FFFFFF;" d="M357.312,472.288c2.595-2.62,5.561,2.379,4.456,4.367        C359.606,480.54,354.949,474.667,357.312,472.288z"/>
						<path style="fill-rule:evenodd;clip-rule:evenodd;fill:#FFFFFF;" d="M368.117,469.145c2.268-2.738,4.774,3.005,1.898,3.796        C368.229,473.435,367.293,470.139,368.117,469.145z"/>
						<path style="fill-rule:evenodd;clip-rule:evenodd;fill:#FFFFFF;" d="M357.978,489.694c-2.892-0.775-4.124-6.193-0.582-6.101        C359.207,483.635,362.445,489.709,357.978,489.694z"/>
						<path style="fill-rule:evenodd;clip-rule:evenodd;fill:#FFFFFF;" d="M366.394,481.36c0.605-0.624,1.256-0.973,2.062-0.827        c2.035,0.386,4.414,6.338,0.817,7.018C367.242,487.936,364.755,483.017,366.394,481.36z"/>
						<path style="fill-rule:evenodd;clip-rule:evenodd;fill:#FFFFFF;" d="M365.482,496.051c-0.574,0.354-1.086,0.51-1.562,0.574        c-1.85-0.656-2.453-4.322,0.079-4.372C365.252,492.815,366.016,494.951,365.482,496.051z"/>
						<path style="fill-rule:evenodd;clip-rule:evenodd;fill:#FFFFFF;" d="M373.243,495.464c1.475,0.788,3.64,3.753,2.067,4.953        C372.574,502.521,368.355,495.63,373.243,495.464z"/>
					</g>
				</g>
			</g>
		</g>
		<g>
			<path style="fill-rule:evenodd;clip-rule:evenodd;fill:#E1EFF4;" d="M121.573,47.778c12.835-1.61,22.034,3.389,27.706,10.147     c4.034,4.8,7.137,11.141,6.605,20.14c-0.632,10.661-5.279,20.396-10.457,28.009c-10.211,14.994-26.305,25.219-39.889,36.685     c-7.393,6.242-13.129,13.163-18.719,19.592c-3.241-10.693-6.362-21.503-12.069-29.768c-3.079,0.443-5.096,2.445-7.446,3.327     c-15.206,5.683-33.122,5.483-46.317-1.676c-10.462-5.68-21.254-19.039-20.982-34.794c0.217-12.335,7.798-23.143,17.86-26.394     c2.017-0.653,3.962-0.977,7.11-0.859c-3.783-19.658,4.993-36.494,16.208-47.722C50.9,14.735,62.475,7.814,76.873,6.891     c16.552-1.061,30.453,6.125,37.832,16.422C119.109,29.458,121.829,37.429,121.573,47.778z"/>
			<g>
				<path style="fill-rule:evenodd;clip-rule:evenodd;fill:#C7E0EA;" d="M147.521,72.778c-1.176-1.055-2.881-1.914-4.034-1.648      c-4.483,1.032-7.943,14.244-2.841,16.513c4.216,1.868,6.341-1.569,7.343-6.422C148.745,77.587,149.707,74.743,147.521,72.778z"/>
				<path style="fill-rule:evenodd;clip-rule:evenodd;fill:#C7E0EA;" d="M127.018,104.678c-0.656-0.926-1.591-1.787-2.709-1.961      c-2.085-0.32-7.43,2.874-9.608,5.614c-3.558,4.451,1.586,10.095,6.51,7.335C125.596,113.206,129.917,108.814,127.018,104.678z"/>
				<path style="fill-rule:evenodd;clip-rule:evenodd;fill:#C7E0EA;" d="M129.862,78.388c-4.599-7.236-12.072,4.771-8.511,9.023      C126.434,93.486,132.656,82.78,129.862,78.388z"/>
			</g>
		</g>
	</g>
</g>















</svg>
