<svg width="2402" height="244" viewBox="0 0 2402 244" fill="none" xmlns="http://www.w3.org/2000/svg">
<g clip-path="url(#clip0)">
<path d="M1046.52 0H26.7363C19.6454 0 12.8449 2.82022 7.83089 7.84024C2.81685 12.8603 0 19.6689 0 26.7682L0 217.232C0 224.331 2.81685 231.14 7.83089 236.16C12.8449 241.18 19.6454 244 26.7363 244H1046.52C1054.12 244 1061.41 240.976 1066.79 235.592C1072.17 230.209 1075.19 222.907 1075.19 215.294V28.7059C1075.19 21.0926 1072.17 13.7912 1066.79 8.40776C1061.41 3.02436 1054.12 0 1046.52 0V0ZM1068.02 215.294C1068.02 221.004 1065.75 226.48 1061.72 230.518C1057.69 234.555 1052.22 236.824 1046.52 236.824H26.7363C21.5523 236.805 16.5859 234.734 12.9202 231.064C9.25453 227.394 7.1868 222.422 7.16791 217.232V26.7682C7.1868 21.578 9.25453 16.6057 12.9202 12.9357C16.5859 9.26558 21.5523 7.19538 26.7363 7.17647H1046.52C1052.22 7.17647 1057.69 9.44474 1061.72 13.4823C1065.75 17.5198 1068.02 22.9959 1068.02 28.7059V215.294Z" fill="white"/>
<path d="M122.353 80.6636H91.5305V157.882H105.293V128.028H122.353C139.556 128.028 150.307 119.704 150.307 104.346C150.307 88.9883 139.556 80.6636 122.353 80.6636ZM121.636 116.546H105.293V92.8636H121.851C131.743 92.8636 136.975 97.0977 136.975 104.705C136.975 112.312 131.527 116.187 121.851 116.187L121.636 116.546Z" fill="white"/>
<path d="M179.916 100.471C176.148 100.427 172.412 101.173 168.949 102.661C165.485 104.148 162.371 106.345 159.806 109.109C157.241 111.873 155.282 115.144 154.054 118.711C152.827 122.278 152.358 126.063 152.678 129.823C152.342 133.603 152.795 137.411 154.01 141.006C155.224 144.601 157.173 147.904 159.731 150.704C162.29 153.503 165.403 155.739 168.872 157.269C172.341 158.799 176.09 159.589 179.88 159.589C183.671 159.589 187.419 158.799 190.888 157.269C194.357 155.739 197.47 153.503 200.029 150.704C202.587 147.904 204.536 144.601 205.75 141.006C206.965 137.411 207.418 133.603 207.082 129.823C207.413 126.067 206.954 122.283 205.735 118.716C204.516 115.149 202.563 111.877 200.004 109.112C197.444 106.346 194.334 104.149 190.874 102.66C187.414 101.172 183.681 100.426 179.916 100.471V100.471ZM179.916 148.338C171.171 148.338 165.58 141.161 165.58 129.823C165.58 118.484 171.028 111.307 179.916 111.307C188.804 111.307 194.252 118.484 194.252 129.823C194.252 141.161 188.589 148.266 179.916 148.266V148.338Z" fill="white"/>
<path d="M263.635 138.865L253.528 101.404H242.92L232.885 138.865L222.706 101.404H209.446L226.434 157.954H237.615L247.937 120.924L258.259 157.954H269.441L286.429 101.404H273.67L263.635 138.865Z" fill="white"/>
<path d="M315.389 100.471C311.67 100.54 308.004 101.365 304.613 102.896C301.223 104.427 298.178 106.632 295.664 109.377C293.15 112.122 291.22 115.349 289.99 118.864C288.76 122.379 288.257 126.107 288.51 129.822C288.21 133.595 288.7 137.389 289.949 140.962C291.198 144.534 293.177 147.806 295.761 150.569C298.345 153.332 301.477 155.524 304.955 157.006C308.434 158.488 312.183 159.226 315.963 159.174C321.16 159.455 326.313 158.096 330.698 155.289C335.083 152.483 338.478 148.37 340.405 143.53L329.725 139.08C328.887 141.853 327.132 144.259 324.749 145.902C322.365 147.545 319.495 148.328 316.608 148.122C314.552 148.172 312.507 147.802 310.598 147.037C308.689 146.272 306.954 145.127 305.5 143.671C304.046 142.215 302.902 140.478 302.138 138.567C301.373 136.655 301.005 134.608 301.054 132.55H340.62V128.244C340.764 112.742 332.019 100.471 315.389 100.471ZM301.555 122.933C302.058 119.638 303.736 116.636 306.28 114.485C308.824 112.335 312.06 111.18 315.389 111.235C316.971 111.102 318.563 111.306 320.06 111.836C321.556 112.366 322.923 113.209 324.069 114.309C325.215 115.409 326.114 116.74 326.706 118.215C327.298 119.689 327.57 121.273 327.503 122.861L301.555 122.933Z" fill="white"/>
<path d="M363.34 109.8V101.403H350.438V157.882H363.34V128.243C363.225 126.329 363.517 124.411 364.197 122.617C364.876 120.824 365.928 119.195 367.283 117.839C368.638 116.482 370.265 115.429 372.056 114.748C373.848 114.068 375.763 113.775 377.676 113.89C379.251 113.779 380.831 113.779 382.406 113.89V100.973C381.403 100.973 380.256 100.973 378.751 100.973C375.607 100.81 372.483 101.555 369.75 103.12C367.018 104.685 364.793 107.004 363.34 109.8V109.8Z" fill="white"/>
<path d="M412.01 100.471C408.291 100.54 404.624 101.365 401.234 102.896C397.843 104.427 394.798 106.632 392.284 109.377C389.77 112.122 387.84 115.349 386.61 118.864C385.38 122.379 384.877 126.107 385.13 129.822C384.83 133.595 385.321 137.389 386.569 140.962C387.818 144.534 389.797 147.806 392.381 150.569C394.965 153.332 398.097 155.524 401.575 157.006C405.054 158.488 408.803 159.226 412.583 159.174C417.732 159.393 422.822 158.006 427.149 155.203C431.477 152.401 434.828 148.321 436.739 143.53L425.7 139.295C424.862 142.069 423.107 144.474 420.724 146.117C418.34 147.76 415.47 148.543 412.583 148.338C410.569 148.319 408.579 147.9 406.728 147.105C404.877 146.309 403.203 145.154 401.802 143.704C400.402 142.255 399.303 140.542 398.569 138.664C397.836 136.786 397.483 134.781 397.53 132.765H437.241V128.459C437.241 112.742 428.352 100.471 412.01 100.471ZM398.175 122.933C398.692 119.663 400.367 116.689 402.894 114.554C405.421 112.419 408.632 111.267 411.938 111.307C413.52 111.173 415.112 111.378 416.608 111.908C418.105 112.438 419.472 113.281 420.617 114.381C421.763 115.481 422.662 116.812 423.254 118.287C423.847 119.761 424.118 121.345 424.052 122.933H398.175Z" fill="white"/>
<path d="M484.265 107.647C482.276 105.31 479.787 103.452 476.982 102.209C474.178 100.967 471.13 100.373 468.065 100.471C452.224 100.471 443.193 113.747 443.193 129.822C443.193 145.898 452.224 159.174 468.065 159.174C471.133 159.288 474.185 158.701 476.992 157.457C479.799 156.214 482.286 154.347 484.265 151.998V157.882H497.167V80.6636H484.265V107.647ZM484.265 131.688C484.554 133.735 484.398 135.819 483.808 137.8C483.219 139.78 482.209 141.61 480.847 143.163C479.486 144.717 477.806 145.958 475.922 146.801C474.037 147.645 471.993 148.071 469.929 148.051C460.539 148.051 455.593 140.874 455.593 129.966C455.593 119.058 460.611 111.881 469.929 111.881C477.885 111.881 484.265 117.694 484.265 128.315V131.688Z" fill="white"/>
<path d="M568.488 100.471C565.366 100.334 562.253 100.909 559.385 102.152C556.516 103.395 553.968 105.274 551.93 107.647V80.6636H539.028V157.882H551.93V151.926C553.93 154.268 556.432 156.13 559.248 157.372C562.065 158.615 565.125 159.206 568.201 159.102C583.971 159.102 593.003 145.754 593.003 129.751C593.003 113.747 584.258 100.471 568.488 100.471ZM566.266 147.835C564.202 147.856 562.158 147.43 560.274 146.586C558.389 145.743 556.709 144.502 555.348 142.948C553.987 141.394 552.977 139.565 552.387 137.584C551.797 135.604 551.641 133.519 551.93 131.473V128.1C551.93 117.479 557.951 111.666 566.266 111.666C575.584 111.666 580.602 118.842 580.602 129.751C580.602 140.659 575.226 147.835 566.266 147.835Z" fill="white"/>
<path d="M623.104 141.089L609.27 101.404H595.651L616.438 155.873L614.287 161.184C613.922 163.003 612.866 164.61 611.343 165.667C609.819 166.724 607.946 167.149 606.116 166.853C604.684 166.958 603.247 166.958 601.815 166.853V177.689C603.547 177.947 605.297 178.067 607.048 178.048C611.523 178.374 615.97 177.115 619.612 174.492C623.254 171.868 625.86 168.047 626.974 163.695L650.198 101.834H636.651L623.104 141.089Z" fill="white"/>
<path d="M895.988 89.2034C893.158 89.187 890.353 89.7301 887.733 90.8015C885.113 91.8729 882.73 93.4515 880.721 95.4469L879.717 90.4951H862.586V183.215L882.083 178.981V156.519C885.96 159.77 890.859 161.549 895.917 161.542C909.822 161.542 922.581 150.132 922.581 124.87C922.581 101.762 909.679 89.2034 895.988 89.2034ZM891.329 143.96C889.619 144.059 887.909 143.775 886.322 143.129C884.735 142.484 883.311 141.493 882.154 140.228V110.733C883.316 109.422 884.755 108.387 886.368 107.704C887.98 107.021 889.724 106.707 891.473 106.786C898.64 106.786 903.515 114.895 903.515 125.301C903.515 135.707 898.569 143.96 891.329 143.96Z" fill="white"/>
<path d="M958.561 89.2037C939.781 89.2037 928.385 105.423 928.385 125.876C928.385 150.06 941.86 162.332 961.07 162.332C968.568 162.454 975.971 160.651 982.574 157.093V140.946C976.578 143.975 969.936 145.502 963.221 145.396C955.479 145.396 948.885 142.597 947.881 133.196H986.445C986.445 132.119 986.445 127.885 986.445 126.019C987.09 105.423 977.341 89.2037 958.561 89.2037ZM948.025 118.412C948.025 109.37 953.544 105.566 958.418 105.566C963.292 105.566 968.453 109.37 968.453 118.412H948.025Z" fill="white"/>
<path d="M809.973 95.8777L808.754 89.993H792.125V159.677H811.335V112.455C813.07 110.347 815.406 108.818 818.032 108.074C820.658 107.33 823.448 107.407 826.029 108.293V89.993C823.096 88.8428 819.845 88.8063 816.887 89.8903C813.93 90.9742 811.47 93.1038 809.973 95.8777V95.8777Z" fill="white"/>
<path d="M712.921 110.948C712.921 107.791 715.501 106.571 719.587 106.571C726.358 106.717 732.995 108.489 738.94 111.738V92.8635C732.794 90.3754 726.216 89.1314 719.587 89.2035C703.746 89.2035 693.209 97.6718 693.209 111.881C693.209 134.128 722.884 130.54 722.884 140.085C722.884 143.816 719.73 145.036 715.716 145.036C708.143 144.593 700.778 142.381 694.212 138.578V157.882C700.98 160.904 708.306 162.469 715.716 162.475C731.916 162.475 743.097 154.222 743.097 139.798C742.739 115.685 712.921 119.991 712.921 110.948Z" fill="white"/>
<path d="M768.973 73.4871L749.978 77.6494V141.735C749.88 144.436 750.333 147.128 751.31 149.648C752.286 152.167 753.766 154.461 755.657 156.389C757.549 158.317 759.814 159.838 762.313 160.86C764.812 161.881 767.493 162.382 770.191 162.332C774.9 162.543 779.592 161.633 783.882 159.676V143.529C781.373 144.606 769.116 148.266 769.116 136.353V107.647H783.882V90.8541H769.116L768.973 73.4871Z" fill="white"/>
<path d="M833.27 83.9646L852.838 79.874V64.3728L833.27 68.4634V83.9646Z" fill="white"/>
<path d="M852.838 90.4951H833.27V159.676H852.838V90.4951Z" fill="white"/>
</g>
<path d="M1285 244C1352.38 244 1407 189.379 1407 122C1407 54.6213 1352.38 0 1285 0C1217.62 0 1163 54.6213 1163 122C1163 189.379 1217.62 244 1285 244Z" fill="#F3F2F2"/>
<path d="M1292.91 130.479C1301.78 130.479 1308.97 123.292 1308.97 114.427C1308.97 105.561 1301.78 98.3743 1292.91 98.3743C1284.05 98.3743 1276.86 105.561 1276.86 114.427C1276.86 123.292 1284.05 130.479 1292.91 130.479Z" fill="#F26E21"/>
<path d="M1206.46 122.113C1204.56 123.807 1202.12 124.541 1198.25 124.541H1196.64V104.387H1198.25C1202.12 104.387 1204.47 105.073 1206.46 106.853C1208.53 108.681 1209.76 111.511 1209.76 114.435C1209.76 117.361 1208.53 120.291 1206.46 122.113ZM1199.45 99.2258H1190.64V129.697H1199.4C1204.06 129.697 1207.42 128.607 1210.37 126.18C1213.86 123.302 1215.94 118.962 1215.94 114.475C1215.94 105.479 1209.16 99.2258 1199.45 99.2258Z" fill="#0B161F"/>
<path d="M1218.7 129.697H1224.69V99.2258H1218.7V129.697Z" fill="#0B161F"/>
<path d="M1239.35 110.915C1235.75 109.592 1234.69 108.721 1234.69 107.084C1234.69 105.163 1236.58 103.701 1239.16 103.701C1240.96 103.701 1242.43 104.431 1244 106.163L1247.13 102.102C1244.55 99.8596 1241.47 98.7188 1238.1 98.7188C1232.67 98.7188 1228.52 102.466 1228.52 107.44C1228.52 111.649 1230.45 113.795 1236.08 115.81C1238.43 116.628 1239.62 117.173 1240.22 117.545C1241.42 118.324 1242.02 119.416 1242.02 120.695C1242.02 123.167 1240.04 124.991 1237.36 124.991C1234.51 124.991 1232.2 123.577 1230.82 120.926L1226.96 124.63C1229.71 128.645 1233.03 130.435 1237.6 130.435C1243.81 130.435 1248.19 126.316 1248.19 120.425C1248.19 115.579 1246.17 113.385 1239.35 110.915Z" fill="#0B161F"/>
<path d="M1250.08 114.475C1250.08 123.441 1257.18 130.385 1266.3 130.385C1268.88 130.385 1271.09 129.879 1273.81 128.607V121.609C1271.41 123.988 1269.29 124.945 1266.57 124.945C1260.54 124.945 1256.25 120.603 1256.25 114.433C1256.25 108.587 1260.68 103.969 1266.3 103.969C1269.15 103.969 1271.32 104.972 1273.81 107.396V100.403C1271.19 99.0817 1269.02 98.5365 1266.44 98.5365C1257.36 98.5386 1250.08 105.622 1250.08 114.475Z" fill="#0B161F"/>
<path d="M1322.37 119.694L1314.17 99.2258H1307.62L1320.67 130.478H1323.89L1337.16 99.2258H1330.66L1322.37 119.694Z" fill="#0B161F"/>
<path d="M1339.88 129.697H1356.88V124.541H1345.87V116.307H1356.46V111.15H1345.87V104.387H1356.88V99.2258H1339.88V129.697Z" fill="#0B161F"/>
<path d="M1368.58 113.252H1366.83V104.017H1368.67C1372.41 104.017 1374.44 105.577 1374.44 108.542C1374.44 111.601 1372.41 113.252 1368.58 113.252ZM1380.6 108.218C1380.6 102.51 1376.65 99.2258 1369.73 99.2258H1360.84V129.697H1366.83V117.451H1367.62L1375.91 129.697H1383.28L1373.6 116.86C1378.12 115.947 1380.6 112.882 1380.6 108.218Z" fill="#0B161F"/>
<path d="M1234.36 158.019V140.876L1246.07 153.122V141.966H1248.49V158.995L1236.78 146.778V158.017H1234.36V158.019Z" fill="black"/>
<path d="M1261.19 144.244H1254.76V148.101H1261.01V150.379H1254.76V155.742H1261.19V158.019H1252.34V141.969H1261.19V144.244V144.244Z" fill="black"/>
<path d="M1268.8 144.244V158.018H1266.38V144.244H1262.69V141.967H1272.48V144.244H1268.8Z" fill="black"/>
<path d="M1276.39 141.969L1280.57 152.697L1284.94 141.189L1289.12 152.697L1293.56 141.969H1296.19L1289.02 159.039L1284.89 147.665L1280.58 159.05L1273.76 141.969L1276.39 141.969Z" fill="black"/>
<path d="M1296.65 149.922C1296.65 147.661 1297.48 145.721 1299.14 144.101C1300.79 142.479 1302.77 141.668 1305.09 141.668C1307.37 141.668 1309.34 142.485 1310.97 144.12C1312.61 145.757 1313.43 147.72 1313.43 150.017C1313.43 152.323 1312.61 154.282 1310.96 155.89C1309.3 157.505 1307.31 158.314 1304.96 158.314C1302.89 158.314 1301.03 157.595 1299.38 156.162C1297.56 154.573 1296.65 152.493 1296.65 149.922ZM1299.1 149.948C1299.1 151.72 1299.7 153.176 1300.89 154.321C1302.07 155.465 1303.44 156.035 1305 156.035C1306.68 156.035 1308.1 155.453 1309.26 154.292C1310.41 153.115 1310.99 151.682 1310.99 149.992C1310.99 148.28 1310.42 146.846 1309.28 145.692C1308.14 144.529 1306.73 143.947 1305.05 143.947C1303.38 143.947 1301.97 144.529 1300.83 145.692C1299.67 146.837 1299.1 148.258 1299.1 149.948Z" fill="black"/>
<path d="M1321.92 151.179L1326.89 158.019H1323.92L1319.34 151.451H1318.9V158.019H1316.48V141.969H1319.32C1321.44 141.969 1322.97 142.368 1323.91 143.165C1324.95 144.051 1325.47 145.223 1325.47 146.679C1325.47 147.816 1325.15 148.792 1324.5 149.609C1323.84 150.426 1322.99 150.951 1321.92 151.179ZM1318.9 149.339H1319.67C1321.96 149.339 1323.11 148.462 1323.11 146.709C1323.11 145.066 1322 144.245 1319.77 144.245H1318.9V149.339Z" fill="black"/>
<path d="M1331.72 148.372L1337.97 141.968H1341.2L1333.95 149.237L1341.25 158.019H1338L1332.22 150.878L1331.72 151.379V158.019H1329.3V141.969H1331.72V148.372H1331.72Z" fill="black"/>
<path d="M1406.62 131.15C1383.67 160.211 1330.41 210.419 1235.7 233.595C1250.78 240.264 1267.44 243.996 1284.99 243.996C1349.29 243.995 1401.93 194.247 1406.62 131.15Z" fill="#F26E21"/>
<path d="M1616.5 244C1683.6 244 1738 189.379 1738 122C1738 54.6213 1683.6 0 1616.5 0C1549.4 0 1495 54.6213 1495 122C1495 189.379 1549.4 244 1616.5 244Z" fill="#27ADE4"/>
<path d="M1536.46 100.261L1532.67 90.8578L1528.9 100.261H1536.46ZM1619.96 96.5158C1619.2 96.9879 1618.3 97.0034 1617.22 97.0034H1610.49V91.7655H1617.32C1618.28 91.7655 1619.29 91.8061 1619.94 92.1871C1620.66 92.5341 1621.1 93.2657 1621.1 94.2753C1621.1 95.3039 1620.68 96.1343 1619.96 96.5158ZM1667.96 100.261L1664.13 90.8578L1660.32 100.261H1667.96ZM1578.49 110.437H1572.81L1572.79 91.9637L1564.76 110.437H1559.9L1551.85 91.9482V110.437H1540.58L1538.46 105.176H1526.93L1524.77 110.437H1518.76L1528.68 86.8509H1536.91L1546.33 109.181V86.8509H1555.36L1562.61 102.851L1569.27 86.8509H1578.49V110.437H1578.49ZM1601.12 110.437H1582.62V86.8509H1601.12V91.7649H1588.16V96.0164H1600.81V100.852H1588.16V105.556H1601.12L1601.12 110.437ZM1627.21 93.206C1627.21 96.9622 1624.74 98.9098 1623.3 99.49C1624.52 99.9621 1625.55 100.79 1626.04 101.48C1626.83 102.649 1626.96 103.699 1626.96 105.802V110.437H1621.37L1621.35 107.463C1621.35 106.043 1621.49 103.999 1620.48 102.867C1619.67 102.038 1618.44 101.857 1616.44 101.857H1610.49V110.437H1604.96V86.8509H1617.7C1620.53 86.8509 1622.61 86.926 1624.4 87.9799C1626.16 89.0374 1627.21 90.5726 1627.21 93.206ZM1636.07 110.437H1630.42V86.8529H1636.07V110.437ZM1701.63 110.437H1693.78L1683.28 92.7339V110.437H1672L1669.85 105.176H1658.34L1656.25 110.437H1649.77C1647.08 110.437 1643.67 109.83 1641.74 107.827C1639.79 105.826 1638.78 103.113 1638.78 98.8233C1638.78 95.3286 1639.38 92.1253 1641.77 89.6037C1643.56 87.7199 1646.36 86.8509 1650.18 86.8509H1655.54V91.9039H1650.29C1648.27 91.9039 1647.13 92.2103 1646.03 93.3028C1645.08 94.2984 1644.44 96.175 1644.44 98.6467C1644.44 101.172 1644.93 102.994 1645.96 104.183C1646.81 105.118 1648.36 105.401 1649.82 105.401H1652.3L1660.11 86.8534H1668.41L1677.79 109.163V86.8534H1686.22L1695.95 103.278V86.8534H1701.63L1701.63 110.437ZM1518.7 115.07H1528.16L1530.29 109.83H1535.07L1537.2 115.07H1555.81V111.066L1557.48 115.086H1567.14L1568.8 111.006V115.07H1615.07L1615.05 106.469H1615.94C1616.57 106.492 1616.75 106.552 1616.75 107.606V115.07H1640.69V113.069C1642.62 114.123 1645.62 115.07 1649.57 115.07H1659.64L1661.79 109.83H1666.57L1668.68 115.07H1688.08V110.092L1691.02 115.07H1706.56V82.1757H1691.17V86.0611L1689.02 82.1757H1673.23V86.0611L1671.26 82.1757H1649.93C1646.36 82.1757 1643.22 82.6843 1640.69 84.0965V82.1757H1625.97V84.0965C1624.36 82.64 1622.16 82.1757 1619.72 82.1757H1565.95L1562.34 90.6709L1558.64 82.1757H1541.7V86.0611L1539.84 82.1757H1525.4L1518.69 97.8158L1511 115.07H1518.7Z" fill="#2D78BC"/>
<path d="M1536.46 102.187L1532.67 92.7837L1528.9 102.187H1536.46ZM1619.96 98.4417C1619.2 98.9138 1618.3 98.9292 1617.22 98.9292H1610.49V93.6913H1617.32C1618.28 93.6913 1619.29 93.732 1619.94 94.113C1620.66 94.46 1621.1 95.1916 1621.1 96.2011C1621.1 97.2303 1620.68 98.0607 1619.96 98.4417ZM1667.96 102.187L1664.13 92.7837L1660.32 102.187H1667.96ZM1578.49 112.364H1572.81L1572.79 93.8901L1564.76 112.364H1559.9L1551.85 93.8746V112.364H1540.58L1538.46 107.103H1526.93L1524.77 112.364H1518.76L1528.68 88.7772H1536.91L1546.33 111.108V88.7772H1555.36L1562.61 104.778L1569.27 88.7772H1578.49V112.364H1578.49ZM1601.12 112.364H1582.62V88.7772H1601.12V93.6913H1588.16V97.9428H1600.81V102.778H1588.16V107.482H1601.12L1601.12 112.364ZM1627.21 95.1324C1627.21 98.8886 1624.74 100.836 1623.3 101.416C1624.52 101.889 1625.55 102.717 1626.04 103.406C1626.83 104.575 1626.96 105.626 1626.96 107.729V112.364H1621.37L1621.35 109.39C1621.35 107.97 1621.49 105.926 1620.48 104.793C1619.67 103.965 1618.44 103.784 1616.44 103.784H1610.49V112.364H1604.96V88.7772H1617.7C1620.53 88.7772 1622.61 88.8524 1624.4 89.9063C1626.16 90.9637 1627.21 92.499 1627.21 95.1324ZM1636.07 112.364H1630.42V88.7793H1636.07V112.364ZM1701.63 112.364H1693.78L1683.28 94.6602V112.364H1672L1669.85 107.103H1658.34L1656.25 112.364H1649.77C1647.08 112.364 1643.67 111.757 1641.74 109.754C1639.79 107.752 1638.78 105.04 1638.78 100.75C1638.78 97.255 1639.38 94.0517 1641.77 91.5301C1643.56 89.6463 1646.36 88.7772 1650.18 88.7772H1655.54V93.8303H1650.29C1648.27 93.8303 1647.13 94.1367 1646.03 95.2291C1645.08 96.2248 1644.44 98.1014 1644.44 100.573C1644.44 103.098 1644.93 104.921 1645.96 106.11C1646.81 107.044 1648.36 107.327 1649.82 107.327H1652.3L1660.11 88.7798H1668.41L1677.79 111.089V88.7798H1686.22L1695.95 105.204V88.7798H1701.63L1701.63 112.364ZM1518.7 116.997H1528.16L1530.29 111.757H1535.07L1537.2 116.997H1555.81V112.992L1557.48 117.012H1567.14L1568.8 112.932V116.997H1615.07L1615.05 108.395H1615.94C1616.57 108.419 1616.75 108.478 1616.75 109.532V116.997H1640.69V114.995C1642.62 116.049 1645.62 116.997 1649.57 116.997H1659.64L1661.79 111.757H1666.57L1668.68 116.997H1688.08V112.019L1691.02 116.997H1706.56V84.1021H1691.17V87.9875L1689.02 84.1021H1673.23V87.9875L1671.26 84.1021H1649.93C1646.36 84.1021 1643.22 84.6107 1640.69 86.0229V84.1021H1625.97V86.0229C1624.36 84.5664 1622.16 84.1021 1619.72 84.1021H1565.95L1562.34 92.5973L1558.64 84.1021H1541.7V87.9875L1539.84 84.1021H1525.4L1518.69 99.7422L1511 116.997H1518.7Z" fill="white"/>
<path d="M1718.99 137.311V122.219H1715.15H1705.11C1702.02 122.219 1699.77 122.973 1698.18 124.142V122.219H1683.01C1680.59 122.219 1677.74 122.828 1676.39 124.142V122.219H1649.3V124.142C1647.15 122.562 1643.51 122.219 1641.83 122.219H1623.97V124.142C1622.26 122.464 1618.47 122.219 1616.16 122.219H1596.16L1591.59 127.253L1587.3 122.219H1557.43V155.111H1586.74L1591.45 149.998L1595.89 155.111L1613.96 155.13V147.39H1615.73C1618.13 147.428 1620.96 147.33 1623.45 146.234V155.108H1638.35V146.534H1639.07C1639.99 146.534 1640.08 146.575 1640.08 147.505V155.108H1685.34C1688.21 155.108 1691.22 154.359 1692.88 153.005V155.108H1707.24C1710.23 155.108 1713.15 154.683 1715.36 153.592V153.558C1718.61 151.458 1720.76 147.779 1720.76 143.579C1720.77 141.275 1720.11 139.127 1718.99 137.311ZM1615.98 142.573H1609.07V150.481H1598.3L1591.47 142.675L1584.39 150.481H1562.44V126.906H1584.72L1591.54 134.633L1598.59 126.906H1616.29C1620.69 126.906 1625.63 128.145 1625.63 134.672C1625.63 141.223 1620.82 142.573 1615.98 142.573ZM1649.33 141.505C1650.11 142.655 1650.22 143.728 1650.25 145.808V150.482H1644.69V147.532C1644.69 146.114 1644.82 144.015 1643.79 142.917C1642.98 142.073 1641.75 141.868 1639.72 141.868H1633.8V150.481H1628.23V126.906H1641.03C1643.83 126.906 1645.87 127.032 1647.69 128.02C1649.44 129.093 1650.54 130.563 1650.54 133.254C1650.54 137.016 1648.07 138.939 1646.62 139.526C1647.84 139.988 1648.85 140.817 1649.33 141.505ZM1672.11 131.784H1659.13V136.07H1671.79V140.88H1659.13V145.571L1672.11 145.594V150.485H1653.61V126.906H1672.11V131.784ZM1686.22 150.483H1675.42V145.426H1686.18C1687.23 145.426 1687.97 145.288 1688.44 144.841C1688.82 144.479 1689.09 143.947 1689.09 143.308C1689.09 142.62 1688.8 142.073 1688.42 141.745C1687.99 141.384 1687.41 141.223 1686.44 141.223C1681.26 141.046 1674.77 141.385 1674.77 133.924C1674.77 130.505 1676.89 126.906 1682.69 126.906H1693.8V131.924H1683.64C1682.63 131.924 1681.98 131.963 1681.42 132.348C1680.81 132.732 1680.58 133.296 1680.58 134.047C1680.58 134.935 1681.1 135.54 1681.8 135.804C1682.38 136.009 1683.01 136.068 1683.95 136.068L1686.94 136.155C1689.94 136.226 1692.01 136.758 1693.27 138.048C1694.35 139.181 1694.92 140.614 1694.92 143.04C1694.92 148.114 1691.81 150.483 1686.22 150.483ZM1714.73 148.206C1713.27 149.707 1710.92 150.483 1707.85 150.483H1697.15V145.426H1707.8C1708.86 145.426 1709.6 145.288 1710.05 144.841C1710.43 144.479 1710.7 143.947 1710.7 143.308C1710.7 142.62 1710.43 142.073 1710.03 141.745C1709.62 141.384 1709.04 141.223 1708.07 141.223C1702.87 141.046 1696.38 141.385 1696.38 133.924C1696.38 130.505 1698.51 126.906 1704.33 126.906H1715.16V131.923H1705.27C1704.26 131.923 1703.59 131.964 1703.03 132.349C1702.44 132.73 1702.22 133.297 1702.22 134.044C1702.22 134.936 1702.71 135.537 1703.43 135.801C1704.02 136.009 1704.64 136.069 1705.56 136.069L1708.57 136.152C1711.6 136.227 1713.62 136.757 1714.85 138.049C1715.08 138.229 1715.21 138.431 1715.37 138.631C1715.31 138.548 1715.24 138.47 1715.18 138.387C1716.14 139.677 1716.72 141.282 1716.72 143.025C1716.72 145.024 1715.96 146.837 1714.73 148.206ZM1581.85 131.784L1587.91 138.653L1581.58 145.569H1567.95V140.878H1580.12V136.068H1567.95V131.784H1581.85ZM1595.04 138.734L1603.55 129.439V148.339L1595.04 138.734ZM1619.68 134.673C1619.68 136.717 1618.36 137.786 1616.23 137.786H1609.07V131.784H1616.3C1618.29 131.784 1619.68 132.61 1619.68 134.673ZM1644.41 134.33C1644.41 135.338 1643.98 136.151 1643.26 136.592C1642.52 137.039 1641.61 137.077 1640.53 137.077H1633.8V131.784H1640.62C1641.61 131.784 1642.59 131.805 1643.26 132.21C1643.99 132.589 1644.41 133.319 1644.41 134.33Z" fill="#2D78BC"/>
<path d="M1718.99 139.237V124.146H1715.15H1705.11C1702.02 124.146 1699.77 124.899 1698.18 126.068V124.146H1683.01C1680.59 124.146 1677.74 124.754 1676.39 126.068V124.146H1649.3V126.068C1647.15 124.489 1643.51 124.146 1641.83 124.146H1623.97V126.068C1622.26 124.39 1618.47 124.146 1616.16 124.146H1596.16L1591.59 129.179L1587.3 124.146H1557.43V157.037H1586.74L1591.45 151.924L1595.89 157.037L1613.96 157.056V149.316H1615.73C1618.13 149.355 1620.96 149.256 1623.45 148.16V157.035H1638.35V148.46H1639.07C1639.99 148.46 1640.08 148.501 1640.08 149.431V157.035H1685.34C1688.21 157.035 1691.22 156.285 1692.88 154.931V157.035H1707.24C1710.23 157.035 1713.15 156.609 1715.36 155.519V155.484C1718.61 153.384 1720.76 149.705 1720.76 145.506C1720.77 143.201 1720.11 141.054 1718.99 139.237ZM1615.98 144.5H1609.07V152.408H1598.3L1591.47 144.602L1584.39 152.408H1562.44V128.832H1584.72L1591.54 136.559L1598.59 128.832H1616.29C1620.69 128.832 1625.63 130.071 1625.63 136.598C1625.63 143.149 1620.82 144.5 1615.98 144.5ZM1649.33 143.43C1650.11 144.581 1650.22 145.654 1650.25 147.734V152.408H1644.69V149.458C1644.69 148.04 1644.82 145.941 1643.79 144.843C1642.98 143.999 1641.75 143.794 1639.72 143.794H1633.8V152.407H1628.23V128.832H1641.03C1643.83 128.832 1645.87 128.957 1647.69 129.945C1649.44 131.018 1650.54 132.488 1650.54 135.179C1650.54 138.942 1648.07 140.864 1646.62 141.451C1647.84 141.915 1648.85 142.743 1649.33 143.43ZM1672.11 133.71H1659.13V137.996H1671.79V142.807H1659.13V147.497L1672.11 147.52V152.411H1653.61V128.832H1672.11V133.71ZM1686.22 152.41H1675.42V147.353H1686.18C1687.23 147.353 1687.97 147.215 1688.44 146.768C1688.82 146.406 1689.09 145.874 1689.09 145.234C1689.09 144.547 1688.8 144 1688.42 143.672C1687.99 143.31 1687.41 143.15 1686.44 143.15C1681.26 142.973 1674.77 143.312 1674.77 135.851C1674.77 132.431 1676.89 128.833 1682.69 128.833H1693.8V133.851H1683.64C1682.63 133.851 1681.98 133.89 1681.42 134.275C1680.81 134.658 1680.58 135.223 1680.58 135.974C1680.58 136.862 1681.1 137.467 1681.8 137.731C1682.38 137.935 1683.01 137.995 1683.95 137.995L1686.94 138.081C1689.94 138.152 1692.01 138.684 1693.27 139.975C1694.35 141.108 1694.92 142.541 1694.92 144.966C1694.92 150.04 1691.81 152.41 1686.22 152.41ZM1714.73 150.133C1713.27 151.633 1710.92 152.41 1707.85 152.41H1697.15V147.353H1707.8C1708.86 147.353 1709.6 147.215 1710.05 146.768C1710.43 146.406 1710.7 145.874 1710.7 145.234C1710.7 144.547 1710.43 144 1710.03 143.672C1709.62 143.31 1709.04 143.15 1708.07 143.15C1702.87 142.973 1696.38 143.312 1696.38 135.851C1696.38 132.431 1698.51 128.833 1704.33 128.833H1715.16V133.849H1705.27C1704.26 133.849 1703.59 133.89 1703.03 134.275C1702.44 134.657 1702.22 135.223 1702.22 135.971C1702.22 136.862 1702.71 137.464 1703.43 137.728C1704.02 137.936 1704.64 137.995 1705.56 137.995L1708.57 138.078C1711.6 138.153 1713.62 138.683 1714.85 139.976C1715.08 140.155 1715.21 140.357 1715.37 140.558C1715.31 140.475 1715.24 140.396 1715.18 140.313C1716.14 141.604 1716.72 143.209 1716.72 144.952C1716.72 146.95 1715.96 148.763 1714.73 150.133ZM1581.85 133.71L1587.91 140.58L1581.58 147.496H1567.95V142.805H1580.12V137.995H1567.95V133.71H1581.85ZM1595.04 140.661L1603.55 131.366V150.265L1595.04 140.661ZM1619.68 136.6C1619.68 138.644 1618.36 139.713 1616.23 139.713H1609.07V133.71H1616.3C1618.29 133.71 1619.68 134.537 1619.68 136.6ZM1644.41 136.257C1644.41 137.264 1643.98 138.077 1643.26 138.518C1642.52 138.965 1641.61 139.004 1640.53 139.004H1633.8V133.71H1640.62C1641.61 133.71 1642.59 133.732 1643.26 134.136C1643.99 134.516 1644.41 135.246 1644.41 136.257Z" fill="white"/>
<path d="M1948 244C2015.38 244 2070 189.379 2070 122C2070 54.6213 2015.38 0 1948 0C1880.62 0 1826 54.6213 1826 122C1826 189.379 1880.62 244 1948 244Z" fill="#003473"/>
<path d="M1944.81 158.714C1955.42 149.136 1962.11 135.229 1962.11 119.783C1962.11 104.334 1955.42 90.4346 1944.81 80.7506C1935.53 72.3073 1923.18 67.1559 1909.59 67.1559C1880.55 67.1559 1856.96 90.7425 1856.96 119.781C1856.96 148.827 1880.55 172.306 1909.59 172.306C1923.18 172.308 1935.53 167.161 1944.81 158.714Z" fill="#009DDD"/>
<path d="M1944.81 158.714C1955.42 149.136 1962.11 135.229 1962.11 119.783C1962.11 104.334 1955.42 90.4346 1944.81 80.7506V158.714Z" fill="#009DDD"/>
<path d="M1980.14 67.158C1966.54 67.158 1954.18 72.3094 1944.81 80.7526C1942.96 82.502 1941.21 84.357 1939.55 86.318H1950.16C1951.6 88.0633 1952.94 90.0243 1954.18 91.8756H1935.53C1934.41 93.7306 1933.38 95.5876 1932.44 97.4374H1957.16C1957.99 99.2887 1958.81 101.149 1959.43 103.001H1930.29C1929.67 104.854 1929.15 106.713 1928.74 108.664H1960.98C1961.7 112.167 1962.11 115.979 1962.11 119.785C1962.11 125.553 1961.18 131.22 1959.43 136.471H1930.29C1930.9 138.323 1931.63 140.18 1932.45 142.033H1957.17C1956.24 143.888 1955.31 145.844 1954.18 147.595H1935.54C1936.78 149.552 1938.11 151.405 1939.55 153.157H1950.16C1948.52 155.114 1946.76 156.969 1944.81 158.718C1954.18 167.166 1966.54 172.313 1980.14 172.313C2009.18 172.313 2032.66 148.834 2032.66 119.788C2032.66 90.745 2009.18 67.158 1980.14 67.158Z" fill="#ED1C2E"/>
<path d="M2014.53 131.113C2014.53 130.184 2015.36 129.466 2016.28 129.466C2017.21 129.466 2017.93 130.184 2017.93 131.113C2017.93 132.043 2017.21 132.866 2016.28 132.866C2015.36 132.866 2014.53 132.043 2014.53 131.113ZM2016.28 132.453C2017 132.453 2017.52 131.835 2017.52 131.113C2017.52 130.392 2017 129.876 2016.28 129.876C2015.56 129.876 2014.95 130.392 2014.95 131.113C2014.95 131.835 2015.56 132.453 2016.28 132.453ZM2016.08 131.835H2015.67V130.392H2016.28C2016.48 130.392 2016.59 130.392 2016.7 130.496C2016.8 130.598 2016.9 130.698 2016.9 130.804C2016.9 131.012 2016.8 131.218 2016.59 131.218L2016.9 131.834H2016.48L2016.28 131.318H2016.08V131.835ZM2016.08 131.012H2016.28C2016.28 131.012 2016.38 131.012 2016.48 131.012C2016.48 131.012 2016.48 130.906 2016.48 130.804V130.698C2016.38 130.698 2016.28 130.698 2016.18 130.698H2016.07V131.012H2016.08V131.012Z" fill="white"/>
<path d="M1902.99 132.866H1896.41L1900.32 112.371L1891.36 132.866H1885.38L1884.35 112.473L1880.44 132.866H1874.47L1879.52 106.193H1889.81L1890.32 122.667L1897.54 106.193H1908.14L1902.99 132.866Z" fill="white"/>
<path d="M1976.12 132.559C1974.26 133.07 1972.92 133.276 1971.38 133.276C1968.08 133.276 1966.23 131.629 1966.23 128.543C1966.23 127.922 1966.33 127.302 1966.43 126.582L1966.84 124.418L1967.16 122.773L1970.14 106.195H1976.63L1975.71 111.134H1979.1L1978.18 116.391H1974.78L1973.13 125.451C1973.02 125.863 1972.92 126.173 1972.92 126.378C1972.92 127.512 1973.65 128.023 1975.19 128.023C1975.91 128.023 1976.53 127.921 1976.94 127.818L1976.12 132.559Z" fill="white"/>
<path d="M1995.17 111.344C1994.65 111.134 1994.55 111.134 1994.45 111.134C1994.14 111.028 1993.94 111.028 1993.94 110.93C1993.73 110.93 1993.52 110.93 1993.22 110.93C1991.05 110.93 1989.51 111.856 1987.55 114.428L1988.16 111.134H1982.19L1978.17 132.866H1984.77C1987.13 119.575 1988.06 117.209 1991.25 117.209C1991.46 117.209 1991.77 117.314 1992.08 117.314L1992.8 117.518L1995.17 111.344Z" fill="white"/>
<path d="M1950.16 118.032C1950.16 120.712 1951.71 122.667 1955.21 124.01C1957.89 125.139 1958.3 125.451 1958.3 126.482C1958.3 127.819 1957.06 128.439 1954.49 128.439C1952.53 128.439 1950.67 128.129 1948.51 127.514L1947.69 132.561H1948L1949.13 132.868C1949.54 132.868 1950.16 132.972 1950.88 132.972C1952.43 133.174 1953.66 133.174 1954.59 133.174C1961.49 133.174 1964.79 130.909 1964.79 125.967C1964.79 122.979 1963.45 121.23 1960.05 119.891C1957.27 118.861 1956.96 118.552 1956.96 117.522C1956.96 116.393 1958.09 115.773 1960.26 115.773C1961.49 115.773 1963.34 115.879 1964.99 116.079L1965.92 111.138C1964.17 110.833 1961.59 110.727 1960.15 110.727C1952.74 110.724 1950.16 114.018 1950.16 118.032Z" fill="white"/>
<path d="M1924.21 132.866H1918.85L1918.96 130.596C1917.31 132.349 1915.05 133.172 1912.06 133.172C1908.56 133.172 1906.09 130.804 1906.09 127.302C1906.09 122.047 1910.3 118.959 1917.62 118.959C1918.34 118.959 1919.27 118.959 1920.3 119.065C1920.5 118.345 1920.5 118.032 1920.5 117.726C1920.5 116.285 1919.37 115.768 1916.28 115.768C1914.42 115.768 1912.37 115.974 1910.92 116.285L1910 116.595L1909.38 116.695L1910.3 111.856C1913.6 111.028 1915.66 110.724 1918.14 110.724C1923.8 110.724 1926.68 112.883 1926.68 117.002C1926.68 118.136 1926.58 118.96 1926.17 121.33L1924.83 129.055L1924.63 130.392L1924.42 131.529L1924.31 132.246L1924.21 132.866ZM1919.47 123.182C1918.75 123.08 1918.44 123.08 1918.03 123.08C1914.32 123.08 1912.47 124.212 1912.47 126.378C1912.47 127.715 1913.29 128.643 1914.73 128.643C1917.42 128.643 1919.37 126.378 1919.47 123.182Z" fill="white"/>
<path d="M1945.73 132.349C1943.47 132.968 1941.31 133.274 1939.04 133.274C1931.73 133.274 1927.92 129.874 1927.92 123.49C1927.92 116.073 1932.76 110.616 1939.35 110.616C1944.7 110.616 1948.11 113.706 1948.11 118.443C1948.11 120.088 1947.9 121.64 1947.39 123.8H1934.3C1934.3 124.21 1934.3 124.312 1934.3 124.522C1934.3 126.994 1936.16 128.331 1939.97 128.331C1942.34 128.331 1944.5 127.921 1946.76 126.996L1945.73 132.349ZM1942.23 119.479C1942.23 119.065 1942.23 118.651 1942.23 118.344C1942.23 116.595 1941.1 115.561 1939.14 115.561C1937.08 115.561 1935.64 117.002 1935.02 119.479H1942.23V119.479Z" fill="white"/>
<path d="M2015.56 122.977C2014.53 130.182 2009.48 133.376 2002.79 133.376C1995.48 133.376 1992.49 128.951 1992.49 123.39C1992.49 115.767 1997.54 110.51 2005.36 110.51C2012.16 110.51 2015.77 114.836 2015.77 120.295C2015.77 121.642 2015.77 121.743 2015.56 122.977ZM2008.76 120.194C2008.76 117.928 2007.84 115.875 2005.16 115.875C2001.86 115.875 1999.8 119.783 1999.8 123.287C1999.8 126.173 2001.25 128.128 2003.51 128.128C2004.95 128.128 2008.04 126.173 2008.56 122.877C2008.76 122.049 2008.76 121.126 2008.76 120.194Z" fill="white"/>
<g clip-path="url(#clip1)">
<path d="M2280 244C2347.38 244 2401.99 189.381 2401.99 122.005C2401.99 54.6293 2347.38 0.010376 2280 0.010376C2212.62 0.010376 2158.01 54.6293 2158.01 122.005C2158.01 189.381 2212.62 244 2280 244Z" fill="#F3F2F2"/>
<path d="M2248.34 145.407L2257.68 90.2841H2272.79L2263.45 145.407H2248.34Z" fill="#293688"/>
<path d="M2317.26 91.7091C2314.26 90.5919 2309.57 89.3955 2303.71 89.3955C2288.77 89.3955 2278.25 96.8737 2278.16 107.587C2278.08 115.506 2285.67 119.923 2291.41 122.562C2297.29 125.259 2299.27 126.989 2299.24 129.399C2299.2 133.094 2294.54 134.783 2290.2 134.783C2284.15 134.781 2280.93 133.947 2275.97 131.89L2274.02 131.011L2271.9 143.351C2275.43 144.891 2281.96 146.226 2288.74 146.293C2304.62 146.289 2314.94 138.904 2315.06 127.46C2315.11 121.19 2311.09 116.418 2302.37 112.483C2297.08 109.936 2293.85 108.235 2293.88 105.65C2293.88 103.36 2296.62 100.91 2302.54 100.91C2307.48 100.833 2311.06 101.904 2313.85 103.021L2315.2 103.657L2317.26 91.7091Z" fill="#293688"/>
<path d="M2343.03 90.2841C2339.4 90.2841 2336.79 91.3899 2335.2 94.9786L2312.8 145.409H2328.8L2331.91 136.962H2351.03L2352.81 145.409H2367.03L2354.59 90.2856H2343.03L2343.03 90.2841ZM2336.16 125.932C2337.41 122.758 2342.18 110.525 2342.18 110.525C2342.09 110.67 2343.42 107.336 2344.18 105.267L2345.2 110.017C2345.2 110.017 2348.1 123.175 2348.7 125.934H2336.16V125.932Z" fill="#293688"/>
<path d="M2220.78 128.07L2219.45 120.513C2216.69 111.704 2208.13 102.173 2198.54 97.3977L2211.89 145.407H2227.89L2251.9 90.2841H2235.9L2220.78 128.07Z" fill="#293688"/>
<path d="M2182.11 90.2839V91.174C2201.07 95.7353 2214.24 107.267 2219.45 120.514L2213.97 94.9883C2213.05 91.4999 2210.28 90.4054 2207 90.2844L2182.11 90.2839Z" fill="#F7981D"/>
<path d="M2279.99 243.999C2327.08 243.999 2367.91 217.308 2388.24 178.245H2171.74C2192.08 217.308 2232.91 243.999 2279.99 243.999Z" fill="#F7981D"/>
<path d="M2279.99 0C2233.65 0 2193.35 25.8353 2172.7 63.8896H2387.29C2366.64 25.8374 2326.33 0 2279.99 0Z" fill="#293688"/>
</g>
<defs>
<clipPath id="clip0">
<rect width="1075.19" height="244" fill="white"/>
</clipPath>
<clipPath id="clip1">
<rect width="244" height="244" fill="white" transform="translate(2158)"/>
</clipPath>
</defs>
</svg>
