<svg width="888" height="794" viewBox="0 0 888 794" fill="none" xmlns="http://www.w3.org/2000/svg">
<g opacity="0.65" filter="url(#filter0_f)">
<path d="M243 167.363C243 116.905 283.905 76 334.363 76H553.637C604.094 76 645 116.905 645 167.363V386.637C645 437.094 604.094 478 553.637 478H334.363C283.905 478 243 437.094 243 386.637V167.363Z" fill="url(#paint0_linear)"/>
<mask id="mask0" mask-type="alpha" maskUnits="userSpaceOnUse" x="243" y="76" width="402" height="402">
<path d="M243 167.363C243 116.905 283.905 76 334.363 76H553.637C604.094 76 645 116.905 645 167.363V386.637C645 437.094 604.094 478 553.637 478H334.363C283.905 478 243 437.094 243 386.637V167.363Z" fill="url(#paint1_linear)"/>
</mask>
<g mask="url(#mask0)">
<path d="M364.95 315.789C358.43 314.042 351.72 317.981 349.948 324.594L337.123 372.461C335.351 379.073 339.192 385.839 345.712 387.586C352.232 389.333 358.941 385.395 360.713 378.782L373.538 330.915C375.311 324.302 371.47 317.536 364.95 315.789ZM506.492 353.715C499.973 351.968 493.265 355.907 491.493 362.522L478.668 410.388C476.896 417 480.735 423.765 487.254 425.513C493.773 427.26 500.484 423.321 502.256 416.708L515.082 368.842C516.855 362.228 513.011 355.462 506.492 353.715Z" fill="#0EE7BC"/>
<path d="M456.471 163.322C449.975 161.581 443.308 165.442 441.564 171.953L413.157 277.966L389.661 271.67L418.067 165.657C419.811 159.146 415.968 152.469 409.474 150.729C402.98 148.989 396.314 152.85 394.569 159.36L366.163 265.374L342.666 259.077L371.072 153.065C372.817 146.554 368.974 139.877 362.48 138.137C355.986 136.397 349.319 140.257 347.574 146.768L316.012 264.561C307.311 297.034 326.574 330.515 358.974 339.197C391.375 347.878 424.797 328.515 433.498 296.041L465.06 178.249C466.805 171.737 462.961 165.061 456.471 163.322ZM376.159 369.053L329.164 356.461C322.67 354.721 316.005 358.58 314.26 365.092L275.964 508.011C270.743 527.497 282.306 547.586 301.741 552.794C321.177 558.001 341.235 546.385 346.456 526.899L384.751 383.98C386.496 377.468 382.653 370.793 376.159 369.053ZM517.144 406.83L470.148 394.238C463.654 392.498 456.988 396.356 455.243 402.868L416.947 545.788C411.726 565.274 423.289 585.362 442.724 590.571C462.16 595.778 482.22 584.162 487.441 564.676L525.737 421.757C527.481 415.245 523.637 408.57 517.144 406.83ZM499.957 376.974C532.908 385.802 569.791 351.325 583.951 298.48C598.111 245.635 583.408 197.334 550.456 188.505C517.505 179.676 480.626 214.154 466.466 267C452.306 319.845 467.005 368.144 499.957 376.974Z" fill="#0EE7BC"/>
</g>
</g>
<path d="M741.956 95.0431L673.454 95.7105C670.234 79.8591 659.416 38.2677 669.159 26.9232C669.603 22.6534 671.677 18.7195 674.948 15.9402C678.22 13.1609 682.438 11.7505 686.723 12.0026V12.0026C697.34 -4.6172 715.025 -2.12184 726.978 8.25797C739.007 12.4087 743.542 19.7828 741.957 29.7897C750.865 37.5877 752.509 47.0751 748.51 57.8746L741.956 95.0431Z" fill="#2F2E41"/>
<path d="M735.362 137.242L685.94 130.399L676.055 115.953C689.671 106.921 694.489 94.3056 688.221 77.175L722.436 76.4146C720.833 91.6697 725.878 103.481 739.924 110.63L735.362 137.242Z" fill="#FFB9B9"/>
<path d="M674.255 583.02L672.365 608.855C672.28 610.024 672.445 611.198 672.851 612.298C673.256 613.399 673.892 614.399 674.716 615.234C675.54 616.068 676.533 616.716 677.628 617.135C678.723 617.555 679.895 617.735 681.065 617.664L694.335 616.86C694.95 616.823 695.549 616.65 696.09 616.355C696.63 616.06 697.1 615.65 697.464 615.153C697.828 614.656 698.078 614.085 698.197 613.481C698.316 612.876 698.3 612.253 698.15 611.656L690.784 582.193L674.255 583.02Z" fill="#E6E6E6"/>
<path d="M717.216 582.193L709.85 611.656C709.7 612.253 709.684 612.876 709.803 613.481C709.922 614.085 710.172 614.656 710.536 615.153C710.9 615.65 711.37 616.06 711.91 616.355C712.451 616.65 713.05 616.823 713.665 616.86L726.935 617.664C728.105 617.735 729.277 617.555 730.372 617.135C731.467 616.716 732.46 616.068 733.284 615.234C734.108 614.399 734.744 613.398 735.149 612.298C735.555 611.198 735.72 610.024 735.635 608.854L733.745 583.019L717.216 582.193Z" fill="#E6E6E6"/>
<path d="M734.602 586.606L716.694 584.809L698.866 394.239L692.128 584.195L674.534 583.565L644.881 320.485H758.172L734.602 586.606Z" fill="#519FFF"/>
<path d="M707.229 89.3405C726.126 89.3405 741.445 74.0217 741.445 55.125C741.445 36.2283 726.126 20.9095 707.229 20.9095C688.333 20.9095 673.014 36.2283 673.014 55.125C673.014 74.0217 688.333 89.3405 707.229 89.3405Z" fill="#FFB9B9"/>
<path d="M774.9 326.568L636.517 328.089C657.054 249.908 669.339 177.284 647.922 127.358L682.138 110.63C698.636 127.838 717.009 126.064 736.883 109.11L769.578 117.473C763.978 182.944 766.488 253.064 774.9 326.568Z" fill="#519FFF"/>
<path d="M598.5 245.972L684.419 280.187L703.628 285.837C704.488 286.09 705.389 286.166 706.279 286.062C707.168 285.957 708.027 285.674 708.804 285.229C709.582 284.784 710.261 284.187 710.802 283.473C711.342 282.758 711.733 281.942 711.95 281.074C712.331 279.55 712.16 277.941 711.467 276.531C710.775 275.122 709.606 274.003 708.167 273.374L688.221 267.261L628.153 232.285L640.699 199.21L614.467 185.144L598.5 245.972Z" fill="#FFB9B9"/>
<path d="M599.26 183.623C615.607 190.001 628.609 200.885 638.798 215.558L670.733 169.177L647.922 127.358L599.26 183.623Z" fill="#519FFF"/>
<path d="M745.792 49.5797C731.905 46.0016 718.252 45.5103 704.979 50.0488C696.525 54.1436 686.371 53.7663 675.08 50.3925V16.2556L736.039 17.8812L745.792 49.5797Z" fill="#2F2E41"/>
<path d="M684.134 206.106C681.447 206.109 678.871 207.178 676.971 209.077C675.072 210.977 674.003 213.553 674 216.24L678 299.972C678.003 302.659 679.072 305.235 680.971 307.135C682.871 309.034 685.447 310.103 688.134 310.106H733.866C736.553 310.103 739.129 309.034 741.029 307.135C742.928 305.235 743.997 302.659 744 299.972L748 216.24C747.997 213.553 746.928 210.977 745.029 209.077C743.129 207.178 740.553 206.109 737.866 206.106H684.134Z" fill="#3F3D56"/>
<path d="M813.89 239.646L739 269.466L733.35 271.716C733.17 271.786 732.99 271.846 732.8 271.906L713.87 277.476C711.45 278.186 708.1 274.926 706.14 272.676C705.17 271.592 704.62 270.196 704.59 268.741C704.561 267.286 705.054 265.869 705.98 264.746C706.242 264.444 706.529 264.167 706.84 263.916C707.57 263.348 708.429 262.97 709.34 262.816L728.25 259.096C728.928 258.963 729.58 258.72 730.18 258.376L739 253.236L784.79 226.576C786.064 225.836 787.033 224.668 787.526 223.279C788.018 221.891 788.002 220.373 787.48 218.996L778.74 195.946C778.204 194.536 778.2 192.978 778.728 191.565C779.256 190.152 780.281 188.979 781.61 188.266L796.09 180.506C796.917 180.062 797.835 179.811 798.773 179.773C799.711 179.735 800.646 179.91 801.507 180.286C802.368 180.661 803.132 181.227 803.742 181.941C804.352 182.654 804.793 183.497 805.03 184.406L817.6 232.286C817.987 233.754 817.823 235.313 817.139 236.669C816.456 238.025 815.3 239.083 813.89 239.646V239.646Z" fill="#FFB9B9"/>
<path d="M818.24 175.259C801.893 181.637 788.891 192.521 778.702 207.194L746.767 160.813L769.578 117.473L818.24 175.259Z" fill="#519FFF"/>
<path d="M730 85.5786C715.032 91.8047 699.337 91.5519 683 85.5786C687.754 77.4646 680.648 71.1097 677 62.9188L738 61.106C733.335 68.2217 726.452 76.6286 730 85.5786Z" fill="white"/>
<path d="M737.354 62.46L736.646 61.753L737.646 60.753L743.62 53.781L744.38 54.431L738.38 61.431L737.354 62.46Z" fill="white"/>
<path d="M672.82 58.2219L672.18 58.9905L678.18 63.9905L678.82 63.2219L672.82 58.2219Z" fill="white"/>
<path d="M739.077 68.339L728.575 84.8375L729.419 85.3746L739.921 68.8762L739.077 68.339Z" fill="white"/>
<path d="M673.922 68.3378L673.078 68.8748L683.578 85.3748L684.422 84.8378L673.922 68.3378Z" fill="white"/>
<path d="M741 251.821V269.938L734.693 272.45C734.492 272.528 734.291 272.595 734.079 272.662L712.949 278.879C710.248 279.671 706.508 276.033 704.32 273.521C703.237 272.311 702.624 270.752 702.591 269.128C702.558 267.504 703.108 265.922 704.142 264.669C704.434 264.333 704.755 264.023 705.102 263.743C705.916 263.109 706.875 262.687 707.892 262.515L729 258.363C729.758 258.214 730.485 257.942 731.155 257.559L741 251.821Z" fill="white"/>
<path d="M750.14 187.202H746.526C746.526 136.091 736.003 100.473 725.747 100.473L724.844 96.8594C734.041 96.8594 739.904 111.683 743.203 124.12C747.677 140.979 750.14 163.382 750.14 187.202Z" fill="#3F3D56"/>
<path d="M667.025 174.554H663.411C663.411 127.745 674.007 98.6663 689.61 98.6663L688.707 102.28C677.914 102.28 667.025 124.628 667.025 174.554Z" fill="#3F3D56"/>
<path d="M748.333 197.14C753.322 197.14 757.367 193.095 757.367 188.105C757.367 183.116 753.322 179.071 748.333 179.071C743.343 179.071 739.299 183.116 739.299 188.105C739.299 193.095 743.343 197.14 748.333 197.14Z" fill="#3F3D56"/>
<path d="M652.57 196.236H648.956C648.956 183.284 656.251 172.747 665.218 172.747V176.361C658.244 176.361 652.57 185.277 652.57 196.236Z" fill="#3F3D56"/>
<path d="M681.479 196.236H677.866C677.866 185.277 672.192 176.361 665.218 176.361V172.747C674.185 172.747 681.479 183.284 681.479 196.236Z" fill="#3F3D56"/>
<path d="M679.673 200.753C681.668 200.753 683.286 199.135 683.286 197.14C683.286 195.144 681.668 193.526 679.673 193.526C677.677 193.526 676.059 195.144 676.059 197.14C676.059 199.135 677.677 200.753 679.673 200.753Z" fill="#3F3D56"/>
<path d="M650.763 200.753C652.759 200.753 654.377 199.135 654.377 197.14C654.377 195.144 652.759 193.526 650.763 193.526C648.767 193.526 647.149 195.144 647.149 197.14C647.149 199.135 648.767 200.753 650.763 200.753Z" fill="#3F3D56"/>
<path d="M215.271 75.6974L151.805 86.445C150.237 86.7125 148.625 86.3889 147.282 85.5368C145.939 84.6847 144.96 83.3648 144.534 81.8324C139.949 65.2829 130.362 43.6935 139.67 32.8557C140.144 28.2963 142.359 24.0955 145.852 21.1276C149.346 18.1598 153.849 16.6537 158.426 16.9229C169.763 -0.82442 188.648 1.84023 201.411 12.9242C214.257 17.3566 219.1 25.2309 217.406 35.9167C222.956 40.7741 225.865 46.2454 226.478 52.2506C226.769 55.5924 226.344 58.9578 225.231 62.1222C224.118 65.2866 222.343 68.1773 220.025 70.6014L215.271 75.6974Z" fill="#2F2E41"/>
<path d="M205.403 125.662L156.203 122.768C161.025 111.701 162.951 101.045 161.026 90.9328H197.686C197.603 98.6966 201.466 112.127 205.403 125.662Z" fill="#9F616A"/>
<path d="M146.18 580.289L144.162 607.877C144.07 609.125 144.247 610.379 144.68 611.554C145.113 612.729 145.792 613.798 146.672 614.688C147.552 615.579 148.612 616.272 149.781 616.719C150.95 617.167 152.202 617.359 153.452 617.284L167.622 616.425C168.278 616.385 168.918 616.201 169.496 615.886C170.073 615.571 170.574 615.133 170.963 614.603C171.352 614.072 171.619 613.462 171.746 612.817C171.873 612.171 171.855 611.506 171.696 610.868L163.83 579.406L146.18 580.289Z" fill="#E6E6E6"/>
<path d="M192.055 579.406L184.189 610.868C184.03 611.506 184.013 612.171 184.139 612.817C184.266 613.462 184.533 614.072 184.922 614.602C185.311 615.133 185.812 615.571 186.39 615.886C186.967 616.201 187.607 616.385 188.263 616.425L202.433 617.284C203.683 617.359 204.935 617.167 206.104 616.719C207.273 616.272 208.334 615.579 209.213 614.688C210.093 613.798 210.772 612.729 211.205 611.554C211.638 610.379 211.815 609.125 211.724 607.877L209.706 580.289L192.055 579.406Z" fill="#E6E6E6"/>
<path d="M210.62 584.119L191.498 582.2L172.46 378.701L165.265 581.544L146.478 580.871L114.813 299.944H235.79L210.62 584.119Z" fill="#519FFF"/>
<path d="M180.323 102.644C200.502 102.644 216.86 86.2858 216.86 66.1071C216.86 45.9284 200.502 29.5704 180.323 29.5704C160.144 29.5704 143.786 45.9284 143.786 66.1071C143.786 86.2858 160.144 102.644 180.323 102.644Z" fill="#9F616A"/>
<path d="M221.502 48.653C206.673 46.0705 192.093 45.7159 177.92 48.9916C168.892 51.9471 158.05 51.6748 145.993 49.2396V24.6008L211.087 25.7741L221.502 48.653Z" fill="#2F2E41"/>
<path d="M204.639 95.4232C188.655 102.072 171.895 101.802 154.45 95.4232C159.526 86.7587 151.938 79.9727 148.043 71.2262L213.181 69.2904C208.2 76.8888 200.85 85.866 204.639 95.4232Z" fill="white"/>
<path d="M143.558 66.2365L142.917 67.0052L149.324 72.3441L149.965 71.5754L143.558 66.2365Z" fill="white"/>
<path d="M214.362 77.0314L203.147 94.6493L203.99 95.1864L215.206 77.5685L214.362 77.0314Z" fill="white"/>
<path d="M144.726 77.0307L143.882 77.5676L155.094 95.1872L155.938 94.6502L144.726 77.0307Z" fill="white"/>
<path d="M110.861 232.746L82.8845 215.381L106.744 145.502C109.405 138.291 114.502 132.237 121.153 128.386L129.191 123.733L129.89 194.228L110.861 232.746Z" fill="#519FFF"/>
<path d="M231.789 266.684L227.65 231.232C227.429 212.519 230.612 194.427 238.204 177.757L242.062 125.662L199.615 108.298C199.485 109.163 199.374 110.027 199.25 110.892L179.356 120.839L159.954 116.429L160.062 110.227L121.473 127.592C134.234 186.92 127.274 248.53 105.329 321.301L156.166 335.202L156.589 310.791L201.896 307.555C202.362 315.475 202.737 323.254 202.955 330.86C228.52 340.272 229.398 340.116 252.691 326.64C243.415 307.137 236.071 286.843 231.789 266.684Z" fill="#519FFF"/>
<path d="M297.051 224.063L271.004 215.381L229.34 166.878L242.062 125.663L299.945 206.699L297.051 224.063Z" fill="#519FFF"/>
<path d="M215.419 261.613C215.845 263.484 216.996 265.109 218.618 266.132C220.241 267.155 222.203 267.493 224.074 267.072L246.185 262.065L242.989 247.952L220.878 252.958C219.007 253.382 217.38 254.532 216.357 256.155C215.333 257.778 214.996 259.742 215.419 261.613V261.613Z" fill="#E6E6E6"/>
<path d="M235.31 245.287L247.851 268.44C268.945 262.557 287.227 244.009 304.769 222.134L299.945 206.699L270.039 214.416L235.31 245.287Z" fill="#519FFF"/>
<path d="M71.79 172.661L95.866 176.96L150.897 255.207L121.662 248.328L71.79 172.661Z" fill="#E6E6E6"/>
<path d="M67.5199 171.703C67.153 171.709 66.7943 171.813 66.4814 172.004C66.1685 172.196 65.9128 172.468 65.7411 172.792C65.5693 173.116 65.4879 173.481 65.5052 173.847C65.5226 174.214 65.6381 174.569 65.8396 174.876L117.279 252.922C117.566 253.358 118.009 253.668 118.518 253.787L142.451 259.418C142.855 259.513 143.277 259.483 143.664 259.332C144.05 259.181 144.381 258.917 144.613 258.573C144.845 258.23 144.967 257.824 144.964 257.409C144.96 256.995 144.83 256.591 144.592 256.252L88.1143 175.949C87.9611 175.73 87.7663 175.543 87.5411 175.4C87.3158 175.257 87.0645 175.159 86.8015 175.113L67.9057 171.738C67.7783 171.715 67.6493 171.703 67.5199 171.703Z" fill="#3F3D56"/>
<path d="M99.6079 227.505L101.038 241.905L123.597 239.666C125.507 239.477 127.263 238.536 128.479 237.052C129.695 235.568 130.272 233.661 130.083 231.751C129.893 229.842 128.953 228.086 127.469 226.87C125.984 225.653 124.078 225.076 122.168 225.266L99.6079 227.505Z" fill="#E6E6E6"/>
<path d="M79.991 225.837C80.0237 230.748 81.9958 235.446 85.4774 238.908C88.959 242.371 93.668 244.317 98.5782 244.322H102.288L104.988 221.817L82.6279 213.767L79.991 225.837Z" fill="#519FFF"/>
<path d="M211.399 71.78L210.692 71.073L211.76 70.005L218.141 62.558L218.9 63.208L212.493 70.683L211.399 71.78Z" fill="white"/>
<path d="M339 615.106H549V360.39C549 346.902 535.715 335.929 519.386 335.929H368.614C352.285 335.929 339 346.902 339 360.39V615.106Z" fill="#E6E6E6"/>
<path d="M355 604.573H533V388.67C533 377.238 521.739 367.937 507.898 367.937H380.102C366.26 367.937 355 377.238 355 388.67V604.573Z" fill="white"/>
<path d="M337.414 316.106C332.223 316.106 328 319.594 328 323.881V346.325C328 350.612 332.223 354.1 337.414 354.1H550.587C555.777 354.1 560 350.612 560 346.325V323.881C560 319.594 555.777 316.106 550.587 316.106H337.414Z" fill="#3F3D56"/>
<path d="M381.181 576.889C378.744 576.896 376.409 577.867 374.686 579.59C372.963 581.313 371.991 583.648 371.984 586.085V586.085C371.991 588.522 372.962 590.857 374.686 592.58C376.409 594.304 378.744 595.275 381.181 595.282H398.395V576.889H381.181Z" fill="#3F3D56"/>
<path d="M414.194 576.889H397.452V595.282H414.194C416.631 595.275 418.966 594.304 420.689 592.581C422.413 590.857 423.384 588.522 423.391 586.085V586.085C423.384 583.648 422.413 581.313 420.689 579.59C418.966 577.867 416.631 576.896 414.194 576.889V576.889Z" fill="#519FFF"/>
<path opacity="0.2" d="M420.195 579.141C421.646 580.804 422.446 582.935 422.448 585.142V585.142C422.441 587.579 421.469 589.914 419.746 591.637C418.023 593.36 415.688 594.332 413.251 594.339H397.452V595.282H414.194C416.631 595.275 418.966 594.304 420.689 592.58C422.413 590.857 423.384 588.522 423.391 586.085C423.389 584.766 423.102 583.463 422.551 582.265C421.999 581.066 421.196 580.001 420.195 579.141V579.141Z" fill="black"/>
<path d="M458.862 438.362C457.185 436.594 454.876 435.561 452.44 435.489C450.005 435.417 447.639 436.312 445.861 437.979V437.979C444.093 439.655 443.06 441.964 442.988 444.4C442.916 446.836 443.811 449.201 445.477 450.979L457.285 463.505L470.669 450.889L458.862 438.362Z" fill="#3F3D56"/>
<path d="M481.506 462.385L470.022 450.202L456.638 462.819L468.122 475.002C469.799 476.77 472.107 477.803 474.543 477.875C476.979 477.947 479.344 477.052 481.123 475.386V475.386C482.891 473.709 483.924 471.401 483.996 468.965C484.068 466.529 483.173 464.164 481.506 462.385V462.385Z" fill="#519FFF"/>
<path opacity="0.2" d="M483.984 468.297C483.769 470.493 482.766 472.537 481.162 474.052V474.052C479.384 475.719 477.019 476.614 474.583 476.542C472.147 476.47 469.838 475.437 468.162 473.669L457.324 462.172L456.638 462.819L468.122 475.002C469.799 476.77 472.107 477.803 474.543 477.875C476.979 477.947 479.344 477.052 481.123 475.386C482.081 474.479 482.833 473.377 483.327 472.154C483.82 470.93 484.045 469.615 483.984 468.297V468.297Z" fill="black"/>
<path d="M409.862 467.362C408.185 465.594 405.876 464.561 403.44 464.489C401.005 464.417 398.639 465.312 396.861 466.979V466.979C395.093 468.655 394.06 470.964 393.988 473.4C393.916 475.836 394.811 478.201 396.477 479.979L408.285 492.505L421.669 479.889L409.862 467.362Z" fill="#3F3D56"/>
<path d="M432.506 491.385L421.022 479.202L407.638 491.819L419.122 504.002C420.799 505.77 423.107 506.803 425.543 506.875C427.979 506.947 430.344 506.052 432.123 504.386V504.386C433.891 502.709 434.924 500.401 434.996 497.965C435.068 495.529 434.173 493.164 432.506 491.385V491.385Z" fill="#519FFF"/>
<path opacity="0.2" d="M434.984 497.297C434.769 499.493 433.766 501.537 432.162 503.052V503.052C430.384 504.719 428.019 505.614 425.583 505.542C423.147 505.47 420.838 504.437 419.162 502.669L408.324 491.172L407.638 491.819L419.122 504.002C420.799 505.77 423.107 506.803 425.543 506.875C427.979 506.947 430.344 506.052 432.123 504.386V504.386C433.081 503.479 433.833 502.377 434.327 501.154C434.82 499.93 435.045 498.615 434.984 497.297Z" fill="black"/>
<path d="M458.862 494.362C457.185 492.594 454.876 491.561 452.44 491.489C450.005 491.417 447.639 492.312 445.861 493.979V493.979C444.093 495.655 443.06 497.964 442.988 500.4C442.916 502.836 443.811 505.201 445.477 506.979L457.285 519.505L470.669 506.889L458.862 494.362Z" fill="#3F3D56"/>
<path d="M481.506 518.385L470.022 506.202L456.638 518.819L468.122 531.002C469.799 532.77 472.107 533.803 474.543 533.875C476.979 533.947 479.344 533.052 481.123 531.386V531.386C482.891 529.709 483.924 527.401 483.996 524.965C484.068 522.529 483.173 520.164 481.506 518.385V518.385Z" fill="#519FFF"/>
<path opacity="0.2" d="M483.984 524.297C483.769 526.493 482.766 528.537 481.162 530.052C479.384 531.719 477.019 532.614 474.583 532.542C472.147 532.47 469.838 531.437 468.162 529.669L457.324 518.172L456.638 518.819L468.122 531.002C469.799 532.77 472.107 533.803 474.543 533.875C476.979 533.947 479.344 533.052 481.123 531.386V531.386C482.081 530.479 482.833 529.377 483.327 528.154C483.82 526.93 484.045 525.615 483.984 524.297V524.297Z" fill="black"/>
<path d="M488.754 551.83C490.502 550.131 491.507 547.811 491.549 545.374C491.591 542.938 490.668 540.583 488.98 538.825V538.825C487.282 537.078 484.961 536.073 482.524 536.031C480.088 535.988 477.734 536.912 475.976 538.6L463.594 550.559L476.372 563.789L488.754 551.83Z" fill="#3F3D56"/>
<path d="M465.008 574.765L477.051 563.133L464.272 549.904L452.23 561.535C450.482 563.233 449.477 565.554 449.435 567.991C449.392 570.427 450.316 572.781 452.004 574.539V574.539C453.702 576.287 456.023 577.292 458.459 577.334C460.896 577.376 463.25 576.453 465.008 574.765V574.765Z" fill="#519FFF"/>
<path opacity="0.2" d="M459.127 577.314C456.928 577.125 454.872 576.148 453.338 574.562V574.562C451.65 572.805 450.726 570.45 450.768 568.014C450.811 565.577 451.816 563.256 453.564 561.558L464.928 550.582L464.272 549.904L452.23 561.535C450.482 563.233 449.477 565.554 449.435 567.991C449.392 570.427 450.316 572.781 452.004 574.539V574.539C452.922 575.486 454.033 576.225 455.263 576.704C456.492 577.182 457.81 577.391 459.127 577.314Z" fill="black"/>
<path d="M422.754 522.83C424.502 521.131 425.507 518.811 425.549 516.374C425.591 513.938 424.668 511.583 422.98 509.825C421.282 508.078 418.961 507.073 416.524 507.03C414.088 506.988 411.733 507.912 409.976 509.6L397.594 521.559L410.372 534.789L422.754 522.83Z" fill="#3F3D56"/>
<path d="M399.008 545.765L411.051 534.133L398.272 520.904L386.23 532.535C384.482 534.233 383.477 536.554 383.435 538.991C383.392 541.427 384.316 543.781 386.004 545.539V545.539C387.702 547.287 390.023 548.292 392.459 548.334C394.896 548.376 397.25 547.453 399.008 545.765V545.765Z" fill="#519FFF"/>
<path opacity="0.2" d="M393.127 548.314C390.928 548.125 388.872 547.148 387.338 545.562C385.65 543.805 384.726 541.45 384.768 539.014C384.811 536.577 385.816 534.256 387.564 532.558L398.928 521.582L398.272 520.904L386.23 532.535C384.482 534.233 383.477 536.554 383.435 538.991C383.392 541.427 384.316 543.781 386.004 545.539V545.539C386.922 546.486 388.033 547.225 389.263 547.704C390.492 548.182 391.81 548.391 393.127 548.314V548.314Z" fill="black"/>
<path d="M516.754 487.83C518.502 486.131 519.507 483.811 519.549 481.374C519.591 478.938 518.668 476.583 516.98 474.825V474.825C515.282 473.078 512.961 472.073 510.524 472.03C508.088 471.988 505.734 472.912 503.976 474.6L491.594 486.559L504.372 499.789L516.754 487.83Z" fill="#3F3D56"/>
<path d="M493.008 510.765L505.051 499.133L492.272 485.904L480.23 497.535C478.482 499.233 477.477 501.554 477.435 503.991C477.392 506.427 478.316 508.781 480.004 510.539V510.539C481.702 512.287 484.023 513.292 486.459 513.334C488.896 513.376 491.25 512.453 493.008 510.765Z" fill="#519FFF"/>
<path opacity="0.2" d="M487.127 513.314C484.928 513.125 482.872 512.148 481.338 510.562V510.562C479.65 508.805 478.726 506.45 478.768 504.014C478.811 501.577 479.816 499.256 481.564 497.558L492.928 486.582L492.272 485.904L480.23 497.535C478.482 499.233 477.477 501.554 477.435 503.991C477.392 506.427 478.316 508.781 480.004 510.539V510.539C480.922 511.486 482.033 512.225 483.263 512.704C484.492 513.182 485.81 513.391 487.127 513.314Z" fill="black"/>
<path d="M495.861 560.363C494.185 558.594 491.876 557.561 489.44 557.489C487.005 557.417 484.639 558.312 482.861 559.979V559.979C481.093 561.655 480.06 563.964 479.988 566.4C479.916 568.836 480.811 571.201 482.477 572.979L494.285 585.505L507.669 572.889L495.861 560.363Z" fill="#3F3D56"/>
<path d="M518.506 584.385L507.022 572.202L493.638 584.819L505.122 597.002C506.799 598.77 509.107 599.803 511.543 599.875C513.979 599.947 516.344 599.052 518.123 597.386V597.386C519.891 595.709 520.924 593.401 520.996 590.965C521.068 588.529 520.173 586.164 518.506 584.385Z" fill="#519FFF"/>
<path opacity="0.2" d="M520.984 590.297C520.769 592.493 519.766 594.537 518.162 596.052V596.052C516.384 597.719 514.019 598.614 511.583 598.542C509.147 598.47 506.838 597.437 505.162 595.669L494.324 584.172L493.638 584.819L505.122 597.002C506.799 598.77 509.107 599.803 511.543 599.875C513.979 599.947 516.344 599.052 518.123 597.386V597.386C519.081 596.479 519.833 595.377 520.327 594.154C520.82 592.93 521.045 591.615 520.984 590.297V590.297Z" fill="black"/>
<path d="M430.862 559.363C429.185 557.594 426.876 556.561 424.44 556.489C422.005 556.417 419.639 557.312 417.861 558.979V558.979C416.093 560.655 415.06 562.964 414.988 565.4C414.916 567.836 415.811 570.201 417.477 571.979L429.285 584.505L442.669 571.889L430.862 559.363Z" fill="#3F3D56"/>
<path d="M453.506 583.385L442.022 571.202L428.638 583.819L440.122 596.002C441.799 597.77 444.107 598.803 446.543 598.875C448.979 598.947 451.344 598.052 453.123 596.386V596.386C454.891 594.709 455.924 592.401 455.996 589.965C456.068 587.529 455.173 585.164 453.506 583.385V583.385Z" fill="#519FFF"/>
<path opacity="0.2" d="M455.984 589.297C455.769 591.493 454.766 593.537 453.162 595.052V595.052C451.384 596.719 449.019 597.614 446.583 597.542C444.147 597.47 441.838 596.437 440.162 594.669L429.324 583.172L428.638 583.819L440.122 596.002C441.799 597.77 444.107 598.803 446.543 598.875C448.979 598.947 451.344 598.052 453.123 596.386V596.386C454.081 595.479 454.833 594.377 455.327 593.154C455.82 591.93 456.045 590.615 455.984 589.297Z" fill="black"/>
<path d="M449.158 526.369C449.159 529.427 448.103 532.391 446.169 534.759C444.236 537.128 441.543 538.756 438.547 539.367C436.797 539.721 434.993 539.721 433.242 539.367C430.247 538.755 427.554 537.127 425.621 534.759C423.688 532.39 422.632 529.427 422.632 526.369C422.632 523.312 423.688 520.348 425.621 517.98C427.554 515.611 430.247 513.983 433.242 513.371C434.993 513.018 436.797 513.018 438.547 513.371C441.543 513.983 444.236 515.611 446.169 517.979C448.103 520.348 449.159 523.312 449.158 526.369V526.369Z" fill="#519FFF"/>
<path opacity="0.2" d="M438.547 513.371V539.367C436.797 539.721 434.993 539.721 433.242 539.367V513.371C434.993 513.018 436.797 513.018 438.547 513.371Z" fill="black"/>
<path d="M455.158 473.369C455.159 476.427 454.103 479.391 452.169 481.759C450.236 484.128 447.543 485.755 444.547 486.367C442.797 486.721 440.993 486.721 439.242 486.367C436.247 485.755 433.554 484.127 431.621 481.758C429.688 479.39 428.632 476.426 428.632 473.369C428.632 470.312 429.688 467.348 431.621 464.98C433.554 462.611 436.247 460.983 439.242 460.371C440.993 460.018 442.797 460.018 444.547 460.371C447.543 460.983 450.236 462.611 452.169 464.979C454.103 467.348 455.159 470.312 455.158 473.369V473.369Z" fill="#519FFF"/>
<path opacity="0.2" d="M444.547 460.371V486.367C442.797 486.721 440.993 486.721 439.242 486.367V460.371C440.993 460.018 442.797 460.018 444.547 460.371Z" fill="black"/>
<path d="M455.158 549.369C455.159 552.427 454.103 555.391 452.169 557.759C450.236 560.128 447.543 561.756 444.547 562.367C442.797 562.721 440.993 562.721 439.242 562.367C436.247 561.755 433.554 560.127 431.621 557.759C429.688 555.39 428.632 552.427 428.632 549.369C428.632 546.312 429.688 543.348 431.621 540.98C433.554 538.611 436.247 536.983 439.242 536.371C440.993 536.018 442.797 536.018 444.547 536.371C447.543 536.983 450.236 538.611 452.169 540.979C454.103 543.348 455.159 546.312 455.158 549.369V549.369Z" fill="#519FFF"/>
<path opacity="0.2" d="M444.547 536.371V562.367C442.797 562.721 440.993 562.721 439.242 562.367V536.371C440.993 536.018 442.797 536.018 444.547 536.371Z" fill="black"/>
<path d="M488.158 586.369C488.159 589.427 487.103 592.391 485.169 594.759C483.236 597.128 480.543 598.756 477.547 599.367C475.797 599.721 473.993 599.721 472.242 599.367C469.247 598.755 466.554 597.127 464.621 594.759C462.688 592.39 461.632 589.427 461.632 586.369C461.632 583.312 462.688 580.348 464.621 577.98C466.554 575.611 469.247 573.983 472.242 573.371C473.993 573.018 475.797 573.018 477.547 573.371C480.543 573.983 483.236 575.611 485.169 577.979C487.103 580.348 488.159 583.312 488.158 586.369V586.369Z" fill="#519FFF"/>
<path opacity="0.2" d="M477.547 573.371V599.367C475.797 599.721 473.993 599.721 472.242 599.367V573.371C473.993 573.018 475.797 573.018 477.547 573.371Z" fill="black"/>
<path d="M517.31 518.293C519.512 520.415 520.913 523.232 521.276 526.268C521.64 529.304 520.943 532.372 519.305 534.953C518.344 536.459 517.093 537.758 515.623 538.773C513.103 540.505 510.063 541.314 507.016 541.062C503.969 540.81 501.102 539.514 498.901 537.392C496.7 535.271 495.299 532.454 494.935 529.418C494.572 526.382 495.268 523.314 496.906 520.733C497.866 519.227 499.118 517.928 500.588 516.913C503.107 515.18 506.148 514.371 509.195 514.623C512.242 514.874 515.109 516.171 517.31 518.293V518.293Z" fill="#519FFF"/>
<path opacity="0.2" d="M500.588 516.913L519.305 534.953C518.344 536.459 517.093 537.758 515.623 538.773L496.906 520.733C497.866 519.227 499.118 517.928 500.588 516.913V516.913Z" fill="black"/>
<path d="M521.31 547.293C523.512 549.415 524.913 552.232 525.276 555.268C525.64 558.304 524.943 561.372 523.305 563.953C522.344 565.459 521.093 566.758 519.623 567.773C517.103 569.505 514.063 570.314 511.016 570.062C507.969 569.81 505.102 568.514 502.901 566.392C500.7 564.271 499.299 561.454 498.935 558.418C498.572 555.382 499.268 552.314 500.906 549.733C501.866 548.227 503.118 546.928 504.588 545.913C507.107 544.18 510.148 543.371 513.195 543.623C516.242 543.874 519.109 545.171 521.31 547.293V547.293Z" fill="#519FFF"/>
<path opacity="0.2" d="M504.588 545.913L523.305 563.953C522.344 565.459 521.093 566.758 519.623 567.773L500.906 549.733C501.866 548.227 503.118 546.928 504.588 545.913V545.913Z" fill="black"/>
<path d="M402.31 554.293C404.512 556.415 405.913 559.232 406.276 562.268C406.64 565.304 405.943 568.372 404.305 570.953C403.344 572.459 402.093 573.758 400.623 574.773C398.103 576.505 395.063 577.314 392.016 577.062C388.969 576.81 386.102 575.514 383.901 573.392C381.7 571.271 380.299 568.454 379.935 565.418C379.572 562.382 380.268 559.314 381.906 556.733C382.866 555.227 384.118 553.928 385.588 552.913C388.107 551.18 391.148 550.371 394.195 550.623C397.242 550.874 400.109 552.171 402.31 554.293V554.293Z" fill="#519FFF"/>
<path opacity="0.2" d="M385.588 552.913L404.305 570.953C403.344 572.459 402.092 573.758 400.623 574.773L381.906 556.733C382.866 555.227 384.118 553.928 385.588 552.913V552.913Z" fill="black"/>
<path opacity="0.2" d="M359.5 316.106H354.5V353.106H359.5V316.106Z" fill="black"/>
<path opacity="0.2" d="M388.5 316.106H383.5V353.106H388.5V316.106Z" fill="black"/>
<path opacity="0.2" d="M417.5 316.106H412.5V353.106H417.5V316.106Z" fill="black"/>
<path opacity="0.2" d="M446.5 316.106H441.5V353.106H446.5V316.106Z" fill="black"/>
<path opacity="0.2" d="M475.5 316.106H470.5V353.106H475.5V316.106Z" fill="black"/>
<path opacity="0.2" d="M504.5 316.106H499.5V353.106H504.5V316.106Z" fill="black"/>
<path opacity="0.2" d="M533.5 316.106H528.5V353.106H533.5V316.106Z" fill="black"/>
<path d="M149.224 697.232L146.776 717.968H164.776V736.544H144.472L141.736 758H122.152L124.888 736.544H107.176L104.44 758H84.856L87.592 736.544H69.448V717.968H89.896L92.344 697.232H74.2V678.656H94.648L97.384 657.2H116.968L114.232 678.656H131.944L134.68 657.2H154.264L151.528 678.656H169.672V697.232H149.224ZM129.64 697.232H111.928L109.48 717.968H127.192L129.64 697.232ZM232.524 760.016C221.964 760.016 212.46 757.808 204.012 753.392C195.66 748.88 189.084 742.64 184.284 734.672C179.484 726.704 177.084 717.68 177.084 707.6C177.084 697.52 179.484 688.496 184.284 680.528C189.084 672.56 195.66 666.368 204.012 661.952C212.46 657.44 221.964 655.184 232.524 655.184C241.74 655.184 250.044 656.816 257.436 660.08C264.828 663.344 270.972 668.048 275.868 674.192L257.724 690.608C251.196 682.736 243.276 678.8 233.964 678.8C228.492 678.8 223.596 680 219.276 682.4C215.052 684.8 211.74 688.208 209.34 692.624C207.036 696.944 205.884 701.936 205.884 707.6C205.884 713.264 207.036 718.304 209.34 722.72C211.74 727.04 215.052 730.4 219.276 732.8C223.596 735.2 228.492 736.4 233.964 736.4C243.276 736.4 251.196 732.464 257.724 724.592L275.868 741.008C270.972 747.152 264.828 751.856 257.436 755.12C250.044 758.384 241.74 760.016 232.524 760.016ZM337.303 760.016C326.647 760.016 317.047 757.76 308.503 753.248C300.055 748.736 293.383 742.496 288.487 734.528C283.687 726.56 281.287 717.584 281.287 707.6C281.287 697.616 283.687 688.64 288.487 680.672C293.383 672.704 300.055 666.464 308.503 661.952C317.047 657.44 326.647 655.184 337.303 655.184C347.959 655.184 357.511 657.44 365.959 661.952C374.503 666.464 381.175 672.704 385.975 680.672C390.871 688.64 393.319 697.616 393.319 707.6C393.319 717.584 390.871 726.56 385.975 734.528C381.175 742.496 374.503 748.736 365.959 753.248C357.511 757.76 347.959 760.016 337.303 760.016ZM337.303 736.4C342.391 736.4 346.999 735.2 351.127 732.8C355.255 730.4 358.519 727.04 360.919 722.72C363.319 718.304 364.519 713.264 364.519 707.6C364.519 701.936 363.319 696.944 360.919 692.624C358.519 688.208 355.255 684.8 351.127 682.4C346.999 680 342.391 678.8 337.303 678.8C332.215 678.8 327.607 680 323.479 682.4C319.351 684.8 316.087 688.208 313.687 692.624C311.287 696.944 310.087 701.936 310.087 707.6C310.087 713.264 311.287 718.304 313.687 722.72C316.087 727.04 319.351 730.4 323.479 732.8C327.607 735.2 332.215 736.4 337.303 736.4ZM506.976 657.2L463.776 758H435.696L392.64 657.2H423.456L450.816 722.864L478.752 657.2H506.976ZM512.877 657.2H541.389V758H512.877V657.2ZM561.674 657.2H609.338C620.378 657.2 630.17 659.264 638.714 663.392C647.258 667.52 653.882 673.376 658.586 680.96C663.29 688.544 665.642 697.424 665.642 707.6C665.642 717.776 663.29 726.656 658.586 734.24C653.882 741.824 647.258 747.68 638.714 751.808C630.17 755.936 620.378 758 609.338 758H561.674V657.2ZM608.186 735.248C616.826 735.248 623.738 732.8 628.922 727.904C634.202 723.008 636.842 716.24 636.842 707.6C636.842 698.96 634.202 692.192 628.922 687.296C623.738 682.4 616.826 679.952 608.186 679.952H590.186V735.248H608.186ZM717.252 657.2V758H688.74V679.232H670.02V657.2H717.252ZM769.276 655.184C783.772 655.184 795.196 659.456 803.548 668C811.9 676.544 816.076 688.832 816.076 704.864C816.076 716.384 813.82 726.32 809.308 734.672C804.892 742.928 798.604 749.216 790.444 753.536C782.38 757.856 773.02 760.016 762.364 760.016C756.7 760.016 751.276 759.344 746.092 758C740.908 756.752 736.492 754.976 732.844 752.672L743.212 732.224C748.108 735.68 754.3 737.408 761.788 737.408C768.988 737.408 774.796 735.44 779.212 731.504C783.724 727.472 786.364 721.664 787.132 714.08C781.372 718.976 773.836 721.424 764.524 721.424C758.188 721.424 752.38 720.128 747.1 717.536C741.82 714.848 737.596 711.104 734.428 706.304C731.356 701.408 729.82 695.84 729.82 689.6C729.82 682.784 731.548 676.784 735.004 671.6C738.556 666.32 743.308 662.288 749.26 659.504C755.308 656.624 761.98 655.184 769.276 655.184ZM771.292 700.976C775.42 700.976 778.78 699.824 781.372 697.52C783.964 695.12 785.26 692 785.26 688.16C785.26 684.416 783.964 681.392 781.372 679.088C778.876 676.688 775.468 675.488 771.148 675.488C767.116 675.488 763.804 676.64 761.212 678.944C758.716 681.248 757.468 684.368 757.468 688.304C757.468 692.144 758.716 695.216 761.212 697.52C763.804 699.824 767.164 700.976 771.292 700.976Z" fill="#3F3D56"/>
<defs>
<filter id="filter0_f" x="213" y="46" width="462" height="462" filterUnits="userSpaceOnUse" color-interpolation-filters="sRGB">
<feFlood flood-opacity="0" result="BackgroundImageFix"/>
<feBlend mode="normal" in="SourceGraphic" in2="BackgroundImageFix" result="shape"/>
<feGaussianBlur stdDeviation="15" result="effect1_foregroundBlur"/>
</filter>
<linearGradient id="paint0_linear" x1="645" y1="27.2728" x2="215.591" y2="541.955" gradientUnits="userSpaceOnUse">
<stop stop-color="#2C343D"/>
<stop offset="1" stop-color="#2C343D"/>
</linearGradient>
<linearGradient id="paint1_linear" x1="645" y1="27.2728" x2="215.591" y2="541.955" gradientUnits="userSpaceOnUse">
<stop stop-color="#FF3B00"/>
<stop offset="0.9999" stop-color="#DB3200"/>
<stop offset="1" stop-color="#3ABAB4"/>
</linearGradient>
</defs>
</svg>
